M48
;GenerationSoftware,Autodesk,EAGLE,9.3.0*%
;CreationDate,2019-10-03T12:30:11Z*%
FMAT,2
ICI,OFF
METRIC,TZ,000.000
T2C0.400
T1C1.100
%
G90
M71
T1
X1651Y1397
X4191Y1397
X6731Y1397
X9271Y1397
X11811Y1397
X14351Y1397
X16891Y1397
X19431Y1397
X21971Y1397
X24511Y1397
T2
X12827Y27051
X8128Y25781
X9779Y27051
X10541Y30861
X11303Y27051
X8890Y25019
X11176Y25654
X10541Y33020
X19431Y3429
X16891Y3429
M30