G04 EAGLE Gerber RS-274X export*
G75*
%MOMM*%
%FSLAX34Y34*%
%LPD*%
%INBottom Copper*%
%IPPOS*%
%AMOC8*
5,1,8,0,0,1.08239X$1,22.5*%
G01*
%ADD10C,2.000000*%
%ADD11C,1.650000*%
%ADD12R,3.000000X1.000000*%
%ADD13C,0.787400*%
%ADD14C,0.381000*%
%ADD15C,0.965200*%
%ADD16C,1.016000*%
%ADD17C,0.558800*%
%ADD18C,0.254000*%

G36*
X419165Y1917D02*
X419165Y1917D01*
X419231Y1919D01*
X419274Y1937D01*
X419321Y1945D01*
X419378Y1979D01*
X419438Y2004D01*
X419473Y2035D01*
X419514Y2060D01*
X419556Y2111D01*
X419604Y2155D01*
X419626Y2197D01*
X419655Y2234D01*
X419676Y2296D01*
X419707Y2355D01*
X419715Y2409D01*
X419727Y2446D01*
X419726Y2486D01*
X419734Y2540D01*
X419734Y218440D01*
X419723Y218505D01*
X419721Y218571D01*
X419703Y218614D01*
X419695Y218661D01*
X419661Y218718D01*
X419636Y218778D01*
X419605Y218813D01*
X419580Y218854D01*
X419529Y218896D01*
X419485Y218944D01*
X419443Y218966D01*
X419406Y218995D01*
X419344Y219016D01*
X419285Y219047D01*
X419231Y219055D01*
X419194Y219067D01*
X419154Y219066D01*
X419100Y219074D01*
X20320Y219074D01*
X20298Y219070D01*
X20270Y219072D01*
X17489Y218853D01*
X17449Y218843D01*
X17391Y218838D01*
X14678Y218187D01*
X14640Y218170D01*
X14583Y218156D01*
X12005Y217088D01*
X11971Y217066D01*
X11917Y217043D01*
X9538Y215585D01*
X9507Y215558D01*
X9457Y215527D01*
X9419Y215494D01*
X8677Y214860D01*
X7336Y213715D01*
X7310Y213683D01*
X7265Y213644D01*
X5453Y211523D01*
X5433Y211487D01*
X5395Y211442D01*
X3937Y209063D01*
X3922Y209025D01*
X3892Y208975D01*
X2824Y206397D01*
X2815Y206357D01*
X2794Y206302D01*
X2142Y203589D01*
X2140Y203548D01*
X2127Y203491D01*
X1908Y200710D01*
X1910Y200688D01*
X1906Y200660D01*
X1906Y20320D01*
X1910Y20298D01*
X1908Y20270D01*
X2127Y17489D01*
X2137Y17449D01*
X2142Y17391D01*
X2794Y14678D01*
X2810Y14640D01*
X2824Y14583D01*
X3892Y12005D01*
X3914Y11971D01*
X3937Y11917D01*
X5395Y9538D01*
X5422Y9507D01*
X5453Y9457D01*
X7265Y7336D01*
X7297Y7310D01*
X7336Y7265D01*
X9457Y5453D01*
X9493Y5433D01*
X9538Y5395D01*
X11917Y3937D01*
X11955Y3922D01*
X12005Y3892D01*
X14583Y2824D01*
X14623Y2815D01*
X14678Y2794D01*
X17391Y2142D01*
X17432Y2140D01*
X17489Y2127D01*
X20270Y1908D01*
X20292Y1910D01*
X20320Y1906D01*
X419100Y1906D01*
X419165Y1917D01*
G37*
%LPC*%
G36*
X29255Y97949D02*
X29255Y97949D01*
X24646Y99859D01*
X21119Y103386D01*
X19209Y107995D01*
X19209Y112985D01*
X21119Y117594D01*
X24646Y121121D01*
X29284Y123043D01*
X29341Y123044D01*
X29384Y123062D01*
X29431Y123070D01*
X29488Y123104D01*
X29548Y123129D01*
X29583Y123160D01*
X29624Y123185D01*
X29666Y123236D01*
X29714Y123280D01*
X29736Y123322D01*
X29765Y123359D01*
X29786Y123421D01*
X29817Y123480D01*
X29825Y123534D01*
X29837Y123571D01*
X29837Y123587D01*
X29837Y123588D01*
X29837Y123613D01*
X29844Y123665D01*
X29844Y165672D01*
X32634Y168461D01*
X32634Y168462D01*
X37278Y173106D01*
X37279Y173106D01*
X40068Y175896D01*
X67412Y175896D01*
X67454Y175903D01*
X67496Y175901D01*
X67563Y175923D01*
X67633Y175935D01*
X67670Y175957D01*
X67710Y175970D01*
X67783Y176024D01*
X67826Y176050D01*
X67839Y176066D01*
X67861Y176082D01*
X68721Y176942D01*
X71101Y177928D01*
X72318Y177928D01*
X72360Y177935D01*
X72402Y177933D01*
X72469Y177955D01*
X72539Y177967D01*
X72575Y177989D01*
X72616Y178002D01*
X72688Y178056D01*
X72732Y178082D01*
X72745Y178098D01*
X72766Y178114D01*
X85280Y190628D01*
X199798Y190628D01*
X199886Y190643D01*
X199974Y190653D01*
X199995Y190663D01*
X200019Y190667D01*
X200095Y190713D01*
X200175Y190752D01*
X200192Y190769D01*
X200212Y190782D01*
X200268Y190851D01*
X200329Y190915D01*
X200338Y190937D01*
X200353Y190956D01*
X200382Y191040D01*
X200417Y191122D01*
X200418Y191146D01*
X200425Y191168D01*
X200423Y191257D01*
X200427Y191346D01*
X200419Y191369D01*
X200419Y191393D01*
X200385Y191475D01*
X200358Y191560D01*
X200342Y191581D01*
X200334Y191600D01*
X200300Y191638D01*
X200246Y191710D01*
X199889Y192068D01*
X199889Y204172D01*
X201378Y205661D01*
X233482Y205661D01*
X234971Y204172D01*
X234971Y192068D01*
X233482Y190579D01*
X222510Y190579D01*
X222445Y190568D01*
X222379Y190566D01*
X222336Y190548D01*
X222289Y190540D01*
X222232Y190506D01*
X222172Y190481D01*
X222137Y190450D01*
X222096Y190425D01*
X222054Y190374D01*
X222006Y190330D01*
X221984Y190288D01*
X221955Y190251D01*
X221934Y190189D01*
X221903Y190130D01*
X221895Y190076D01*
X221883Y190039D01*
X221884Y189999D01*
X221876Y189945D01*
X221876Y188918D01*
X214694Y181736D01*
X210982Y181736D01*
X210895Y181720D01*
X210806Y181711D01*
X210785Y181701D01*
X210762Y181697D01*
X210685Y181651D01*
X210605Y181612D01*
X210589Y181595D01*
X210568Y181582D01*
X210512Y181513D01*
X210451Y181449D01*
X210442Y181427D01*
X210427Y181408D01*
X210399Y181324D01*
X210364Y181242D01*
X210363Y181218D01*
X210355Y181196D01*
X210358Y181107D01*
X210354Y181018D01*
X210361Y180995D01*
X210362Y180971D01*
X210395Y180889D01*
X210422Y180804D01*
X210438Y180783D01*
X210446Y180764D01*
X210480Y180726D01*
X210534Y180654D01*
X213836Y177351D01*
X213871Y177327D01*
X213900Y177296D01*
X213962Y177264D01*
X214020Y177223D01*
X214061Y177213D01*
X214099Y177193D01*
X214189Y177180D01*
X214238Y177167D01*
X214258Y177170D01*
X214285Y177166D01*
X306506Y177166D01*
X306548Y177173D01*
X306590Y177171D01*
X306657Y177193D01*
X306727Y177205D01*
X306763Y177227D01*
X306804Y177240D01*
X306876Y177294D01*
X306920Y177320D01*
X306933Y177336D01*
X306954Y177352D01*
X308798Y179196D01*
X308823Y179231D01*
X308854Y179259D01*
X308886Y179322D01*
X308927Y179380D01*
X308937Y179421D01*
X308957Y179459D01*
X308970Y179548D01*
X308983Y179597D01*
X308980Y179618D01*
X308984Y179644D01*
X308984Y189945D01*
X308973Y190010D01*
X308971Y190076D01*
X308953Y190119D01*
X308945Y190166D01*
X308911Y190223D01*
X308886Y190283D01*
X308855Y190318D01*
X308830Y190359D01*
X308779Y190401D01*
X308735Y190449D01*
X308693Y190471D01*
X308656Y190500D01*
X308594Y190521D01*
X308535Y190552D01*
X308481Y190560D01*
X308444Y190572D01*
X308404Y190571D01*
X308350Y190579D01*
X297378Y190579D01*
X295889Y192068D01*
X295889Y204172D01*
X297378Y205661D01*
X329482Y205661D01*
X330971Y204172D01*
X330971Y192068D01*
X329482Y190579D01*
X318510Y190579D01*
X318445Y190568D01*
X318379Y190566D01*
X318336Y190548D01*
X318289Y190540D01*
X318232Y190506D01*
X318172Y190481D01*
X318137Y190450D01*
X318096Y190425D01*
X318054Y190374D01*
X318006Y190330D01*
X317984Y190288D01*
X317955Y190251D01*
X317934Y190189D01*
X317903Y190130D01*
X317895Y190076D01*
X317883Y190039D01*
X317884Y189999D01*
X317876Y189945D01*
X317876Y175698D01*
X314076Y171898D01*
X314025Y171825D01*
X313969Y171756D01*
X313961Y171734D01*
X313948Y171714D01*
X313925Y171628D01*
X313897Y171544D01*
X313898Y171520D01*
X313892Y171497D01*
X313901Y171408D01*
X313903Y171319D01*
X313912Y171297D01*
X313915Y171274D01*
X313954Y171194D01*
X313988Y171112D01*
X314004Y171094D01*
X314014Y171073D01*
X314079Y171012D01*
X314139Y170946D01*
X314160Y170935D01*
X314178Y170919D01*
X314259Y170884D01*
X314339Y170843D01*
X314365Y170840D01*
X314384Y170831D01*
X314435Y170829D01*
X314524Y170816D01*
X354034Y170816D01*
X354087Y170825D01*
X354142Y170825D01*
X354197Y170845D01*
X354255Y170855D01*
X354302Y170883D01*
X354353Y170901D01*
X354397Y170940D01*
X354448Y170970D01*
X354482Y171012D01*
X354524Y171047D01*
X354560Y171108D01*
X354590Y171144D01*
X354599Y171173D01*
X354620Y171207D01*
X355188Y172579D01*
X357011Y174402D01*
X359391Y175388D01*
X361969Y175388D01*
X364349Y174402D01*
X366172Y172579D01*
X367158Y170199D01*
X367158Y167621D01*
X366214Y165343D01*
X366197Y165267D01*
X366173Y165194D01*
X366174Y165158D01*
X366166Y165123D01*
X366177Y165047D01*
X366179Y164969D01*
X366192Y164937D01*
X366197Y164901D01*
X366234Y164833D01*
X366263Y164762D01*
X366287Y164735D01*
X366304Y164704D01*
X366363Y164653D01*
X366415Y164596D01*
X366446Y164580D01*
X366473Y164556D01*
X366545Y164529D01*
X366614Y164493D01*
X366654Y164487D01*
X366683Y164477D01*
X366729Y164476D01*
X366800Y164466D01*
X370006Y164466D01*
X370048Y164473D01*
X370090Y164471D01*
X370157Y164493D01*
X370227Y164505D01*
X370263Y164527D01*
X370304Y164540D01*
X370376Y164594D01*
X370420Y164620D01*
X370433Y164636D01*
X370454Y164652D01*
X374336Y168534D01*
X374361Y168569D01*
X374392Y168597D01*
X374424Y168660D01*
X374465Y168718D01*
X374475Y168759D01*
X374495Y168797D01*
X374508Y168886D01*
X374521Y168935D01*
X374518Y168956D01*
X374522Y168982D01*
X374522Y170199D01*
X375508Y172579D01*
X377331Y174402D01*
X379711Y175388D01*
X382289Y175388D01*
X384669Y174402D01*
X386492Y172579D01*
X387478Y170199D01*
X387478Y167621D01*
X386492Y165241D01*
X384669Y163418D01*
X382289Y162432D01*
X381072Y162432D01*
X381030Y162425D01*
X380988Y162427D01*
X380921Y162405D01*
X380851Y162393D01*
X380815Y162371D01*
X380774Y162358D01*
X380702Y162304D01*
X380658Y162278D01*
X380645Y162262D01*
X380624Y162247D01*
X377576Y159198D01*
X377525Y159125D01*
X377469Y159056D01*
X377461Y159034D01*
X377448Y159014D01*
X377425Y158928D01*
X377397Y158844D01*
X377398Y158820D01*
X377392Y158797D01*
X377401Y158708D01*
X377403Y158619D01*
X377412Y158597D01*
X377415Y158574D01*
X377454Y158494D01*
X377488Y158412D01*
X377504Y158394D01*
X377514Y158373D01*
X377579Y158312D01*
X377639Y158246D01*
X377660Y158235D01*
X377678Y158219D01*
X377759Y158184D01*
X377839Y158143D01*
X377865Y158140D01*
X377884Y158131D01*
X377935Y158129D01*
X378024Y158116D01*
X383976Y158116D01*
X384018Y158123D01*
X384060Y158121D01*
X384127Y158143D01*
X384197Y158155D01*
X384233Y158177D01*
X384274Y158190D01*
X384346Y158244D01*
X384390Y158270D01*
X384403Y158286D01*
X384424Y158302D01*
X394656Y168534D01*
X394681Y168568D01*
X394712Y168597D01*
X394744Y168660D01*
X394785Y168718D01*
X394795Y168759D01*
X394815Y168797D01*
X394828Y168886D01*
X394841Y168935D01*
X394838Y168956D01*
X394842Y168982D01*
X394842Y170199D01*
X395828Y172579D01*
X397651Y174402D01*
X400031Y175388D01*
X402609Y175388D01*
X404989Y174402D01*
X406812Y172579D01*
X407798Y170199D01*
X407798Y167621D01*
X406812Y165241D01*
X404989Y163418D01*
X402609Y162432D01*
X401392Y162432D01*
X401350Y162425D01*
X401308Y162427D01*
X401241Y162405D01*
X401171Y162393D01*
X401135Y162371D01*
X401094Y162358D01*
X401022Y162304D01*
X400978Y162278D01*
X400965Y162262D01*
X400944Y162246D01*
X390712Y152014D01*
X387922Y149224D01*
X214194Y149224D01*
X214152Y149217D01*
X214110Y149219D01*
X214043Y149197D01*
X213973Y149185D01*
X213937Y149163D01*
X213896Y149150D01*
X213824Y149096D01*
X213780Y149070D01*
X213767Y149054D01*
X213746Y149038D01*
X208852Y144144D01*
X204368Y144144D01*
X204326Y144137D01*
X204284Y144139D01*
X204217Y144117D01*
X204147Y144105D01*
X204111Y144083D01*
X204070Y144070D01*
X203997Y144016D01*
X203954Y143990D01*
X203941Y143974D01*
X203919Y143958D01*
X203059Y143098D01*
X200679Y142112D01*
X198101Y142112D01*
X195721Y143098D01*
X193898Y144921D01*
X192912Y147301D01*
X192912Y149879D01*
X193898Y152259D01*
X195496Y153857D01*
X195533Y153911D01*
X195578Y153958D01*
X195597Y154002D01*
X195624Y154041D01*
X195640Y154104D01*
X195666Y154165D01*
X195668Y154212D01*
X195680Y154258D01*
X195673Y154323D01*
X195676Y154389D01*
X195661Y154434D01*
X195656Y154481D01*
X195627Y154540D01*
X195607Y154603D01*
X195574Y154647D01*
X195557Y154682D01*
X195528Y154709D01*
X195496Y154754D01*
X193898Y156351D01*
X192912Y158731D01*
X192912Y161309D01*
X193898Y163689D01*
X195496Y165286D01*
X195533Y165341D01*
X195578Y165388D01*
X195597Y165432D01*
X195624Y165471D01*
X195640Y165534D01*
X195666Y165595D01*
X195668Y165642D01*
X195680Y165688D01*
X195673Y165753D01*
X195676Y165819D01*
X195661Y165864D01*
X195656Y165911D01*
X195627Y165970D01*
X195607Y166033D01*
X195574Y166077D01*
X195557Y166112D01*
X195528Y166139D01*
X195496Y166183D01*
X193898Y167781D01*
X192912Y170161D01*
X192912Y172739D01*
X193646Y174509D01*
X193662Y174585D01*
X193687Y174658D01*
X193686Y174694D01*
X193694Y174728D01*
X193683Y174805D01*
X193680Y174883D01*
X193667Y174915D01*
X193662Y174951D01*
X193625Y175019D01*
X193596Y175090D01*
X193572Y175117D01*
X193555Y175148D01*
X193497Y175199D01*
X193445Y175256D01*
X193413Y175272D01*
X193386Y175296D01*
X193314Y175323D01*
X193245Y175359D01*
X193205Y175365D01*
X193177Y175375D01*
X193130Y175376D01*
X193060Y175386D01*
X101926Y175386D01*
X101884Y175379D01*
X101842Y175381D01*
X101775Y175359D01*
X101705Y175347D01*
X101669Y175325D01*
X101628Y175312D01*
X101556Y175258D01*
X101512Y175232D01*
X101499Y175216D01*
X101478Y175200D01*
X98104Y171826D01*
X98079Y171791D01*
X98048Y171763D01*
X98016Y171700D01*
X97975Y171642D01*
X97965Y171601D01*
X97945Y171563D01*
X97932Y171473D01*
X97919Y171425D01*
X97922Y171404D01*
X97918Y171378D01*
X97918Y170161D01*
X96932Y167781D01*
X95109Y165958D01*
X92729Y164972D01*
X90151Y164972D01*
X87771Y165958D01*
X85948Y167781D01*
X84962Y170161D01*
X84962Y172739D01*
X85948Y175119D01*
X87771Y176942D01*
X90151Y177928D01*
X91368Y177928D01*
X91410Y177935D01*
X91452Y177933D01*
X91519Y177955D01*
X91589Y177967D01*
X91625Y177989D01*
X91666Y178002D01*
X91738Y178056D01*
X91782Y178082D01*
X91795Y178098D01*
X91816Y178113D01*
X94356Y180654D01*
X94407Y180727D01*
X94463Y180796D01*
X94471Y180818D01*
X94484Y180838D01*
X94507Y180924D01*
X94535Y181008D01*
X94534Y181032D01*
X94540Y181055D01*
X94531Y181144D01*
X94529Y181233D01*
X94520Y181255D01*
X94517Y181278D01*
X94478Y181358D01*
X94444Y181440D01*
X94428Y181458D01*
X94418Y181479D01*
X94353Y181540D01*
X94293Y181606D01*
X94272Y181617D01*
X94254Y181633D01*
X94173Y181668D01*
X94093Y181709D01*
X94067Y181712D01*
X94048Y181721D01*
X93997Y181723D01*
X93908Y181736D01*
X89226Y181736D01*
X89184Y181729D01*
X89142Y181731D01*
X89075Y181709D01*
X89005Y181697D01*
X88969Y181675D01*
X88928Y181662D01*
X88856Y181608D01*
X88812Y181582D01*
X88799Y181566D01*
X88778Y181550D01*
X79054Y171826D01*
X79029Y171791D01*
X78998Y171763D01*
X78966Y171700D01*
X78925Y171642D01*
X78915Y171601D01*
X78895Y171563D01*
X78882Y171473D01*
X78869Y171425D01*
X78872Y171404D01*
X78868Y171378D01*
X78868Y170161D01*
X77882Y167781D01*
X76059Y165958D01*
X73679Y164972D01*
X71101Y164972D01*
X68721Y165958D01*
X67861Y166818D01*
X67826Y166843D01*
X67797Y166874D01*
X67734Y166906D01*
X67676Y166947D01*
X67635Y166957D01*
X67598Y166977D01*
X67508Y166990D01*
X67459Y167003D01*
X67438Y167000D01*
X67412Y167004D01*
X60858Y167004D01*
X60770Y166989D01*
X60682Y166979D01*
X60660Y166969D01*
X60637Y166965D01*
X60560Y166919D01*
X60481Y166880D01*
X60464Y166863D01*
X60444Y166850D01*
X60388Y166781D01*
X60327Y166717D01*
X60317Y166695D01*
X60302Y166676D01*
X60274Y166592D01*
X60239Y166510D01*
X60238Y166486D01*
X60231Y166464D01*
X60233Y166375D01*
X60229Y166286D01*
X60236Y166263D01*
X60237Y166239D01*
X60271Y166157D01*
X60298Y166072D01*
X60314Y166051D01*
X60321Y166032D01*
X60355Y165994D01*
X60409Y165922D01*
X61372Y164959D01*
X62358Y162579D01*
X62358Y160001D01*
X61372Y157621D01*
X60512Y156761D01*
X60487Y156726D01*
X60456Y156697D01*
X60424Y156634D01*
X60383Y156576D01*
X60373Y156535D01*
X60353Y156497D01*
X60340Y156408D01*
X60327Y156359D01*
X60330Y156338D01*
X60326Y156312D01*
X60326Y127834D01*
X60333Y127792D01*
X60331Y127750D01*
X60353Y127683D01*
X60365Y127613D01*
X60387Y127577D01*
X60400Y127536D01*
X60454Y127464D01*
X60480Y127420D01*
X60496Y127407D01*
X60512Y127386D01*
X63886Y124012D01*
X63921Y123987D01*
X63949Y123956D01*
X64012Y123924D01*
X64070Y123883D01*
X64111Y123873D01*
X64149Y123853D01*
X64238Y123840D01*
X64287Y123827D01*
X64308Y123830D01*
X64334Y123826D01*
X86462Y123826D01*
X86504Y123833D01*
X86546Y123831D01*
X86613Y123853D01*
X86683Y123865D01*
X86719Y123887D01*
X86760Y123900D01*
X86833Y123954D01*
X86876Y123980D01*
X86889Y123996D01*
X86911Y124012D01*
X87771Y124872D01*
X90151Y125858D01*
X92729Y125858D01*
X95109Y124872D01*
X96932Y123049D01*
X97918Y120669D01*
X97918Y118091D01*
X96932Y115711D01*
X95109Y113888D01*
X92729Y112902D01*
X90151Y112902D01*
X87771Y113888D01*
X86911Y114748D01*
X86876Y114773D01*
X86847Y114804D01*
X86784Y114836D01*
X86726Y114877D01*
X86685Y114887D01*
X86647Y114907D01*
X86558Y114920D01*
X86509Y114933D01*
X86488Y114930D01*
X86462Y114934D01*
X60388Y114934D01*
X51434Y123888D01*
X51434Y156312D01*
X51427Y156354D01*
X51429Y156396D01*
X51407Y156463D01*
X51395Y156533D01*
X51373Y156569D01*
X51360Y156610D01*
X51306Y156683D01*
X51280Y156726D01*
X51264Y156739D01*
X51248Y156761D01*
X50388Y157621D01*
X49402Y160001D01*
X49402Y162579D01*
X50388Y164959D01*
X51351Y165922D01*
X51402Y165995D01*
X51458Y166064D01*
X51465Y166086D01*
X51479Y166106D01*
X51501Y166192D01*
X51529Y166276D01*
X51529Y166300D01*
X51535Y166323D01*
X51525Y166412D01*
X51523Y166501D01*
X51514Y166523D01*
X51511Y166546D01*
X51472Y166626D01*
X51439Y166708D01*
X51423Y166726D01*
X51412Y166747D01*
X51347Y166808D01*
X51287Y166874D01*
X51266Y166885D01*
X51249Y166901D01*
X51167Y166936D01*
X51088Y166977D01*
X51061Y166980D01*
X51042Y166989D01*
X50992Y166991D01*
X50902Y167004D01*
X44014Y167004D01*
X43972Y166997D01*
X43930Y166999D01*
X43863Y166977D01*
X43793Y166965D01*
X43757Y166943D01*
X43716Y166930D01*
X43644Y166876D01*
X43600Y166850D01*
X43587Y166834D01*
X43566Y166818D01*
X38922Y162174D01*
X38897Y162140D01*
X38866Y162111D01*
X38841Y162062D01*
X38826Y162043D01*
X38821Y162030D01*
X38793Y161990D01*
X38783Y161949D01*
X38763Y161911D01*
X38750Y161822D01*
X38737Y161773D01*
X38740Y161752D01*
X38736Y161726D01*
X38736Y121502D01*
X38743Y121460D01*
X38741Y121418D01*
X38763Y121351D01*
X38775Y121281D01*
X38797Y121245D01*
X38810Y121204D01*
X38864Y121132D01*
X38890Y121088D01*
X38906Y121075D01*
X38922Y121054D01*
X42382Y117594D01*
X44291Y112985D01*
X44291Y107995D01*
X42381Y103386D01*
X38854Y99859D01*
X34245Y97949D01*
X29255Y97949D01*
G37*
%LPD*%
%LPC*%
G36*
X137554Y14101D02*
X137554Y14101D01*
X133587Y15744D01*
X130552Y18779D01*
X128909Y22746D01*
X128909Y27038D01*
X130552Y31005D01*
X133587Y34040D01*
X134914Y34589D01*
X134940Y34606D01*
X134969Y34615D01*
X135064Y34686D01*
X135103Y34710D01*
X135109Y34719D01*
X135120Y34727D01*
X142938Y42546D01*
X178236Y42546D01*
X178278Y42553D01*
X178320Y42551D01*
X178387Y42573D01*
X178457Y42585D01*
X178493Y42607D01*
X178534Y42620D01*
X178606Y42674D01*
X178650Y42700D01*
X178663Y42716D01*
X178684Y42732D01*
X185261Y49309D01*
X185286Y49344D01*
X185317Y49372D01*
X185349Y49435D01*
X185390Y49493D01*
X185400Y49534D01*
X185420Y49572D01*
X185433Y49661D01*
X185446Y49710D01*
X185443Y49731D01*
X185447Y49757D01*
X185447Y115739D01*
X188237Y118529D01*
X189474Y119766D01*
X192264Y122556D01*
X194412Y122556D01*
X194454Y122563D01*
X194496Y122561D01*
X194563Y122583D01*
X194633Y122595D01*
X194669Y122617D01*
X194710Y122630D01*
X194783Y122684D01*
X194826Y122710D01*
X194839Y122726D01*
X194861Y122742D01*
X195721Y123602D01*
X198101Y124588D01*
X200679Y124588D01*
X203059Y123602D01*
X204882Y121779D01*
X205868Y119399D01*
X205868Y116821D01*
X204882Y114441D01*
X203284Y112843D01*
X203247Y112789D01*
X203202Y112742D01*
X203183Y112698D01*
X203156Y112659D01*
X203140Y112596D01*
X203114Y112535D01*
X203112Y112488D01*
X203100Y112442D01*
X203107Y112377D01*
X203104Y112311D01*
X203119Y112266D01*
X203124Y112219D01*
X203153Y112160D01*
X203173Y112097D01*
X203206Y112053D01*
X203223Y112018D01*
X203252Y111991D01*
X203284Y111946D01*
X204882Y110349D01*
X205874Y107953D01*
X205873Y107938D01*
X205895Y107871D01*
X205907Y107801D01*
X205929Y107765D01*
X205942Y107724D01*
X205996Y107652D01*
X206022Y107608D01*
X206038Y107595D01*
X206054Y107574D01*
X222029Y91599D01*
X222064Y91574D01*
X222092Y91543D01*
X222155Y91511D01*
X222213Y91470D01*
X222254Y91460D01*
X222292Y91440D01*
X222381Y91427D01*
X222430Y91414D01*
X222451Y91417D01*
X222477Y91413D01*
X283536Y91413D01*
X289700Y85249D01*
X289735Y85224D01*
X289763Y85193D01*
X289826Y85161D01*
X289884Y85120D01*
X289925Y85110D01*
X289963Y85090D01*
X290053Y85077D01*
X290101Y85064D01*
X290122Y85067D01*
X290148Y85063D01*
X312655Y85063D01*
X318820Y78899D01*
X318854Y78874D01*
X318883Y78843D01*
X318946Y78811D01*
X319004Y78770D01*
X319045Y78760D01*
X319083Y78740D01*
X319172Y78727D01*
X319221Y78714D01*
X319242Y78717D01*
X319268Y78713D01*
X339055Y78713D01*
X359034Y58734D01*
X359068Y58709D01*
X359097Y58678D01*
X359160Y58646D01*
X359218Y58605D01*
X359259Y58595D01*
X359297Y58575D01*
X359386Y58562D01*
X359435Y58549D01*
X359456Y58552D01*
X359482Y58548D01*
X360699Y58548D01*
X363079Y57562D01*
X364902Y55739D01*
X365888Y53359D01*
X365888Y50781D01*
X364902Y48401D01*
X363079Y46578D01*
X360699Y45592D01*
X358121Y45592D01*
X355741Y46578D01*
X353918Y48401D01*
X352932Y50781D01*
X352932Y51998D01*
X352925Y52040D01*
X352927Y52082D01*
X352905Y52149D01*
X352893Y52219D01*
X352871Y52255D01*
X352858Y52296D01*
X352824Y52341D01*
X352821Y52350D01*
X352806Y52367D01*
X352804Y52368D01*
X352778Y52412D01*
X352762Y52425D01*
X352746Y52446D01*
X335557Y69635D01*
X335522Y69660D01*
X335494Y69691D01*
X335431Y69723D01*
X335373Y69764D01*
X335332Y69774D01*
X335294Y69794D01*
X335205Y69807D01*
X335156Y69820D01*
X335135Y69817D01*
X335109Y69821D01*
X329157Y69821D01*
X329069Y69805D01*
X328981Y69796D01*
X328960Y69786D01*
X328936Y69782D01*
X328860Y69736D01*
X328780Y69697D01*
X328764Y69680D01*
X328743Y69667D01*
X328687Y69598D01*
X328626Y69534D01*
X328617Y69512D01*
X328602Y69493D01*
X328573Y69409D01*
X328539Y69327D01*
X328537Y69303D01*
X328530Y69281D01*
X328532Y69192D01*
X328529Y69103D01*
X328536Y69080D01*
X328536Y69056D01*
X328570Y68974D01*
X328597Y68889D01*
X328613Y68868D01*
X328621Y68849D01*
X328655Y68811D01*
X328709Y68739D01*
X338714Y58734D01*
X338749Y58709D01*
X338777Y58678D01*
X338840Y58646D01*
X338898Y58605D01*
X338939Y58595D01*
X338977Y58575D01*
X339066Y58562D01*
X339115Y58549D01*
X339136Y58552D01*
X339162Y58548D01*
X340379Y58548D01*
X342759Y57562D01*
X344582Y55739D01*
X345568Y53359D01*
X345568Y50781D01*
X344582Y48401D01*
X342759Y46578D01*
X340379Y45592D01*
X337801Y45592D01*
X335421Y46578D01*
X333598Y48401D01*
X332612Y50781D01*
X332612Y51998D01*
X332605Y52040D01*
X332607Y52082D01*
X332585Y52149D01*
X332573Y52219D01*
X332551Y52255D01*
X332538Y52296D01*
X332504Y52341D01*
X332501Y52350D01*
X332485Y52367D01*
X332484Y52368D01*
X332458Y52412D01*
X332442Y52425D01*
X332426Y52446D01*
X321587Y63285D01*
X321552Y63310D01*
X321524Y63341D01*
X321461Y63373D01*
X321403Y63414D01*
X321362Y63424D01*
X321324Y63444D01*
X321235Y63457D01*
X321186Y63470D01*
X321165Y63467D01*
X321139Y63471D01*
X316457Y63471D01*
X316369Y63455D01*
X316281Y63446D01*
X316260Y63436D01*
X316236Y63432D01*
X316160Y63386D01*
X316080Y63347D01*
X316064Y63330D01*
X316043Y63317D01*
X315987Y63248D01*
X315926Y63184D01*
X315917Y63162D01*
X315902Y63143D01*
X315873Y63059D01*
X315839Y62977D01*
X315837Y62953D01*
X315830Y62931D01*
X315832Y62842D01*
X315829Y62753D01*
X315836Y62730D01*
X315836Y62706D01*
X315870Y62624D01*
X315897Y62539D01*
X315913Y62518D01*
X315921Y62499D01*
X315955Y62461D01*
X316009Y62389D01*
X319664Y58733D01*
X319699Y58709D01*
X319727Y58678D01*
X319790Y58646D01*
X319848Y58605D01*
X319889Y58595D01*
X319927Y58575D01*
X320016Y58562D01*
X320065Y58549D01*
X320086Y58552D01*
X320112Y58548D01*
X321329Y58548D01*
X323709Y57562D01*
X325532Y55739D01*
X326518Y53359D01*
X326518Y50781D01*
X325532Y48401D01*
X323709Y46578D01*
X321329Y45592D01*
X318751Y45592D01*
X316371Y46578D01*
X314548Y48401D01*
X313562Y50781D01*
X313562Y51998D01*
X313555Y52040D01*
X313557Y52082D01*
X313535Y52149D01*
X313523Y52219D01*
X313501Y52255D01*
X313488Y52296D01*
X313454Y52341D01*
X313451Y52350D01*
X313435Y52367D01*
X313434Y52368D01*
X313408Y52412D01*
X313392Y52425D01*
X313376Y52446D01*
X302537Y63285D01*
X302503Y63310D01*
X302474Y63341D01*
X302411Y63373D01*
X302353Y63414D01*
X302312Y63424D01*
X302274Y63444D01*
X302185Y63457D01*
X302136Y63470D01*
X302115Y63467D01*
X302089Y63471D01*
X296137Y63471D01*
X296049Y63455D01*
X295961Y63446D01*
X295940Y63436D01*
X295916Y63432D01*
X295840Y63386D01*
X295760Y63347D01*
X295744Y63330D01*
X295723Y63317D01*
X295667Y63248D01*
X295606Y63184D01*
X295597Y63162D01*
X295582Y63143D01*
X295553Y63059D01*
X295519Y62977D01*
X295517Y62953D01*
X295510Y62931D01*
X295512Y62842D01*
X295509Y62753D01*
X295516Y62730D01*
X295516Y62706D01*
X295550Y62624D01*
X295577Y62539D01*
X295593Y62518D01*
X295601Y62499D01*
X295635Y62461D01*
X295689Y62389D01*
X299344Y58733D01*
X299379Y58709D01*
X299407Y58678D01*
X299470Y58646D01*
X299528Y58605D01*
X299569Y58595D01*
X299607Y58575D01*
X299696Y58562D01*
X299745Y58549D01*
X299766Y58552D01*
X299792Y58548D01*
X301009Y58548D01*
X303389Y57562D01*
X305212Y55739D01*
X306198Y53359D01*
X306198Y50781D01*
X305212Y48401D01*
X303389Y46578D01*
X301009Y45592D01*
X298431Y45592D01*
X296051Y46578D01*
X294228Y48401D01*
X293242Y50781D01*
X293242Y51998D01*
X293235Y52040D01*
X293237Y52082D01*
X293215Y52149D01*
X293203Y52219D01*
X293181Y52255D01*
X293168Y52296D01*
X293134Y52341D01*
X293131Y52350D01*
X293115Y52367D01*
X293114Y52368D01*
X293088Y52412D01*
X293072Y52425D01*
X293056Y52446D01*
X288567Y56935D01*
X288541Y56954D01*
X288540Y56955D01*
X288537Y56957D01*
X288532Y56960D01*
X288504Y56991D01*
X288441Y57023D01*
X288383Y57064D01*
X288342Y57074D01*
X288304Y57094D01*
X288215Y57107D01*
X288166Y57120D01*
X288145Y57117D01*
X288119Y57121D01*
X285041Y57121D01*
X284953Y57106D01*
X284865Y57096D01*
X284843Y57086D01*
X284820Y57082D01*
X284743Y57036D01*
X284664Y56997D01*
X284647Y56980D01*
X284627Y56967D01*
X284571Y56898D01*
X284510Y56834D01*
X284500Y56812D01*
X284485Y56793D01*
X284457Y56709D01*
X284422Y56627D01*
X284421Y56603D01*
X284414Y56581D01*
X284416Y56492D01*
X284412Y56403D01*
X284419Y56380D01*
X284420Y56356D01*
X284454Y56274D01*
X284481Y56189D01*
X284497Y56168D01*
X284504Y56149D01*
X284538Y56111D01*
X284592Y56039D01*
X284892Y55739D01*
X285878Y53359D01*
X285878Y50781D01*
X284892Y48401D01*
X283069Y46578D01*
X280689Y45592D01*
X278111Y45592D01*
X275731Y46578D01*
X273908Y48401D01*
X272922Y50781D01*
X272922Y51998D01*
X272915Y52040D01*
X272917Y52082D01*
X272895Y52149D01*
X272883Y52219D01*
X272861Y52255D01*
X272848Y52296D01*
X272814Y52341D01*
X272811Y52350D01*
X272795Y52367D01*
X272794Y52368D01*
X272768Y52412D01*
X272752Y52425D01*
X272736Y52446D01*
X268247Y56935D01*
X268221Y56954D01*
X268220Y56955D01*
X268217Y56957D01*
X268212Y56960D01*
X268184Y56991D01*
X268121Y57023D01*
X268063Y57064D01*
X268022Y57074D01*
X267984Y57094D01*
X267895Y57107D01*
X267846Y57120D01*
X267825Y57117D01*
X267799Y57121D01*
X213531Y57121D01*
X213489Y57114D01*
X213447Y57116D01*
X213380Y57094D01*
X213310Y57082D01*
X213274Y57060D01*
X213233Y57047D01*
X213161Y56993D01*
X213117Y56967D01*
X213104Y56951D01*
X213083Y56935D01*
X205042Y48894D01*
X204368Y48894D01*
X204326Y48887D01*
X204284Y48889D01*
X204217Y48867D01*
X204147Y48855D01*
X204111Y48833D01*
X204070Y48820D01*
X203997Y48766D01*
X203954Y48740D01*
X203941Y48724D01*
X203919Y48708D01*
X203059Y47848D01*
X200679Y46862D01*
X198101Y46862D01*
X195721Y47848D01*
X195421Y48148D01*
X195348Y48199D01*
X195279Y48255D01*
X195257Y48262D01*
X195237Y48276D01*
X195151Y48298D01*
X195067Y48326D01*
X195043Y48326D01*
X195020Y48332D01*
X194931Y48322D01*
X194842Y48320D01*
X194821Y48311D01*
X194797Y48308D01*
X194717Y48269D01*
X194635Y48236D01*
X194617Y48220D01*
X194596Y48209D01*
X194535Y48144D01*
X194469Y48084D01*
X194458Y48063D01*
X194442Y48046D01*
X194407Y47964D01*
X194366Y47885D01*
X194363Y47858D01*
X194354Y47839D01*
X194352Y47789D01*
X194339Y47699D01*
X194339Y45811D01*
X182182Y33654D01*
X173129Y33654D01*
X173042Y33638D01*
X172953Y33629D01*
X172932Y33619D01*
X172908Y33615D01*
X172832Y33569D01*
X172752Y33530D01*
X172736Y33513D01*
X172715Y33500D01*
X172659Y33431D01*
X172598Y33367D01*
X172589Y33345D01*
X172574Y33326D01*
X172545Y33242D01*
X172511Y33160D01*
X172510Y33136D01*
X172502Y33114D01*
X172505Y33025D01*
X172501Y32936D01*
X172508Y32913D01*
X172509Y32889D01*
X172542Y32807D01*
X172569Y32722D01*
X172585Y32701D01*
X172593Y32682D01*
X172627Y32644D01*
X172681Y32572D01*
X174248Y31004D01*
X175891Y27038D01*
X175891Y22746D01*
X174248Y18779D01*
X171213Y15744D01*
X167246Y14101D01*
X162954Y14101D01*
X158987Y15744D01*
X155952Y18779D01*
X154309Y22746D01*
X154309Y27038D01*
X155952Y31004D01*
X157519Y32572D01*
X157570Y32645D01*
X157626Y32714D01*
X157634Y32736D01*
X157647Y32756D01*
X157669Y32842D01*
X157698Y32926D01*
X157697Y32950D01*
X157703Y32973D01*
X157694Y33062D01*
X157691Y33151D01*
X157682Y33173D01*
X157680Y33196D01*
X157640Y33276D01*
X157607Y33358D01*
X157591Y33376D01*
X157581Y33397D01*
X157516Y33458D01*
X157456Y33524D01*
X157434Y33535D01*
X157417Y33551D01*
X157335Y33586D01*
X157256Y33627D01*
X157230Y33630D01*
X157211Y33639D01*
X157160Y33641D01*
X157071Y33654D01*
X147729Y33654D01*
X147642Y33638D01*
X147553Y33629D01*
X147532Y33619D01*
X147508Y33615D01*
X147432Y33569D01*
X147352Y33530D01*
X147336Y33513D01*
X147315Y33500D01*
X147259Y33431D01*
X147198Y33367D01*
X147189Y33345D01*
X147174Y33326D01*
X147145Y33242D01*
X147111Y33160D01*
X147110Y33136D01*
X147102Y33114D01*
X147105Y33025D01*
X147101Y32936D01*
X147108Y32913D01*
X147109Y32889D01*
X147142Y32807D01*
X147169Y32722D01*
X147185Y32701D01*
X147193Y32682D01*
X147227Y32644D01*
X147281Y32572D01*
X148848Y31004D01*
X150491Y27038D01*
X150491Y22746D01*
X148848Y18779D01*
X145813Y15744D01*
X141846Y14101D01*
X137554Y14101D01*
G37*
%LPD*%
%LPC*%
G36*
X69604Y86359D02*
X69604Y86359D01*
X66803Y87519D01*
X62119Y92203D01*
X60959Y95004D01*
X60959Y98036D01*
X62119Y100837D01*
X64263Y102981D01*
X67064Y104141D01*
X70096Y104141D01*
X72897Y102981D01*
X74091Y101787D01*
X74126Y101762D01*
X74154Y101731D01*
X74217Y101699D01*
X74275Y101658D01*
X74316Y101648D01*
X74354Y101628D01*
X74444Y101615D01*
X74492Y101602D01*
X74513Y101605D01*
X74539Y101601D01*
X109611Y101601D01*
X109652Y101608D01*
X109695Y101606D01*
X109762Y101628D01*
X109832Y101640D01*
X109868Y101662D01*
X109908Y101675D01*
X109981Y101729D01*
X110025Y101755D01*
X110038Y101771D01*
X110059Y101787D01*
X116653Y108381D01*
X116678Y108416D01*
X116709Y108444D01*
X116741Y108507D01*
X116782Y108565D01*
X116792Y108606D01*
X116812Y108644D01*
X116825Y108734D01*
X116838Y108782D01*
X116835Y108803D01*
X116839Y108829D01*
X116839Y134866D01*
X117999Y137667D01*
X120232Y139900D01*
X140135Y159803D01*
X153163Y172831D01*
X155964Y173991D01*
X158996Y173991D01*
X161797Y172831D01*
X163941Y170687D01*
X165101Y167886D01*
X165101Y164854D01*
X163941Y162053D01*
X156294Y154407D01*
X156257Y154353D01*
X156212Y154305D01*
X156193Y154262D01*
X156166Y154223D01*
X156150Y154159D01*
X156124Y154098D01*
X156122Y154051D01*
X156110Y154006D01*
X156117Y153940D01*
X156114Y153874D01*
X156129Y153829D01*
X156134Y153782D01*
X156163Y153723D01*
X156183Y153661D01*
X156216Y153617D01*
X156233Y153581D01*
X156262Y153554D01*
X156294Y153510D01*
X158361Y151443D01*
X158396Y151419D01*
X158424Y151388D01*
X158487Y151356D01*
X158545Y151315D01*
X158586Y151305D01*
X158624Y151285D01*
X158714Y151272D01*
X158762Y151259D01*
X158764Y151260D01*
X161166Y150265D01*
X161184Y150245D01*
X161247Y150213D01*
X161305Y150172D01*
X161346Y150162D01*
X161384Y150142D01*
X161473Y150129D01*
X161522Y150116D01*
X161543Y150119D01*
X161569Y150115D01*
X171120Y150115D01*
X182364Y138871D01*
X182399Y138846D01*
X182427Y138815D01*
X182490Y138783D01*
X182548Y138742D01*
X182589Y138732D01*
X182627Y138712D01*
X182717Y138699D01*
X182765Y138686D01*
X182786Y138689D01*
X182812Y138685D01*
X214300Y138685D01*
X226315Y126670D01*
X226315Y114579D01*
X226322Y114537D01*
X226320Y114494D01*
X226342Y114427D01*
X226354Y114358D01*
X226376Y114321D01*
X226389Y114281D01*
X226443Y114208D01*
X226469Y114165D01*
X226470Y114164D01*
X227458Y111779D01*
X227458Y109201D01*
X226472Y106821D01*
X224649Y104998D01*
X222269Y104012D01*
X219691Y104012D01*
X217311Y104998D01*
X215488Y106821D01*
X214502Y109201D01*
X214502Y111779D01*
X215495Y114176D01*
X215515Y114194D01*
X215547Y114257D01*
X215588Y114314D01*
X215598Y114356D01*
X215618Y114393D01*
X215631Y114483D01*
X215644Y114532D01*
X215641Y114553D01*
X215645Y114579D01*
X215645Y121988D01*
X215638Y122029D01*
X215640Y122072D01*
X215618Y122139D01*
X215606Y122208D01*
X215584Y122245D01*
X215571Y122285D01*
X215517Y122358D01*
X215491Y122402D01*
X215475Y122415D01*
X215459Y122436D01*
X210066Y127829D01*
X210031Y127854D01*
X210003Y127885D01*
X209940Y127917D01*
X209882Y127958D01*
X209841Y127968D01*
X209803Y127988D01*
X209713Y128001D01*
X209665Y128014D01*
X209644Y128011D01*
X209618Y128015D01*
X178130Y128015D01*
X166886Y139259D01*
X166851Y139284D01*
X166823Y139315D01*
X166760Y139347D01*
X166702Y139388D01*
X166661Y139398D01*
X166623Y139418D01*
X166533Y139431D01*
X166485Y139444D01*
X166464Y139441D01*
X166438Y139445D01*
X161569Y139445D01*
X161527Y139438D01*
X161485Y139440D01*
X161418Y139418D01*
X161348Y139406D01*
X161312Y139384D01*
X161271Y139371D01*
X161198Y139317D01*
X161155Y139291D01*
X161154Y139290D01*
X158769Y138302D01*
X156191Y138302D01*
X153811Y139288D01*
X151988Y141111D01*
X150995Y143508D01*
X150997Y143535D01*
X150975Y143602D01*
X150963Y143671D01*
X150941Y143708D01*
X150928Y143748D01*
X150874Y143821D01*
X150848Y143865D01*
X150832Y143878D01*
X150816Y143899D01*
X148750Y145966D01*
X148696Y146003D01*
X148648Y146048D01*
X148604Y146067D01*
X148566Y146094D01*
X148502Y146110D01*
X148441Y146136D01*
X148394Y146138D01*
X148348Y146150D01*
X148283Y146143D01*
X148217Y146146D01*
X148172Y146131D01*
X148125Y146126D01*
X148066Y146097D01*
X148004Y146077D01*
X147959Y146044D01*
X147924Y146027D01*
X147897Y145998D01*
X147853Y145966D01*
X132267Y130379D01*
X132242Y130344D01*
X132211Y130316D01*
X132179Y130253D01*
X132138Y130195D01*
X132128Y130154D01*
X132108Y130116D01*
X132095Y130026D01*
X132082Y129978D01*
X132085Y129957D01*
X132081Y129931D01*
X132081Y103894D01*
X130921Y101093D01*
X128688Y98860D01*
X119580Y89752D01*
X117347Y87519D01*
X114546Y86359D01*
X69604Y86359D01*
G37*
%LPD*%
%LPC*%
G36*
X17541Y186689D02*
X17541Y186689D01*
X12406Y188816D01*
X8476Y192746D01*
X6349Y197881D01*
X6349Y203439D01*
X8476Y208574D01*
X12406Y212504D01*
X17541Y214631D01*
X23099Y214631D01*
X28234Y212504D01*
X32164Y208574D01*
X34291Y203439D01*
X34291Y197881D01*
X32164Y192746D01*
X28234Y188816D01*
X23099Y186689D01*
X17541Y186689D01*
G37*
%LPD*%
%LPC*%
G36*
X17541Y6349D02*
X17541Y6349D01*
X12406Y8476D01*
X8476Y12406D01*
X6349Y17541D01*
X6349Y23099D01*
X8476Y28234D01*
X12406Y32164D01*
X17541Y34291D01*
X23099Y34291D01*
X28234Y32164D01*
X32164Y28234D01*
X34291Y23099D01*
X34291Y17541D01*
X32164Y12406D01*
X28234Y8476D01*
X23099Y6349D01*
X17541Y6349D01*
G37*
%LPD*%
%LPC*%
G36*
X156191Y88772D02*
X156191Y88772D01*
X153811Y89758D01*
X151988Y91581D01*
X151002Y93961D01*
X151002Y96539D01*
X151988Y98919D01*
X152848Y99779D01*
X152873Y99814D01*
X152904Y99843D01*
X152930Y99893D01*
X152942Y99908D01*
X152946Y99919D01*
X152977Y99964D01*
X152987Y100005D01*
X153007Y100042D01*
X153020Y100132D01*
X153033Y100181D01*
X153030Y100202D01*
X153034Y100228D01*
X153034Y114402D01*
X153027Y114444D01*
X153029Y114486D01*
X153007Y114553D01*
X152995Y114623D01*
X152973Y114660D01*
X152960Y114700D01*
X152906Y114773D01*
X152880Y114816D01*
X152864Y114829D01*
X152848Y114851D01*
X151988Y115711D01*
X151002Y118091D01*
X151002Y120669D01*
X151988Y123049D01*
X153811Y124872D01*
X156191Y125858D01*
X158769Y125858D01*
X161149Y124872D01*
X162972Y123049D01*
X163958Y120669D01*
X163958Y118091D01*
X162972Y115711D01*
X162112Y114851D01*
X162087Y114816D01*
X162056Y114787D01*
X162024Y114724D01*
X161983Y114666D01*
X161973Y114625D01*
X161953Y114588D01*
X161940Y114498D01*
X161927Y114449D01*
X161930Y114428D01*
X161926Y114402D01*
X161926Y100228D01*
X161933Y100186D01*
X161931Y100144D01*
X161953Y100077D01*
X161965Y100007D01*
X161987Y99970D01*
X162000Y99930D01*
X162033Y99885D01*
X162037Y99876D01*
X162053Y99859D01*
X162054Y99857D01*
X162080Y99814D01*
X162096Y99801D01*
X162112Y99779D01*
X162972Y98919D01*
X163958Y96539D01*
X163958Y93961D01*
X162972Y91581D01*
X161149Y89758D01*
X158769Y88772D01*
X156191Y88772D01*
G37*
%LPD*%
%LPC*%
G36*
X213754Y14101D02*
X213754Y14101D01*
X209787Y15744D01*
X206752Y18779D01*
X205109Y22746D01*
X205109Y27038D01*
X206752Y31005D01*
X209787Y34040D01*
X213754Y35683D01*
X218046Y35683D01*
X222013Y34040D01*
X225048Y31005D01*
X226691Y27038D01*
X226691Y22746D01*
X225048Y18779D01*
X222013Y15744D01*
X218046Y14101D01*
X213754Y14101D01*
G37*
%LPD*%
%LPC*%
G36*
X188354Y14101D02*
X188354Y14101D01*
X184387Y15744D01*
X181352Y18779D01*
X179709Y22746D01*
X179709Y27038D01*
X181352Y31005D01*
X184387Y34040D01*
X188354Y35683D01*
X192646Y35683D01*
X196613Y34040D01*
X199648Y31005D01*
X201291Y27038D01*
X201291Y22746D01*
X199648Y18779D01*
X196613Y15744D01*
X192646Y14101D01*
X188354Y14101D01*
G37*
%LPD*%
%LPC*%
G36*
X112154Y14101D02*
X112154Y14101D01*
X108187Y15744D01*
X105152Y18779D01*
X103509Y22746D01*
X103509Y27038D01*
X105152Y31005D01*
X108187Y34040D01*
X112154Y35683D01*
X116446Y35683D01*
X120413Y34040D01*
X123448Y31005D01*
X125091Y27038D01*
X125091Y22746D01*
X123448Y18779D01*
X120413Y15744D01*
X116446Y14101D01*
X112154Y14101D01*
G37*
%LPD*%
%LPC*%
G36*
X102851Y43052D02*
X102851Y43052D01*
X100471Y44038D01*
X98648Y45861D01*
X97662Y48241D01*
X97662Y50819D01*
X98648Y53199D01*
X100471Y55022D01*
X102851Y56008D01*
X105429Y56008D01*
X107809Y55022D01*
X108669Y54162D01*
X108704Y54137D01*
X108733Y54106D01*
X108796Y54074D01*
X108854Y54033D01*
X108895Y54023D01*
X108933Y54003D01*
X109022Y53990D01*
X109071Y53977D01*
X109092Y53980D01*
X109118Y53976D01*
X119482Y53976D01*
X119524Y53983D01*
X119566Y53981D01*
X119633Y54003D01*
X119703Y54015D01*
X119739Y54037D01*
X119780Y54050D01*
X119853Y54104D01*
X119896Y54130D01*
X119909Y54146D01*
X119931Y54162D01*
X120791Y55022D01*
X123171Y56008D01*
X125749Y56008D01*
X128129Y55022D01*
X129952Y53199D01*
X130938Y50819D01*
X130938Y48241D01*
X129952Y45861D01*
X128129Y44038D01*
X125749Y43052D01*
X123171Y43052D01*
X120791Y44038D01*
X119931Y44898D01*
X119896Y44923D01*
X119867Y44954D01*
X119804Y44986D01*
X119746Y45027D01*
X119705Y45037D01*
X119667Y45057D01*
X119578Y45070D01*
X119529Y45083D01*
X119508Y45080D01*
X119482Y45084D01*
X109118Y45084D01*
X109076Y45077D01*
X109034Y45079D01*
X108967Y45057D01*
X108897Y45045D01*
X108861Y45023D01*
X108820Y45010D01*
X108747Y44956D01*
X108704Y44930D01*
X108691Y44914D01*
X108669Y44898D01*
X107809Y44038D01*
X105429Y43052D01*
X102851Y43052D01*
G37*
%LPD*%
%LPC*%
G36*
X90169Y26161D02*
X90169Y26161D01*
X90169Y35616D01*
X91427Y35417D01*
X93042Y34892D01*
X94556Y34121D01*
X95930Y33123D01*
X97131Y31922D01*
X98129Y30548D01*
X98900Y29034D01*
X99425Y27419D01*
X99624Y26161D01*
X90169Y26161D01*
G37*
%LPD*%
%LPC*%
G36*
X78176Y26161D02*
X78176Y26161D01*
X78375Y27419D01*
X78900Y29034D01*
X79671Y30548D01*
X80669Y31922D01*
X81870Y33123D01*
X83244Y34121D01*
X84758Y34892D01*
X86373Y35417D01*
X87631Y35616D01*
X87631Y26161D01*
X78176Y26161D01*
G37*
%LPD*%
%LPC*%
G36*
X90169Y23623D02*
X90169Y23623D01*
X99624Y23623D01*
X99425Y22365D01*
X98900Y20750D01*
X98129Y19236D01*
X97131Y17862D01*
X95930Y16661D01*
X94556Y15663D01*
X93042Y14892D01*
X91427Y14367D01*
X90169Y14168D01*
X90169Y23623D01*
G37*
%LPD*%
%LPC*%
G36*
X86373Y14367D02*
X86373Y14367D01*
X84758Y14892D01*
X83244Y15663D01*
X81870Y16661D01*
X80669Y17862D01*
X79671Y19236D01*
X78900Y20750D01*
X78375Y22365D01*
X78176Y23623D01*
X87631Y23623D01*
X87631Y14168D01*
X86373Y14367D01*
G37*
%LPD*%
%LPC*%
G36*
X88899Y24891D02*
X88899Y24891D01*
X88899Y24893D01*
X88901Y24893D01*
X88901Y24891D01*
X88899Y24891D01*
G37*
%LPD*%
D10*
X31750Y110490D03*
X499750Y110490D03*
D11*
X215900Y24892D03*
X190500Y24892D03*
X165100Y24892D03*
X139700Y24892D03*
X114300Y24892D03*
X88900Y24892D03*
D12*
X313430Y198120D03*
X217430Y198120D03*
D13*
X320040Y52070D03*
X199390Y80010D03*
D14*
X276434Y74267D02*
X282784Y67917D01*
X304193Y67917D01*
X320040Y52070D01*
X205133Y74267D02*
X199390Y80010D01*
X205133Y74267D02*
X276434Y74267D01*
D13*
X401320Y168910D03*
X199390Y148590D03*
D14*
X139700Y33020D02*
X139700Y24892D01*
X139700Y33020D02*
X144780Y38100D01*
X180340Y38100D01*
X189893Y47653D01*
X189893Y113898D01*
D13*
X199390Y118110D03*
D14*
X194105Y118110D02*
X189893Y113898D01*
X194105Y118110D02*
X199390Y118110D01*
X386080Y153670D02*
X401320Y168910D01*
X386080Y153670D02*
X212090Y153670D01*
X207010Y148590D01*
X199390Y148590D01*
D13*
X220980Y110490D03*
D15*
X68580Y96520D03*
D16*
X113030Y93980D02*
X124460Y105410D01*
X113030Y93980D02*
X71120Y93980D01*
X68580Y96520D01*
D15*
X157480Y166370D03*
D16*
X146685Y155575D02*
X124460Y133350D01*
X124460Y105410D01*
D13*
X157480Y144780D03*
D17*
X212090Y133350D02*
X220980Y124460D01*
X168910Y144780D02*
X157480Y144780D01*
X220980Y124460D02*
X220980Y110490D01*
X212090Y133350D02*
X180340Y133350D01*
X168910Y144780D01*
X157480Y144780D02*
X146685Y155575D01*
D16*
X157480Y166370D01*
D15*
X260350Y52070D03*
D13*
X22860Y95250D03*
X15240Y49530D03*
X92710Y49530D03*
D15*
X53340Y96520D03*
D13*
X132080Y171450D03*
X157480Y132080D03*
X78740Y106680D03*
X401320Y110490D03*
D16*
X499750Y110490D01*
D13*
X381000Y168910D03*
X199390Y160020D03*
D14*
X372110Y160020D02*
X381000Y168910D01*
X372110Y160020D02*
X199390Y160020D01*
D13*
X360680Y168910D03*
X199390Y171450D03*
D14*
X358140Y166370D02*
X360680Y168910D01*
X358140Y166370D02*
X209550Y166370D01*
X204470Y171450D02*
X199390Y171450D01*
X204470Y171450D02*
X209550Y166370D01*
D13*
X359410Y52070D03*
X199390Y106680D03*
D14*
X281694Y86967D02*
X288044Y80617D01*
X310814Y80617D02*
X317164Y74267D01*
X310814Y80617D02*
X288044Y80617D01*
X317164Y74267D02*
X337213Y74267D01*
X359410Y52070D01*
X281694Y86967D02*
X220373Y86967D01*
X200660Y106680D02*
X199390Y106680D01*
X200660Y106680D02*
X220373Y86967D01*
D13*
X339090Y52070D03*
X199390Y95250D03*
D14*
X279064Y80617D02*
X285414Y74267D01*
X308184Y74267D02*
X314534Y67917D01*
X308184Y74267D02*
X285414Y74267D01*
X323243Y67917D02*
X339090Y52070D01*
X323243Y67917D02*
X314534Y67917D01*
X214023Y80617D02*
X199390Y95250D01*
X214023Y80617D02*
X279064Y80617D01*
D13*
X299720Y52070D03*
X199390Y64770D03*
D14*
X273803Y67917D02*
X280153Y61567D01*
X290223Y61567D01*
X299720Y52070D01*
X202537Y67917D02*
X199390Y64770D01*
X202537Y67917D02*
X273803Y67917D01*
D13*
X104140Y49530D03*
X124460Y49530D03*
D14*
X104140Y49530D01*
D13*
X279400Y52070D03*
X199390Y53340D03*
D14*
X269903Y61567D02*
X279400Y52070D01*
X269903Y61567D02*
X211427Y61567D01*
X203200Y53340D02*
X199390Y53340D01*
X203200Y53340D02*
X211427Y61567D01*
D13*
X55880Y161290D03*
X91440Y119380D03*
D14*
X62230Y119380D02*
X55880Y125730D01*
X55880Y161290D01*
X62230Y119380D02*
X91440Y119380D01*
D13*
X157480Y119380D03*
X157480Y95250D03*
D14*
X157480Y119380D01*
D13*
X91440Y171450D03*
D14*
X313430Y177540D02*
X313430Y198120D01*
X313430Y177540D02*
X308610Y172720D01*
X212180Y172720D01*
X205068Y179832D01*
X99822Y179832D02*
X91440Y171450D01*
X99822Y179832D02*
X205068Y179832D01*
D13*
X72390Y171450D03*
D14*
X41910Y171450D02*
X34290Y163830D01*
X217430Y190760D02*
X217430Y198120D01*
X217430Y190760D02*
X212852Y186182D01*
X87122Y186182D02*
X72390Y171450D01*
X87122Y186182D02*
X212852Y186182D01*
X72390Y171450D02*
X41910Y171450D01*
X34290Y163830D02*
X34290Y113030D01*
X31750Y110490D01*
D18*
X0Y20320D02*
X77Y18549D01*
X309Y16791D01*
X692Y15061D01*
X1225Y13370D01*
X1904Y11732D01*
X2722Y10160D01*
X3675Y8665D01*
X4754Y7259D01*
X5952Y5952D01*
X7259Y4754D01*
X8665Y3675D01*
X10160Y2722D01*
X11732Y1904D01*
X13370Y1225D01*
X15061Y692D01*
X16791Y309D01*
X18549Y77D01*
X20320Y0D01*
X510540Y0D01*
X512311Y77D01*
X514069Y309D01*
X515799Y692D01*
X517490Y1225D01*
X519128Y1904D01*
X520700Y2722D01*
X522195Y3675D01*
X523601Y4754D01*
X524908Y5952D01*
X526106Y7259D01*
X527185Y8665D01*
X528138Y10160D01*
X528956Y11732D01*
X529635Y13370D01*
X530168Y15061D01*
X530551Y16791D01*
X530783Y18549D01*
X530860Y20320D01*
X530860Y200660D01*
X530783Y202431D01*
X530551Y204189D01*
X530168Y205919D01*
X529635Y207610D01*
X528956Y209248D01*
X528138Y210820D01*
X527185Y212315D01*
X526106Y213721D01*
X524908Y215028D01*
X523601Y216226D01*
X522195Y217305D01*
X520700Y218258D01*
X519128Y219076D01*
X517490Y219755D01*
X515799Y220288D01*
X514069Y220671D01*
X512311Y220903D01*
X510540Y220980D01*
X20320Y220980D01*
X18549Y220903D01*
X16791Y220671D01*
X15061Y220288D01*
X13370Y219755D01*
X11732Y219076D01*
X10160Y218258D01*
X8665Y217305D01*
X7259Y216226D01*
X5952Y215028D01*
X4754Y213721D01*
X3675Y212315D01*
X2722Y210820D01*
X1904Y209248D01*
X1225Y207610D01*
X692Y205919D01*
X309Y204189D01*
X77Y202431D01*
X0Y200660D01*
X0Y20320D01*
X34290Y200161D02*
X34219Y199166D01*
X34077Y198178D01*
X33865Y197203D01*
X33584Y196245D01*
X33235Y195311D01*
X32820Y194403D01*
X32342Y193527D01*
X31803Y192688D01*
X31205Y191889D01*
X30551Y191135D01*
X29845Y190429D01*
X29091Y189775D01*
X28293Y189177D01*
X27453Y188638D01*
X26577Y188160D01*
X25670Y187745D01*
X24735Y187396D01*
X23777Y187115D01*
X22802Y186903D01*
X21814Y186761D01*
X20819Y186690D01*
X19821Y186690D01*
X18826Y186761D01*
X17838Y186903D01*
X16863Y187115D01*
X15905Y187396D01*
X14971Y187745D01*
X14063Y188160D01*
X13187Y188638D01*
X12348Y189177D01*
X11549Y189775D01*
X10795Y190429D01*
X10089Y191135D01*
X9435Y191889D01*
X8837Y192688D01*
X8298Y193527D01*
X7820Y194403D01*
X7405Y195311D01*
X7056Y196245D01*
X6775Y197203D01*
X6563Y198178D01*
X6421Y199166D01*
X6350Y200161D01*
X6350Y201159D01*
X6421Y202154D01*
X6563Y203142D01*
X6775Y204117D01*
X7056Y205075D01*
X7405Y206010D01*
X7820Y206917D01*
X8298Y207793D01*
X8837Y208633D01*
X9435Y209431D01*
X10089Y210185D01*
X10795Y210891D01*
X11549Y211545D01*
X12348Y212143D01*
X13187Y212682D01*
X14063Y213160D01*
X14971Y213575D01*
X15905Y213924D01*
X16863Y214205D01*
X17838Y214417D01*
X18826Y214559D01*
X19821Y214630D01*
X20819Y214630D01*
X21814Y214559D01*
X22802Y214417D01*
X23777Y214205D01*
X24735Y213924D01*
X25670Y213575D01*
X26577Y213160D01*
X27453Y212682D01*
X28293Y212143D01*
X29091Y211545D01*
X29845Y210891D01*
X30551Y210185D01*
X31205Y209431D01*
X31803Y208633D01*
X32342Y207793D01*
X32820Y206917D01*
X33235Y206010D01*
X33584Y205075D01*
X33865Y204117D01*
X34077Y203142D01*
X34219Y202154D01*
X34290Y201159D01*
X34290Y200161D01*
X34290Y19821D02*
X34219Y18826D01*
X34077Y17838D01*
X33865Y16863D01*
X33584Y15905D01*
X33235Y14971D01*
X32820Y14063D01*
X32342Y13187D01*
X31803Y12348D01*
X31205Y11549D01*
X30551Y10795D01*
X29845Y10089D01*
X29091Y9435D01*
X28293Y8837D01*
X27453Y8298D01*
X26577Y7820D01*
X25670Y7405D01*
X24735Y7056D01*
X23777Y6775D01*
X22802Y6563D01*
X21814Y6421D01*
X20819Y6350D01*
X19821Y6350D01*
X18826Y6421D01*
X17838Y6563D01*
X16863Y6775D01*
X15905Y7056D01*
X14971Y7405D01*
X14063Y7820D01*
X13187Y8298D01*
X12348Y8837D01*
X11549Y9435D01*
X10795Y10089D01*
X10089Y10795D01*
X9435Y11549D01*
X8837Y12348D01*
X8298Y13187D01*
X7820Y14063D01*
X7405Y14971D01*
X7056Y15905D01*
X6775Y16863D01*
X6563Y17838D01*
X6421Y18826D01*
X6350Y19821D01*
X6350Y20819D01*
X6421Y21814D01*
X6563Y22802D01*
X6775Y23777D01*
X7056Y24735D01*
X7405Y25670D01*
X7820Y26577D01*
X8298Y27453D01*
X8837Y28293D01*
X9435Y29091D01*
X10089Y29845D01*
X10795Y30551D01*
X11549Y31205D01*
X12348Y31803D01*
X13187Y32342D01*
X14063Y32820D01*
X14971Y33235D01*
X15905Y33584D01*
X16863Y33865D01*
X17838Y34077D01*
X18826Y34219D01*
X19821Y34290D01*
X20819Y34290D01*
X21814Y34219D01*
X22802Y34077D01*
X23777Y33865D01*
X24735Y33584D01*
X25670Y33235D01*
X26577Y32820D01*
X27453Y32342D01*
X28293Y31803D01*
X29091Y31205D01*
X29845Y30551D01*
X30551Y29845D01*
X31205Y29091D01*
X31803Y28293D01*
X32342Y27453D01*
X32820Y26577D01*
X33235Y25670D01*
X33584Y24735D01*
X33865Y23777D01*
X34077Y22802D01*
X34219Y21814D01*
X34290Y20819D01*
X34290Y19821D01*
X524510Y19821D02*
X524439Y18826D01*
X524297Y17838D01*
X524085Y16863D01*
X523804Y15905D01*
X523455Y14971D01*
X523040Y14063D01*
X522562Y13187D01*
X522023Y12348D01*
X521425Y11549D01*
X520771Y10795D01*
X520065Y10089D01*
X519311Y9435D01*
X518513Y8837D01*
X517673Y8298D01*
X516797Y7820D01*
X515890Y7405D01*
X514955Y7056D01*
X513997Y6775D01*
X513022Y6563D01*
X512034Y6421D01*
X511039Y6350D01*
X510041Y6350D01*
X509046Y6421D01*
X508058Y6563D01*
X507083Y6775D01*
X506125Y7056D01*
X505191Y7405D01*
X504283Y7820D01*
X503407Y8298D01*
X502568Y8837D01*
X501769Y9435D01*
X501015Y10089D01*
X500309Y10795D01*
X499655Y11549D01*
X499057Y12348D01*
X498518Y13187D01*
X498040Y14063D01*
X497625Y14971D01*
X497276Y15905D01*
X496995Y16863D01*
X496783Y17838D01*
X496641Y18826D01*
X496570Y19821D01*
X496570Y20819D01*
X496641Y21814D01*
X496783Y22802D01*
X496995Y23777D01*
X497276Y24735D01*
X497625Y25670D01*
X498040Y26577D01*
X498518Y27453D01*
X499057Y28293D01*
X499655Y29091D01*
X500309Y29845D01*
X501015Y30551D01*
X501769Y31205D01*
X502568Y31803D01*
X503407Y32342D01*
X504283Y32820D01*
X505191Y33235D01*
X506125Y33584D01*
X507083Y33865D01*
X508058Y34077D01*
X509046Y34219D01*
X510041Y34290D01*
X511039Y34290D01*
X512034Y34219D01*
X513022Y34077D01*
X513997Y33865D01*
X514955Y33584D01*
X515890Y33235D01*
X516797Y32820D01*
X517673Y32342D01*
X518513Y31803D01*
X519311Y31205D01*
X520065Y30551D01*
X520771Y29845D01*
X521425Y29091D01*
X522023Y28293D01*
X522562Y27453D01*
X523040Y26577D01*
X523455Y25670D01*
X523804Y24735D01*
X524085Y23777D01*
X524297Y22802D01*
X524439Y21814D01*
X524510Y20819D01*
X524510Y19821D01*
X524510Y200161D02*
X524439Y199166D01*
X524297Y198178D01*
X524085Y197203D01*
X523804Y196245D01*
X523455Y195311D01*
X523040Y194403D01*
X522562Y193527D01*
X522023Y192688D01*
X521425Y191889D01*
X520771Y191135D01*
X520065Y190429D01*
X519311Y189775D01*
X518513Y189177D01*
X517673Y188638D01*
X516797Y188160D01*
X515890Y187745D01*
X514955Y187396D01*
X513997Y187115D01*
X513022Y186903D01*
X512034Y186761D01*
X511039Y186690D01*
X510041Y186690D01*
X509046Y186761D01*
X508058Y186903D01*
X507083Y187115D01*
X506125Y187396D01*
X505191Y187745D01*
X504283Y188160D01*
X503407Y188638D01*
X502568Y189177D01*
X501769Y189775D01*
X501015Y190429D01*
X500309Y191135D01*
X499655Y191889D01*
X499057Y192688D01*
X498518Y193527D01*
X498040Y194403D01*
X497625Y195311D01*
X497276Y196245D01*
X496995Y197203D01*
X496783Y198178D01*
X496641Y199166D01*
X496570Y200161D01*
X496570Y201159D01*
X496641Y202154D01*
X496783Y203142D01*
X496995Y204117D01*
X497276Y205075D01*
X497625Y206010D01*
X498040Y206917D01*
X498518Y207793D01*
X499057Y208633D01*
X499655Y209431D01*
X500309Y210185D01*
X501015Y210891D01*
X501769Y211545D01*
X502568Y212143D01*
X503407Y212682D01*
X504283Y213160D01*
X505191Y213575D01*
X506125Y213924D01*
X507083Y214205D01*
X508058Y214417D01*
X509046Y214559D01*
X510041Y214630D01*
X511039Y214630D01*
X512034Y214559D01*
X513022Y214417D01*
X513997Y214205D01*
X514955Y213924D01*
X515890Y213575D01*
X516797Y213160D01*
X517673Y212682D01*
X518513Y212143D01*
X519311Y211545D01*
X520065Y210891D01*
X520771Y210185D01*
X521425Y209431D01*
X522023Y208633D01*
X522562Y207793D01*
X523040Y206917D01*
X523455Y206010D01*
X523804Y205075D01*
X524085Y204117D01*
X524297Y203142D01*
X524439Y202154D01*
X524510Y201159D01*
X524510Y200161D01*
M02*
