G04 EAGLE Gerber RS-274X export*
G75*
%MOMM*%
%FSLAX34Y34*%
%LPD*%
%INSilkscreen Top*%
%IPPOS*%
%AMOC8*
5,1,8,0,0,1.08239X$1,22.5*%
G01*
%ADD10C,0.076200*%
%ADD11C,0.200000*%
%ADD12C,0.500000*%
%ADD13C,0.100000*%
%ADD14C,0.254000*%


D10*
X209776Y6872D02*
X211342Y6872D01*
X211342Y1651D01*
X208209Y1651D01*
X208120Y1653D01*
X208032Y1659D01*
X207944Y1668D01*
X207856Y1681D01*
X207769Y1698D01*
X207683Y1718D01*
X207598Y1743D01*
X207513Y1770D01*
X207430Y1802D01*
X207349Y1836D01*
X207269Y1875D01*
X207191Y1916D01*
X207114Y1961D01*
X207040Y2009D01*
X206967Y2060D01*
X206897Y2114D01*
X206830Y2172D01*
X206764Y2232D01*
X206702Y2294D01*
X206642Y2360D01*
X206584Y2427D01*
X206530Y2497D01*
X206479Y2570D01*
X206431Y2644D01*
X206386Y2721D01*
X206345Y2799D01*
X206306Y2879D01*
X206272Y2960D01*
X206240Y3043D01*
X206213Y3128D01*
X206188Y3213D01*
X206168Y3299D01*
X206151Y3386D01*
X206138Y3474D01*
X206129Y3562D01*
X206123Y3650D01*
X206121Y3739D01*
X206121Y8961D01*
X206123Y9052D01*
X206129Y9143D01*
X206139Y9234D01*
X206153Y9324D01*
X206170Y9413D01*
X206192Y9501D01*
X206218Y9589D01*
X206247Y9675D01*
X206280Y9760D01*
X206317Y9843D01*
X206357Y9925D01*
X206401Y10005D01*
X206448Y10083D01*
X206499Y10159D01*
X206552Y10232D01*
X206609Y10303D01*
X206670Y10372D01*
X206733Y10437D01*
X206798Y10500D01*
X206867Y10560D01*
X206938Y10618D01*
X207011Y10671D01*
X207087Y10722D01*
X207165Y10769D01*
X207245Y10813D01*
X207327Y10853D01*
X207410Y10890D01*
X207495Y10923D01*
X207581Y10952D01*
X207669Y10978D01*
X207757Y11000D01*
X207846Y11017D01*
X207936Y11031D01*
X208027Y11041D01*
X208118Y11047D01*
X208209Y11049D01*
X211342Y11049D01*
X216352Y9744D02*
X216273Y9577D01*
X216198Y9408D01*
X216127Y9237D01*
X216060Y9065D01*
X215998Y8891D01*
X215939Y8715D01*
X215885Y8539D01*
X215835Y8361D01*
X215789Y8181D01*
X215747Y8001D01*
X215710Y7820D01*
X215677Y7638D01*
X215648Y7456D01*
X215624Y7272D01*
X215604Y7088D01*
X215589Y6904D01*
X215578Y6720D01*
X215571Y6535D01*
X215569Y6350D01*
X216352Y9744D02*
X216382Y9824D01*
X216415Y9903D01*
X216452Y9980D01*
X216492Y10056D01*
X216535Y10130D01*
X216581Y10202D01*
X216631Y10271D01*
X216683Y10339D01*
X216739Y10404D01*
X216797Y10467D01*
X216859Y10526D01*
X216922Y10584D01*
X216989Y10638D01*
X217057Y10689D01*
X217128Y10737D01*
X217201Y10782D01*
X217275Y10824D01*
X217352Y10862D01*
X217430Y10897D01*
X217509Y10929D01*
X217590Y10957D01*
X217672Y10981D01*
X217756Y11002D01*
X217839Y11019D01*
X217924Y11032D01*
X218009Y11041D01*
X218094Y11047D01*
X218180Y11049D01*
X218266Y11047D01*
X218351Y11041D01*
X218436Y11032D01*
X218521Y11019D01*
X218604Y11002D01*
X218688Y10981D01*
X218770Y10957D01*
X218851Y10929D01*
X218930Y10897D01*
X219008Y10862D01*
X219085Y10824D01*
X219159Y10782D01*
X219232Y10737D01*
X219303Y10689D01*
X219371Y10638D01*
X219438Y10584D01*
X219501Y10526D01*
X219563Y10467D01*
X219621Y10404D01*
X219677Y10339D01*
X219729Y10271D01*
X219779Y10202D01*
X219825Y10130D01*
X219868Y10056D01*
X219908Y9980D01*
X219945Y9903D01*
X219978Y9824D01*
X220008Y9744D01*
X220087Y9577D01*
X220162Y9408D01*
X220233Y9237D01*
X220300Y9065D01*
X220362Y8891D01*
X220421Y8715D01*
X220475Y8539D01*
X220525Y8361D01*
X220571Y8181D01*
X220613Y8001D01*
X220650Y7820D01*
X220683Y7638D01*
X220712Y7456D01*
X220736Y7272D01*
X220756Y7088D01*
X220771Y6904D01*
X220782Y6720D01*
X220789Y6535D01*
X220791Y6350D01*
X215570Y6350D02*
X215572Y6165D01*
X215579Y5980D01*
X215590Y5796D01*
X215605Y5612D01*
X215625Y5428D01*
X215649Y5244D01*
X215678Y5062D01*
X215711Y4880D01*
X215748Y4699D01*
X215790Y4519D01*
X215836Y4339D01*
X215886Y4161D01*
X215940Y3985D01*
X215999Y3809D01*
X216061Y3635D01*
X216128Y3463D01*
X216199Y3292D01*
X216274Y3123D01*
X216353Y2956D01*
X216352Y2956D02*
X216382Y2876D01*
X216415Y2797D01*
X216452Y2720D01*
X216492Y2644D01*
X216535Y2570D01*
X216581Y2498D01*
X216631Y2429D01*
X216684Y2361D01*
X216739Y2296D01*
X216798Y2233D01*
X216859Y2174D01*
X216922Y2116D01*
X216989Y2062D01*
X217057Y2011D01*
X217128Y1963D01*
X217201Y1918D01*
X217275Y1876D01*
X217352Y1838D01*
X217430Y1803D01*
X217509Y1771D01*
X217590Y1743D01*
X217672Y1719D01*
X217756Y1698D01*
X217839Y1681D01*
X217924Y1668D01*
X218009Y1659D01*
X218094Y1653D01*
X218180Y1651D01*
X220008Y2956D02*
X220087Y3123D01*
X220162Y3292D01*
X220233Y3463D01*
X220300Y3635D01*
X220362Y3809D01*
X220421Y3985D01*
X220475Y4161D01*
X220525Y4339D01*
X220571Y4519D01*
X220613Y4699D01*
X220650Y4880D01*
X220683Y5062D01*
X220712Y5244D01*
X220736Y5428D01*
X220756Y5612D01*
X220771Y5796D01*
X220782Y5980D01*
X220789Y6165D01*
X220791Y6350D01*
X220008Y2956D02*
X219978Y2876D01*
X219945Y2797D01*
X219908Y2720D01*
X219868Y2644D01*
X219825Y2570D01*
X219779Y2498D01*
X219729Y2429D01*
X219677Y2361D01*
X219621Y2296D01*
X219563Y2233D01*
X219501Y2174D01*
X219438Y2116D01*
X219371Y2062D01*
X219303Y2011D01*
X219232Y1963D01*
X219159Y1918D01*
X219085Y1876D01*
X219008Y1838D01*
X218930Y1803D01*
X218851Y1771D01*
X218770Y1743D01*
X218688Y1719D01*
X218604Y1698D01*
X218521Y1681D01*
X218436Y1668D01*
X218351Y1659D01*
X218266Y1653D01*
X218180Y1651D01*
X216092Y3739D02*
X220269Y8961D01*
X181991Y11049D02*
X181991Y1651D01*
X181991Y11049D02*
X184602Y11049D01*
X184703Y11047D01*
X184804Y11041D01*
X184905Y11031D01*
X185005Y11018D01*
X185105Y11000D01*
X185204Y10979D01*
X185302Y10953D01*
X185399Y10924D01*
X185495Y10892D01*
X185589Y10855D01*
X185682Y10815D01*
X185774Y10771D01*
X185863Y10724D01*
X185951Y10673D01*
X186037Y10619D01*
X186120Y10562D01*
X186202Y10502D01*
X186280Y10438D01*
X186357Y10372D01*
X186430Y10302D01*
X186501Y10230D01*
X186569Y10155D01*
X186634Y10077D01*
X186696Y9997D01*
X186755Y9915D01*
X186811Y9830D01*
X186863Y9743D01*
X186912Y9655D01*
X186958Y9564D01*
X186999Y9472D01*
X187038Y9378D01*
X187072Y9283D01*
X187103Y9187D01*
X187130Y9089D01*
X187154Y8991D01*
X187173Y8891D01*
X187189Y8791D01*
X187201Y8691D01*
X187209Y8590D01*
X187213Y8489D01*
X187213Y8387D01*
X187209Y8286D01*
X187201Y8185D01*
X187189Y8085D01*
X187173Y7985D01*
X187154Y7885D01*
X187130Y7787D01*
X187103Y7689D01*
X187072Y7593D01*
X187038Y7498D01*
X186999Y7404D01*
X186958Y7312D01*
X186912Y7221D01*
X186863Y7132D01*
X186811Y7046D01*
X186755Y6961D01*
X186696Y6879D01*
X186634Y6799D01*
X186569Y6721D01*
X186501Y6646D01*
X186430Y6574D01*
X186357Y6504D01*
X186280Y6438D01*
X186202Y6374D01*
X186120Y6314D01*
X186037Y6257D01*
X185951Y6203D01*
X185863Y6152D01*
X185774Y6105D01*
X185682Y6061D01*
X185589Y6021D01*
X185495Y5984D01*
X185399Y5952D01*
X185302Y5923D01*
X185204Y5897D01*
X185105Y5876D01*
X185005Y5858D01*
X184905Y5845D01*
X184804Y5835D01*
X184703Y5829D01*
X184602Y5827D01*
X184602Y5828D02*
X181991Y5828D01*
X185124Y5828D02*
X187212Y1651D01*
X190556Y1651D02*
X196821Y11049D01*
X190556Y11049D02*
X196821Y1651D01*
X157932Y1651D02*
X157932Y11049D01*
X160542Y11049D02*
X155321Y11049D01*
X163333Y1651D02*
X169599Y11049D01*
X163333Y11049D02*
X169599Y1651D01*
X131191Y1651D02*
X131191Y11049D01*
X133802Y11049D01*
X133903Y11047D01*
X134004Y11041D01*
X134105Y11031D01*
X134205Y11018D01*
X134305Y11000D01*
X134404Y10979D01*
X134502Y10953D01*
X134599Y10924D01*
X134695Y10892D01*
X134789Y10855D01*
X134882Y10815D01*
X134974Y10771D01*
X135063Y10724D01*
X135151Y10673D01*
X135237Y10619D01*
X135320Y10562D01*
X135402Y10502D01*
X135480Y10438D01*
X135557Y10372D01*
X135630Y10302D01*
X135701Y10230D01*
X135769Y10155D01*
X135834Y10077D01*
X135896Y9997D01*
X135955Y9915D01*
X136011Y9830D01*
X136063Y9743D01*
X136112Y9655D01*
X136158Y9564D01*
X136199Y9472D01*
X136238Y9378D01*
X136272Y9283D01*
X136303Y9187D01*
X136330Y9089D01*
X136354Y8991D01*
X136373Y8891D01*
X136389Y8791D01*
X136401Y8691D01*
X136409Y8590D01*
X136413Y8489D01*
X136413Y8387D01*
X136409Y8286D01*
X136401Y8185D01*
X136389Y8085D01*
X136373Y7985D01*
X136354Y7885D01*
X136330Y7787D01*
X136303Y7689D01*
X136272Y7593D01*
X136238Y7498D01*
X136199Y7404D01*
X136158Y7312D01*
X136112Y7221D01*
X136063Y7132D01*
X136011Y7046D01*
X135955Y6961D01*
X135896Y6879D01*
X135834Y6799D01*
X135769Y6721D01*
X135701Y6646D01*
X135630Y6574D01*
X135557Y6504D01*
X135480Y6438D01*
X135402Y6374D01*
X135320Y6314D01*
X135237Y6257D01*
X135151Y6203D01*
X135063Y6152D01*
X134974Y6105D01*
X134882Y6061D01*
X134789Y6021D01*
X134695Y5984D01*
X134599Y5952D01*
X134502Y5923D01*
X134404Y5897D01*
X134305Y5876D01*
X134205Y5858D01*
X134105Y5845D01*
X134004Y5835D01*
X133903Y5829D01*
X133802Y5827D01*
X133802Y5828D02*
X131191Y5828D01*
X134324Y5828D02*
X136412Y1651D01*
X143106Y1651D02*
X143195Y1653D01*
X143283Y1659D01*
X143371Y1668D01*
X143459Y1681D01*
X143546Y1698D01*
X143632Y1718D01*
X143717Y1743D01*
X143802Y1770D01*
X143885Y1802D01*
X143966Y1836D01*
X144046Y1875D01*
X144124Y1916D01*
X144201Y1961D01*
X144275Y2009D01*
X144348Y2060D01*
X144418Y2114D01*
X144485Y2172D01*
X144551Y2232D01*
X144613Y2294D01*
X144673Y2360D01*
X144731Y2427D01*
X144785Y2497D01*
X144836Y2570D01*
X144884Y2644D01*
X144929Y2721D01*
X144970Y2799D01*
X145009Y2879D01*
X145043Y2960D01*
X145075Y3043D01*
X145102Y3128D01*
X145127Y3213D01*
X145147Y3299D01*
X145164Y3386D01*
X145177Y3474D01*
X145186Y3562D01*
X145192Y3650D01*
X145194Y3739D01*
X143106Y1651D02*
X142977Y1653D01*
X142848Y1659D01*
X142719Y1668D01*
X142591Y1681D01*
X142463Y1698D01*
X142336Y1719D01*
X142209Y1743D01*
X142083Y1771D01*
X141958Y1803D01*
X141834Y1838D01*
X141711Y1877D01*
X141589Y1920D01*
X141469Y1966D01*
X141350Y2016D01*
X141232Y2069D01*
X141116Y2125D01*
X141002Y2185D01*
X140889Y2248D01*
X140779Y2315D01*
X140670Y2384D01*
X140564Y2457D01*
X140459Y2533D01*
X140357Y2612D01*
X140258Y2694D01*
X140160Y2778D01*
X140065Y2866D01*
X139973Y2956D01*
X140235Y8961D02*
X140237Y9050D01*
X140243Y9138D01*
X140252Y9226D01*
X140265Y9314D01*
X140282Y9401D01*
X140302Y9487D01*
X140327Y9572D01*
X140354Y9657D01*
X140386Y9740D01*
X140420Y9821D01*
X140459Y9901D01*
X140500Y9979D01*
X140545Y10056D01*
X140593Y10130D01*
X140644Y10203D01*
X140698Y10273D01*
X140756Y10340D01*
X140816Y10406D01*
X140878Y10468D01*
X140944Y10528D01*
X141011Y10586D01*
X141081Y10640D01*
X141154Y10691D01*
X141228Y10739D01*
X141305Y10784D01*
X141383Y10825D01*
X141463Y10864D01*
X141544Y10898D01*
X141627Y10930D01*
X141712Y10957D01*
X141797Y10982D01*
X141883Y11002D01*
X141970Y11019D01*
X142058Y11032D01*
X142146Y11041D01*
X142234Y11047D01*
X142323Y11049D01*
X142443Y11047D01*
X142563Y11042D01*
X142683Y11032D01*
X142802Y11020D01*
X142921Y11003D01*
X143039Y10983D01*
X143157Y10959D01*
X143273Y10932D01*
X143389Y10901D01*
X143504Y10867D01*
X143618Y10829D01*
X143731Y10787D01*
X143842Y10742D01*
X143952Y10694D01*
X144060Y10643D01*
X144167Y10588D01*
X144272Y10530D01*
X144375Y10468D01*
X144476Y10404D01*
X144576Y10336D01*
X144673Y10266D01*
X141278Y7134D02*
X141200Y7182D01*
X141124Y7234D01*
X141051Y7288D01*
X140980Y7346D01*
X140911Y7407D01*
X140845Y7471D01*
X140782Y7538D01*
X140722Y7607D01*
X140665Y7679D01*
X140611Y7753D01*
X140561Y7830D01*
X140513Y7909D01*
X140470Y7989D01*
X140429Y8072D01*
X140393Y8156D01*
X140360Y8241D01*
X140331Y8328D01*
X140305Y8417D01*
X140283Y8506D01*
X140266Y8596D01*
X140252Y8686D01*
X140242Y8778D01*
X140236Y8869D01*
X140234Y8961D01*
X144150Y5566D02*
X144228Y5518D01*
X144304Y5466D01*
X144377Y5412D01*
X144448Y5354D01*
X144517Y5293D01*
X144583Y5229D01*
X144646Y5162D01*
X144706Y5093D01*
X144763Y5021D01*
X144817Y4947D01*
X144867Y4870D01*
X144915Y4791D01*
X144958Y4711D01*
X144999Y4628D01*
X145035Y4544D01*
X145068Y4459D01*
X145097Y4372D01*
X145123Y4283D01*
X145145Y4194D01*
X145162Y4104D01*
X145176Y4014D01*
X145186Y3922D01*
X145192Y3831D01*
X145194Y3739D01*
X144150Y5567D02*
X141278Y7133D01*
X104592Y1651D02*
X101981Y1651D01*
X104592Y1651D02*
X104693Y1653D01*
X104794Y1659D01*
X104895Y1669D01*
X104995Y1682D01*
X105095Y1700D01*
X105194Y1721D01*
X105292Y1747D01*
X105389Y1776D01*
X105485Y1808D01*
X105579Y1845D01*
X105672Y1885D01*
X105764Y1929D01*
X105853Y1976D01*
X105941Y2027D01*
X106027Y2081D01*
X106110Y2138D01*
X106192Y2198D01*
X106270Y2262D01*
X106347Y2328D01*
X106420Y2398D01*
X106491Y2470D01*
X106559Y2545D01*
X106624Y2623D01*
X106686Y2703D01*
X106745Y2785D01*
X106801Y2870D01*
X106853Y2956D01*
X106902Y3045D01*
X106948Y3136D01*
X106989Y3228D01*
X107028Y3322D01*
X107062Y3417D01*
X107093Y3513D01*
X107120Y3611D01*
X107144Y3709D01*
X107163Y3809D01*
X107179Y3909D01*
X107191Y4009D01*
X107199Y4110D01*
X107203Y4211D01*
X107203Y4313D01*
X107199Y4414D01*
X107191Y4515D01*
X107179Y4615D01*
X107163Y4715D01*
X107144Y4815D01*
X107120Y4913D01*
X107093Y5011D01*
X107062Y5107D01*
X107028Y5202D01*
X106989Y5296D01*
X106948Y5388D01*
X106902Y5479D01*
X106853Y5567D01*
X106801Y5654D01*
X106745Y5739D01*
X106686Y5821D01*
X106624Y5901D01*
X106559Y5979D01*
X106491Y6054D01*
X106420Y6126D01*
X106347Y6196D01*
X106270Y6262D01*
X106192Y6326D01*
X106110Y6386D01*
X106027Y6443D01*
X105941Y6497D01*
X105853Y6548D01*
X105764Y6595D01*
X105672Y6639D01*
X105579Y6679D01*
X105485Y6716D01*
X105389Y6748D01*
X105292Y6777D01*
X105194Y6803D01*
X105095Y6824D01*
X104995Y6842D01*
X104895Y6855D01*
X104794Y6865D01*
X104693Y6871D01*
X104592Y6873D01*
X105114Y11049D02*
X101981Y11049D01*
X105114Y11049D02*
X105204Y11047D01*
X105293Y11041D01*
X105383Y11032D01*
X105472Y11018D01*
X105560Y11001D01*
X105647Y10980D01*
X105734Y10955D01*
X105819Y10926D01*
X105903Y10894D01*
X105985Y10859D01*
X106066Y10819D01*
X106145Y10777D01*
X106222Y10731D01*
X106297Y10681D01*
X106370Y10629D01*
X106441Y10573D01*
X106509Y10515D01*
X106574Y10453D01*
X106637Y10389D01*
X106697Y10322D01*
X106754Y10253D01*
X106808Y10181D01*
X106859Y10107D01*
X106907Y10031D01*
X106951Y9953D01*
X106992Y9873D01*
X107030Y9791D01*
X107064Y9708D01*
X107094Y9623D01*
X107121Y9537D01*
X107144Y9451D01*
X107163Y9363D01*
X107178Y9274D01*
X107190Y9185D01*
X107198Y9096D01*
X107202Y9006D01*
X107202Y8916D01*
X107198Y8826D01*
X107190Y8737D01*
X107178Y8648D01*
X107163Y8559D01*
X107144Y8471D01*
X107121Y8385D01*
X107094Y8299D01*
X107064Y8214D01*
X107030Y8131D01*
X106992Y8049D01*
X106951Y7969D01*
X106907Y7891D01*
X106859Y7815D01*
X106808Y7741D01*
X106754Y7669D01*
X106697Y7600D01*
X106637Y7533D01*
X106574Y7469D01*
X106509Y7407D01*
X106441Y7349D01*
X106370Y7293D01*
X106297Y7241D01*
X106222Y7191D01*
X106145Y7145D01*
X106066Y7103D01*
X105985Y7063D01*
X105903Y7028D01*
X105819Y6996D01*
X105734Y6967D01*
X105647Y6942D01*
X105560Y6921D01*
X105472Y6904D01*
X105383Y6890D01*
X105293Y6881D01*
X105204Y6875D01*
X105114Y6873D01*
X105114Y6872D02*
X103025Y6872D01*
X110603Y11049D02*
X113736Y1651D01*
X116868Y11049D01*
X120269Y1651D02*
X122879Y1651D01*
X122980Y1653D01*
X123081Y1659D01*
X123182Y1669D01*
X123282Y1682D01*
X123382Y1700D01*
X123481Y1721D01*
X123579Y1747D01*
X123676Y1776D01*
X123772Y1808D01*
X123866Y1845D01*
X123959Y1885D01*
X124051Y1929D01*
X124140Y1976D01*
X124228Y2027D01*
X124314Y2081D01*
X124397Y2138D01*
X124479Y2198D01*
X124557Y2262D01*
X124634Y2328D01*
X124707Y2398D01*
X124778Y2470D01*
X124846Y2545D01*
X124911Y2623D01*
X124973Y2703D01*
X125032Y2785D01*
X125088Y2870D01*
X125140Y2956D01*
X125189Y3045D01*
X125235Y3136D01*
X125276Y3228D01*
X125315Y3322D01*
X125349Y3417D01*
X125380Y3513D01*
X125407Y3611D01*
X125431Y3709D01*
X125450Y3809D01*
X125466Y3909D01*
X125478Y4009D01*
X125486Y4110D01*
X125490Y4211D01*
X125490Y4313D01*
X125486Y4414D01*
X125478Y4515D01*
X125466Y4615D01*
X125450Y4715D01*
X125431Y4815D01*
X125407Y4913D01*
X125380Y5011D01*
X125349Y5107D01*
X125315Y5202D01*
X125276Y5296D01*
X125235Y5388D01*
X125189Y5479D01*
X125140Y5567D01*
X125088Y5654D01*
X125032Y5739D01*
X124973Y5821D01*
X124911Y5901D01*
X124846Y5979D01*
X124778Y6054D01*
X124707Y6126D01*
X124634Y6196D01*
X124557Y6262D01*
X124479Y6326D01*
X124397Y6386D01*
X124314Y6443D01*
X124228Y6497D01*
X124140Y6548D01*
X124051Y6595D01*
X123959Y6639D01*
X123866Y6679D01*
X123772Y6716D01*
X123676Y6748D01*
X123579Y6777D01*
X123481Y6803D01*
X123382Y6824D01*
X123282Y6842D01*
X123182Y6855D01*
X123081Y6865D01*
X122980Y6871D01*
X122879Y6873D01*
X123402Y11049D02*
X120269Y11049D01*
X123402Y11049D02*
X123492Y11047D01*
X123581Y11041D01*
X123671Y11032D01*
X123760Y11018D01*
X123848Y11001D01*
X123935Y10980D01*
X124022Y10955D01*
X124107Y10926D01*
X124191Y10894D01*
X124273Y10859D01*
X124354Y10819D01*
X124433Y10777D01*
X124510Y10731D01*
X124585Y10681D01*
X124658Y10629D01*
X124729Y10573D01*
X124797Y10515D01*
X124862Y10453D01*
X124925Y10389D01*
X124985Y10322D01*
X125042Y10253D01*
X125096Y10181D01*
X125147Y10107D01*
X125195Y10031D01*
X125239Y9953D01*
X125280Y9873D01*
X125318Y9791D01*
X125352Y9708D01*
X125382Y9623D01*
X125409Y9537D01*
X125432Y9451D01*
X125451Y9363D01*
X125466Y9274D01*
X125478Y9185D01*
X125486Y9096D01*
X125490Y9006D01*
X125490Y8916D01*
X125486Y8826D01*
X125478Y8737D01*
X125466Y8648D01*
X125451Y8559D01*
X125432Y8471D01*
X125409Y8385D01*
X125382Y8299D01*
X125352Y8214D01*
X125318Y8131D01*
X125280Y8049D01*
X125239Y7969D01*
X125195Y7891D01*
X125147Y7815D01*
X125096Y7741D01*
X125042Y7669D01*
X124985Y7600D01*
X124925Y7533D01*
X124862Y7469D01*
X124797Y7407D01*
X124729Y7349D01*
X124658Y7293D01*
X124585Y7241D01*
X124510Y7191D01*
X124433Y7145D01*
X124354Y7103D01*
X124273Y7063D01*
X124191Y7028D01*
X124107Y6996D01*
X124022Y6967D01*
X123935Y6942D01*
X123848Y6921D01*
X123760Y6904D01*
X123671Y6890D01*
X123581Y6881D01*
X123492Y6875D01*
X123402Y6873D01*
X123402Y6872D02*
X121313Y6872D01*
X74182Y6872D02*
X72616Y6872D01*
X74182Y6872D02*
X74182Y1651D01*
X71049Y1651D01*
X70960Y1653D01*
X70872Y1659D01*
X70784Y1668D01*
X70696Y1681D01*
X70609Y1698D01*
X70523Y1718D01*
X70438Y1743D01*
X70353Y1770D01*
X70270Y1802D01*
X70189Y1836D01*
X70109Y1875D01*
X70031Y1916D01*
X69954Y1961D01*
X69880Y2009D01*
X69807Y2060D01*
X69737Y2114D01*
X69670Y2172D01*
X69604Y2232D01*
X69542Y2294D01*
X69482Y2360D01*
X69424Y2427D01*
X69370Y2497D01*
X69319Y2570D01*
X69271Y2644D01*
X69226Y2721D01*
X69185Y2799D01*
X69146Y2879D01*
X69112Y2960D01*
X69080Y3043D01*
X69053Y3128D01*
X69028Y3213D01*
X69008Y3299D01*
X68991Y3386D01*
X68978Y3474D01*
X68969Y3562D01*
X68963Y3650D01*
X68961Y3739D01*
X68961Y8961D01*
X68963Y9052D01*
X68969Y9143D01*
X68979Y9234D01*
X68993Y9324D01*
X69010Y9413D01*
X69032Y9501D01*
X69058Y9589D01*
X69087Y9675D01*
X69120Y9760D01*
X69157Y9843D01*
X69197Y9925D01*
X69241Y10005D01*
X69288Y10083D01*
X69339Y10159D01*
X69392Y10232D01*
X69449Y10303D01*
X69510Y10372D01*
X69573Y10437D01*
X69638Y10500D01*
X69707Y10560D01*
X69778Y10618D01*
X69851Y10671D01*
X69927Y10722D01*
X70005Y10769D01*
X70085Y10813D01*
X70167Y10853D01*
X70250Y10890D01*
X70335Y10923D01*
X70421Y10952D01*
X70509Y10978D01*
X70597Y11000D01*
X70686Y11017D01*
X70776Y11031D01*
X70867Y11041D01*
X70958Y11047D01*
X71049Y11049D01*
X74182Y11049D01*
X78715Y11049D02*
X78715Y1651D01*
X83936Y1651D02*
X78715Y11049D01*
X83936Y11049D02*
X83936Y1651D01*
X88468Y1651D02*
X88468Y11049D01*
X91079Y11049D01*
X91179Y11047D01*
X91279Y11041D01*
X91378Y11032D01*
X91478Y11018D01*
X91576Y11001D01*
X91674Y10980D01*
X91771Y10956D01*
X91867Y10927D01*
X91962Y10895D01*
X92055Y10860D01*
X92147Y10821D01*
X92238Y10778D01*
X92326Y10732D01*
X92413Y10682D01*
X92498Y10630D01*
X92581Y10574D01*
X92662Y10515D01*
X92740Y10452D01*
X92816Y10387D01*
X92890Y10319D01*
X92960Y10249D01*
X93028Y10175D01*
X93093Y10099D01*
X93156Y10021D01*
X93215Y9940D01*
X93271Y9857D01*
X93323Y9772D01*
X93373Y9685D01*
X93419Y9597D01*
X93462Y9506D01*
X93501Y9414D01*
X93536Y9321D01*
X93568Y9226D01*
X93597Y9130D01*
X93621Y9033D01*
X93642Y8935D01*
X93659Y8837D01*
X93673Y8737D01*
X93682Y8638D01*
X93688Y8538D01*
X93690Y8438D01*
X93689Y8438D02*
X93689Y4262D01*
X93690Y4262D02*
X93688Y4162D01*
X93682Y4062D01*
X93673Y3963D01*
X93659Y3863D01*
X93642Y3765D01*
X93621Y3667D01*
X93597Y3570D01*
X93568Y3474D01*
X93536Y3379D01*
X93501Y3286D01*
X93462Y3194D01*
X93419Y3103D01*
X93373Y3015D01*
X93323Y2928D01*
X93271Y2843D01*
X93215Y2760D01*
X93156Y2679D01*
X93093Y2601D01*
X93028Y2525D01*
X92960Y2451D01*
X92890Y2381D01*
X92816Y2313D01*
X92740Y2248D01*
X92662Y2185D01*
X92581Y2126D01*
X92498Y2070D01*
X92413Y2018D01*
X92326Y1968D01*
X92238Y1922D01*
X92147Y1879D01*
X92055Y1840D01*
X91962Y1805D01*
X91867Y1773D01*
X91771Y1744D01*
X91674Y1720D01*
X91576Y1699D01*
X91478Y1682D01*
X91378Y1668D01*
X91279Y1659D01*
X91179Y1653D01*
X91079Y1651D01*
X88468Y1651D01*
D11*
X177570Y129730D02*
X180570Y129730D01*
X180570Y121730D01*
X177570Y121730D01*
X177570Y129730D01*
D10*
X155224Y121031D02*
X153135Y121031D01*
X153046Y121033D01*
X152958Y121039D01*
X152870Y121048D01*
X152782Y121061D01*
X152695Y121078D01*
X152609Y121098D01*
X152524Y121123D01*
X152439Y121150D01*
X152356Y121182D01*
X152275Y121216D01*
X152195Y121255D01*
X152117Y121296D01*
X152040Y121341D01*
X151966Y121389D01*
X151893Y121440D01*
X151823Y121494D01*
X151756Y121552D01*
X151690Y121612D01*
X151628Y121674D01*
X151568Y121740D01*
X151510Y121807D01*
X151456Y121877D01*
X151405Y121950D01*
X151357Y122024D01*
X151312Y122101D01*
X151271Y122179D01*
X151232Y122259D01*
X151198Y122340D01*
X151166Y122423D01*
X151139Y122508D01*
X151114Y122593D01*
X151094Y122679D01*
X151077Y122766D01*
X151064Y122854D01*
X151055Y122942D01*
X151049Y123030D01*
X151047Y123119D01*
X151047Y128341D01*
X151049Y128432D01*
X151055Y128523D01*
X151065Y128614D01*
X151079Y128704D01*
X151096Y128793D01*
X151118Y128881D01*
X151144Y128969D01*
X151173Y129055D01*
X151206Y129140D01*
X151243Y129223D01*
X151283Y129305D01*
X151327Y129385D01*
X151374Y129463D01*
X151425Y129539D01*
X151478Y129612D01*
X151535Y129683D01*
X151596Y129752D01*
X151659Y129817D01*
X151724Y129880D01*
X151793Y129940D01*
X151864Y129998D01*
X151937Y130051D01*
X152013Y130102D01*
X152091Y130149D01*
X152171Y130193D01*
X152253Y130233D01*
X152336Y130270D01*
X152421Y130303D01*
X152507Y130332D01*
X152595Y130358D01*
X152683Y130380D01*
X152772Y130397D01*
X152862Y130411D01*
X152953Y130421D01*
X153044Y130427D01*
X153135Y130429D01*
X155224Y130429D01*
X158692Y128341D02*
X161303Y130429D01*
X161303Y121031D01*
X163913Y121031D02*
X158692Y121031D01*
D11*
X61190Y106490D02*
X58190Y106490D01*
X58190Y114490D01*
X61190Y114490D01*
X61190Y106490D01*
D10*
X57433Y117221D02*
X55345Y117221D01*
X55256Y117223D01*
X55168Y117229D01*
X55080Y117238D01*
X54992Y117251D01*
X54905Y117268D01*
X54819Y117288D01*
X54734Y117313D01*
X54649Y117340D01*
X54566Y117372D01*
X54485Y117406D01*
X54405Y117445D01*
X54327Y117486D01*
X54250Y117531D01*
X54176Y117579D01*
X54103Y117630D01*
X54033Y117684D01*
X53966Y117742D01*
X53900Y117802D01*
X53838Y117864D01*
X53778Y117930D01*
X53720Y117997D01*
X53666Y118067D01*
X53615Y118140D01*
X53567Y118214D01*
X53522Y118291D01*
X53481Y118369D01*
X53442Y118449D01*
X53408Y118530D01*
X53376Y118613D01*
X53349Y118698D01*
X53324Y118783D01*
X53304Y118869D01*
X53287Y118956D01*
X53274Y119044D01*
X53265Y119132D01*
X53259Y119220D01*
X53257Y119309D01*
X53257Y124531D01*
X53259Y124622D01*
X53265Y124713D01*
X53275Y124804D01*
X53289Y124894D01*
X53306Y124983D01*
X53328Y125071D01*
X53354Y125159D01*
X53383Y125245D01*
X53416Y125330D01*
X53453Y125413D01*
X53493Y125495D01*
X53537Y125575D01*
X53584Y125653D01*
X53635Y125729D01*
X53688Y125802D01*
X53745Y125873D01*
X53806Y125942D01*
X53869Y126007D01*
X53934Y126070D01*
X54003Y126130D01*
X54074Y126188D01*
X54147Y126241D01*
X54223Y126292D01*
X54301Y126339D01*
X54381Y126383D01*
X54463Y126423D01*
X54546Y126460D01*
X54631Y126493D01*
X54717Y126522D01*
X54805Y126548D01*
X54893Y126570D01*
X54982Y126587D01*
X55072Y126601D01*
X55163Y126611D01*
X55254Y126617D01*
X55345Y126619D01*
X57433Y126619D01*
X63774Y126620D02*
X63869Y126618D01*
X63963Y126612D01*
X64057Y126603D01*
X64151Y126590D01*
X64244Y126573D01*
X64336Y126552D01*
X64428Y126527D01*
X64518Y126499D01*
X64607Y126467D01*
X64695Y126432D01*
X64781Y126393D01*
X64866Y126351D01*
X64949Y126305D01*
X65030Y126256D01*
X65109Y126204D01*
X65186Y126149D01*
X65260Y126090D01*
X65332Y126029D01*
X65402Y125965D01*
X65469Y125898D01*
X65533Y125828D01*
X65594Y125756D01*
X65653Y125682D01*
X65708Y125605D01*
X65760Y125526D01*
X65809Y125445D01*
X65855Y125362D01*
X65897Y125277D01*
X65936Y125191D01*
X65971Y125103D01*
X66003Y125014D01*
X66031Y124924D01*
X66056Y124832D01*
X66077Y124740D01*
X66094Y124647D01*
X66107Y124553D01*
X66116Y124459D01*
X66122Y124365D01*
X66124Y124270D01*
X63774Y126619D02*
X63666Y126617D01*
X63557Y126611D01*
X63449Y126601D01*
X63342Y126588D01*
X63235Y126570D01*
X63128Y126549D01*
X63023Y126524D01*
X62918Y126495D01*
X62815Y126463D01*
X62713Y126426D01*
X62612Y126386D01*
X62513Y126343D01*
X62415Y126296D01*
X62319Y126245D01*
X62225Y126191D01*
X62133Y126134D01*
X62043Y126073D01*
X61955Y126009D01*
X61870Y125943D01*
X61787Y125873D01*
X61707Y125800D01*
X61629Y125724D01*
X61554Y125646D01*
X61482Y125565D01*
X61413Y125481D01*
X61347Y125395D01*
X61284Y125307D01*
X61225Y125216D01*
X61168Y125124D01*
X61115Y125029D01*
X61066Y124933D01*
X61020Y124834D01*
X60977Y124735D01*
X60938Y124633D01*
X60903Y124531D01*
X65341Y122442D02*
X65410Y122511D01*
X65476Y122582D01*
X65540Y122655D01*
X65601Y122731D01*
X65659Y122810D01*
X65713Y122890D01*
X65765Y122973D01*
X65813Y123057D01*
X65859Y123143D01*
X65900Y123231D01*
X65939Y123321D01*
X65974Y123412D01*
X66005Y123504D01*
X66033Y123597D01*
X66057Y123691D01*
X66077Y123786D01*
X66094Y123882D01*
X66107Y123979D01*
X66116Y124076D01*
X66122Y124173D01*
X66124Y124270D01*
X65340Y122442D02*
X60902Y117221D01*
X66123Y117221D01*
D11*
X51880Y139470D02*
X51880Y142470D01*
X59880Y142470D01*
X59880Y139470D01*
X51880Y139470D01*
D10*
X60579Y169645D02*
X60579Y171734D01*
X60579Y169645D02*
X60577Y169556D01*
X60571Y169468D01*
X60562Y169380D01*
X60549Y169292D01*
X60532Y169205D01*
X60512Y169119D01*
X60487Y169034D01*
X60460Y168949D01*
X60428Y168866D01*
X60394Y168785D01*
X60355Y168705D01*
X60314Y168627D01*
X60269Y168550D01*
X60221Y168476D01*
X60170Y168403D01*
X60116Y168333D01*
X60058Y168266D01*
X59998Y168200D01*
X59936Y168138D01*
X59870Y168078D01*
X59803Y168020D01*
X59733Y167966D01*
X59660Y167915D01*
X59586Y167867D01*
X59509Y167822D01*
X59431Y167781D01*
X59351Y167742D01*
X59270Y167708D01*
X59187Y167676D01*
X59102Y167649D01*
X59017Y167624D01*
X58931Y167604D01*
X58844Y167587D01*
X58756Y167574D01*
X58668Y167565D01*
X58580Y167559D01*
X58491Y167557D01*
X53269Y167557D01*
X53269Y167556D02*
X53178Y167558D01*
X53087Y167564D01*
X52996Y167574D01*
X52906Y167588D01*
X52817Y167606D01*
X52728Y167627D01*
X52641Y167653D01*
X52555Y167682D01*
X52470Y167715D01*
X52386Y167752D01*
X52304Y167792D01*
X52225Y167836D01*
X52147Y167883D01*
X52071Y167934D01*
X51997Y167988D01*
X51926Y168045D01*
X51858Y168105D01*
X51792Y168168D01*
X51729Y168234D01*
X51669Y168302D01*
X51612Y168373D01*
X51558Y168447D01*
X51507Y168523D01*
X51460Y168600D01*
X51416Y168680D01*
X51376Y168762D01*
X51339Y168846D01*
X51306Y168930D01*
X51277Y169017D01*
X51251Y169104D01*
X51230Y169193D01*
X51212Y169282D01*
X51198Y169372D01*
X51188Y169463D01*
X51182Y169554D01*
X51180Y169645D01*
X51181Y169645D02*
X51181Y171734D01*
X60579Y175202D02*
X60579Y177813D01*
X60577Y177914D01*
X60571Y178015D01*
X60561Y178116D01*
X60548Y178216D01*
X60530Y178316D01*
X60509Y178415D01*
X60483Y178513D01*
X60454Y178610D01*
X60422Y178706D01*
X60385Y178800D01*
X60345Y178893D01*
X60301Y178985D01*
X60254Y179074D01*
X60203Y179162D01*
X60149Y179248D01*
X60092Y179331D01*
X60032Y179413D01*
X59968Y179491D01*
X59902Y179568D01*
X59832Y179641D01*
X59760Y179712D01*
X59685Y179780D01*
X59607Y179845D01*
X59527Y179907D01*
X59445Y179966D01*
X59360Y180022D01*
X59274Y180074D01*
X59185Y180123D01*
X59094Y180169D01*
X59002Y180210D01*
X58908Y180249D01*
X58813Y180283D01*
X58717Y180314D01*
X58619Y180341D01*
X58521Y180365D01*
X58421Y180384D01*
X58321Y180400D01*
X58221Y180412D01*
X58120Y180420D01*
X58019Y180424D01*
X57917Y180424D01*
X57816Y180420D01*
X57715Y180412D01*
X57615Y180400D01*
X57515Y180384D01*
X57415Y180365D01*
X57317Y180341D01*
X57219Y180314D01*
X57123Y180283D01*
X57028Y180249D01*
X56934Y180210D01*
X56842Y180169D01*
X56751Y180123D01*
X56663Y180074D01*
X56576Y180022D01*
X56491Y179966D01*
X56409Y179907D01*
X56329Y179845D01*
X56251Y179780D01*
X56176Y179712D01*
X56104Y179641D01*
X56034Y179568D01*
X55968Y179491D01*
X55904Y179413D01*
X55844Y179331D01*
X55787Y179248D01*
X55733Y179162D01*
X55682Y179074D01*
X55635Y178985D01*
X55591Y178893D01*
X55551Y178800D01*
X55514Y178706D01*
X55482Y178610D01*
X55453Y178513D01*
X55427Y178415D01*
X55406Y178316D01*
X55388Y178216D01*
X55375Y178116D01*
X55365Y178015D01*
X55359Y177914D01*
X55357Y177813D01*
X51181Y178335D02*
X51181Y175202D01*
X51181Y178335D02*
X51183Y178425D01*
X51189Y178514D01*
X51198Y178604D01*
X51212Y178693D01*
X51229Y178781D01*
X51250Y178868D01*
X51275Y178955D01*
X51304Y179040D01*
X51336Y179124D01*
X51371Y179206D01*
X51411Y179287D01*
X51453Y179366D01*
X51499Y179443D01*
X51549Y179518D01*
X51601Y179591D01*
X51657Y179662D01*
X51715Y179730D01*
X51777Y179795D01*
X51841Y179858D01*
X51908Y179918D01*
X51977Y179975D01*
X52049Y180029D01*
X52123Y180080D01*
X52199Y180128D01*
X52277Y180172D01*
X52357Y180213D01*
X52439Y180251D01*
X52522Y180285D01*
X52607Y180315D01*
X52693Y180342D01*
X52779Y180365D01*
X52867Y180384D01*
X52956Y180399D01*
X53045Y180411D01*
X53134Y180419D01*
X53224Y180423D01*
X53314Y180423D01*
X53404Y180419D01*
X53493Y180411D01*
X53582Y180399D01*
X53671Y180384D01*
X53759Y180365D01*
X53845Y180342D01*
X53931Y180315D01*
X54016Y180285D01*
X54099Y180251D01*
X54181Y180213D01*
X54261Y180172D01*
X54339Y180128D01*
X54415Y180080D01*
X54489Y180029D01*
X54561Y179975D01*
X54630Y179918D01*
X54697Y179858D01*
X54761Y179795D01*
X54823Y179730D01*
X54881Y179662D01*
X54937Y179591D01*
X54989Y179518D01*
X55039Y179443D01*
X55085Y179366D01*
X55127Y179287D01*
X55167Y179206D01*
X55202Y179124D01*
X55234Y179040D01*
X55263Y178955D01*
X55288Y178868D01*
X55309Y178781D01*
X55326Y178693D01*
X55340Y178604D01*
X55349Y178514D01*
X55355Y178425D01*
X55357Y178335D01*
X55358Y178335D02*
X55358Y176247D01*
D11*
X35790Y53530D02*
X32790Y53530D01*
X35790Y53530D02*
X35790Y45530D01*
X32790Y45530D01*
X32790Y53530D01*
D10*
X30764Y33401D02*
X28675Y33401D01*
X28586Y33403D01*
X28498Y33409D01*
X28410Y33418D01*
X28322Y33431D01*
X28235Y33448D01*
X28149Y33468D01*
X28064Y33493D01*
X27979Y33520D01*
X27896Y33552D01*
X27815Y33586D01*
X27735Y33625D01*
X27657Y33666D01*
X27580Y33711D01*
X27506Y33759D01*
X27433Y33810D01*
X27363Y33864D01*
X27296Y33922D01*
X27230Y33982D01*
X27168Y34044D01*
X27108Y34110D01*
X27050Y34177D01*
X26996Y34247D01*
X26945Y34320D01*
X26897Y34394D01*
X26852Y34471D01*
X26811Y34549D01*
X26772Y34629D01*
X26738Y34710D01*
X26706Y34793D01*
X26679Y34878D01*
X26654Y34963D01*
X26634Y35049D01*
X26617Y35136D01*
X26604Y35224D01*
X26595Y35312D01*
X26589Y35400D01*
X26587Y35489D01*
X26587Y40711D01*
X26589Y40802D01*
X26595Y40893D01*
X26605Y40984D01*
X26619Y41074D01*
X26636Y41163D01*
X26658Y41251D01*
X26684Y41339D01*
X26713Y41425D01*
X26746Y41510D01*
X26783Y41593D01*
X26823Y41675D01*
X26867Y41755D01*
X26914Y41833D01*
X26965Y41909D01*
X27018Y41982D01*
X27075Y42053D01*
X27136Y42122D01*
X27199Y42187D01*
X27264Y42250D01*
X27333Y42310D01*
X27404Y42368D01*
X27477Y42421D01*
X27553Y42472D01*
X27631Y42519D01*
X27711Y42563D01*
X27793Y42603D01*
X27876Y42640D01*
X27961Y42673D01*
X28047Y42702D01*
X28135Y42728D01*
X28223Y42750D01*
X28312Y42767D01*
X28402Y42781D01*
X28493Y42791D01*
X28584Y42797D01*
X28675Y42799D01*
X30764Y42799D01*
X36321Y42799D02*
X34232Y35489D01*
X39453Y35489D01*
X37887Y37578D02*
X37887Y33401D01*
D11*
X70890Y45530D02*
X73890Y45530D01*
X70890Y45530D02*
X70890Y53530D01*
X73890Y53530D01*
X73890Y45530D01*
D10*
X59973Y33401D02*
X57885Y33401D01*
X57796Y33403D01*
X57708Y33409D01*
X57620Y33418D01*
X57532Y33431D01*
X57445Y33448D01*
X57359Y33468D01*
X57274Y33493D01*
X57189Y33520D01*
X57106Y33552D01*
X57025Y33586D01*
X56945Y33625D01*
X56867Y33666D01*
X56790Y33711D01*
X56716Y33759D01*
X56643Y33810D01*
X56573Y33864D01*
X56506Y33922D01*
X56440Y33982D01*
X56378Y34044D01*
X56318Y34110D01*
X56260Y34177D01*
X56206Y34247D01*
X56155Y34320D01*
X56107Y34394D01*
X56062Y34471D01*
X56021Y34549D01*
X55982Y34629D01*
X55948Y34710D01*
X55916Y34793D01*
X55889Y34878D01*
X55864Y34963D01*
X55844Y35049D01*
X55827Y35136D01*
X55814Y35224D01*
X55805Y35312D01*
X55799Y35400D01*
X55797Y35489D01*
X55797Y40711D01*
X55799Y40802D01*
X55805Y40893D01*
X55815Y40984D01*
X55829Y41074D01*
X55846Y41163D01*
X55868Y41251D01*
X55894Y41339D01*
X55923Y41425D01*
X55956Y41510D01*
X55993Y41593D01*
X56033Y41675D01*
X56077Y41755D01*
X56124Y41833D01*
X56175Y41909D01*
X56228Y41982D01*
X56285Y42053D01*
X56346Y42122D01*
X56409Y42187D01*
X56474Y42250D01*
X56543Y42310D01*
X56614Y42368D01*
X56687Y42421D01*
X56763Y42472D01*
X56841Y42519D01*
X56921Y42563D01*
X57003Y42603D01*
X57086Y42640D01*
X57171Y42673D01*
X57257Y42702D01*
X57345Y42728D01*
X57433Y42750D01*
X57522Y42767D01*
X57612Y42781D01*
X57703Y42791D01*
X57794Y42797D01*
X57885Y42799D01*
X59973Y42799D01*
X63442Y33401D02*
X66575Y33401D01*
X66664Y33403D01*
X66752Y33409D01*
X66840Y33418D01*
X66928Y33431D01*
X67015Y33448D01*
X67101Y33468D01*
X67186Y33493D01*
X67271Y33520D01*
X67354Y33552D01*
X67435Y33586D01*
X67515Y33625D01*
X67593Y33666D01*
X67670Y33711D01*
X67744Y33759D01*
X67817Y33810D01*
X67887Y33864D01*
X67954Y33922D01*
X68020Y33982D01*
X68082Y34044D01*
X68142Y34110D01*
X68200Y34177D01*
X68254Y34247D01*
X68305Y34320D01*
X68353Y34394D01*
X68398Y34471D01*
X68439Y34549D01*
X68478Y34629D01*
X68512Y34710D01*
X68544Y34793D01*
X68571Y34878D01*
X68596Y34963D01*
X68616Y35049D01*
X68633Y35136D01*
X68646Y35224D01*
X68655Y35312D01*
X68661Y35400D01*
X68663Y35489D01*
X68663Y36534D01*
X68661Y36623D01*
X68655Y36711D01*
X68646Y36799D01*
X68633Y36887D01*
X68616Y36974D01*
X68596Y37060D01*
X68571Y37145D01*
X68544Y37230D01*
X68512Y37313D01*
X68478Y37394D01*
X68439Y37474D01*
X68398Y37552D01*
X68353Y37629D01*
X68305Y37703D01*
X68254Y37776D01*
X68200Y37846D01*
X68142Y37913D01*
X68082Y37979D01*
X68020Y38041D01*
X67954Y38101D01*
X67887Y38159D01*
X67817Y38213D01*
X67744Y38264D01*
X67670Y38312D01*
X67593Y38357D01*
X67515Y38398D01*
X67435Y38437D01*
X67354Y38471D01*
X67271Y38503D01*
X67186Y38530D01*
X67101Y38555D01*
X67015Y38575D01*
X66928Y38592D01*
X66840Y38605D01*
X66752Y38614D01*
X66664Y38620D01*
X66575Y38622D01*
X63442Y38622D01*
X63442Y42799D01*
X68663Y42799D01*
D11*
X78550Y73430D02*
X78550Y76430D01*
X86550Y76430D01*
X86550Y73430D01*
X78550Y73430D01*
D10*
X98679Y71404D02*
X98679Y69315D01*
X98677Y69226D01*
X98671Y69138D01*
X98662Y69050D01*
X98649Y68962D01*
X98632Y68875D01*
X98612Y68789D01*
X98587Y68704D01*
X98560Y68619D01*
X98528Y68536D01*
X98494Y68455D01*
X98455Y68375D01*
X98414Y68297D01*
X98369Y68220D01*
X98321Y68146D01*
X98270Y68073D01*
X98216Y68003D01*
X98158Y67936D01*
X98098Y67870D01*
X98036Y67808D01*
X97970Y67748D01*
X97903Y67690D01*
X97833Y67636D01*
X97760Y67585D01*
X97686Y67537D01*
X97609Y67492D01*
X97531Y67451D01*
X97451Y67412D01*
X97370Y67378D01*
X97287Y67346D01*
X97202Y67319D01*
X97117Y67294D01*
X97031Y67274D01*
X96944Y67257D01*
X96856Y67244D01*
X96768Y67235D01*
X96680Y67229D01*
X96591Y67227D01*
X91369Y67227D01*
X91369Y67226D02*
X91278Y67228D01*
X91187Y67234D01*
X91096Y67244D01*
X91006Y67258D01*
X90917Y67276D01*
X90828Y67297D01*
X90741Y67323D01*
X90655Y67352D01*
X90570Y67385D01*
X90486Y67422D01*
X90404Y67462D01*
X90325Y67506D01*
X90247Y67553D01*
X90171Y67604D01*
X90097Y67658D01*
X90026Y67715D01*
X89958Y67775D01*
X89892Y67838D01*
X89829Y67904D01*
X89769Y67972D01*
X89712Y68043D01*
X89658Y68117D01*
X89607Y68193D01*
X89560Y68270D01*
X89516Y68350D01*
X89476Y68432D01*
X89439Y68516D01*
X89406Y68600D01*
X89377Y68687D01*
X89351Y68774D01*
X89330Y68863D01*
X89312Y68952D01*
X89298Y69042D01*
X89288Y69133D01*
X89282Y69224D01*
X89280Y69315D01*
X89281Y69315D02*
X89281Y71404D01*
X93458Y74872D02*
X93458Y78005D01*
X93460Y78094D01*
X93466Y78182D01*
X93475Y78270D01*
X93488Y78358D01*
X93505Y78445D01*
X93525Y78531D01*
X93550Y78616D01*
X93577Y78701D01*
X93609Y78784D01*
X93643Y78865D01*
X93682Y78945D01*
X93723Y79023D01*
X93768Y79100D01*
X93816Y79174D01*
X93867Y79247D01*
X93921Y79317D01*
X93979Y79384D01*
X94039Y79450D01*
X94101Y79512D01*
X94167Y79572D01*
X94234Y79630D01*
X94304Y79684D01*
X94377Y79735D01*
X94451Y79783D01*
X94528Y79828D01*
X94606Y79869D01*
X94686Y79908D01*
X94767Y79942D01*
X94850Y79974D01*
X94935Y80001D01*
X95020Y80026D01*
X95106Y80046D01*
X95193Y80063D01*
X95281Y80076D01*
X95369Y80085D01*
X95457Y80091D01*
X95546Y80093D01*
X96068Y80093D01*
X96068Y80094D02*
X96169Y80092D01*
X96270Y80086D01*
X96371Y80076D01*
X96471Y80063D01*
X96571Y80045D01*
X96670Y80024D01*
X96768Y79998D01*
X96865Y79969D01*
X96961Y79937D01*
X97055Y79900D01*
X97148Y79860D01*
X97240Y79816D01*
X97329Y79769D01*
X97417Y79718D01*
X97503Y79664D01*
X97586Y79607D01*
X97668Y79547D01*
X97746Y79483D01*
X97823Y79417D01*
X97896Y79347D01*
X97967Y79275D01*
X98035Y79200D01*
X98100Y79122D01*
X98162Y79042D01*
X98221Y78960D01*
X98277Y78875D01*
X98329Y78788D01*
X98378Y78700D01*
X98424Y78609D01*
X98465Y78517D01*
X98504Y78423D01*
X98538Y78328D01*
X98569Y78232D01*
X98596Y78134D01*
X98620Y78036D01*
X98639Y77936D01*
X98655Y77836D01*
X98667Y77736D01*
X98675Y77635D01*
X98679Y77534D01*
X98679Y77432D01*
X98675Y77331D01*
X98667Y77230D01*
X98655Y77130D01*
X98639Y77030D01*
X98620Y76930D01*
X98596Y76832D01*
X98569Y76734D01*
X98538Y76638D01*
X98504Y76543D01*
X98465Y76449D01*
X98424Y76357D01*
X98378Y76266D01*
X98329Y76177D01*
X98277Y76091D01*
X98221Y76006D01*
X98162Y75924D01*
X98100Y75844D01*
X98035Y75766D01*
X97967Y75691D01*
X97896Y75619D01*
X97823Y75549D01*
X97746Y75483D01*
X97668Y75419D01*
X97586Y75359D01*
X97503Y75302D01*
X97417Y75248D01*
X97329Y75197D01*
X97240Y75150D01*
X97148Y75106D01*
X97055Y75066D01*
X96961Y75029D01*
X96865Y74997D01*
X96768Y74968D01*
X96670Y74942D01*
X96571Y74921D01*
X96471Y74903D01*
X96371Y74890D01*
X96270Y74880D01*
X96169Y74874D01*
X96068Y74872D01*
X93458Y74872D01*
X93329Y74874D01*
X93201Y74880D01*
X93073Y74890D01*
X92945Y74904D01*
X92817Y74921D01*
X92690Y74943D01*
X92564Y74969D01*
X92439Y74998D01*
X92315Y75031D01*
X92192Y75069D01*
X92070Y75109D01*
X91949Y75154D01*
X91830Y75202D01*
X91712Y75254D01*
X91596Y75310D01*
X91482Y75369D01*
X91370Y75432D01*
X91259Y75498D01*
X91151Y75567D01*
X91045Y75640D01*
X90941Y75716D01*
X90839Y75795D01*
X90740Y75877D01*
X90644Y75962D01*
X90550Y76050D01*
X90459Y76141D01*
X90371Y76235D01*
X90286Y76331D01*
X90204Y76430D01*
X90125Y76532D01*
X90049Y76636D01*
X89976Y76742D01*
X89907Y76850D01*
X89841Y76960D01*
X89778Y77073D01*
X89719Y77187D01*
X89663Y77303D01*
X89611Y77421D01*
X89563Y77540D01*
X89518Y77661D01*
X89478Y77783D01*
X89440Y77906D01*
X89407Y78030D01*
X89378Y78155D01*
X89352Y78281D01*
X89330Y78408D01*
X89313Y78536D01*
X89299Y78664D01*
X89289Y78792D01*
X89283Y78920D01*
X89281Y79049D01*
D11*
X73700Y37592D02*
X231100Y37592D01*
X73700Y37592D02*
X73700Y12192D01*
X231140Y12192D01*
X231140Y37592D01*
D12*
X226900Y16892D03*
D10*
X43825Y15953D02*
X41736Y15953D01*
X41647Y15955D01*
X41559Y15961D01*
X41471Y15970D01*
X41383Y15983D01*
X41296Y16000D01*
X41210Y16020D01*
X41125Y16045D01*
X41040Y16072D01*
X40957Y16104D01*
X40876Y16138D01*
X40796Y16177D01*
X40718Y16218D01*
X40641Y16263D01*
X40567Y16311D01*
X40494Y16362D01*
X40424Y16416D01*
X40357Y16474D01*
X40291Y16534D01*
X40229Y16596D01*
X40169Y16662D01*
X40111Y16729D01*
X40057Y16799D01*
X40006Y16872D01*
X39958Y16946D01*
X39913Y17023D01*
X39872Y17101D01*
X39833Y17181D01*
X39799Y17262D01*
X39767Y17345D01*
X39740Y17430D01*
X39715Y17515D01*
X39695Y17601D01*
X39678Y17688D01*
X39665Y17776D01*
X39656Y17864D01*
X39650Y17952D01*
X39648Y18041D01*
X39648Y23263D01*
X39650Y23354D01*
X39656Y23445D01*
X39666Y23536D01*
X39680Y23626D01*
X39697Y23715D01*
X39719Y23803D01*
X39745Y23891D01*
X39774Y23977D01*
X39807Y24062D01*
X39844Y24145D01*
X39884Y24227D01*
X39928Y24307D01*
X39975Y24385D01*
X40026Y24461D01*
X40079Y24534D01*
X40136Y24605D01*
X40197Y24674D01*
X40260Y24739D01*
X40325Y24802D01*
X40394Y24862D01*
X40465Y24920D01*
X40538Y24973D01*
X40614Y25024D01*
X40692Y25071D01*
X40772Y25115D01*
X40854Y25155D01*
X40937Y25192D01*
X41022Y25225D01*
X41108Y25254D01*
X41196Y25280D01*
X41284Y25302D01*
X41373Y25319D01*
X41463Y25333D01*
X41554Y25343D01*
X41645Y25349D01*
X41736Y25351D01*
X43825Y25351D01*
X47294Y22740D02*
X47294Y18564D01*
X47293Y22740D02*
X47295Y22841D01*
X47301Y22942D01*
X47311Y23043D01*
X47324Y23143D01*
X47342Y23243D01*
X47363Y23342D01*
X47389Y23440D01*
X47418Y23537D01*
X47450Y23633D01*
X47487Y23727D01*
X47527Y23820D01*
X47571Y23912D01*
X47618Y24001D01*
X47669Y24089D01*
X47723Y24175D01*
X47780Y24258D01*
X47840Y24340D01*
X47904Y24418D01*
X47970Y24495D01*
X48040Y24568D01*
X48112Y24639D01*
X48187Y24707D01*
X48265Y24772D01*
X48345Y24834D01*
X48427Y24893D01*
X48512Y24949D01*
X48599Y25001D01*
X48687Y25050D01*
X48778Y25096D01*
X48870Y25137D01*
X48964Y25176D01*
X49059Y25210D01*
X49155Y25241D01*
X49253Y25268D01*
X49351Y25292D01*
X49451Y25311D01*
X49551Y25327D01*
X49651Y25339D01*
X49752Y25347D01*
X49853Y25351D01*
X49955Y25351D01*
X50056Y25347D01*
X50157Y25339D01*
X50257Y25327D01*
X50357Y25311D01*
X50457Y25292D01*
X50555Y25268D01*
X50653Y25241D01*
X50749Y25210D01*
X50844Y25176D01*
X50938Y25137D01*
X51030Y25096D01*
X51121Y25050D01*
X51210Y25001D01*
X51296Y24949D01*
X51381Y24893D01*
X51463Y24834D01*
X51543Y24772D01*
X51621Y24707D01*
X51696Y24639D01*
X51768Y24568D01*
X51838Y24495D01*
X51904Y24418D01*
X51968Y24340D01*
X52028Y24258D01*
X52085Y24175D01*
X52139Y24089D01*
X52190Y24001D01*
X52237Y23912D01*
X52281Y23820D01*
X52321Y23727D01*
X52358Y23633D01*
X52390Y23537D01*
X52419Y23440D01*
X52445Y23342D01*
X52466Y23243D01*
X52484Y23143D01*
X52497Y23043D01*
X52507Y22942D01*
X52513Y22841D01*
X52515Y22740D01*
X52515Y18564D01*
X52513Y18463D01*
X52507Y18362D01*
X52497Y18261D01*
X52484Y18161D01*
X52466Y18061D01*
X52445Y17962D01*
X52419Y17864D01*
X52390Y17767D01*
X52358Y17671D01*
X52321Y17577D01*
X52281Y17484D01*
X52237Y17392D01*
X52190Y17303D01*
X52139Y17215D01*
X52085Y17129D01*
X52028Y17046D01*
X51968Y16964D01*
X51904Y16886D01*
X51838Y16809D01*
X51768Y16736D01*
X51696Y16665D01*
X51621Y16597D01*
X51543Y16532D01*
X51463Y16470D01*
X51381Y16411D01*
X51296Y16355D01*
X51209Y16303D01*
X51121Y16254D01*
X51030Y16208D01*
X50938Y16167D01*
X50844Y16128D01*
X50749Y16094D01*
X50653Y16063D01*
X50555Y16036D01*
X50457Y16012D01*
X50357Y15993D01*
X50257Y15977D01*
X50157Y15965D01*
X50056Y15957D01*
X49955Y15953D01*
X49853Y15953D01*
X49752Y15957D01*
X49651Y15965D01*
X49551Y15977D01*
X49451Y15993D01*
X49351Y16012D01*
X49253Y16036D01*
X49155Y16063D01*
X49059Y16094D01*
X48964Y16128D01*
X48870Y16167D01*
X48778Y16208D01*
X48687Y16254D01*
X48598Y16303D01*
X48512Y16355D01*
X48427Y16411D01*
X48345Y16470D01*
X48265Y16532D01*
X48187Y16597D01*
X48112Y16665D01*
X48040Y16736D01*
X47970Y16809D01*
X47904Y16886D01*
X47840Y16964D01*
X47780Y17046D01*
X47723Y17129D01*
X47669Y17215D01*
X47618Y17303D01*
X47571Y17392D01*
X47527Y17484D01*
X47487Y17577D01*
X47450Y17671D01*
X47418Y17767D01*
X47389Y17864D01*
X47363Y17962D01*
X47342Y18061D01*
X47324Y18161D01*
X47311Y18261D01*
X47301Y18362D01*
X47295Y18463D01*
X47293Y18564D01*
X56742Y15953D02*
X56742Y25351D01*
X61963Y15953D01*
X61963Y25351D01*
X66191Y23263D02*
X68802Y25351D01*
X68802Y15953D01*
X71412Y15953D02*
X66191Y15953D01*
D11*
X29400Y139470D02*
X29400Y142470D01*
X29400Y139470D02*
X21400Y139470D01*
X21400Y142470D01*
X29400Y142470D01*
D10*
X30099Y155225D02*
X20701Y155225D01*
X20701Y157836D01*
X20703Y157936D01*
X20709Y158036D01*
X20718Y158135D01*
X20732Y158235D01*
X20749Y158333D01*
X20770Y158431D01*
X20794Y158528D01*
X20823Y158624D01*
X20855Y158719D01*
X20890Y158812D01*
X20929Y158904D01*
X20972Y158995D01*
X21018Y159083D01*
X21068Y159170D01*
X21120Y159255D01*
X21176Y159338D01*
X21235Y159419D01*
X21298Y159497D01*
X21363Y159573D01*
X21431Y159647D01*
X21501Y159717D01*
X21575Y159785D01*
X21651Y159850D01*
X21729Y159913D01*
X21810Y159972D01*
X21893Y160028D01*
X21978Y160080D01*
X22065Y160130D01*
X22153Y160176D01*
X22244Y160219D01*
X22336Y160258D01*
X22429Y160293D01*
X22524Y160325D01*
X22620Y160354D01*
X22717Y160378D01*
X22815Y160399D01*
X22913Y160416D01*
X23013Y160430D01*
X23112Y160439D01*
X23212Y160445D01*
X23312Y160447D01*
X23312Y160446D02*
X27488Y160446D01*
X27488Y160447D02*
X27588Y160445D01*
X27688Y160439D01*
X27787Y160430D01*
X27887Y160416D01*
X27985Y160399D01*
X28083Y160378D01*
X28180Y160354D01*
X28276Y160325D01*
X28371Y160293D01*
X28464Y160258D01*
X28556Y160219D01*
X28647Y160176D01*
X28735Y160130D01*
X28822Y160080D01*
X28907Y160028D01*
X28990Y159972D01*
X29071Y159913D01*
X29149Y159850D01*
X29225Y159785D01*
X29299Y159717D01*
X29369Y159647D01*
X29437Y159573D01*
X29502Y159497D01*
X29565Y159419D01*
X29624Y159338D01*
X29680Y159255D01*
X29732Y159170D01*
X29782Y159083D01*
X29828Y158995D01*
X29871Y158904D01*
X29910Y158812D01*
X29945Y158719D01*
X29977Y158624D01*
X30006Y158528D01*
X30030Y158431D01*
X30051Y158333D01*
X30068Y158235D01*
X30082Y158135D01*
X30091Y158036D01*
X30097Y157936D01*
X30099Y157836D01*
X30099Y155225D01*
X22789Y164674D02*
X20701Y167284D01*
X30099Y167284D01*
X30099Y164674D02*
X30099Y169895D01*
D11*
X50340Y89430D02*
X56340Y89430D01*
X56340Y60430D01*
X50340Y60430D01*
X50340Y89430D01*
X46840Y89930D02*
X34840Y89930D01*
D10*
X31119Y89281D02*
X31119Y98679D01*
X30075Y89281D02*
X32164Y89281D01*
X32164Y98679D02*
X30075Y98679D01*
X37887Y89281D02*
X39975Y89281D01*
X37887Y89281D02*
X37798Y89283D01*
X37710Y89289D01*
X37622Y89298D01*
X37534Y89311D01*
X37447Y89328D01*
X37361Y89348D01*
X37276Y89373D01*
X37191Y89400D01*
X37108Y89432D01*
X37027Y89466D01*
X36947Y89505D01*
X36869Y89546D01*
X36792Y89591D01*
X36718Y89639D01*
X36645Y89690D01*
X36575Y89744D01*
X36508Y89802D01*
X36442Y89862D01*
X36380Y89924D01*
X36320Y89990D01*
X36262Y90057D01*
X36208Y90127D01*
X36157Y90200D01*
X36109Y90274D01*
X36064Y90351D01*
X36023Y90429D01*
X35984Y90509D01*
X35950Y90590D01*
X35918Y90673D01*
X35891Y90758D01*
X35866Y90843D01*
X35846Y90929D01*
X35829Y91016D01*
X35816Y91104D01*
X35807Y91192D01*
X35801Y91280D01*
X35799Y91369D01*
X35798Y91369D02*
X35798Y96591D01*
X35799Y96591D02*
X35801Y96682D01*
X35807Y96773D01*
X35817Y96864D01*
X35831Y96954D01*
X35848Y97043D01*
X35870Y97131D01*
X35896Y97219D01*
X35925Y97305D01*
X35958Y97390D01*
X35995Y97473D01*
X36035Y97555D01*
X36079Y97635D01*
X36126Y97713D01*
X36177Y97789D01*
X36230Y97862D01*
X36287Y97933D01*
X36348Y98002D01*
X36411Y98067D01*
X36476Y98130D01*
X36545Y98190D01*
X36616Y98248D01*
X36689Y98301D01*
X36765Y98352D01*
X36843Y98399D01*
X36923Y98443D01*
X37005Y98483D01*
X37088Y98520D01*
X37173Y98553D01*
X37259Y98582D01*
X37347Y98608D01*
X37435Y98630D01*
X37524Y98647D01*
X37614Y98661D01*
X37705Y98671D01*
X37796Y98677D01*
X37887Y98679D01*
X39975Y98679D01*
X43444Y96591D02*
X46054Y98679D01*
X46054Y89281D01*
X43444Y89281D02*
X48665Y89281D01*
D11*
X227740Y115490D02*
X227742Y115543D01*
X227748Y115596D01*
X227758Y115648D01*
X227772Y115699D01*
X227789Y115749D01*
X227810Y115798D01*
X227835Y115845D01*
X227863Y115890D01*
X227895Y115933D01*
X227930Y115973D01*
X227967Y116010D01*
X228007Y116045D01*
X228050Y116077D01*
X228095Y116105D01*
X228142Y116130D01*
X228191Y116151D01*
X228241Y116168D01*
X228292Y116182D01*
X228344Y116192D01*
X228397Y116198D01*
X228450Y116200D01*
X228503Y116198D01*
X228556Y116192D01*
X228608Y116182D01*
X228659Y116168D01*
X228709Y116151D01*
X228758Y116130D01*
X228805Y116105D01*
X228850Y116077D01*
X228893Y116045D01*
X228933Y116010D01*
X228970Y115973D01*
X229005Y115933D01*
X229037Y115890D01*
X229065Y115845D01*
X229090Y115798D01*
X229111Y115749D01*
X229128Y115699D01*
X229142Y115648D01*
X229152Y115596D01*
X229158Y115543D01*
X229160Y115490D01*
X229158Y115437D01*
X229152Y115384D01*
X229142Y115332D01*
X229128Y115281D01*
X229111Y115231D01*
X229090Y115182D01*
X229065Y115135D01*
X229037Y115090D01*
X229005Y115047D01*
X228970Y115007D01*
X228933Y114970D01*
X228893Y114935D01*
X228850Y114903D01*
X228805Y114875D01*
X228758Y114850D01*
X228709Y114829D01*
X228659Y114812D01*
X228608Y114798D01*
X228556Y114788D01*
X228503Y114782D01*
X228450Y114780D01*
X228397Y114782D01*
X228344Y114788D01*
X228292Y114798D01*
X228241Y114812D01*
X228191Y114829D01*
X228142Y114850D01*
X228095Y114875D01*
X228050Y114903D01*
X228007Y114935D01*
X227967Y114970D01*
X227930Y115007D01*
X227895Y115047D01*
X227863Y115090D01*
X227835Y115135D01*
X227810Y115182D01*
X227789Y115231D01*
X227772Y115281D01*
X227758Y115332D01*
X227748Y115384D01*
X227742Y115437D01*
X227740Y115490D01*
X234980Y126490D02*
X234980Y94490D01*
X206980Y94490D02*
X206980Y126490D01*
D10*
X234608Y94856D02*
X244006Y94856D01*
X244006Y99033D01*
X244006Y102780D02*
X244006Y106957D01*
X244006Y102780D02*
X234608Y102780D01*
X234608Y106957D01*
X238785Y105913D02*
X238785Y102780D01*
X234608Y110688D02*
X244006Y110688D01*
X234608Y110688D02*
X234608Y113298D01*
X234610Y113398D01*
X234616Y113498D01*
X234625Y113597D01*
X234639Y113697D01*
X234656Y113795D01*
X234677Y113893D01*
X234701Y113990D01*
X234730Y114086D01*
X234762Y114181D01*
X234797Y114274D01*
X234836Y114366D01*
X234879Y114457D01*
X234925Y114545D01*
X234975Y114632D01*
X235027Y114717D01*
X235083Y114800D01*
X235142Y114881D01*
X235205Y114959D01*
X235270Y115035D01*
X235338Y115109D01*
X235408Y115179D01*
X235482Y115247D01*
X235558Y115312D01*
X235636Y115375D01*
X235717Y115434D01*
X235800Y115490D01*
X235885Y115542D01*
X235972Y115592D01*
X236060Y115638D01*
X236151Y115681D01*
X236243Y115720D01*
X236336Y115755D01*
X236431Y115787D01*
X236527Y115816D01*
X236624Y115840D01*
X236722Y115861D01*
X236820Y115878D01*
X236920Y115892D01*
X237019Y115901D01*
X237119Y115907D01*
X237219Y115909D01*
X241395Y115909D01*
X241495Y115907D01*
X241595Y115901D01*
X241694Y115892D01*
X241794Y115878D01*
X241892Y115861D01*
X241990Y115840D01*
X242087Y115816D01*
X242183Y115787D01*
X242278Y115755D01*
X242371Y115720D01*
X242463Y115681D01*
X242554Y115638D01*
X242642Y115592D01*
X242729Y115542D01*
X242814Y115490D01*
X242897Y115434D01*
X242978Y115375D01*
X243056Y115312D01*
X243132Y115247D01*
X243206Y115179D01*
X243276Y115109D01*
X243344Y115035D01*
X243409Y114959D01*
X243472Y114881D01*
X243531Y114800D01*
X243587Y114717D01*
X243639Y114632D01*
X243689Y114545D01*
X243735Y114457D01*
X243778Y114366D01*
X243817Y114274D01*
X243852Y114181D01*
X243884Y114086D01*
X243913Y113990D01*
X243937Y113893D01*
X243958Y113795D01*
X243975Y113697D01*
X243989Y113597D01*
X243998Y113498D01*
X244004Y113398D01*
X244006Y113298D01*
X244006Y110688D01*
X236696Y120136D02*
X234608Y122747D01*
X244006Y122747D01*
X244006Y120136D02*
X244006Y125358D01*
D11*
X485200Y190490D02*
X485200Y30490D01*
X245200Y30490D02*
X245200Y190490D01*
X409700Y190490D02*
X485200Y190490D01*
X485200Y30490D02*
X409700Y30490D01*
D10*
X490571Y133530D02*
X499969Y133530D01*
X495792Y136663D02*
X490571Y133530D01*
X495792Y136663D02*
X490571Y139796D01*
X499969Y139796D01*
X497358Y144111D02*
X493182Y144111D01*
X493182Y144110D02*
X493081Y144112D01*
X492980Y144118D01*
X492879Y144128D01*
X492779Y144141D01*
X492679Y144159D01*
X492580Y144180D01*
X492482Y144206D01*
X492385Y144235D01*
X492289Y144267D01*
X492195Y144304D01*
X492102Y144344D01*
X492010Y144388D01*
X491921Y144435D01*
X491833Y144486D01*
X491747Y144540D01*
X491664Y144597D01*
X491582Y144657D01*
X491504Y144721D01*
X491427Y144787D01*
X491354Y144857D01*
X491283Y144929D01*
X491215Y145004D01*
X491150Y145082D01*
X491088Y145162D01*
X491029Y145244D01*
X490973Y145329D01*
X490921Y145416D01*
X490872Y145504D01*
X490826Y145595D01*
X490785Y145687D01*
X490746Y145781D01*
X490712Y145876D01*
X490681Y145972D01*
X490654Y146070D01*
X490630Y146168D01*
X490611Y146268D01*
X490595Y146368D01*
X490583Y146468D01*
X490575Y146569D01*
X490571Y146670D01*
X490571Y146772D01*
X490575Y146873D01*
X490583Y146974D01*
X490595Y147074D01*
X490611Y147174D01*
X490630Y147274D01*
X490654Y147372D01*
X490681Y147470D01*
X490712Y147566D01*
X490746Y147661D01*
X490785Y147755D01*
X490826Y147847D01*
X490872Y147938D01*
X490921Y148027D01*
X490973Y148113D01*
X491029Y148198D01*
X491088Y148280D01*
X491150Y148360D01*
X491215Y148438D01*
X491283Y148513D01*
X491354Y148585D01*
X491427Y148655D01*
X491504Y148721D01*
X491582Y148785D01*
X491664Y148845D01*
X491747Y148902D01*
X491833Y148956D01*
X491921Y149007D01*
X492010Y149054D01*
X492102Y149098D01*
X492195Y149138D01*
X492289Y149175D01*
X492385Y149207D01*
X492482Y149236D01*
X492580Y149262D01*
X492679Y149283D01*
X492779Y149301D01*
X492879Y149314D01*
X492980Y149324D01*
X493081Y149330D01*
X493182Y149332D01*
X497358Y149332D01*
X497459Y149330D01*
X497560Y149324D01*
X497661Y149314D01*
X497761Y149301D01*
X497861Y149283D01*
X497960Y149262D01*
X498058Y149236D01*
X498155Y149207D01*
X498251Y149175D01*
X498345Y149138D01*
X498438Y149098D01*
X498530Y149054D01*
X498619Y149007D01*
X498707Y148956D01*
X498793Y148902D01*
X498876Y148845D01*
X498958Y148785D01*
X499036Y148721D01*
X499113Y148655D01*
X499186Y148585D01*
X499257Y148513D01*
X499325Y148438D01*
X499390Y148360D01*
X499452Y148280D01*
X499511Y148198D01*
X499567Y148113D01*
X499619Y148026D01*
X499668Y147938D01*
X499714Y147847D01*
X499755Y147755D01*
X499794Y147661D01*
X499828Y147566D01*
X499859Y147470D01*
X499886Y147372D01*
X499910Y147274D01*
X499929Y147174D01*
X499945Y147074D01*
X499957Y146974D01*
X499965Y146873D01*
X499969Y146772D01*
X499969Y146670D01*
X499965Y146569D01*
X499957Y146468D01*
X499945Y146368D01*
X499929Y146268D01*
X499910Y146168D01*
X499886Y146070D01*
X499859Y145972D01*
X499828Y145876D01*
X499794Y145781D01*
X499755Y145687D01*
X499714Y145595D01*
X499668Y145504D01*
X499619Y145415D01*
X499567Y145329D01*
X499511Y145244D01*
X499452Y145162D01*
X499390Y145082D01*
X499325Y145004D01*
X499257Y144929D01*
X499186Y144857D01*
X499113Y144787D01*
X499036Y144721D01*
X498958Y144657D01*
X498876Y144597D01*
X498793Y144540D01*
X498707Y144486D01*
X498619Y144435D01*
X498530Y144388D01*
X498438Y144344D01*
X498345Y144304D01*
X498251Y144267D01*
X498155Y144235D01*
X498058Y144206D01*
X497960Y144180D01*
X497861Y144159D01*
X497761Y144141D01*
X497661Y144128D01*
X497560Y144118D01*
X497459Y144112D01*
X497358Y144110D01*
X499969Y153560D02*
X490571Y153560D01*
X490571Y156170D01*
X490573Y156270D01*
X490579Y156370D01*
X490588Y156469D01*
X490602Y156569D01*
X490619Y156667D01*
X490640Y156765D01*
X490664Y156862D01*
X490693Y156958D01*
X490725Y157053D01*
X490760Y157146D01*
X490799Y157238D01*
X490842Y157329D01*
X490888Y157417D01*
X490938Y157504D01*
X490990Y157589D01*
X491046Y157672D01*
X491105Y157753D01*
X491168Y157831D01*
X491233Y157907D01*
X491301Y157981D01*
X491371Y158051D01*
X491445Y158119D01*
X491521Y158184D01*
X491599Y158247D01*
X491680Y158306D01*
X491763Y158362D01*
X491848Y158414D01*
X491935Y158464D01*
X492023Y158510D01*
X492114Y158553D01*
X492206Y158592D01*
X492299Y158627D01*
X492394Y158659D01*
X492490Y158688D01*
X492587Y158712D01*
X492685Y158733D01*
X492783Y158750D01*
X492883Y158764D01*
X492982Y158773D01*
X493082Y158779D01*
X493182Y158781D01*
X497358Y158781D01*
X497458Y158779D01*
X497558Y158773D01*
X497657Y158764D01*
X497757Y158750D01*
X497855Y158733D01*
X497953Y158712D01*
X498050Y158688D01*
X498146Y158659D01*
X498241Y158627D01*
X498334Y158592D01*
X498426Y158553D01*
X498517Y158510D01*
X498605Y158464D01*
X498692Y158414D01*
X498777Y158362D01*
X498860Y158306D01*
X498941Y158247D01*
X499019Y158184D01*
X499095Y158119D01*
X499169Y158051D01*
X499239Y157981D01*
X499307Y157907D01*
X499372Y157831D01*
X499435Y157753D01*
X499494Y157672D01*
X499550Y157589D01*
X499602Y157504D01*
X499652Y157417D01*
X499698Y157329D01*
X499741Y157238D01*
X499780Y157146D01*
X499815Y157053D01*
X499847Y156958D01*
X499876Y156862D01*
X499900Y156765D01*
X499921Y156667D01*
X499938Y156569D01*
X499952Y156469D01*
X499961Y156370D01*
X499967Y156270D01*
X499969Y156170D01*
X499969Y153560D01*
X492659Y163008D02*
X490571Y165619D01*
X499969Y165619D01*
X499969Y163008D02*
X499969Y168230D01*
D11*
X95880Y146550D02*
X95880Y145550D01*
X66680Y145550D01*
X66680Y146550D01*
X95880Y146550D01*
D10*
X93528Y132624D02*
X89352Y132624D01*
X89352Y132623D02*
X89251Y132625D01*
X89150Y132631D01*
X89049Y132641D01*
X88949Y132654D01*
X88849Y132672D01*
X88750Y132693D01*
X88652Y132719D01*
X88555Y132748D01*
X88459Y132780D01*
X88365Y132817D01*
X88272Y132857D01*
X88180Y132901D01*
X88091Y132948D01*
X88003Y132999D01*
X87917Y133053D01*
X87834Y133110D01*
X87752Y133170D01*
X87674Y133234D01*
X87597Y133300D01*
X87524Y133370D01*
X87453Y133442D01*
X87385Y133517D01*
X87320Y133595D01*
X87258Y133675D01*
X87199Y133757D01*
X87143Y133842D01*
X87091Y133929D01*
X87042Y134017D01*
X86996Y134108D01*
X86955Y134200D01*
X86916Y134294D01*
X86882Y134389D01*
X86851Y134485D01*
X86824Y134583D01*
X86800Y134681D01*
X86781Y134781D01*
X86765Y134881D01*
X86753Y134981D01*
X86745Y135082D01*
X86741Y135183D01*
X86741Y135285D01*
X86745Y135386D01*
X86753Y135487D01*
X86765Y135587D01*
X86781Y135687D01*
X86800Y135787D01*
X86824Y135885D01*
X86851Y135983D01*
X86882Y136079D01*
X86916Y136174D01*
X86955Y136268D01*
X86996Y136360D01*
X87042Y136451D01*
X87091Y136540D01*
X87143Y136626D01*
X87199Y136711D01*
X87258Y136793D01*
X87320Y136873D01*
X87385Y136951D01*
X87453Y137026D01*
X87524Y137098D01*
X87597Y137168D01*
X87674Y137234D01*
X87752Y137298D01*
X87834Y137358D01*
X87917Y137415D01*
X88003Y137469D01*
X88091Y137520D01*
X88180Y137567D01*
X88272Y137611D01*
X88365Y137651D01*
X88459Y137688D01*
X88555Y137720D01*
X88652Y137749D01*
X88750Y137775D01*
X88849Y137796D01*
X88949Y137814D01*
X89049Y137827D01*
X89150Y137837D01*
X89251Y137843D01*
X89352Y137845D01*
X93528Y137845D01*
X93629Y137843D01*
X93730Y137837D01*
X93831Y137827D01*
X93931Y137814D01*
X94031Y137796D01*
X94130Y137775D01*
X94228Y137749D01*
X94325Y137720D01*
X94421Y137688D01*
X94515Y137651D01*
X94608Y137611D01*
X94700Y137567D01*
X94789Y137520D01*
X94877Y137469D01*
X94963Y137415D01*
X95046Y137358D01*
X95128Y137298D01*
X95206Y137234D01*
X95283Y137168D01*
X95356Y137098D01*
X95427Y137026D01*
X95495Y136951D01*
X95560Y136873D01*
X95622Y136793D01*
X95681Y136711D01*
X95737Y136626D01*
X95789Y136539D01*
X95838Y136451D01*
X95884Y136360D01*
X95925Y136268D01*
X95964Y136174D01*
X95998Y136079D01*
X96029Y135983D01*
X96056Y135885D01*
X96080Y135787D01*
X96099Y135687D01*
X96115Y135587D01*
X96127Y135487D01*
X96135Y135386D01*
X96139Y135285D01*
X96139Y135183D01*
X96135Y135082D01*
X96127Y134981D01*
X96115Y134881D01*
X96099Y134781D01*
X96080Y134681D01*
X96056Y134583D01*
X96029Y134485D01*
X95998Y134389D01*
X95964Y134294D01*
X95925Y134200D01*
X95884Y134108D01*
X95838Y134017D01*
X95789Y133928D01*
X95737Y133842D01*
X95681Y133757D01*
X95622Y133675D01*
X95560Y133595D01*
X95495Y133517D01*
X95427Y133442D01*
X95356Y133370D01*
X95283Y133300D01*
X95206Y133234D01*
X95128Y133170D01*
X95046Y133110D01*
X94963Y133053D01*
X94877Y132999D01*
X94789Y132948D01*
X94700Y132901D01*
X94608Y132857D01*
X94515Y132817D01*
X94421Y132780D01*
X94325Y132748D01*
X94228Y132719D01*
X94130Y132693D01*
X94031Y132672D01*
X93931Y132654D01*
X93831Y132641D01*
X93730Y132631D01*
X93629Y132625D01*
X93528Y132623D01*
X94051Y136800D02*
X96139Y138889D01*
X88829Y141555D02*
X86741Y144166D01*
X96139Y144166D01*
X96139Y146776D02*
X96139Y141555D01*
D11*
X177570Y144970D02*
X180570Y144970D01*
X180570Y136970D01*
X177570Y136970D01*
X177570Y144970D01*
D10*
X150326Y145669D02*
X150326Y136271D01*
X150326Y145669D02*
X152937Y145669D01*
X153038Y145667D01*
X153139Y145661D01*
X153240Y145651D01*
X153340Y145638D01*
X153440Y145620D01*
X153539Y145599D01*
X153637Y145573D01*
X153734Y145544D01*
X153830Y145512D01*
X153924Y145475D01*
X154017Y145435D01*
X154109Y145391D01*
X154198Y145344D01*
X154286Y145293D01*
X154372Y145239D01*
X154455Y145182D01*
X154537Y145122D01*
X154615Y145058D01*
X154692Y144992D01*
X154765Y144922D01*
X154836Y144850D01*
X154904Y144775D01*
X154969Y144697D01*
X155031Y144617D01*
X155090Y144535D01*
X155146Y144450D01*
X155198Y144363D01*
X155247Y144275D01*
X155293Y144184D01*
X155334Y144092D01*
X155373Y143998D01*
X155407Y143903D01*
X155438Y143807D01*
X155465Y143709D01*
X155489Y143611D01*
X155508Y143511D01*
X155524Y143411D01*
X155536Y143311D01*
X155544Y143210D01*
X155548Y143109D01*
X155548Y143007D01*
X155544Y142906D01*
X155536Y142805D01*
X155524Y142705D01*
X155508Y142605D01*
X155489Y142505D01*
X155465Y142407D01*
X155438Y142309D01*
X155407Y142213D01*
X155373Y142118D01*
X155334Y142024D01*
X155293Y141932D01*
X155247Y141841D01*
X155198Y141752D01*
X155146Y141666D01*
X155090Y141581D01*
X155031Y141499D01*
X154969Y141419D01*
X154904Y141341D01*
X154836Y141266D01*
X154765Y141194D01*
X154692Y141124D01*
X154615Y141058D01*
X154537Y140994D01*
X154455Y140934D01*
X154372Y140877D01*
X154286Y140823D01*
X154198Y140772D01*
X154109Y140725D01*
X154017Y140681D01*
X153924Y140641D01*
X153830Y140604D01*
X153734Y140572D01*
X153637Y140543D01*
X153539Y140517D01*
X153440Y140496D01*
X153340Y140478D01*
X153240Y140465D01*
X153139Y140455D01*
X153038Y140449D01*
X152937Y140447D01*
X152937Y140448D02*
X150326Y140448D01*
X153459Y140448D02*
X155547Y136271D01*
X159413Y143581D02*
X162023Y145669D01*
X162023Y136271D01*
X159413Y136271D02*
X164634Y136271D01*
D11*
X177570Y91250D02*
X180570Y91250D01*
X177570Y91250D02*
X177570Y99250D01*
X180570Y99250D01*
X180570Y91250D01*
D10*
X141944Y90551D02*
X141944Y99949D01*
X144555Y99949D01*
X144656Y99947D01*
X144757Y99941D01*
X144858Y99931D01*
X144958Y99918D01*
X145058Y99900D01*
X145157Y99879D01*
X145255Y99853D01*
X145352Y99824D01*
X145448Y99792D01*
X145542Y99755D01*
X145635Y99715D01*
X145727Y99671D01*
X145816Y99624D01*
X145904Y99573D01*
X145990Y99519D01*
X146073Y99462D01*
X146155Y99402D01*
X146233Y99338D01*
X146310Y99272D01*
X146383Y99202D01*
X146454Y99130D01*
X146522Y99055D01*
X146587Y98977D01*
X146649Y98897D01*
X146708Y98815D01*
X146764Y98730D01*
X146816Y98643D01*
X146865Y98555D01*
X146911Y98464D01*
X146952Y98372D01*
X146991Y98278D01*
X147025Y98183D01*
X147056Y98087D01*
X147083Y97989D01*
X147107Y97891D01*
X147126Y97791D01*
X147142Y97691D01*
X147154Y97591D01*
X147162Y97490D01*
X147166Y97389D01*
X147166Y97287D01*
X147162Y97186D01*
X147154Y97085D01*
X147142Y96985D01*
X147126Y96885D01*
X147107Y96785D01*
X147083Y96687D01*
X147056Y96589D01*
X147025Y96493D01*
X146991Y96398D01*
X146952Y96304D01*
X146911Y96212D01*
X146865Y96121D01*
X146816Y96032D01*
X146764Y95946D01*
X146708Y95861D01*
X146649Y95779D01*
X146587Y95699D01*
X146522Y95621D01*
X146454Y95546D01*
X146383Y95474D01*
X146310Y95404D01*
X146233Y95338D01*
X146155Y95274D01*
X146073Y95214D01*
X145990Y95157D01*
X145904Y95103D01*
X145816Y95052D01*
X145727Y95005D01*
X145635Y94961D01*
X145542Y94921D01*
X145448Y94884D01*
X145352Y94852D01*
X145255Y94823D01*
X145157Y94797D01*
X145058Y94776D01*
X144958Y94758D01*
X144858Y94745D01*
X144757Y94735D01*
X144656Y94729D01*
X144555Y94727D01*
X144555Y94728D02*
X141944Y94728D01*
X145077Y94728D02*
X147165Y90551D01*
X151031Y97861D02*
X153641Y99949D01*
X153641Y90551D01*
X151031Y90551D02*
X156252Y90551D01*
X160175Y95250D02*
X160177Y95435D01*
X160184Y95620D01*
X160195Y95804D01*
X160210Y95988D01*
X160230Y96172D01*
X160254Y96356D01*
X160283Y96538D01*
X160316Y96720D01*
X160353Y96901D01*
X160395Y97081D01*
X160441Y97261D01*
X160491Y97439D01*
X160545Y97615D01*
X160604Y97791D01*
X160666Y97965D01*
X160733Y98137D01*
X160804Y98308D01*
X160879Y98477D01*
X160958Y98644D01*
X160957Y98644D02*
X160987Y98724D01*
X161020Y98803D01*
X161057Y98880D01*
X161097Y98956D01*
X161140Y99030D01*
X161186Y99102D01*
X161236Y99171D01*
X161288Y99239D01*
X161344Y99304D01*
X161402Y99367D01*
X161464Y99426D01*
X161527Y99484D01*
X161594Y99538D01*
X161662Y99589D01*
X161733Y99637D01*
X161806Y99682D01*
X161880Y99724D01*
X161957Y99762D01*
X162035Y99797D01*
X162114Y99829D01*
X162195Y99857D01*
X162277Y99881D01*
X162361Y99902D01*
X162444Y99919D01*
X162529Y99932D01*
X162614Y99941D01*
X162699Y99947D01*
X162785Y99949D01*
X162871Y99947D01*
X162956Y99941D01*
X163041Y99932D01*
X163126Y99919D01*
X163209Y99902D01*
X163293Y99881D01*
X163375Y99857D01*
X163456Y99829D01*
X163535Y99797D01*
X163613Y99762D01*
X163690Y99724D01*
X163764Y99682D01*
X163837Y99637D01*
X163908Y99589D01*
X163976Y99538D01*
X164043Y99484D01*
X164106Y99426D01*
X164168Y99367D01*
X164226Y99304D01*
X164282Y99239D01*
X164334Y99171D01*
X164384Y99102D01*
X164430Y99030D01*
X164473Y98956D01*
X164513Y98880D01*
X164550Y98803D01*
X164583Y98724D01*
X164613Y98644D01*
X164692Y98477D01*
X164767Y98308D01*
X164838Y98137D01*
X164905Y97965D01*
X164967Y97791D01*
X165026Y97615D01*
X165080Y97439D01*
X165130Y97261D01*
X165176Y97081D01*
X165218Y96901D01*
X165255Y96720D01*
X165288Y96538D01*
X165317Y96356D01*
X165341Y96172D01*
X165361Y95988D01*
X165376Y95804D01*
X165387Y95620D01*
X165394Y95435D01*
X165396Y95250D01*
X160175Y95250D02*
X160177Y95065D01*
X160184Y94880D01*
X160195Y94696D01*
X160210Y94512D01*
X160230Y94328D01*
X160254Y94144D01*
X160283Y93962D01*
X160316Y93780D01*
X160353Y93599D01*
X160395Y93419D01*
X160441Y93239D01*
X160491Y93061D01*
X160545Y92885D01*
X160604Y92709D01*
X160666Y92535D01*
X160733Y92363D01*
X160804Y92192D01*
X160879Y92023D01*
X160958Y91856D01*
X160957Y91856D02*
X160987Y91776D01*
X161020Y91697D01*
X161057Y91620D01*
X161097Y91544D01*
X161140Y91470D01*
X161186Y91398D01*
X161236Y91329D01*
X161289Y91261D01*
X161344Y91196D01*
X161403Y91133D01*
X161464Y91074D01*
X161527Y91016D01*
X161594Y90962D01*
X161662Y90911D01*
X161733Y90863D01*
X161806Y90818D01*
X161880Y90776D01*
X161957Y90738D01*
X162035Y90703D01*
X162114Y90671D01*
X162195Y90643D01*
X162277Y90619D01*
X162361Y90598D01*
X162444Y90581D01*
X162529Y90568D01*
X162614Y90559D01*
X162699Y90553D01*
X162785Y90551D01*
X164613Y91856D02*
X164692Y92023D01*
X164767Y92192D01*
X164838Y92363D01*
X164905Y92535D01*
X164967Y92709D01*
X165026Y92885D01*
X165080Y93061D01*
X165130Y93239D01*
X165176Y93419D01*
X165218Y93599D01*
X165255Y93780D01*
X165288Y93962D01*
X165317Y94144D01*
X165341Y94328D01*
X165361Y94512D01*
X165376Y94696D01*
X165387Y94880D01*
X165394Y95065D01*
X165396Y95250D01*
X164613Y91856D02*
X164583Y91776D01*
X164550Y91697D01*
X164513Y91620D01*
X164473Y91544D01*
X164430Y91470D01*
X164384Y91398D01*
X164334Y91329D01*
X164282Y91261D01*
X164226Y91196D01*
X164168Y91133D01*
X164106Y91074D01*
X164043Y91016D01*
X163976Y90962D01*
X163908Y90911D01*
X163837Y90863D01*
X163764Y90818D01*
X163690Y90776D01*
X163613Y90738D01*
X163535Y90703D01*
X163456Y90671D01*
X163375Y90643D01*
X163293Y90619D01*
X163209Y90598D01*
X163126Y90581D01*
X163041Y90568D01*
X162956Y90559D01*
X162871Y90553D01*
X162785Y90551D01*
X160697Y92639D02*
X164874Y97861D01*
D11*
X177570Y106490D02*
X180570Y106490D01*
X177570Y106490D02*
X177570Y114490D01*
X180570Y114490D01*
X180570Y106490D01*
D10*
X144484Y103251D02*
X144484Y112649D01*
X147095Y112649D01*
X147196Y112647D01*
X147297Y112641D01*
X147398Y112631D01*
X147498Y112618D01*
X147598Y112600D01*
X147697Y112579D01*
X147795Y112553D01*
X147892Y112524D01*
X147988Y112492D01*
X148082Y112455D01*
X148175Y112415D01*
X148267Y112371D01*
X148356Y112324D01*
X148444Y112273D01*
X148530Y112219D01*
X148613Y112162D01*
X148695Y112102D01*
X148773Y112038D01*
X148850Y111972D01*
X148923Y111902D01*
X148994Y111830D01*
X149062Y111755D01*
X149127Y111677D01*
X149189Y111597D01*
X149248Y111515D01*
X149304Y111430D01*
X149356Y111343D01*
X149405Y111255D01*
X149451Y111164D01*
X149492Y111072D01*
X149531Y110978D01*
X149565Y110883D01*
X149596Y110787D01*
X149623Y110689D01*
X149647Y110591D01*
X149666Y110491D01*
X149682Y110391D01*
X149694Y110291D01*
X149702Y110190D01*
X149706Y110089D01*
X149706Y109987D01*
X149702Y109886D01*
X149694Y109785D01*
X149682Y109685D01*
X149666Y109585D01*
X149647Y109485D01*
X149623Y109387D01*
X149596Y109289D01*
X149565Y109193D01*
X149531Y109098D01*
X149492Y109004D01*
X149451Y108912D01*
X149405Y108821D01*
X149356Y108732D01*
X149304Y108646D01*
X149248Y108561D01*
X149189Y108479D01*
X149127Y108399D01*
X149062Y108321D01*
X148994Y108246D01*
X148923Y108174D01*
X148850Y108104D01*
X148773Y108038D01*
X148695Y107974D01*
X148613Y107914D01*
X148530Y107857D01*
X148444Y107803D01*
X148356Y107752D01*
X148267Y107705D01*
X148175Y107661D01*
X148082Y107621D01*
X147988Y107584D01*
X147892Y107552D01*
X147795Y107523D01*
X147697Y107497D01*
X147598Y107476D01*
X147498Y107458D01*
X147398Y107445D01*
X147297Y107435D01*
X147196Y107429D01*
X147095Y107427D01*
X147095Y107428D02*
X144484Y107428D01*
X147617Y107428D02*
X149705Y103251D01*
X153571Y110561D02*
X156181Y112649D01*
X156181Y103251D01*
X153571Y103251D02*
X158792Y103251D01*
X162715Y110561D02*
X165325Y112649D01*
X165325Y103251D01*
X162715Y103251D02*
X167936Y103251D01*
D11*
X113260Y167450D02*
X110260Y167450D01*
X110260Y175450D01*
X113260Y175450D01*
X113260Y167450D01*
D10*
X101304Y179451D02*
X101304Y188849D01*
X103915Y188849D01*
X104016Y188847D01*
X104117Y188841D01*
X104218Y188831D01*
X104318Y188818D01*
X104418Y188800D01*
X104517Y188779D01*
X104615Y188753D01*
X104712Y188724D01*
X104808Y188692D01*
X104902Y188655D01*
X104995Y188615D01*
X105087Y188571D01*
X105176Y188524D01*
X105264Y188473D01*
X105350Y188419D01*
X105433Y188362D01*
X105515Y188302D01*
X105593Y188238D01*
X105670Y188172D01*
X105743Y188102D01*
X105814Y188030D01*
X105882Y187955D01*
X105947Y187877D01*
X106009Y187797D01*
X106068Y187715D01*
X106124Y187630D01*
X106176Y187543D01*
X106225Y187455D01*
X106271Y187364D01*
X106312Y187272D01*
X106351Y187178D01*
X106385Y187083D01*
X106416Y186987D01*
X106443Y186889D01*
X106467Y186791D01*
X106486Y186691D01*
X106502Y186591D01*
X106514Y186491D01*
X106522Y186390D01*
X106526Y186289D01*
X106526Y186187D01*
X106522Y186086D01*
X106514Y185985D01*
X106502Y185885D01*
X106486Y185785D01*
X106467Y185685D01*
X106443Y185587D01*
X106416Y185489D01*
X106385Y185393D01*
X106351Y185298D01*
X106312Y185204D01*
X106271Y185112D01*
X106225Y185021D01*
X106176Y184932D01*
X106124Y184846D01*
X106068Y184761D01*
X106009Y184679D01*
X105947Y184599D01*
X105882Y184521D01*
X105814Y184446D01*
X105743Y184374D01*
X105670Y184304D01*
X105593Y184238D01*
X105515Y184174D01*
X105433Y184114D01*
X105350Y184057D01*
X105264Y184003D01*
X105176Y183952D01*
X105087Y183905D01*
X104995Y183861D01*
X104902Y183821D01*
X104808Y183784D01*
X104712Y183752D01*
X104615Y183723D01*
X104517Y183697D01*
X104418Y183676D01*
X104318Y183658D01*
X104218Y183645D01*
X104117Y183635D01*
X104016Y183629D01*
X103915Y183627D01*
X103915Y183628D02*
X101304Y183628D01*
X104437Y183628D02*
X106525Y179451D01*
X110391Y186761D02*
X113001Y188849D01*
X113001Y179451D01*
X110391Y179451D02*
X115612Y179451D01*
X124756Y186500D02*
X124754Y186595D01*
X124748Y186689D01*
X124739Y186783D01*
X124726Y186877D01*
X124709Y186970D01*
X124688Y187062D01*
X124663Y187154D01*
X124635Y187244D01*
X124603Y187333D01*
X124568Y187421D01*
X124529Y187507D01*
X124487Y187592D01*
X124441Y187675D01*
X124392Y187756D01*
X124340Y187835D01*
X124285Y187912D01*
X124226Y187986D01*
X124165Y188058D01*
X124101Y188128D01*
X124034Y188195D01*
X123964Y188259D01*
X123892Y188320D01*
X123818Y188379D01*
X123741Y188434D01*
X123662Y188486D01*
X123581Y188535D01*
X123498Y188581D01*
X123413Y188623D01*
X123327Y188662D01*
X123239Y188697D01*
X123150Y188729D01*
X123060Y188757D01*
X122968Y188782D01*
X122876Y188803D01*
X122783Y188820D01*
X122689Y188833D01*
X122595Y188842D01*
X122501Y188848D01*
X122406Y188850D01*
X122406Y188849D02*
X122298Y188847D01*
X122189Y188841D01*
X122081Y188831D01*
X121974Y188818D01*
X121867Y188800D01*
X121760Y188779D01*
X121655Y188754D01*
X121550Y188725D01*
X121447Y188693D01*
X121345Y188656D01*
X121244Y188616D01*
X121145Y188573D01*
X121047Y188526D01*
X120951Y188475D01*
X120857Y188421D01*
X120765Y188364D01*
X120675Y188303D01*
X120587Y188239D01*
X120502Y188173D01*
X120419Y188103D01*
X120339Y188030D01*
X120261Y187954D01*
X120186Y187876D01*
X120114Y187795D01*
X120045Y187711D01*
X119979Y187625D01*
X119916Y187537D01*
X119857Y187446D01*
X119800Y187354D01*
X119747Y187259D01*
X119698Y187163D01*
X119652Y187064D01*
X119609Y186965D01*
X119570Y186863D01*
X119535Y186761D01*
X123973Y184672D02*
X124042Y184741D01*
X124108Y184812D01*
X124172Y184885D01*
X124233Y184961D01*
X124291Y185040D01*
X124345Y185120D01*
X124397Y185203D01*
X124445Y185287D01*
X124491Y185373D01*
X124532Y185461D01*
X124571Y185551D01*
X124606Y185642D01*
X124637Y185734D01*
X124665Y185827D01*
X124689Y185921D01*
X124709Y186016D01*
X124726Y186112D01*
X124739Y186209D01*
X124748Y186306D01*
X124754Y186403D01*
X124756Y186500D01*
X123973Y184672D02*
X119535Y179451D01*
X124756Y179451D01*
D11*
X36640Y142470D02*
X36640Y139470D01*
X36640Y142470D02*
X44640Y142470D01*
X44640Y139470D01*
X36640Y139470D01*
D10*
X35941Y154644D02*
X45339Y154644D01*
X35941Y154644D02*
X35941Y157255D01*
X35943Y157356D01*
X35949Y157457D01*
X35959Y157558D01*
X35972Y157658D01*
X35990Y157758D01*
X36011Y157857D01*
X36037Y157955D01*
X36066Y158052D01*
X36098Y158148D01*
X36135Y158242D01*
X36175Y158335D01*
X36219Y158427D01*
X36266Y158516D01*
X36317Y158604D01*
X36371Y158690D01*
X36428Y158773D01*
X36488Y158855D01*
X36552Y158933D01*
X36618Y159010D01*
X36688Y159083D01*
X36760Y159154D01*
X36835Y159222D01*
X36913Y159287D01*
X36993Y159349D01*
X37075Y159408D01*
X37160Y159464D01*
X37247Y159516D01*
X37335Y159565D01*
X37426Y159611D01*
X37518Y159652D01*
X37612Y159691D01*
X37707Y159725D01*
X37803Y159756D01*
X37901Y159783D01*
X37999Y159807D01*
X38099Y159826D01*
X38199Y159842D01*
X38299Y159854D01*
X38400Y159862D01*
X38501Y159866D01*
X38603Y159866D01*
X38704Y159862D01*
X38805Y159854D01*
X38905Y159842D01*
X39005Y159826D01*
X39105Y159807D01*
X39203Y159783D01*
X39301Y159756D01*
X39397Y159725D01*
X39492Y159691D01*
X39586Y159652D01*
X39678Y159611D01*
X39769Y159565D01*
X39858Y159516D01*
X39944Y159464D01*
X40029Y159408D01*
X40111Y159349D01*
X40191Y159287D01*
X40269Y159222D01*
X40344Y159154D01*
X40416Y159083D01*
X40486Y159010D01*
X40552Y158933D01*
X40616Y158855D01*
X40676Y158773D01*
X40733Y158690D01*
X40787Y158604D01*
X40838Y158516D01*
X40885Y158427D01*
X40929Y158335D01*
X40969Y158242D01*
X41006Y158148D01*
X41038Y158052D01*
X41067Y157955D01*
X41093Y157857D01*
X41114Y157758D01*
X41132Y157658D01*
X41145Y157558D01*
X41155Y157457D01*
X41161Y157356D01*
X41163Y157255D01*
X41162Y157255D02*
X41162Y154644D01*
X41162Y157777D02*
X45339Y159865D01*
X38029Y163731D02*
X35941Y166341D01*
X45339Y166341D01*
X45339Y163731D02*
X45339Y168952D01*
X45339Y172875D02*
X45339Y175485D01*
X45337Y175586D01*
X45331Y175687D01*
X45321Y175788D01*
X45308Y175888D01*
X45290Y175988D01*
X45269Y176087D01*
X45243Y176185D01*
X45214Y176282D01*
X45182Y176378D01*
X45145Y176472D01*
X45105Y176565D01*
X45061Y176657D01*
X45014Y176746D01*
X44963Y176834D01*
X44909Y176920D01*
X44852Y177003D01*
X44792Y177085D01*
X44728Y177163D01*
X44662Y177240D01*
X44592Y177313D01*
X44520Y177384D01*
X44445Y177452D01*
X44367Y177517D01*
X44287Y177579D01*
X44205Y177638D01*
X44120Y177694D01*
X44034Y177746D01*
X43945Y177795D01*
X43854Y177841D01*
X43762Y177882D01*
X43668Y177921D01*
X43573Y177955D01*
X43477Y177986D01*
X43379Y178013D01*
X43281Y178037D01*
X43181Y178056D01*
X43081Y178072D01*
X42981Y178084D01*
X42880Y178092D01*
X42779Y178096D01*
X42677Y178096D01*
X42576Y178092D01*
X42475Y178084D01*
X42375Y178072D01*
X42275Y178056D01*
X42175Y178037D01*
X42077Y178013D01*
X41979Y177986D01*
X41883Y177955D01*
X41788Y177921D01*
X41694Y177882D01*
X41602Y177841D01*
X41511Y177795D01*
X41423Y177746D01*
X41336Y177694D01*
X41251Y177638D01*
X41169Y177579D01*
X41089Y177517D01*
X41011Y177452D01*
X40936Y177384D01*
X40864Y177313D01*
X40794Y177240D01*
X40728Y177163D01*
X40664Y177085D01*
X40604Y177003D01*
X40547Y176920D01*
X40493Y176834D01*
X40442Y176746D01*
X40395Y176657D01*
X40351Y176565D01*
X40311Y176472D01*
X40274Y176378D01*
X40242Y176282D01*
X40213Y176185D01*
X40187Y176087D01*
X40166Y175988D01*
X40148Y175888D01*
X40135Y175788D01*
X40125Y175687D01*
X40119Y175586D01*
X40117Y175485D01*
X35941Y176008D02*
X35941Y172875D01*
X35941Y176008D02*
X35943Y176098D01*
X35949Y176187D01*
X35958Y176277D01*
X35972Y176366D01*
X35989Y176454D01*
X36010Y176541D01*
X36035Y176628D01*
X36064Y176713D01*
X36096Y176797D01*
X36131Y176879D01*
X36171Y176960D01*
X36213Y177039D01*
X36259Y177116D01*
X36309Y177191D01*
X36361Y177264D01*
X36417Y177335D01*
X36475Y177403D01*
X36537Y177468D01*
X36601Y177531D01*
X36668Y177591D01*
X36737Y177648D01*
X36809Y177702D01*
X36883Y177753D01*
X36959Y177801D01*
X37037Y177845D01*
X37117Y177886D01*
X37199Y177924D01*
X37282Y177958D01*
X37367Y177988D01*
X37453Y178015D01*
X37539Y178038D01*
X37627Y178057D01*
X37716Y178072D01*
X37805Y178084D01*
X37894Y178092D01*
X37984Y178096D01*
X38074Y178096D01*
X38164Y178092D01*
X38253Y178084D01*
X38342Y178072D01*
X38431Y178057D01*
X38519Y178038D01*
X38605Y178015D01*
X38691Y177988D01*
X38776Y177958D01*
X38859Y177924D01*
X38941Y177886D01*
X39021Y177845D01*
X39099Y177801D01*
X39175Y177753D01*
X39249Y177702D01*
X39321Y177648D01*
X39390Y177591D01*
X39457Y177531D01*
X39521Y177468D01*
X39583Y177403D01*
X39641Y177335D01*
X39697Y177264D01*
X39749Y177191D01*
X39799Y177116D01*
X39845Y177039D01*
X39887Y176960D01*
X39927Y176879D01*
X39962Y176797D01*
X39994Y176713D01*
X40023Y176628D01*
X40048Y176541D01*
X40069Y176454D01*
X40086Y176366D01*
X40100Y176277D01*
X40109Y176187D01*
X40115Y176098D01*
X40117Y176008D01*
X40118Y176008D02*
X40118Y173919D01*
D11*
X28130Y76430D02*
X28130Y73430D01*
X20130Y73430D01*
X20130Y76430D01*
X28130Y76430D01*
D10*
X18669Y65744D02*
X9271Y65744D01*
X9271Y68355D01*
X9273Y68456D01*
X9279Y68557D01*
X9289Y68658D01*
X9302Y68758D01*
X9320Y68858D01*
X9341Y68957D01*
X9367Y69055D01*
X9396Y69152D01*
X9428Y69248D01*
X9465Y69342D01*
X9505Y69435D01*
X9549Y69527D01*
X9596Y69616D01*
X9647Y69704D01*
X9701Y69790D01*
X9758Y69873D01*
X9818Y69955D01*
X9882Y70033D01*
X9948Y70110D01*
X10018Y70183D01*
X10090Y70254D01*
X10165Y70322D01*
X10243Y70387D01*
X10323Y70449D01*
X10405Y70508D01*
X10490Y70564D01*
X10577Y70616D01*
X10665Y70665D01*
X10756Y70711D01*
X10848Y70752D01*
X10942Y70791D01*
X11037Y70825D01*
X11133Y70856D01*
X11231Y70883D01*
X11329Y70907D01*
X11429Y70926D01*
X11529Y70942D01*
X11629Y70954D01*
X11730Y70962D01*
X11831Y70966D01*
X11933Y70966D01*
X12034Y70962D01*
X12135Y70954D01*
X12235Y70942D01*
X12335Y70926D01*
X12435Y70907D01*
X12533Y70883D01*
X12631Y70856D01*
X12727Y70825D01*
X12822Y70791D01*
X12916Y70752D01*
X13008Y70711D01*
X13099Y70665D01*
X13188Y70616D01*
X13274Y70564D01*
X13359Y70508D01*
X13441Y70449D01*
X13521Y70387D01*
X13599Y70322D01*
X13674Y70254D01*
X13746Y70183D01*
X13816Y70110D01*
X13882Y70033D01*
X13946Y69955D01*
X14006Y69873D01*
X14063Y69790D01*
X14117Y69704D01*
X14168Y69616D01*
X14215Y69527D01*
X14259Y69435D01*
X14299Y69342D01*
X14336Y69248D01*
X14368Y69152D01*
X14397Y69055D01*
X14423Y68957D01*
X14444Y68858D01*
X14462Y68758D01*
X14475Y68658D01*
X14485Y68557D01*
X14491Y68456D01*
X14493Y68355D01*
X14492Y68355D02*
X14492Y65744D01*
X14492Y68877D02*
X18669Y70965D01*
X11359Y74831D02*
X9271Y77441D01*
X18669Y77441D01*
X18669Y74831D02*
X18669Y80052D01*
X16581Y83975D02*
X9271Y86063D01*
X16581Y83975D02*
X16581Y89196D01*
X14492Y87630D02*
X18669Y87630D01*
D11*
X177570Y160210D02*
X180570Y160210D01*
X180570Y152210D01*
X177570Y152210D01*
X177570Y160210D01*
D10*
X149056Y160909D02*
X149056Y151511D01*
X149056Y160909D02*
X151667Y160909D01*
X151768Y160907D01*
X151869Y160901D01*
X151970Y160891D01*
X152070Y160878D01*
X152170Y160860D01*
X152269Y160839D01*
X152367Y160813D01*
X152464Y160784D01*
X152560Y160752D01*
X152654Y160715D01*
X152747Y160675D01*
X152839Y160631D01*
X152928Y160584D01*
X153016Y160533D01*
X153102Y160479D01*
X153185Y160422D01*
X153267Y160362D01*
X153345Y160298D01*
X153422Y160232D01*
X153495Y160162D01*
X153566Y160090D01*
X153634Y160015D01*
X153699Y159937D01*
X153761Y159857D01*
X153820Y159775D01*
X153876Y159690D01*
X153928Y159603D01*
X153977Y159515D01*
X154023Y159424D01*
X154064Y159332D01*
X154103Y159238D01*
X154137Y159143D01*
X154168Y159047D01*
X154195Y158949D01*
X154219Y158851D01*
X154238Y158751D01*
X154254Y158651D01*
X154266Y158551D01*
X154274Y158450D01*
X154278Y158349D01*
X154278Y158247D01*
X154274Y158146D01*
X154266Y158045D01*
X154254Y157945D01*
X154238Y157845D01*
X154219Y157745D01*
X154195Y157647D01*
X154168Y157549D01*
X154137Y157453D01*
X154103Y157358D01*
X154064Y157264D01*
X154023Y157172D01*
X153977Y157081D01*
X153928Y156992D01*
X153876Y156906D01*
X153820Y156821D01*
X153761Y156739D01*
X153699Y156659D01*
X153634Y156581D01*
X153566Y156506D01*
X153495Y156434D01*
X153422Y156364D01*
X153345Y156298D01*
X153267Y156234D01*
X153185Y156174D01*
X153102Y156117D01*
X153016Y156063D01*
X152928Y156012D01*
X152839Y155965D01*
X152747Y155921D01*
X152654Y155881D01*
X152560Y155844D01*
X152464Y155812D01*
X152367Y155783D01*
X152269Y155757D01*
X152170Y155736D01*
X152070Y155718D01*
X151970Y155705D01*
X151869Y155695D01*
X151768Y155689D01*
X151667Y155687D01*
X151667Y155688D02*
X149056Y155688D01*
X152189Y155688D02*
X154277Y151511D01*
X163365Y158560D02*
X163363Y158655D01*
X163357Y158749D01*
X163348Y158843D01*
X163335Y158937D01*
X163318Y159030D01*
X163297Y159122D01*
X163272Y159214D01*
X163244Y159304D01*
X163212Y159393D01*
X163177Y159481D01*
X163138Y159567D01*
X163096Y159652D01*
X163050Y159735D01*
X163001Y159816D01*
X162949Y159895D01*
X162894Y159972D01*
X162835Y160046D01*
X162774Y160118D01*
X162710Y160188D01*
X162643Y160255D01*
X162573Y160319D01*
X162501Y160380D01*
X162427Y160439D01*
X162350Y160494D01*
X162271Y160546D01*
X162190Y160595D01*
X162107Y160641D01*
X162022Y160683D01*
X161936Y160722D01*
X161848Y160757D01*
X161759Y160789D01*
X161669Y160817D01*
X161577Y160842D01*
X161485Y160863D01*
X161392Y160880D01*
X161298Y160893D01*
X161204Y160902D01*
X161110Y160908D01*
X161015Y160910D01*
X161015Y160909D02*
X160907Y160907D01*
X160798Y160901D01*
X160690Y160891D01*
X160583Y160878D01*
X160476Y160860D01*
X160369Y160839D01*
X160264Y160814D01*
X160159Y160785D01*
X160056Y160753D01*
X159954Y160716D01*
X159853Y160676D01*
X159754Y160633D01*
X159656Y160586D01*
X159560Y160535D01*
X159466Y160481D01*
X159374Y160424D01*
X159284Y160363D01*
X159196Y160299D01*
X159111Y160233D01*
X159028Y160163D01*
X158948Y160090D01*
X158870Y160014D01*
X158795Y159936D01*
X158723Y159855D01*
X158654Y159771D01*
X158588Y159685D01*
X158525Y159597D01*
X158466Y159506D01*
X158409Y159414D01*
X158356Y159319D01*
X158307Y159223D01*
X158261Y159124D01*
X158218Y159025D01*
X158179Y158923D01*
X158144Y158821D01*
X162581Y156732D02*
X162650Y156801D01*
X162716Y156872D01*
X162780Y156945D01*
X162841Y157021D01*
X162899Y157100D01*
X162953Y157180D01*
X163005Y157263D01*
X163053Y157347D01*
X163099Y157433D01*
X163140Y157521D01*
X163179Y157611D01*
X163214Y157702D01*
X163245Y157794D01*
X163273Y157887D01*
X163297Y157981D01*
X163317Y158076D01*
X163334Y158172D01*
X163347Y158269D01*
X163356Y158366D01*
X163362Y158463D01*
X163364Y158560D01*
X162581Y156732D02*
X158143Y151511D01*
X163364Y151511D01*
D11*
X177570Y175450D02*
X180570Y175450D01*
X180570Y167450D01*
X177570Y167450D01*
X177570Y175450D01*
D10*
X149056Y179959D02*
X149056Y170561D01*
X149056Y179959D02*
X151667Y179959D01*
X151768Y179957D01*
X151869Y179951D01*
X151970Y179941D01*
X152070Y179928D01*
X152170Y179910D01*
X152269Y179889D01*
X152367Y179863D01*
X152464Y179834D01*
X152560Y179802D01*
X152654Y179765D01*
X152747Y179725D01*
X152839Y179681D01*
X152928Y179634D01*
X153016Y179583D01*
X153102Y179529D01*
X153185Y179472D01*
X153267Y179412D01*
X153345Y179348D01*
X153422Y179282D01*
X153495Y179212D01*
X153566Y179140D01*
X153634Y179065D01*
X153699Y178987D01*
X153761Y178907D01*
X153820Y178825D01*
X153876Y178740D01*
X153928Y178653D01*
X153977Y178565D01*
X154023Y178474D01*
X154064Y178382D01*
X154103Y178288D01*
X154137Y178193D01*
X154168Y178097D01*
X154195Y177999D01*
X154219Y177901D01*
X154238Y177801D01*
X154254Y177701D01*
X154266Y177601D01*
X154274Y177500D01*
X154278Y177399D01*
X154278Y177297D01*
X154274Y177196D01*
X154266Y177095D01*
X154254Y176995D01*
X154238Y176895D01*
X154219Y176795D01*
X154195Y176697D01*
X154168Y176599D01*
X154137Y176503D01*
X154103Y176408D01*
X154064Y176314D01*
X154023Y176222D01*
X153977Y176131D01*
X153928Y176042D01*
X153876Y175956D01*
X153820Y175871D01*
X153761Y175789D01*
X153699Y175709D01*
X153634Y175631D01*
X153566Y175556D01*
X153495Y175484D01*
X153422Y175414D01*
X153345Y175348D01*
X153267Y175284D01*
X153185Y175224D01*
X153102Y175167D01*
X153016Y175113D01*
X152928Y175062D01*
X152839Y175015D01*
X152747Y174971D01*
X152654Y174931D01*
X152560Y174894D01*
X152464Y174862D01*
X152367Y174833D01*
X152269Y174807D01*
X152170Y174786D01*
X152070Y174768D01*
X151970Y174755D01*
X151869Y174745D01*
X151768Y174739D01*
X151667Y174737D01*
X151667Y174738D02*
X149056Y174738D01*
X152189Y174738D02*
X154277Y170561D01*
X158143Y170561D02*
X160753Y170561D01*
X160854Y170563D01*
X160955Y170569D01*
X161056Y170579D01*
X161156Y170592D01*
X161256Y170610D01*
X161355Y170631D01*
X161453Y170657D01*
X161550Y170686D01*
X161646Y170718D01*
X161740Y170755D01*
X161833Y170795D01*
X161925Y170839D01*
X162014Y170886D01*
X162102Y170937D01*
X162188Y170991D01*
X162271Y171048D01*
X162353Y171108D01*
X162431Y171172D01*
X162508Y171238D01*
X162581Y171308D01*
X162652Y171380D01*
X162720Y171455D01*
X162785Y171533D01*
X162847Y171613D01*
X162906Y171695D01*
X162962Y171780D01*
X163014Y171866D01*
X163063Y171955D01*
X163109Y172046D01*
X163150Y172138D01*
X163189Y172232D01*
X163223Y172327D01*
X163254Y172423D01*
X163281Y172521D01*
X163305Y172619D01*
X163324Y172719D01*
X163340Y172819D01*
X163352Y172919D01*
X163360Y173020D01*
X163364Y173121D01*
X163364Y173223D01*
X163360Y173324D01*
X163352Y173425D01*
X163340Y173525D01*
X163324Y173625D01*
X163305Y173725D01*
X163281Y173823D01*
X163254Y173921D01*
X163223Y174017D01*
X163189Y174112D01*
X163150Y174206D01*
X163109Y174298D01*
X163063Y174389D01*
X163014Y174477D01*
X162962Y174564D01*
X162906Y174649D01*
X162847Y174731D01*
X162785Y174811D01*
X162720Y174889D01*
X162652Y174964D01*
X162581Y175036D01*
X162508Y175106D01*
X162431Y175172D01*
X162353Y175236D01*
X162271Y175296D01*
X162188Y175353D01*
X162102Y175407D01*
X162014Y175458D01*
X161925Y175505D01*
X161833Y175549D01*
X161740Y175589D01*
X161646Y175626D01*
X161550Y175658D01*
X161453Y175687D01*
X161355Y175713D01*
X161256Y175734D01*
X161156Y175752D01*
X161056Y175765D01*
X160955Y175775D01*
X160854Y175781D01*
X160753Y175783D01*
X161276Y179959D02*
X158143Y179959D01*
X161276Y179959D02*
X161366Y179957D01*
X161455Y179951D01*
X161545Y179942D01*
X161634Y179928D01*
X161722Y179911D01*
X161809Y179890D01*
X161896Y179865D01*
X161981Y179836D01*
X162065Y179804D01*
X162147Y179769D01*
X162228Y179729D01*
X162307Y179687D01*
X162384Y179641D01*
X162459Y179591D01*
X162532Y179539D01*
X162603Y179483D01*
X162671Y179425D01*
X162736Y179363D01*
X162799Y179299D01*
X162859Y179232D01*
X162916Y179163D01*
X162970Y179091D01*
X163021Y179017D01*
X163069Y178941D01*
X163113Y178863D01*
X163154Y178783D01*
X163192Y178701D01*
X163226Y178618D01*
X163256Y178533D01*
X163283Y178447D01*
X163306Y178361D01*
X163325Y178273D01*
X163340Y178184D01*
X163352Y178095D01*
X163360Y178006D01*
X163364Y177916D01*
X163364Y177826D01*
X163360Y177736D01*
X163352Y177647D01*
X163340Y177558D01*
X163325Y177469D01*
X163306Y177381D01*
X163283Y177295D01*
X163256Y177209D01*
X163226Y177124D01*
X163192Y177041D01*
X163154Y176959D01*
X163113Y176879D01*
X163069Y176801D01*
X163021Y176725D01*
X162970Y176651D01*
X162916Y176579D01*
X162859Y176510D01*
X162799Y176443D01*
X162736Y176379D01*
X162671Y176317D01*
X162603Y176259D01*
X162532Y176203D01*
X162459Y176151D01*
X162384Y176101D01*
X162307Y176055D01*
X162228Y176013D01*
X162147Y175973D01*
X162065Y175938D01*
X161981Y175906D01*
X161896Y175877D01*
X161809Y175852D01*
X161722Y175831D01*
X161634Y175814D01*
X161545Y175800D01*
X161455Y175791D01*
X161366Y175785D01*
X161276Y175783D01*
X161276Y175782D02*
X159187Y175782D01*
D11*
X217360Y72620D02*
X217360Y69620D01*
X209360Y69620D01*
X209360Y72620D01*
X217360Y72620D01*
D10*
X219329Y41106D02*
X209931Y41106D01*
X209931Y43717D01*
X209933Y43818D01*
X209939Y43919D01*
X209949Y44020D01*
X209962Y44120D01*
X209980Y44220D01*
X210001Y44319D01*
X210027Y44417D01*
X210056Y44514D01*
X210088Y44610D01*
X210125Y44704D01*
X210165Y44797D01*
X210209Y44889D01*
X210256Y44978D01*
X210307Y45066D01*
X210361Y45152D01*
X210418Y45235D01*
X210478Y45317D01*
X210542Y45395D01*
X210608Y45472D01*
X210678Y45545D01*
X210750Y45616D01*
X210825Y45684D01*
X210903Y45749D01*
X210983Y45811D01*
X211065Y45870D01*
X211150Y45926D01*
X211237Y45978D01*
X211325Y46027D01*
X211416Y46073D01*
X211508Y46114D01*
X211602Y46153D01*
X211697Y46187D01*
X211793Y46218D01*
X211891Y46245D01*
X211989Y46269D01*
X212089Y46288D01*
X212189Y46304D01*
X212289Y46316D01*
X212390Y46324D01*
X212491Y46328D01*
X212593Y46328D01*
X212694Y46324D01*
X212795Y46316D01*
X212895Y46304D01*
X212995Y46288D01*
X213095Y46269D01*
X213193Y46245D01*
X213291Y46218D01*
X213387Y46187D01*
X213482Y46153D01*
X213576Y46114D01*
X213668Y46073D01*
X213759Y46027D01*
X213848Y45978D01*
X213934Y45926D01*
X214019Y45870D01*
X214101Y45811D01*
X214181Y45749D01*
X214259Y45684D01*
X214334Y45616D01*
X214406Y45545D01*
X214476Y45472D01*
X214542Y45395D01*
X214606Y45317D01*
X214666Y45235D01*
X214723Y45152D01*
X214777Y45066D01*
X214828Y44978D01*
X214875Y44889D01*
X214919Y44797D01*
X214959Y44704D01*
X214996Y44610D01*
X215028Y44514D01*
X215057Y44417D01*
X215083Y44319D01*
X215104Y44220D01*
X215122Y44120D01*
X215135Y44020D01*
X215145Y43919D01*
X215151Y43818D01*
X215153Y43717D01*
X215152Y43717D02*
X215152Y41106D01*
X215152Y44239D02*
X219329Y46327D01*
X217241Y50193D02*
X209931Y52281D01*
X217241Y50193D02*
X217241Y55414D01*
X215152Y53848D02*
X219329Y53848D01*
D11*
X224600Y148360D02*
X224600Y151360D01*
X232600Y151360D01*
X232600Y148360D01*
X224600Y148360D01*
D10*
X223171Y164876D02*
X232569Y164876D01*
X223171Y164876D02*
X223171Y167487D01*
X223173Y167588D01*
X223179Y167689D01*
X223189Y167790D01*
X223202Y167890D01*
X223220Y167990D01*
X223241Y168089D01*
X223267Y168187D01*
X223296Y168284D01*
X223328Y168380D01*
X223365Y168474D01*
X223405Y168567D01*
X223449Y168659D01*
X223496Y168748D01*
X223547Y168836D01*
X223601Y168922D01*
X223658Y169005D01*
X223718Y169087D01*
X223782Y169165D01*
X223848Y169242D01*
X223918Y169315D01*
X223990Y169386D01*
X224065Y169454D01*
X224143Y169519D01*
X224223Y169581D01*
X224305Y169640D01*
X224390Y169696D01*
X224477Y169748D01*
X224565Y169797D01*
X224656Y169843D01*
X224748Y169884D01*
X224842Y169923D01*
X224937Y169957D01*
X225033Y169988D01*
X225131Y170015D01*
X225229Y170039D01*
X225329Y170058D01*
X225429Y170074D01*
X225529Y170086D01*
X225630Y170094D01*
X225731Y170098D01*
X225833Y170098D01*
X225934Y170094D01*
X226035Y170086D01*
X226135Y170074D01*
X226235Y170058D01*
X226335Y170039D01*
X226433Y170015D01*
X226531Y169988D01*
X226627Y169957D01*
X226722Y169923D01*
X226816Y169884D01*
X226908Y169843D01*
X226999Y169797D01*
X227088Y169748D01*
X227174Y169696D01*
X227259Y169640D01*
X227341Y169581D01*
X227421Y169519D01*
X227499Y169454D01*
X227574Y169386D01*
X227646Y169315D01*
X227716Y169242D01*
X227782Y169165D01*
X227846Y169087D01*
X227906Y169005D01*
X227963Y168922D01*
X228017Y168836D01*
X228068Y168748D01*
X228115Y168659D01*
X228159Y168567D01*
X228199Y168474D01*
X228236Y168380D01*
X228268Y168284D01*
X228297Y168187D01*
X228323Y168089D01*
X228344Y167990D01*
X228362Y167890D01*
X228375Y167790D01*
X228385Y167689D01*
X228391Y167588D01*
X228393Y167487D01*
X228392Y167487D02*
X228392Y164876D01*
X228392Y168009D02*
X232569Y170097D01*
X232569Y173963D02*
X232569Y177096D01*
X232567Y177185D01*
X232561Y177273D01*
X232552Y177361D01*
X232539Y177449D01*
X232522Y177536D01*
X232502Y177622D01*
X232477Y177707D01*
X232450Y177792D01*
X232418Y177875D01*
X232384Y177956D01*
X232345Y178036D01*
X232304Y178114D01*
X232259Y178191D01*
X232211Y178265D01*
X232160Y178338D01*
X232106Y178408D01*
X232048Y178475D01*
X231988Y178541D01*
X231926Y178603D01*
X231860Y178663D01*
X231793Y178721D01*
X231723Y178775D01*
X231650Y178826D01*
X231576Y178874D01*
X231499Y178919D01*
X231421Y178960D01*
X231341Y178999D01*
X231260Y179033D01*
X231177Y179065D01*
X231092Y179092D01*
X231007Y179117D01*
X230921Y179137D01*
X230834Y179154D01*
X230746Y179167D01*
X230658Y179176D01*
X230570Y179182D01*
X230481Y179184D01*
X229436Y179184D01*
X229347Y179182D01*
X229259Y179176D01*
X229171Y179167D01*
X229083Y179154D01*
X228996Y179137D01*
X228910Y179117D01*
X228825Y179092D01*
X228740Y179065D01*
X228657Y179033D01*
X228576Y178999D01*
X228496Y178960D01*
X228418Y178919D01*
X228341Y178874D01*
X228267Y178826D01*
X228194Y178775D01*
X228124Y178721D01*
X228057Y178663D01*
X227991Y178603D01*
X227929Y178541D01*
X227869Y178475D01*
X227811Y178408D01*
X227757Y178338D01*
X227706Y178265D01*
X227658Y178191D01*
X227613Y178114D01*
X227572Y178036D01*
X227533Y177956D01*
X227499Y177875D01*
X227467Y177792D01*
X227440Y177707D01*
X227415Y177622D01*
X227395Y177536D01*
X227378Y177449D01*
X227365Y177361D01*
X227356Y177273D01*
X227350Y177185D01*
X227348Y177096D01*
X227348Y173963D01*
X223171Y173963D01*
X223171Y179184D01*
D11*
X209360Y151360D02*
X209360Y148360D01*
X209360Y151360D02*
X217360Y151360D01*
X217360Y148360D01*
X209360Y148360D01*
D10*
X208661Y164296D02*
X218059Y164296D01*
X208661Y164296D02*
X208661Y166907D01*
X208663Y167008D01*
X208669Y167109D01*
X208679Y167210D01*
X208692Y167310D01*
X208710Y167410D01*
X208731Y167509D01*
X208757Y167607D01*
X208786Y167704D01*
X208818Y167800D01*
X208855Y167894D01*
X208895Y167987D01*
X208939Y168079D01*
X208986Y168168D01*
X209037Y168256D01*
X209091Y168342D01*
X209148Y168425D01*
X209208Y168507D01*
X209272Y168585D01*
X209338Y168662D01*
X209408Y168735D01*
X209480Y168806D01*
X209555Y168874D01*
X209633Y168939D01*
X209713Y169001D01*
X209795Y169060D01*
X209880Y169116D01*
X209967Y169168D01*
X210055Y169217D01*
X210146Y169263D01*
X210238Y169304D01*
X210332Y169343D01*
X210427Y169377D01*
X210523Y169408D01*
X210621Y169435D01*
X210719Y169459D01*
X210819Y169478D01*
X210919Y169494D01*
X211019Y169506D01*
X211120Y169514D01*
X211221Y169518D01*
X211323Y169518D01*
X211424Y169514D01*
X211525Y169506D01*
X211625Y169494D01*
X211725Y169478D01*
X211825Y169459D01*
X211923Y169435D01*
X212021Y169408D01*
X212117Y169377D01*
X212212Y169343D01*
X212306Y169304D01*
X212398Y169263D01*
X212489Y169217D01*
X212578Y169168D01*
X212664Y169116D01*
X212749Y169060D01*
X212831Y169001D01*
X212911Y168939D01*
X212989Y168874D01*
X213064Y168806D01*
X213136Y168735D01*
X213206Y168662D01*
X213272Y168585D01*
X213336Y168507D01*
X213396Y168425D01*
X213453Y168342D01*
X213507Y168256D01*
X213558Y168168D01*
X213605Y168079D01*
X213649Y167987D01*
X213689Y167894D01*
X213726Y167800D01*
X213758Y167704D01*
X213787Y167607D01*
X213813Y167509D01*
X213834Y167410D01*
X213852Y167310D01*
X213865Y167210D01*
X213875Y167109D01*
X213881Y167008D01*
X213883Y166907D01*
X213882Y166907D02*
X213882Y164296D01*
X213882Y167429D02*
X218059Y169517D01*
X212838Y173383D02*
X212838Y176516D01*
X212840Y176605D01*
X212846Y176693D01*
X212855Y176781D01*
X212868Y176869D01*
X212885Y176956D01*
X212905Y177042D01*
X212930Y177127D01*
X212957Y177212D01*
X212989Y177295D01*
X213023Y177376D01*
X213062Y177456D01*
X213103Y177534D01*
X213148Y177611D01*
X213196Y177685D01*
X213247Y177758D01*
X213301Y177828D01*
X213359Y177895D01*
X213419Y177961D01*
X213481Y178023D01*
X213547Y178083D01*
X213614Y178141D01*
X213684Y178195D01*
X213757Y178246D01*
X213831Y178294D01*
X213908Y178339D01*
X213986Y178380D01*
X214066Y178419D01*
X214147Y178453D01*
X214230Y178485D01*
X214315Y178512D01*
X214400Y178537D01*
X214486Y178557D01*
X214573Y178574D01*
X214661Y178587D01*
X214749Y178596D01*
X214837Y178602D01*
X214926Y178604D01*
X215448Y178604D01*
X215549Y178602D01*
X215650Y178596D01*
X215751Y178586D01*
X215851Y178573D01*
X215951Y178555D01*
X216050Y178534D01*
X216148Y178508D01*
X216245Y178479D01*
X216341Y178447D01*
X216435Y178410D01*
X216528Y178370D01*
X216620Y178326D01*
X216709Y178279D01*
X216797Y178228D01*
X216883Y178174D01*
X216966Y178117D01*
X217048Y178057D01*
X217126Y177993D01*
X217203Y177927D01*
X217276Y177857D01*
X217347Y177785D01*
X217415Y177710D01*
X217480Y177632D01*
X217542Y177552D01*
X217601Y177470D01*
X217657Y177385D01*
X217709Y177298D01*
X217758Y177210D01*
X217804Y177119D01*
X217845Y177027D01*
X217884Y176933D01*
X217918Y176838D01*
X217949Y176742D01*
X217976Y176644D01*
X218000Y176546D01*
X218019Y176446D01*
X218035Y176346D01*
X218047Y176246D01*
X218055Y176145D01*
X218059Y176044D01*
X218059Y175942D01*
X218055Y175841D01*
X218047Y175740D01*
X218035Y175640D01*
X218019Y175540D01*
X218000Y175440D01*
X217976Y175342D01*
X217949Y175244D01*
X217918Y175148D01*
X217884Y175053D01*
X217845Y174959D01*
X217804Y174867D01*
X217758Y174776D01*
X217709Y174687D01*
X217657Y174601D01*
X217601Y174516D01*
X217542Y174434D01*
X217480Y174354D01*
X217415Y174276D01*
X217347Y174201D01*
X217276Y174129D01*
X217203Y174059D01*
X217126Y173993D01*
X217048Y173929D01*
X216966Y173869D01*
X216883Y173812D01*
X216797Y173758D01*
X216709Y173707D01*
X216620Y173660D01*
X216528Y173616D01*
X216435Y173576D01*
X216341Y173539D01*
X216245Y173507D01*
X216148Y173478D01*
X216050Y173452D01*
X215951Y173431D01*
X215851Y173413D01*
X215751Y173400D01*
X215650Y173390D01*
X215549Y173384D01*
X215448Y173382D01*
X215448Y173383D02*
X212838Y173383D01*
X212709Y173385D01*
X212581Y173391D01*
X212453Y173401D01*
X212325Y173415D01*
X212197Y173432D01*
X212070Y173454D01*
X211944Y173480D01*
X211819Y173509D01*
X211695Y173542D01*
X211572Y173580D01*
X211450Y173620D01*
X211329Y173665D01*
X211210Y173713D01*
X211092Y173765D01*
X210976Y173821D01*
X210862Y173880D01*
X210750Y173943D01*
X210639Y174009D01*
X210531Y174078D01*
X210425Y174151D01*
X210321Y174227D01*
X210219Y174306D01*
X210120Y174388D01*
X210024Y174473D01*
X209930Y174561D01*
X209839Y174652D01*
X209751Y174746D01*
X209666Y174842D01*
X209584Y174941D01*
X209505Y175043D01*
X209429Y175147D01*
X209356Y175253D01*
X209287Y175361D01*
X209221Y175471D01*
X209158Y175584D01*
X209099Y175698D01*
X209043Y175814D01*
X208991Y175932D01*
X208943Y176051D01*
X208898Y176172D01*
X208858Y176294D01*
X208820Y176417D01*
X208787Y176541D01*
X208758Y176666D01*
X208732Y176792D01*
X208710Y176919D01*
X208693Y177047D01*
X208679Y177175D01*
X208669Y177303D01*
X208663Y177431D01*
X208661Y177560D01*
D11*
X180570Y45530D02*
X177570Y45530D01*
X177570Y53530D01*
X180570Y53530D01*
X180570Y45530D01*
D10*
X149056Y44831D02*
X149056Y54229D01*
X151667Y54229D01*
X151768Y54227D01*
X151869Y54221D01*
X151970Y54211D01*
X152070Y54198D01*
X152170Y54180D01*
X152269Y54159D01*
X152367Y54133D01*
X152464Y54104D01*
X152560Y54072D01*
X152654Y54035D01*
X152747Y53995D01*
X152839Y53951D01*
X152928Y53904D01*
X153016Y53853D01*
X153102Y53799D01*
X153185Y53742D01*
X153267Y53682D01*
X153345Y53618D01*
X153422Y53552D01*
X153495Y53482D01*
X153566Y53410D01*
X153634Y53335D01*
X153699Y53257D01*
X153761Y53177D01*
X153820Y53095D01*
X153876Y53010D01*
X153928Y52923D01*
X153977Y52835D01*
X154023Y52744D01*
X154064Y52652D01*
X154103Y52558D01*
X154137Y52463D01*
X154168Y52367D01*
X154195Y52269D01*
X154219Y52171D01*
X154238Y52071D01*
X154254Y51971D01*
X154266Y51871D01*
X154274Y51770D01*
X154278Y51669D01*
X154278Y51567D01*
X154274Y51466D01*
X154266Y51365D01*
X154254Y51265D01*
X154238Y51165D01*
X154219Y51065D01*
X154195Y50967D01*
X154168Y50869D01*
X154137Y50773D01*
X154103Y50678D01*
X154064Y50584D01*
X154023Y50492D01*
X153977Y50401D01*
X153928Y50312D01*
X153876Y50226D01*
X153820Y50141D01*
X153761Y50059D01*
X153699Y49979D01*
X153634Y49901D01*
X153566Y49826D01*
X153495Y49754D01*
X153422Y49684D01*
X153345Y49618D01*
X153267Y49554D01*
X153185Y49494D01*
X153102Y49437D01*
X153016Y49383D01*
X152928Y49332D01*
X152839Y49285D01*
X152747Y49241D01*
X152654Y49201D01*
X152560Y49164D01*
X152464Y49132D01*
X152367Y49103D01*
X152269Y49077D01*
X152170Y49056D01*
X152070Y49038D01*
X151970Y49025D01*
X151869Y49015D01*
X151768Y49009D01*
X151667Y49007D01*
X151667Y49008D02*
X149056Y49008D01*
X152189Y49008D02*
X154277Y44831D01*
X158143Y53185D02*
X158143Y54229D01*
X163364Y54229D01*
X160753Y44831D01*
D11*
X177570Y60770D02*
X180570Y60770D01*
X177570Y60770D02*
X177570Y68770D01*
X180570Y68770D01*
X180570Y60770D01*
D10*
X149056Y60071D02*
X149056Y69469D01*
X151667Y69469D01*
X151768Y69467D01*
X151869Y69461D01*
X151970Y69451D01*
X152070Y69438D01*
X152170Y69420D01*
X152269Y69399D01*
X152367Y69373D01*
X152464Y69344D01*
X152560Y69312D01*
X152654Y69275D01*
X152747Y69235D01*
X152839Y69191D01*
X152928Y69144D01*
X153016Y69093D01*
X153102Y69039D01*
X153185Y68982D01*
X153267Y68922D01*
X153345Y68858D01*
X153422Y68792D01*
X153495Y68722D01*
X153566Y68650D01*
X153634Y68575D01*
X153699Y68497D01*
X153761Y68417D01*
X153820Y68335D01*
X153876Y68250D01*
X153928Y68163D01*
X153977Y68075D01*
X154023Y67984D01*
X154064Y67892D01*
X154103Y67798D01*
X154137Y67703D01*
X154168Y67607D01*
X154195Y67509D01*
X154219Y67411D01*
X154238Y67311D01*
X154254Y67211D01*
X154266Y67111D01*
X154274Y67010D01*
X154278Y66909D01*
X154278Y66807D01*
X154274Y66706D01*
X154266Y66605D01*
X154254Y66505D01*
X154238Y66405D01*
X154219Y66305D01*
X154195Y66207D01*
X154168Y66109D01*
X154137Y66013D01*
X154103Y65918D01*
X154064Y65824D01*
X154023Y65732D01*
X153977Y65641D01*
X153928Y65552D01*
X153876Y65466D01*
X153820Y65381D01*
X153761Y65299D01*
X153699Y65219D01*
X153634Y65141D01*
X153566Y65066D01*
X153495Y64994D01*
X153422Y64924D01*
X153345Y64858D01*
X153267Y64794D01*
X153185Y64734D01*
X153102Y64677D01*
X153016Y64623D01*
X152928Y64572D01*
X152839Y64525D01*
X152747Y64481D01*
X152654Y64441D01*
X152560Y64404D01*
X152464Y64372D01*
X152367Y64343D01*
X152269Y64317D01*
X152170Y64296D01*
X152070Y64278D01*
X151970Y64265D01*
X151869Y64255D01*
X151768Y64249D01*
X151667Y64247D01*
X151667Y64248D02*
X149056Y64248D01*
X152189Y64248D02*
X154277Y60071D01*
X158142Y62682D02*
X158144Y62783D01*
X158150Y62884D01*
X158160Y62985D01*
X158173Y63085D01*
X158191Y63185D01*
X158212Y63284D01*
X158238Y63382D01*
X158267Y63479D01*
X158299Y63575D01*
X158336Y63669D01*
X158376Y63762D01*
X158420Y63854D01*
X158467Y63943D01*
X158518Y64031D01*
X158572Y64117D01*
X158629Y64200D01*
X158689Y64282D01*
X158753Y64360D01*
X158819Y64437D01*
X158889Y64510D01*
X158961Y64581D01*
X159036Y64649D01*
X159114Y64714D01*
X159194Y64776D01*
X159276Y64835D01*
X159361Y64891D01*
X159448Y64943D01*
X159536Y64992D01*
X159627Y65038D01*
X159719Y65079D01*
X159813Y65118D01*
X159908Y65152D01*
X160004Y65183D01*
X160102Y65210D01*
X160200Y65234D01*
X160300Y65253D01*
X160400Y65269D01*
X160500Y65281D01*
X160601Y65289D01*
X160702Y65293D01*
X160804Y65293D01*
X160905Y65289D01*
X161006Y65281D01*
X161106Y65269D01*
X161206Y65253D01*
X161306Y65234D01*
X161404Y65210D01*
X161502Y65183D01*
X161598Y65152D01*
X161693Y65118D01*
X161787Y65079D01*
X161879Y65038D01*
X161970Y64992D01*
X162059Y64943D01*
X162145Y64891D01*
X162230Y64835D01*
X162312Y64776D01*
X162392Y64714D01*
X162470Y64649D01*
X162545Y64581D01*
X162617Y64510D01*
X162687Y64437D01*
X162753Y64360D01*
X162817Y64282D01*
X162877Y64200D01*
X162934Y64117D01*
X162988Y64031D01*
X163039Y63943D01*
X163086Y63854D01*
X163130Y63762D01*
X163170Y63669D01*
X163207Y63575D01*
X163239Y63479D01*
X163268Y63382D01*
X163294Y63284D01*
X163315Y63185D01*
X163333Y63085D01*
X163346Y62985D01*
X163356Y62884D01*
X163362Y62783D01*
X163364Y62682D01*
X163362Y62581D01*
X163356Y62480D01*
X163346Y62379D01*
X163333Y62279D01*
X163315Y62179D01*
X163294Y62080D01*
X163268Y61982D01*
X163239Y61885D01*
X163207Y61789D01*
X163170Y61695D01*
X163130Y61602D01*
X163086Y61510D01*
X163039Y61421D01*
X162988Y61333D01*
X162934Y61247D01*
X162877Y61164D01*
X162817Y61082D01*
X162753Y61004D01*
X162687Y60927D01*
X162617Y60854D01*
X162545Y60783D01*
X162470Y60715D01*
X162392Y60650D01*
X162312Y60588D01*
X162230Y60529D01*
X162145Y60473D01*
X162058Y60421D01*
X161970Y60372D01*
X161879Y60326D01*
X161787Y60285D01*
X161693Y60246D01*
X161598Y60212D01*
X161502Y60181D01*
X161404Y60154D01*
X161306Y60130D01*
X161206Y60111D01*
X161106Y60095D01*
X161006Y60083D01*
X160905Y60075D01*
X160804Y60071D01*
X160702Y60071D01*
X160601Y60075D01*
X160500Y60083D01*
X160400Y60095D01*
X160300Y60111D01*
X160200Y60130D01*
X160102Y60154D01*
X160004Y60181D01*
X159908Y60212D01*
X159813Y60246D01*
X159719Y60285D01*
X159627Y60326D01*
X159536Y60372D01*
X159448Y60421D01*
X159361Y60473D01*
X159276Y60529D01*
X159194Y60588D01*
X159114Y60650D01*
X159036Y60715D01*
X158961Y60783D01*
X158889Y60854D01*
X158819Y60927D01*
X158753Y61004D01*
X158689Y61082D01*
X158629Y61164D01*
X158572Y61247D01*
X158518Y61333D01*
X158467Y61421D01*
X158420Y61510D01*
X158376Y61602D01*
X158336Y61695D01*
X158299Y61789D01*
X158267Y61885D01*
X158238Y61982D01*
X158212Y62080D01*
X158191Y62179D01*
X158173Y62279D01*
X158160Y62379D01*
X158150Y62480D01*
X158144Y62581D01*
X158142Y62682D01*
X158665Y67381D02*
X158667Y67471D01*
X158673Y67560D01*
X158682Y67650D01*
X158696Y67739D01*
X158713Y67827D01*
X158734Y67914D01*
X158759Y68001D01*
X158788Y68086D01*
X158820Y68170D01*
X158855Y68252D01*
X158895Y68333D01*
X158937Y68412D01*
X158983Y68489D01*
X159033Y68564D01*
X159085Y68637D01*
X159141Y68708D01*
X159199Y68776D01*
X159261Y68841D01*
X159325Y68904D01*
X159392Y68964D01*
X159461Y69021D01*
X159533Y69075D01*
X159607Y69126D01*
X159683Y69174D01*
X159761Y69218D01*
X159841Y69259D01*
X159923Y69297D01*
X160006Y69331D01*
X160091Y69361D01*
X160177Y69388D01*
X160263Y69411D01*
X160351Y69430D01*
X160440Y69445D01*
X160529Y69457D01*
X160618Y69465D01*
X160708Y69469D01*
X160798Y69469D01*
X160888Y69465D01*
X160977Y69457D01*
X161066Y69445D01*
X161155Y69430D01*
X161243Y69411D01*
X161329Y69388D01*
X161415Y69361D01*
X161500Y69331D01*
X161583Y69297D01*
X161665Y69259D01*
X161745Y69218D01*
X161823Y69174D01*
X161899Y69126D01*
X161973Y69075D01*
X162045Y69021D01*
X162114Y68964D01*
X162181Y68904D01*
X162245Y68841D01*
X162307Y68776D01*
X162365Y68708D01*
X162421Y68637D01*
X162473Y68564D01*
X162523Y68489D01*
X162569Y68412D01*
X162611Y68333D01*
X162651Y68252D01*
X162686Y68170D01*
X162718Y68086D01*
X162747Y68001D01*
X162772Y67914D01*
X162793Y67827D01*
X162810Y67739D01*
X162824Y67650D01*
X162833Y67560D01*
X162839Y67471D01*
X162841Y67381D01*
X162839Y67291D01*
X162833Y67202D01*
X162824Y67112D01*
X162810Y67023D01*
X162793Y66935D01*
X162772Y66848D01*
X162747Y66761D01*
X162718Y66676D01*
X162686Y66592D01*
X162651Y66510D01*
X162611Y66429D01*
X162569Y66350D01*
X162523Y66273D01*
X162473Y66198D01*
X162421Y66125D01*
X162365Y66054D01*
X162307Y65986D01*
X162245Y65921D01*
X162181Y65858D01*
X162114Y65798D01*
X162045Y65741D01*
X161973Y65687D01*
X161899Y65636D01*
X161823Y65588D01*
X161745Y65544D01*
X161665Y65503D01*
X161583Y65465D01*
X161500Y65431D01*
X161415Y65401D01*
X161329Y65374D01*
X161243Y65351D01*
X161155Y65332D01*
X161066Y65317D01*
X160977Y65305D01*
X160888Y65297D01*
X160798Y65293D01*
X160708Y65293D01*
X160618Y65297D01*
X160529Y65305D01*
X160440Y65317D01*
X160351Y65332D01*
X160263Y65351D01*
X160177Y65374D01*
X160091Y65401D01*
X160006Y65431D01*
X159923Y65465D01*
X159841Y65503D01*
X159761Y65544D01*
X159683Y65588D01*
X159607Y65636D01*
X159533Y65687D01*
X159461Y65741D01*
X159392Y65798D01*
X159325Y65858D01*
X159261Y65921D01*
X159199Y65986D01*
X159141Y66054D01*
X159085Y66125D01*
X159033Y66198D01*
X158983Y66273D01*
X158937Y66350D01*
X158895Y66429D01*
X158855Y66510D01*
X158820Y66592D01*
X158788Y66676D01*
X158759Y66761D01*
X158734Y66848D01*
X158713Y66935D01*
X158696Y67023D01*
X158682Y67112D01*
X158673Y67202D01*
X158667Y67291D01*
X158665Y67381D01*
D11*
X177570Y84010D02*
X180570Y84010D01*
X180570Y76010D01*
X177570Y76010D01*
X177570Y84010D01*
D10*
X150326Y84709D02*
X150326Y75311D01*
X150326Y84709D02*
X152937Y84709D01*
X153038Y84707D01*
X153139Y84701D01*
X153240Y84691D01*
X153340Y84678D01*
X153440Y84660D01*
X153539Y84639D01*
X153637Y84613D01*
X153734Y84584D01*
X153830Y84552D01*
X153924Y84515D01*
X154017Y84475D01*
X154109Y84431D01*
X154198Y84384D01*
X154286Y84333D01*
X154372Y84279D01*
X154455Y84222D01*
X154537Y84162D01*
X154615Y84098D01*
X154692Y84032D01*
X154765Y83962D01*
X154836Y83890D01*
X154904Y83815D01*
X154969Y83737D01*
X155031Y83657D01*
X155090Y83575D01*
X155146Y83490D01*
X155198Y83403D01*
X155247Y83315D01*
X155293Y83224D01*
X155334Y83132D01*
X155373Y83038D01*
X155407Y82943D01*
X155438Y82847D01*
X155465Y82749D01*
X155489Y82651D01*
X155508Y82551D01*
X155524Y82451D01*
X155536Y82351D01*
X155544Y82250D01*
X155548Y82149D01*
X155548Y82047D01*
X155544Y81946D01*
X155536Y81845D01*
X155524Y81745D01*
X155508Y81645D01*
X155489Y81545D01*
X155465Y81447D01*
X155438Y81349D01*
X155407Y81253D01*
X155373Y81158D01*
X155334Y81064D01*
X155293Y80972D01*
X155247Y80881D01*
X155198Y80792D01*
X155146Y80706D01*
X155090Y80621D01*
X155031Y80539D01*
X154969Y80459D01*
X154904Y80381D01*
X154836Y80306D01*
X154765Y80234D01*
X154692Y80164D01*
X154615Y80098D01*
X154537Y80034D01*
X154455Y79974D01*
X154372Y79917D01*
X154286Y79863D01*
X154198Y79812D01*
X154109Y79765D01*
X154017Y79721D01*
X153924Y79681D01*
X153830Y79644D01*
X153734Y79612D01*
X153637Y79583D01*
X153539Y79557D01*
X153440Y79536D01*
X153340Y79518D01*
X153240Y79505D01*
X153139Y79495D01*
X153038Y79489D01*
X152937Y79487D01*
X152937Y79488D02*
X150326Y79488D01*
X153459Y79488D02*
X155547Y75311D01*
X161501Y79488D02*
X164634Y79488D01*
X161501Y79488D02*
X161412Y79490D01*
X161324Y79496D01*
X161236Y79505D01*
X161148Y79518D01*
X161061Y79535D01*
X160975Y79555D01*
X160890Y79580D01*
X160805Y79607D01*
X160722Y79639D01*
X160641Y79673D01*
X160561Y79712D01*
X160483Y79753D01*
X160406Y79798D01*
X160332Y79846D01*
X160259Y79897D01*
X160189Y79951D01*
X160122Y80009D01*
X160056Y80069D01*
X159994Y80131D01*
X159934Y80197D01*
X159876Y80264D01*
X159822Y80334D01*
X159771Y80407D01*
X159723Y80481D01*
X159678Y80558D01*
X159637Y80636D01*
X159598Y80716D01*
X159564Y80797D01*
X159532Y80880D01*
X159505Y80965D01*
X159480Y81050D01*
X159460Y81136D01*
X159443Y81223D01*
X159430Y81311D01*
X159421Y81399D01*
X159415Y81487D01*
X159413Y81576D01*
X159413Y82098D01*
X159412Y82098D02*
X159414Y82199D01*
X159420Y82300D01*
X159430Y82401D01*
X159443Y82501D01*
X159461Y82601D01*
X159482Y82700D01*
X159508Y82798D01*
X159537Y82895D01*
X159569Y82991D01*
X159606Y83085D01*
X159646Y83178D01*
X159690Y83270D01*
X159737Y83359D01*
X159788Y83447D01*
X159842Y83533D01*
X159899Y83616D01*
X159959Y83698D01*
X160023Y83776D01*
X160089Y83853D01*
X160159Y83926D01*
X160231Y83997D01*
X160306Y84065D01*
X160384Y84130D01*
X160464Y84192D01*
X160546Y84251D01*
X160631Y84307D01*
X160718Y84359D01*
X160806Y84408D01*
X160897Y84454D01*
X160989Y84495D01*
X161083Y84534D01*
X161178Y84568D01*
X161274Y84599D01*
X161372Y84626D01*
X161470Y84650D01*
X161570Y84669D01*
X161670Y84685D01*
X161770Y84697D01*
X161871Y84705D01*
X161972Y84709D01*
X162074Y84709D01*
X162175Y84705D01*
X162276Y84697D01*
X162376Y84685D01*
X162476Y84669D01*
X162576Y84650D01*
X162674Y84626D01*
X162772Y84599D01*
X162868Y84568D01*
X162963Y84534D01*
X163057Y84495D01*
X163149Y84454D01*
X163240Y84408D01*
X163329Y84359D01*
X163415Y84307D01*
X163500Y84251D01*
X163582Y84192D01*
X163662Y84130D01*
X163740Y84065D01*
X163815Y83997D01*
X163887Y83926D01*
X163957Y83853D01*
X164023Y83776D01*
X164087Y83698D01*
X164147Y83616D01*
X164204Y83533D01*
X164258Y83447D01*
X164309Y83359D01*
X164356Y83270D01*
X164400Y83178D01*
X164440Y83085D01*
X164477Y82991D01*
X164509Y82895D01*
X164538Y82798D01*
X164564Y82700D01*
X164585Y82601D01*
X164603Y82501D01*
X164616Y82401D01*
X164626Y82300D01*
X164632Y82199D01*
X164634Y82098D01*
X164634Y79488D01*
X164632Y79362D01*
X164626Y79236D01*
X164617Y79110D01*
X164604Y78985D01*
X164586Y78860D01*
X164566Y78735D01*
X164541Y78611D01*
X164513Y78488D01*
X164481Y78366D01*
X164445Y78245D01*
X164406Y78125D01*
X164363Y78007D01*
X164316Y77890D01*
X164266Y77774D01*
X164212Y77659D01*
X164156Y77547D01*
X164095Y77436D01*
X164032Y77327D01*
X163965Y77220D01*
X163895Y77115D01*
X163821Y77012D01*
X163745Y76912D01*
X163666Y76814D01*
X163584Y76718D01*
X163498Y76625D01*
X163411Y76534D01*
X163320Y76447D01*
X163227Y76361D01*
X163131Y76279D01*
X163033Y76200D01*
X162933Y76124D01*
X162830Y76050D01*
X162725Y75980D01*
X162618Y75913D01*
X162509Y75850D01*
X162398Y75789D01*
X162286Y75733D01*
X162171Y75679D01*
X162055Y75629D01*
X161938Y75582D01*
X161820Y75539D01*
X161700Y75500D01*
X161579Y75464D01*
X161457Y75432D01*
X161334Y75404D01*
X161210Y75379D01*
X161085Y75359D01*
X160960Y75341D01*
X160835Y75328D01*
X160709Y75319D01*
X160583Y75313D01*
X160457Y75311D01*
D11*
X134460Y84490D02*
X114460Y84490D01*
X150460Y100490D02*
X150460Y120490D01*
D13*
X134460Y136490D02*
X114460Y136490D01*
X98460Y120490D02*
X98460Y100490D01*
D11*
X142460Y128490D02*
X150460Y120490D01*
X106460Y128490D02*
X98460Y120490D01*
X98460Y100490D02*
X106460Y92490D01*
X141960Y91990D02*
X150460Y100490D01*
D10*
X111231Y152781D02*
X111320Y152783D01*
X111408Y152789D01*
X111496Y152798D01*
X111584Y152811D01*
X111671Y152828D01*
X111757Y152848D01*
X111842Y152873D01*
X111927Y152900D01*
X112010Y152932D01*
X112091Y152966D01*
X112171Y153005D01*
X112249Y153046D01*
X112326Y153091D01*
X112400Y153139D01*
X112473Y153190D01*
X112543Y153244D01*
X112610Y153302D01*
X112676Y153362D01*
X112738Y153424D01*
X112798Y153490D01*
X112856Y153557D01*
X112910Y153627D01*
X112961Y153700D01*
X113009Y153774D01*
X113054Y153851D01*
X113095Y153929D01*
X113134Y154009D01*
X113168Y154090D01*
X113200Y154173D01*
X113227Y154258D01*
X113252Y154343D01*
X113272Y154429D01*
X113289Y154516D01*
X113302Y154604D01*
X113311Y154692D01*
X113317Y154780D01*
X113319Y154869D01*
X111231Y152781D02*
X111102Y152783D01*
X110973Y152789D01*
X110844Y152798D01*
X110716Y152811D01*
X110588Y152828D01*
X110461Y152849D01*
X110334Y152873D01*
X110208Y152901D01*
X110083Y152933D01*
X109959Y152968D01*
X109836Y153007D01*
X109714Y153050D01*
X109594Y153096D01*
X109475Y153146D01*
X109357Y153199D01*
X109241Y153255D01*
X109127Y153315D01*
X109014Y153378D01*
X108904Y153445D01*
X108795Y153514D01*
X108689Y153587D01*
X108584Y153663D01*
X108482Y153742D01*
X108383Y153824D01*
X108285Y153908D01*
X108190Y153996D01*
X108098Y154086D01*
X108360Y160091D02*
X108362Y160180D01*
X108368Y160268D01*
X108377Y160356D01*
X108390Y160444D01*
X108407Y160531D01*
X108427Y160617D01*
X108452Y160702D01*
X108479Y160787D01*
X108511Y160870D01*
X108545Y160951D01*
X108584Y161031D01*
X108625Y161109D01*
X108670Y161186D01*
X108718Y161260D01*
X108769Y161333D01*
X108823Y161403D01*
X108881Y161470D01*
X108941Y161536D01*
X109003Y161598D01*
X109069Y161658D01*
X109136Y161716D01*
X109206Y161770D01*
X109279Y161821D01*
X109353Y161869D01*
X109430Y161914D01*
X109508Y161955D01*
X109588Y161994D01*
X109669Y162028D01*
X109752Y162060D01*
X109837Y162087D01*
X109922Y162112D01*
X110008Y162132D01*
X110095Y162149D01*
X110183Y162162D01*
X110271Y162171D01*
X110359Y162177D01*
X110448Y162179D01*
X110568Y162177D01*
X110688Y162172D01*
X110808Y162162D01*
X110927Y162150D01*
X111046Y162133D01*
X111164Y162113D01*
X111282Y162089D01*
X111398Y162062D01*
X111514Y162031D01*
X111629Y161997D01*
X111743Y161959D01*
X111856Y161917D01*
X111967Y161872D01*
X112077Y161824D01*
X112185Y161773D01*
X112292Y161718D01*
X112397Y161660D01*
X112500Y161598D01*
X112601Y161534D01*
X112701Y161466D01*
X112798Y161396D01*
X109404Y158264D02*
X109326Y158312D01*
X109250Y158364D01*
X109177Y158418D01*
X109106Y158476D01*
X109037Y158537D01*
X108971Y158601D01*
X108908Y158668D01*
X108848Y158737D01*
X108791Y158809D01*
X108737Y158883D01*
X108687Y158960D01*
X108639Y159039D01*
X108596Y159119D01*
X108555Y159202D01*
X108519Y159286D01*
X108486Y159371D01*
X108457Y159458D01*
X108431Y159547D01*
X108409Y159636D01*
X108392Y159726D01*
X108378Y159816D01*
X108368Y159908D01*
X108362Y159999D01*
X108360Y160091D01*
X112276Y156696D02*
X112354Y156648D01*
X112430Y156596D01*
X112503Y156542D01*
X112574Y156484D01*
X112643Y156423D01*
X112709Y156359D01*
X112772Y156292D01*
X112832Y156223D01*
X112889Y156151D01*
X112943Y156077D01*
X112993Y156000D01*
X113041Y155921D01*
X113084Y155841D01*
X113125Y155758D01*
X113161Y155674D01*
X113194Y155589D01*
X113223Y155502D01*
X113249Y155413D01*
X113271Y155324D01*
X113288Y155234D01*
X113302Y155144D01*
X113312Y155052D01*
X113318Y154961D01*
X113320Y154869D01*
X112276Y156697D02*
X109404Y158263D01*
X116591Y162179D02*
X118679Y152781D01*
X120768Y159046D01*
X122856Y152781D01*
X124944Y162179D01*
X128520Y160091D02*
X131131Y162179D01*
X131131Y152781D01*
X133741Y152781D02*
X128520Y152781D01*
D14*
X0Y20320D02*
X77Y18549D01*
X309Y16791D01*
X692Y15061D01*
X1225Y13370D01*
X1904Y11732D01*
X2722Y10160D01*
X3675Y8665D01*
X4754Y7259D01*
X5952Y5952D01*
X7259Y4754D01*
X8665Y3675D01*
X10160Y2722D01*
X11732Y1904D01*
X13370Y1225D01*
X15061Y692D01*
X16791Y309D01*
X18549Y77D01*
X20320Y0D01*
X510540Y0D01*
X512311Y77D01*
X514069Y309D01*
X515799Y692D01*
X517490Y1225D01*
X519128Y1904D01*
X520700Y2722D01*
X522195Y3675D01*
X523601Y4754D01*
X524908Y5952D01*
X526106Y7259D01*
X527185Y8665D01*
X528138Y10160D01*
X528956Y11732D01*
X529635Y13370D01*
X530168Y15061D01*
X530551Y16791D01*
X530783Y18549D01*
X530860Y20320D01*
X530860Y200660D01*
X530783Y202431D01*
X530551Y204189D01*
X530168Y205919D01*
X529635Y207610D01*
X528956Y209248D01*
X528138Y210820D01*
X527185Y212315D01*
X526106Y213721D01*
X524908Y215028D01*
X523601Y216226D01*
X522195Y217305D01*
X520700Y218258D01*
X519128Y219076D01*
X517490Y219755D01*
X515799Y220288D01*
X514069Y220671D01*
X512311Y220903D01*
X510540Y220980D01*
X20320Y220980D01*
X18549Y220903D01*
X16791Y220671D01*
X15061Y220288D01*
X13370Y219755D01*
X11732Y219076D01*
X10160Y218258D01*
X8665Y217305D01*
X7259Y216226D01*
X5952Y215028D01*
X4754Y213721D01*
X3675Y212315D01*
X2722Y210820D01*
X1904Y209248D01*
X1225Y207610D01*
X692Y205919D01*
X309Y204189D01*
X77Y202431D01*
X0Y200660D01*
X0Y20320D01*
X34290Y200161D02*
X34219Y199166D01*
X34077Y198178D01*
X33865Y197203D01*
X33584Y196245D01*
X33235Y195311D01*
X32820Y194403D01*
X32342Y193527D01*
X31803Y192688D01*
X31205Y191889D01*
X30551Y191135D01*
X29845Y190429D01*
X29091Y189775D01*
X28293Y189177D01*
X27453Y188638D01*
X26577Y188160D01*
X25670Y187745D01*
X24735Y187396D01*
X23777Y187115D01*
X22802Y186903D01*
X21814Y186761D01*
X20819Y186690D01*
X19821Y186690D01*
X18826Y186761D01*
X17838Y186903D01*
X16863Y187115D01*
X15905Y187396D01*
X14971Y187745D01*
X14063Y188160D01*
X13187Y188638D01*
X12348Y189177D01*
X11549Y189775D01*
X10795Y190429D01*
X10089Y191135D01*
X9435Y191889D01*
X8837Y192688D01*
X8298Y193527D01*
X7820Y194403D01*
X7405Y195311D01*
X7056Y196245D01*
X6775Y197203D01*
X6563Y198178D01*
X6421Y199166D01*
X6350Y200161D01*
X6350Y201159D01*
X6421Y202154D01*
X6563Y203142D01*
X6775Y204117D01*
X7056Y205075D01*
X7405Y206010D01*
X7820Y206917D01*
X8298Y207793D01*
X8837Y208633D01*
X9435Y209431D01*
X10089Y210185D01*
X10795Y210891D01*
X11549Y211545D01*
X12348Y212143D01*
X13187Y212682D01*
X14063Y213160D01*
X14971Y213575D01*
X15905Y213924D01*
X16863Y214205D01*
X17838Y214417D01*
X18826Y214559D01*
X19821Y214630D01*
X20819Y214630D01*
X21814Y214559D01*
X22802Y214417D01*
X23777Y214205D01*
X24735Y213924D01*
X25670Y213575D01*
X26577Y213160D01*
X27453Y212682D01*
X28293Y212143D01*
X29091Y211545D01*
X29845Y210891D01*
X30551Y210185D01*
X31205Y209431D01*
X31803Y208633D01*
X32342Y207793D01*
X32820Y206917D01*
X33235Y206010D01*
X33584Y205075D01*
X33865Y204117D01*
X34077Y203142D01*
X34219Y202154D01*
X34290Y201159D01*
X34290Y200161D01*
X34290Y19821D02*
X34219Y18826D01*
X34077Y17838D01*
X33865Y16863D01*
X33584Y15905D01*
X33235Y14971D01*
X32820Y14063D01*
X32342Y13187D01*
X31803Y12348D01*
X31205Y11549D01*
X30551Y10795D01*
X29845Y10089D01*
X29091Y9435D01*
X28293Y8837D01*
X27453Y8298D01*
X26577Y7820D01*
X25670Y7405D01*
X24735Y7056D01*
X23777Y6775D01*
X22802Y6563D01*
X21814Y6421D01*
X20819Y6350D01*
X19821Y6350D01*
X18826Y6421D01*
X17838Y6563D01*
X16863Y6775D01*
X15905Y7056D01*
X14971Y7405D01*
X14063Y7820D01*
X13187Y8298D01*
X12348Y8837D01*
X11549Y9435D01*
X10795Y10089D01*
X10089Y10795D01*
X9435Y11549D01*
X8837Y12348D01*
X8298Y13187D01*
X7820Y14063D01*
X7405Y14971D01*
X7056Y15905D01*
X6775Y16863D01*
X6563Y17838D01*
X6421Y18826D01*
X6350Y19821D01*
X6350Y20819D01*
X6421Y21814D01*
X6563Y22802D01*
X6775Y23777D01*
X7056Y24735D01*
X7405Y25670D01*
X7820Y26577D01*
X8298Y27453D01*
X8837Y28293D01*
X9435Y29091D01*
X10089Y29845D01*
X10795Y30551D01*
X11549Y31205D01*
X12348Y31803D01*
X13187Y32342D01*
X14063Y32820D01*
X14971Y33235D01*
X15905Y33584D01*
X16863Y33865D01*
X17838Y34077D01*
X18826Y34219D01*
X19821Y34290D01*
X20819Y34290D01*
X21814Y34219D01*
X22802Y34077D01*
X23777Y33865D01*
X24735Y33584D01*
X25670Y33235D01*
X26577Y32820D01*
X27453Y32342D01*
X28293Y31803D01*
X29091Y31205D01*
X29845Y30551D01*
X30551Y29845D01*
X31205Y29091D01*
X31803Y28293D01*
X32342Y27453D01*
X32820Y26577D01*
X33235Y25670D01*
X33584Y24735D01*
X33865Y23777D01*
X34077Y22802D01*
X34219Y21814D01*
X34290Y20819D01*
X34290Y19821D01*
X524510Y19821D02*
X524439Y18826D01*
X524297Y17838D01*
X524085Y16863D01*
X523804Y15905D01*
X523455Y14971D01*
X523040Y14063D01*
X522562Y13187D01*
X522023Y12348D01*
X521425Y11549D01*
X520771Y10795D01*
X520065Y10089D01*
X519311Y9435D01*
X518513Y8837D01*
X517673Y8298D01*
X516797Y7820D01*
X515890Y7405D01*
X514955Y7056D01*
X513997Y6775D01*
X513022Y6563D01*
X512034Y6421D01*
X511039Y6350D01*
X510041Y6350D01*
X509046Y6421D01*
X508058Y6563D01*
X507083Y6775D01*
X506125Y7056D01*
X505191Y7405D01*
X504283Y7820D01*
X503407Y8298D01*
X502568Y8837D01*
X501769Y9435D01*
X501015Y10089D01*
X500309Y10795D01*
X499655Y11549D01*
X499057Y12348D01*
X498518Y13187D01*
X498040Y14063D01*
X497625Y14971D01*
X497276Y15905D01*
X496995Y16863D01*
X496783Y17838D01*
X496641Y18826D01*
X496570Y19821D01*
X496570Y20819D01*
X496641Y21814D01*
X496783Y22802D01*
X496995Y23777D01*
X497276Y24735D01*
X497625Y25670D01*
X498040Y26577D01*
X498518Y27453D01*
X499057Y28293D01*
X499655Y29091D01*
X500309Y29845D01*
X501015Y30551D01*
X501769Y31205D01*
X502568Y31803D01*
X503407Y32342D01*
X504283Y32820D01*
X505191Y33235D01*
X506125Y33584D01*
X507083Y33865D01*
X508058Y34077D01*
X509046Y34219D01*
X510041Y34290D01*
X511039Y34290D01*
X512034Y34219D01*
X513022Y34077D01*
X513997Y33865D01*
X514955Y33584D01*
X515890Y33235D01*
X516797Y32820D01*
X517673Y32342D01*
X518513Y31803D01*
X519311Y31205D01*
X520065Y30551D01*
X520771Y29845D01*
X521425Y29091D01*
X522023Y28293D01*
X522562Y27453D01*
X523040Y26577D01*
X523455Y25670D01*
X523804Y24735D01*
X524085Y23777D01*
X524297Y22802D01*
X524439Y21814D01*
X524510Y20819D01*
X524510Y19821D01*
X524510Y200161D02*
X524439Y199166D01*
X524297Y198178D01*
X524085Y197203D01*
X523804Y196245D01*
X523455Y195311D01*
X523040Y194403D01*
X522562Y193527D01*
X522023Y192688D01*
X521425Y191889D01*
X520771Y191135D01*
X520065Y190429D01*
X519311Y189775D01*
X518513Y189177D01*
X517673Y188638D01*
X516797Y188160D01*
X515890Y187745D01*
X514955Y187396D01*
X513997Y187115D01*
X513022Y186903D01*
X512034Y186761D01*
X511039Y186690D01*
X510041Y186690D01*
X509046Y186761D01*
X508058Y186903D01*
X507083Y187115D01*
X506125Y187396D01*
X505191Y187745D01*
X504283Y188160D01*
X503407Y188638D01*
X502568Y189177D01*
X501769Y189775D01*
X501015Y190429D01*
X500309Y191135D01*
X499655Y191889D01*
X499057Y192688D01*
X498518Y193527D01*
X498040Y194403D01*
X497625Y195311D01*
X497276Y196245D01*
X496995Y197203D01*
X496783Y198178D01*
X496641Y199166D01*
X496570Y200161D01*
X496570Y201159D01*
X496641Y202154D01*
X496783Y203142D01*
X496995Y204117D01*
X497276Y205075D01*
X497625Y206010D01*
X498040Y206917D01*
X498518Y207793D01*
X499057Y208633D01*
X499655Y209431D01*
X500309Y210185D01*
X501015Y210891D01*
X501769Y211545D01*
X502568Y212143D01*
X503407Y212682D01*
X504283Y213160D01*
X505191Y213575D01*
X506125Y213924D01*
X507083Y214205D01*
X508058Y214417D01*
X509046Y214559D01*
X510041Y214630D01*
X511039Y214630D01*
X512034Y214559D01*
X513022Y214417D01*
X513997Y214205D01*
X514955Y213924D01*
X515890Y213575D01*
X516797Y213160D01*
X517673Y212682D01*
X518513Y212143D01*
X519311Y211545D01*
X520065Y210891D01*
X520771Y210185D01*
X521425Y209431D01*
X522023Y208633D01*
X522562Y207793D01*
X523040Y206917D01*
X523455Y206010D01*
X523804Y205075D01*
X524085Y204117D01*
X524297Y203142D01*
X524439Y202154D01*
X524510Y201159D01*
X524510Y200161D01*
M02*
