G04 EAGLE Gerber RS-274X export*
G75*
%MOMM*%
%FSLAX34Y34*%
%LPD*%
%INSoldermask Bottom*%
%IPPOS*%
%AMOC8*
5,1,8,0,0,1.08239X$1,22.5*%
G01*
%ADD10C,2.997200*%
%ADD11C,2.203200*%
%ADD12C,1.853200*%
%ADD13R,3.203200X1.203200*%
%ADD14C,0.254000*%


D10*
X20320Y200660D03*
X20320Y20320D03*
X510540Y20320D03*
X510540Y200660D03*
D11*
X31750Y110490D03*
X499750Y110490D03*
D12*
X215900Y24892D03*
X190500Y24892D03*
X165100Y24892D03*
X139700Y24892D03*
X114300Y24892D03*
X88900Y24892D03*
D13*
X313430Y198120D03*
X217430Y198120D03*
D14*
X0Y20320D02*
X77Y18549D01*
X309Y16791D01*
X692Y15061D01*
X1225Y13370D01*
X1904Y11732D01*
X2722Y10160D01*
X3675Y8665D01*
X4754Y7259D01*
X5952Y5952D01*
X7259Y4754D01*
X8665Y3675D01*
X10160Y2722D01*
X11732Y1904D01*
X13370Y1225D01*
X15061Y692D01*
X16791Y309D01*
X18549Y77D01*
X20320Y0D01*
X510540Y0D01*
X512311Y77D01*
X514069Y309D01*
X515799Y692D01*
X517490Y1225D01*
X519128Y1904D01*
X520700Y2722D01*
X522195Y3675D01*
X523601Y4754D01*
X524908Y5952D01*
X526106Y7259D01*
X527185Y8665D01*
X528138Y10160D01*
X528956Y11732D01*
X529635Y13370D01*
X530168Y15061D01*
X530551Y16791D01*
X530783Y18549D01*
X530860Y20320D01*
X530860Y200660D01*
X530783Y202431D01*
X530551Y204189D01*
X530168Y205919D01*
X529635Y207610D01*
X528956Y209248D01*
X528138Y210820D01*
X527185Y212315D01*
X526106Y213721D01*
X524908Y215028D01*
X523601Y216226D01*
X522195Y217305D01*
X520700Y218258D01*
X519128Y219076D01*
X517490Y219755D01*
X515799Y220288D01*
X514069Y220671D01*
X512311Y220903D01*
X510540Y220980D01*
X20320Y220980D01*
X18549Y220903D01*
X16791Y220671D01*
X15061Y220288D01*
X13370Y219755D01*
X11732Y219076D01*
X10160Y218258D01*
X8665Y217305D01*
X7259Y216226D01*
X5952Y215028D01*
X4754Y213721D01*
X3675Y212315D01*
X2722Y210820D01*
X1904Y209248D01*
X1225Y207610D01*
X692Y205919D01*
X309Y204189D01*
X77Y202431D01*
X0Y200660D01*
X0Y20320D01*
X34290Y200161D02*
X34219Y199166D01*
X34077Y198178D01*
X33865Y197203D01*
X33584Y196245D01*
X33235Y195311D01*
X32820Y194403D01*
X32342Y193527D01*
X31803Y192688D01*
X31205Y191889D01*
X30551Y191135D01*
X29845Y190429D01*
X29091Y189775D01*
X28293Y189177D01*
X27453Y188638D01*
X26577Y188160D01*
X25670Y187745D01*
X24735Y187396D01*
X23777Y187115D01*
X22802Y186903D01*
X21814Y186761D01*
X20819Y186690D01*
X19821Y186690D01*
X18826Y186761D01*
X17838Y186903D01*
X16863Y187115D01*
X15905Y187396D01*
X14971Y187745D01*
X14063Y188160D01*
X13187Y188638D01*
X12348Y189177D01*
X11549Y189775D01*
X10795Y190429D01*
X10089Y191135D01*
X9435Y191889D01*
X8837Y192688D01*
X8298Y193527D01*
X7820Y194403D01*
X7405Y195311D01*
X7056Y196245D01*
X6775Y197203D01*
X6563Y198178D01*
X6421Y199166D01*
X6350Y200161D01*
X6350Y201159D01*
X6421Y202154D01*
X6563Y203142D01*
X6775Y204117D01*
X7056Y205075D01*
X7405Y206010D01*
X7820Y206917D01*
X8298Y207793D01*
X8837Y208633D01*
X9435Y209431D01*
X10089Y210185D01*
X10795Y210891D01*
X11549Y211545D01*
X12348Y212143D01*
X13187Y212682D01*
X14063Y213160D01*
X14971Y213575D01*
X15905Y213924D01*
X16863Y214205D01*
X17838Y214417D01*
X18826Y214559D01*
X19821Y214630D01*
X20819Y214630D01*
X21814Y214559D01*
X22802Y214417D01*
X23777Y214205D01*
X24735Y213924D01*
X25670Y213575D01*
X26577Y213160D01*
X27453Y212682D01*
X28293Y212143D01*
X29091Y211545D01*
X29845Y210891D01*
X30551Y210185D01*
X31205Y209431D01*
X31803Y208633D01*
X32342Y207793D01*
X32820Y206917D01*
X33235Y206010D01*
X33584Y205075D01*
X33865Y204117D01*
X34077Y203142D01*
X34219Y202154D01*
X34290Y201159D01*
X34290Y200161D01*
X34290Y19821D02*
X34219Y18826D01*
X34077Y17838D01*
X33865Y16863D01*
X33584Y15905D01*
X33235Y14971D01*
X32820Y14063D01*
X32342Y13187D01*
X31803Y12348D01*
X31205Y11549D01*
X30551Y10795D01*
X29845Y10089D01*
X29091Y9435D01*
X28293Y8837D01*
X27453Y8298D01*
X26577Y7820D01*
X25670Y7405D01*
X24735Y7056D01*
X23777Y6775D01*
X22802Y6563D01*
X21814Y6421D01*
X20819Y6350D01*
X19821Y6350D01*
X18826Y6421D01*
X17838Y6563D01*
X16863Y6775D01*
X15905Y7056D01*
X14971Y7405D01*
X14063Y7820D01*
X13187Y8298D01*
X12348Y8837D01*
X11549Y9435D01*
X10795Y10089D01*
X10089Y10795D01*
X9435Y11549D01*
X8837Y12348D01*
X8298Y13187D01*
X7820Y14063D01*
X7405Y14971D01*
X7056Y15905D01*
X6775Y16863D01*
X6563Y17838D01*
X6421Y18826D01*
X6350Y19821D01*
X6350Y20819D01*
X6421Y21814D01*
X6563Y22802D01*
X6775Y23777D01*
X7056Y24735D01*
X7405Y25670D01*
X7820Y26577D01*
X8298Y27453D01*
X8837Y28293D01*
X9435Y29091D01*
X10089Y29845D01*
X10795Y30551D01*
X11549Y31205D01*
X12348Y31803D01*
X13187Y32342D01*
X14063Y32820D01*
X14971Y33235D01*
X15905Y33584D01*
X16863Y33865D01*
X17838Y34077D01*
X18826Y34219D01*
X19821Y34290D01*
X20819Y34290D01*
X21814Y34219D01*
X22802Y34077D01*
X23777Y33865D01*
X24735Y33584D01*
X25670Y33235D01*
X26577Y32820D01*
X27453Y32342D01*
X28293Y31803D01*
X29091Y31205D01*
X29845Y30551D01*
X30551Y29845D01*
X31205Y29091D01*
X31803Y28293D01*
X32342Y27453D01*
X32820Y26577D01*
X33235Y25670D01*
X33584Y24735D01*
X33865Y23777D01*
X34077Y22802D01*
X34219Y21814D01*
X34290Y20819D01*
X34290Y19821D01*
X524510Y19821D02*
X524439Y18826D01*
X524297Y17838D01*
X524085Y16863D01*
X523804Y15905D01*
X523455Y14971D01*
X523040Y14063D01*
X522562Y13187D01*
X522023Y12348D01*
X521425Y11549D01*
X520771Y10795D01*
X520065Y10089D01*
X519311Y9435D01*
X518513Y8837D01*
X517673Y8298D01*
X516797Y7820D01*
X515890Y7405D01*
X514955Y7056D01*
X513997Y6775D01*
X513022Y6563D01*
X512034Y6421D01*
X511039Y6350D01*
X510041Y6350D01*
X509046Y6421D01*
X508058Y6563D01*
X507083Y6775D01*
X506125Y7056D01*
X505191Y7405D01*
X504283Y7820D01*
X503407Y8298D01*
X502568Y8837D01*
X501769Y9435D01*
X501015Y10089D01*
X500309Y10795D01*
X499655Y11549D01*
X499057Y12348D01*
X498518Y13187D01*
X498040Y14063D01*
X497625Y14971D01*
X497276Y15905D01*
X496995Y16863D01*
X496783Y17838D01*
X496641Y18826D01*
X496570Y19821D01*
X496570Y20819D01*
X496641Y21814D01*
X496783Y22802D01*
X496995Y23777D01*
X497276Y24735D01*
X497625Y25670D01*
X498040Y26577D01*
X498518Y27453D01*
X499057Y28293D01*
X499655Y29091D01*
X500309Y29845D01*
X501015Y30551D01*
X501769Y31205D01*
X502568Y31803D01*
X503407Y32342D01*
X504283Y32820D01*
X505191Y33235D01*
X506125Y33584D01*
X507083Y33865D01*
X508058Y34077D01*
X509046Y34219D01*
X510041Y34290D01*
X511039Y34290D01*
X512034Y34219D01*
X513022Y34077D01*
X513997Y33865D01*
X514955Y33584D01*
X515890Y33235D01*
X516797Y32820D01*
X517673Y32342D01*
X518513Y31803D01*
X519311Y31205D01*
X520065Y30551D01*
X520771Y29845D01*
X521425Y29091D01*
X522023Y28293D01*
X522562Y27453D01*
X523040Y26577D01*
X523455Y25670D01*
X523804Y24735D01*
X524085Y23777D01*
X524297Y22802D01*
X524439Y21814D01*
X524510Y20819D01*
X524510Y19821D01*
X524510Y200161D02*
X524439Y199166D01*
X524297Y198178D01*
X524085Y197203D01*
X523804Y196245D01*
X523455Y195311D01*
X523040Y194403D01*
X522562Y193527D01*
X522023Y192688D01*
X521425Y191889D01*
X520771Y191135D01*
X520065Y190429D01*
X519311Y189775D01*
X518513Y189177D01*
X517673Y188638D01*
X516797Y188160D01*
X515890Y187745D01*
X514955Y187396D01*
X513997Y187115D01*
X513022Y186903D01*
X512034Y186761D01*
X511039Y186690D01*
X510041Y186690D01*
X509046Y186761D01*
X508058Y186903D01*
X507083Y187115D01*
X506125Y187396D01*
X505191Y187745D01*
X504283Y188160D01*
X503407Y188638D01*
X502568Y189177D01*
X501769Y189775D01*
X501015Y190429D01*
X500309Y191135D01*
X499655Y191889D01*
X499057Y192688D01*
X498518Y193527D01*
X498040Y194403D01*
X497625Y195311D01*
X497276Y196245D01*
X496995Y197203D01*
X496783Y198178D01*
X496641Y199166D01*
X496570Y200161D01*
X496570Y201159D01*
X496641Y202154D01*
X496783Y203142D01*
X496995Y204117D01*
X497276Y205075D01*
X497625Y206010D01*
X498040Y206917D01*
X498518Y207793D01*
X499057Y208633D01*
X499655Y209431D01*
X500309Y210185D01*
X501015Y210891D01*
X501769Y211545D01*
X502568Y212143D01*
X503407Y212682D01*
X504283Y213160D01*
X505191Y213575D01*
X506125Y213924D01*
X507083Y214205D01*
X508058Y214417D01*
X509046Y214559D01*
X510041Y214630D01*
X511039Y214630D01*
X512034Y214559D01*
X513022Y214417D01*
X513997Y214205D01*
X514955Y213924D01*
X515890Y213575D01*
X516797Y213160D01*
X517673Y212682D01*
X518513Y212143D01*
X519311Y211545D01*
X520065Y210891D01*
X520771Y210185D01*
X521425Y209431D01*
X522023Y208633D01*
X522562Y207793D01*
X523040Y206917D01*
X523455Y206010D01*
X523804Y205075D01*
X524085Y204117D01*
X524297Y203142D01*
X524439Y202154D01*
X524510Y201159D01*
X524510Y200161D01*
M02*
