G04 EAGLE Gerber RS-274X export*
G75*
%MOMM*%
%FSLAX34Y34*%
%LPD*%
%INBottom Copper*%
%IPPOS*%
%AMOC8*
5,1,8,0,0,1.08239X$1,22.5*%
G01*
%ADD10C,1.650000*%
%ADD11C,0.806400*%
%ADD12C,0.254000*%
%ADD13C,0.254000*%

G36*
X260468Y16D02*
X260468Y16D01*
X260587Y23D01*
X260625Y36D01*
X260666Y41D01*
X260776Y84D01*
X260889Y121D01*
X260924Y143D01*
X260961Y158D01*
X261057Y228D01*
X261158Y291D01*
X261186Y321D01*
X261219Y344D01*
X261295Y436D01*
X261376Y523D01*
X261396Y558D01*
X261421Y589D01*
X261472Y697D01*
X261530Y801D01*
X261540Y841D01*
X261557Y877D01*
X261579Y994D01*
X261609Y1109D01*
X261613Y1170D01*
X261617Y1190D01*
X261615Y1210D01*
X261619Y1270D01*
X261619Y36830D01*
X261617Y36852D01*
X261614Y36941D01*
X261421Y39146D01*
X261415Y39176D01*
X261415Y39206D01*
X261383Y39364D01*
X260810Y41502D01*
X260799Y41530D01*
X260793Y41560D01*
X260734Y41710D01*
X259799Y43716D01*
X259783Y43742D01*
X259772Y43771D01*
X259688Y43908D01*
X258418Y45721D01*
X258398Y45744D01*
X258383Y45770D01*
X258276Y45891D01*
X256711Y47456D01*
X256687Y47475D01*
X256667Y47498D01*
X256541Y47598D01*
X254728Y48868D01*
X254701Y48882D01*
X254678Y48902D01*
X254536Y48979D01*
X252530Y49914D01*
X252501Y49924D01*
X252475Y49939D01*
X252322Y49990D01*
X250184Y50563D01*
X250154Y50567D01*
X250125Y50577D01*
X249966Y50601D01*
X247761Y50794D01*
X247739Y50794D01*
X247650Y50799D01*
X148645Y50799D01*
X146606Y50978D01*
X144682Y51493D01*
X142877Y52335D01*
X141246Y53477D01*
X139837Y54886D01*
X138695Y56517D01*
X137853Y58322D01*
X137338Y60246D01*
X137159Y62285D01*
X137159Y87630D01*
X137157Y87652D01*
X137154Y87741D01*
X136961Y89946D01*
X136955Y89976D01*
X136955Y90006D01*
X136923Y90164D01*
X136350Y92302D01*
X136339Y92330D01*
X136333Y92360D01*
X136274Y92510D01*
X135339Y94516D01*
X135323Y94542D01*
X135312Y94571D01*
X135228Y94708D01*
X133958Y96521D01*
X133938Y96544D01*
X133923Y96570D01*
X133816Y96691D01*
X132251Y98256D01*
X132227Y98275D01*
X132207Y98298D01*
X132081Y98398D01*
X130268Y99668D01*
X130241Y99682D01*
X130218Y99702D01*
X130076Y99779D01*
X128070Y100714D01*
X128041Y100724D01*
X128015Y100739D01*
X127862Y100790D01*
X125724Y101363D01*
X125694Y101367D01*
X125665Y101377D01*
X125506Y101401D01*
X123317Y101593D01*
X122344Y101703D01*
X121540Y101984D01*
X120819Y102437D01*
X120217Y103039D01*
X119764Y103760D01*
X119483Y104564D01*
X119379Y105481D01*
X119379Y237419D01*
X119483Y238336D01*
X119764Y239140D01*
X119807Y239208D01*
X119807Y239209D01*
X120217Y239861D01*
X120819Y240463D01*
X121540Y240916D01*
X122344Y241197D01*
X123317Y241307D01*
X125506Y241499D01*
X125536Y241505D01*
X125566Y241505D01*
X125724Y241537D01*
X127862Y242110D01*
X127890Y242121D01*
X127920Y242127D01*
X128070Y242186D01*
X130076Y243121D01*
X130102Y243137D01*
X130131Y243148D01*
X130268Y243232D01*
X132081Y244502D01*
X132104Y244522D01*
X132130Y244537D01*
X132251Y244644D01*
X133816Y246209D01*
X133835Y246233D01*
X133858Y246253D01*
X133958Y246379D01*
X135228Y248192D01*
X135242Y248219D01*
X135262Y248242D01*
X135339Y248384D01*
X136274Y250390D01*
X136284Y250419D01*
X136299Y250445D01*
X136350Y250598D01*
X136923Y252736D01*
X136927Y252766D01*
X136937Y252795D01*
X136961Y252954D01*
X137154Y255159D01*
X137154Y255181D01*
X137159Y255270D01*
X137159Y326390D01*
X137157Y326412D01*
X137154Y326501D01*
X136961Y328706D01*
X136955Y328736D01*
X136955Y328766D01*
X136923Y328924D01*
X136350Y331062D01*
X136339Y331090D01*
X136333Y331120D01*
X136274Y331270D01*
X135339Y333276D01*
X135323Y333302D01*
X135312Y333331D01*
X135228Y333468D01*
X133958Y335281D01*
X133938Y335304D01*
X133923Y335330D01*
X133816Y335451D01*
X132251Y337016D01*
X132227Y337035D01*
X132207Y337058D01*
X132081Y337158D01*
X130268Y338428D01*
X130241Y338442D01*
X130218Y338462D01*
X130076Y338539D01*
X128070Y339474D01*
X128041Y339484D01*
X128015Y339499D01*
X127862Y339550D01*
X125724Y340123D01*
X125694Y340127D01*
X125665Y340137D01*
X125506Y340161D01*
X123301Y340354D01*
X123279Y340354D01*
X123190Y340359D01*
X87630Y340359D01*
X87609Y340357D01*
X87519Y340354D01*
X85314Y340161D01*
X85284Y340155D01*
X85254Y340155D01*
X85096Y340123D01*
X82958Y339550D01*
X82930Y339539D01*
X82900Y339533D01*
X82750Y339474D01*
X80744Y338539D01*
X80718Y338523D01*
X80689Y338512D01*
X80552Y338428D01*
X78739Y337158D01*
X78716Y337138D01*
X78690Y337123D01*
X78569Y337016D01*
X77004Y335451D01*
X76985Y335427D01*
X76962Y335407D01*
X76862Y335281D01*
X75592Y333468D01*
X75578Y333441D01*
X75558Y333418D01*
X75481Y333276D01*
X74546Y331270D01*
X74536Y331241D01*
X74521Y331215D01*
X74470Y331062D01*
X73897Y328924D01*
X73893Y328894D01*
X73883Y328865D01*
X73859Y328706D01*
X73666Y326501D01*
X73666Y326479D01*
X73661Y326390D01*
X73661Y255270D01*
X73663Y255249D01*
X73666Y255159D01*
X73859Y252954D01*
X73865Y252924D01*
X73865Y252894D01*
X73897Y252736D01*
X74470Y250598D01*
X74481Y250570D01*
X74487Y250540D01*
X74546Y250390D01*
X75481Y248384D01*
X75497Y248358D01*
X75508Y248329D01*
X75592Y248192D01*
X76862Y246379D01*
X76882Y246356D01*
X76897Y246330D01*
X77004Y246209D01*
X78569Y244644D01*
X78593Y244625D01*
X78613Y244602D01*
X78739Y244502D01*
X80552Y243232D01*
X80579Y243218D01*
X80602Y243198D01*
X80744Y243121D01*
X82750Y242186D01*
X82779Y242176D01*
X82805Y242161D01*
X82958Y242110D01*
X85096Y241537D01*
X85126Y241533D01*
X85155Y241523D01*
X85314Y241499D01*
X87503Y241307D01*
X88476Y241197D01*
X89280Y240916D01*
X90001Y240463D01*
X90603Y239861D01*
X91056Y239140D01*
X91337Y238336D01*
X91441Y237419D01*
X91441Y105481D01*
X91337Y104564D01*
X91056Y103760D01*
X90887Y103491D01*
X90887Y103490D01*
X90603Y103039D01*
X90001Y102437D01*
X89280Y101984D01*
X88476Y101703D01*
X87503Y101593D01*
X85314Y101401D01*
X85284Y101395D01*
X85254Y101395D01*
X85096Y101363D01*
X82958Y100790D01*
X82930Y100779D01*
X82900Y100773D01*
X82750Y100714D01*
X80744Y99779D01*
X80718Y99763D01*
X80689Y99752D01*
X80552Y99668D01*
X78739Y98398D01*
X78716Y98378D01*
X78690Y98363D01*
X78569Y98256D01*
X77004Y96691D01*
X76985Y96667D01*
X76962Y96647D01*
X76862Y96521D01*
X75592Y94708D01*
X75578Y94681D01*
X75558Y94658D01*
X75481Y94516D01*
X74546Y92510D01*
X74536Y92481D01*
X74521Y92455D01*
X74470Y92302D01*
X73897Y90164D01*
X73893Y90134D01*
X73883Y90105D01*
X73859Y89946D01*
X73666Y87741D01*
X73666Y87719D01*
X73661Y87630D01*
X73661Y62285D01*
X73482Y60246D01*
X72967Y58322D01*
X72125Y56517D01*
X70983Y54886D01*
X69574Y53477D01*
X67943Y52335D01*
X66138Y51493D01*
X64214Y50978D01*
X62175Y50799D01*
X13970Y50799D01*
X13949Y50797D01*
X13859Y50794D01*
X11654Y50601D01*
X11624Y50595D01*
X11594Y50595D01*
X11436Y50563D01*
X9298Y49990D01*
X9270Y49979D01*
X9240Y49973D01*
X9090Y49914D01*
X7084Y48979D01*
X7058Y48963D01*
X7029Y48952D01*
X6892Y48868D01*
X5079Y47598D01*
X5056Y47578D01*
X5030Y47563D01*
X4909Y47456D01*
X3344Y45891D01*
X3325Y45867D01*
X3302Y45847D01*
X3202Y45721D01*
X1932Y43908D01*
X1918Y43881D01*
X1898Y43858D01*
X1821Y43716D01*
X886Y41710D01*
X876Y41681D01*
X861Y41655D01*
X810Y41502D01*
X237Y39364D01*
X233Y39334D01*
X223Y39305D01*
X199Y39146D01*
X6Y36941D01*
X6Y36919D01*
X5Y36899D01*
X3Y36890D01*
X4Y36880D01*
X1Y36830D01*
X1Y1270D01*
X16Y1152D01*
X23Y1033D01*
X36Y995D01*
X41Y954D01*
X84Y844D01*
X121Y731D01*
X143Y696D01*
X158Y659D01*
X228Y563D01*
X291Y462D01*
X321Y434D01*
X344Y401D01*
X436Y326D01*
X523Y244D01*
X558Y224D01*
X589Y199D01*
X697Y148D01*
X801Y90D01*
X841Y80D01*
X877Y63D01*
X994Y41D01*
X1109Y11D01*
X1170Y7D01*
X1190Y3D01*
X1210Y5D01*
X1270Y1D01*
X260350Y1D01*
X260468Y16D01*
G37*
%LPC*%
G36*
X87694Y244125D02*
X87694Y244125D01*
X85465Y245049D01*
X83759Y246755D01*
X82835Y248984D01*
X82835Y251396D01*
X83759Y253625D01*
X85465Y255331D01*
X87694Y256255D01*
X90106Y256255D01*
X92335Y255331D01*
X92495Y255171D01*
X92590Y255098D01*
X92679Y255020D01*
X92715Y255001D01*
X92747Y254976D01*
X92856Y254929D01*
X92962Y254875D01*
X93002Y254866D01*
X93039Y254850D01*
X93156Y254831D01*
X93272Y254805D01*
X93313Y254807D01*
X93353Y254800D01*
X93471Y254811D01*
X93590Y254815D01*
X93629Y254826D01*
X93669Y254830D01*
X93781Y254870D01*
X93896Y254903D01*
X93931Y254924D01*
X93969Y254938D01*
X94067Y255004D01*
X94170Y255065D01*
X94215Y255105D01*
X94232Y255116D01*
X94245Y255131D01*
X94291Y255171D01*
X106793Y267673D01*
X106811Y267697D01*
X106833Y267716D01*
X106908Y267822D01*
X106987Y267925D01*
X106999Y267952D01*
X107016Y267976D01*
X107062Y268097D01*
X107114Y268216D01*
X107118Y268246D01*
X107129Y268273D01*
X107143Y268402D01*
X107164Y268530D01*
X107161Y268560D01*
X107164Y268589D01*
X107146Y268718D01*
X107134Y268847D01*
X107124Y268875D01*
X107120Y268904D01*
X107068Y269057D01*
X106965Y269304D01*
X106965Y271716D01*
X107889Y273945D01*
X109595Y275651D01*
X111824Y276575D01*
X114236Y276575D01*
X115592Y276013D01*
X115640Y276000D01*
X115685Y275979D01*
X115793Y275958D01*
X115899Y275929D01*
X115949Y275928D01*
X115998Y275919D01*
X116107Y275926D01*
X116217Y275924D01*
X116265Y275936D01*
X116315Y275939D01*
X116419Y275973D01*
X116526Y275998D01*
X116570Y276021D01*
X116617Y276037D01*
X116710Y276096D01*
X116807Y276147D01*
X116844Y276180D01*
X116886Y276207D01*
X116961Y276287D01*
X117043Y276361D01*
X117070Y276402D01*
X117104Y276439D01*
X117157Y276535D01*
X117217Y276627D01*
X117234Y276674D01*
X117258Y276717D01*
X117285Y276823D01*
X117321Y276927D01*
X117325Y276977D01*
X117337Y277025D01*
X117347Y277186D01*
X117347Y320686D01*
X117335Y320784D01*
X117332Y320883D01*
X117315Y320942D01*
X117307Y321002D01*
X117271Y321094D01*
X117243Y321189D01*
X117213Y321241D01*
X117190Y321297D01*
X117132Y321377D01*
X117082Y321463D01*
X117016Y321538D01*
X117004Y321555D01*
X116994Y321563D01*
X116976Y321584D01*
X112071Y326489D01*
X111976Y326562D01*
X111887Y326640D01*
X111851Y326659D01*
X111819Y326684D01*
X111710Y326731D01*
X111604Y326785D01*
X111565Y326794D01*
X111527Y326810D01*
X111410Y326829D01*
X111294Y326855D01*
X111253Y326853D01*
X111213Y326860D01*
X111095Y326849D01*
X110976Y326845D01*
X110937Y326834D01*
X110897Y326830D01*
X110785Y326790D01*
X110670Y326757D01*
X110636Y326736D01*
X110597Y326722D01*
X110499Y326656D01*
X110396Y326595D01*
X110351Y326555D01*
X110334Y326544D01*
X110321Y326529D01*
X110276Y326489D01*
X108845Y325059D01*
X106616Y324135D01*
X104204Y324135D01*
X101975Y325059D01*
X100269Y326765D01*
X99345Y328994D01*
X99345Y331406D01*
X100269Y333635D01*
X101975Y335341D01*
X104204Y336265D01*
X106616Y336265D01*
X108845Y335341D01*
X110312Y333874D01*
X110391Y333814D01*
X110463Y333746D01*
X110516Y333717D01*
X110564Y333680D01*
X110655Y333640D01*
X110741Y333592D01*
X110800Y333577D01*
X110855Y333553D01*
X110953Y333538D01*
X111049Y333513D01*
X111149Y333507D01*
X111170Y333503D01*
X111182Y333505D01*
X111210Y333503D01*
X114398Y333503D01*
X123953Y323948D01*
X123953Y264062D01*
X118196Y258306D01*
X118136Y258227D01*
X118068Y258155D01*
X118039Y258102D01*
X118002Y258054D01*
X117962Y257963D01*
X117914Y257877D01*
X117899Y257818D01*
X117875Y257763D01*
X117860Y257665D01*
X117835Y257569D01*
X117829Y257469D01*
X117825Y257448D01*
X117827Y257436D01*
X117825Y257408D01*
X117825Y255334D01*
X116901Y253105D01*
X115195Y251399D01*
X112966Y250475D01*
X110554Y250475D01*
X108325Y251399D01*
X106619Y253105D01*
X105865Y254923D01*
X105841Y254966D01*
X105824Y255013D01*
X105762Y255104D01*
X105708Y255199D01*
X105673Y255235D01*
X105645Y255276D01*
X105563Y255349D01*
X105487Y255427D01*
X105444Y255453D01*
X105407Y255486D01*
X105309Y255536D01*
X105216Y255594D01*
X105168Y255608D01*
X105124Y255631D01*
X105017Y255655D01*
X104912Y255687D01*
X104862Y255690D01*
X104813Y255701D01*
X104704Y255697D01*
X104594Y255702D01*
X104545Y255692D01*
X104496Y255691D01*
X104390Y255660D01*
X104282Y255638D01*
X104238Y255616D01*
X104190Y255603D01*
X104096Y255547D01*
X103997Y255498D01*
X103959Y255466D01*
X103916Y255441D01*
X103795Y255335D01*
X95348Y246887D01*
X94700Y246887D01*
X94602Y246875D01*
X94503Y246872D01*
X94444Y246855D01*
X94384Y246847D01*
X94292Y246811D01*
X94197Y246783D01*
X94145Y246753D01*
X94089Y246730D01*
X94009Y246672D01*
X93923Y246622D01*
X93848Y246556D01*
X93831Y246544D01*
X93824Y246534D01*
X93802Y246516D01*
X92335Y245049D01*
X90106Y244125D01*
X87694Y244125D01*
G37*
%LPD*%
%LPC*%
G36*
X192164Y3179D02*
X192164Y3179D01*
X188198Y4822D01*
X185162Y7858D01*
X183519Y11824D01*
X183519Y16116D01*
X185162Y20082D01*
X188198Y23118D01*
X190224Y23957D01*
X190249Y23972D01*
X190277Y23981D01*
X190387Y24050D01*
X190500Y24115D01*
X190521Y24135D01*
X190546Y24151D01*
X190635Y24246D01*
X190728Y24336D01*
X190744Y24361D01*
X190764Y24383D01*
X190827Y24497D01*
X190895Y24607D01*
X190903Y24635D01*
X190918Y24661D01*
X190950Y24787D01*
X190988Y24911D01*
X190990Y24941D01*
X190997Y24969D01*
X191007Y25130D01*
X191007Y28490D01*
X190995Y28588D01*
X190992Y28687D01*
X190975Y28746D01*
X190967Y28806D01*
X190931Y28898D01*
X190903Y28993D01*
X190873Y29045D01*
X190850Y29101D01*
X190792Y29181D01*
X190742Y29267D01*
X190676Y29342D01*
X190664Y29359D01*
X190654Y29366D01*
X190636Y29388D01*
X189169Y30855D01*
X188245Y33084D01*
X188245Y35496D01*
X189169Y37725D01*
X190875Y39431D01*
X193104Y40355D01*
X195516Y40355D01*
X197745Y39431D01*
X199451Y37725D01*
X200375Y35496D01*
X200375Y33084D01*
X199451Y30855D01*
X197984Y29388D01*
X197924Y29309D01*
X197856Y29237D01*
X197827Y29184D01*
X197790Y29136D01*
X197750Y29045D01*
X197702Y28959D01*
X197687Y28900D01*
X197663Y28845D01*
X197648Y28747D01*
X197623Y28651D01*
X197617Y28551D01*
X197613Y28530D01*
X197615Y28518D01*
X197613Y28490D01*
X197613Y25130D01*
X197616Y25100D01*
X197614Y25071D01*
X197636Y24943D01*
X197653Y24814D01*
X197663Y24787D01*
X197668Y24758D01*
X197722Y24639D01*
X197770Y24519D01*
X197787Y24495D01*
X197799Y24468D01*
X197880Y24366D01*
X197956Y24261D01*
X197979Y24242D01*
X197998Y24219D01*
X198101Y24141D01*
X198201Y24058D01*
X198228Y24046D01*
X198252Y24028D01*
X198396Y23957D01*
X200422Y23118D01*
X203458Y20082D01*
X205101Y16116D01*
X205101Y11824D01*
X203458Y7858D01*
X200422Y4822D01*
X196456Y3179D01*
X192164Y3179D01*
G37*
%LPD*%
%LPC*%
G36*
X166764Y3179D02*
X166764Y3179D01*
X162798Y4822D01*
X159762Y7858D01*
X158119Y11824D01*
X158119Y16116D01*
X159762Y20082D01*
X162798Y23118D01*
X164824Y23957D01*
X164849Y23972D01*
X164877Y23981D01*
X164987Y24050D01*
X165100Y24115D01*
X165121Y24135D01*
X165146Y24151D01*
X165235Y24246D01*
X165328Y24336D01*
X165344Y24361D01*
X165364Y24383D01*
X165427Y24497D01*
X165495Y24607D01*
X165503Y24635D01*
X165518Y24661D01*
X165550Y24787D01*
X165588Y24911D01*
X165590Y24941D01*
X165597Y24969D01*
X165607Y25130D01*
X165607Y28490D01*
X165595Y28588D01*
X165592Y28687D01*
X165575Y28746D01*
X165567Y28806D01*
X165531Y28898D01*
X165503Y28993D01*
X165473Y29045D01*
X165450Y29101D01*
X165392Y29181D01*
X165342Y29267D01*
X165276Y29342D01*
X165264Y29359D01*
X165254Y29366D01*
X165236Y29388D01*
X163769Y30855D01*
X162845Y33084D01*
X162845Y35496D01*
X163769Y37725D01*
X165475Y39431D01*
X167704Y40355D01*
X170116Y40355D01*
X172345Y39431D01*
X174051Y37725D01*
X174975Y35496D01*
X174975Y33084D01*
X174051Y30855D01*
X172584Y29388D01*
X172524Y29309D01*
X172456Y29237D01*
X172427Y29184D01*
X172390Y29136D01*
X172350Y29045D01*
X172302Y28959D01*
X172287Y28900D01*
X172263Y28845D01*
X172248Y28747D01*
X172223Y28651D01*
X172217Y28551D01*
X172213Y28530D01*
X172215Y28518D01*
X172213Y28490D01*
X172213Y25130D01*
X172216Y25100D01*
X172214Y25071D01*
X172236Y24943D01*
X172253Y24814D01*
X172263Y24787D01*
X172268Y24758D01*
X172322Y24639D01*
X172370Y24519D01*
X172387Y24495D01*
X172399Y24468D01*
X172480Y24366D01*
X172556Y24261D01*
X172579Y24242D01*
X172598Y24219D01*
X172701Y24141D01*
X172801Y24058D01*
X172828Y24046D01*
X172852Y24028D01*
X172996Y23957D01*
X175022Y23118D01*
X178058Y20082D01*
X179701Y16116D01*
X179701Y11824D01*
X178058Y7858D01*
X175022Y4822D01*
X171056Y3179D01*
X166764Y3179D01*
G37*
%LPD*%
%LPC*%
G36*
X242964Y3179D02*
X242964Y3179D01*
X238998Y4822D01*
X235962Y7858D01*
X234319Y11824D01*
X234319Y16116D01*
X235962Y20082D01*
X238998Y23118D01*
X242964Y24761D01*
X247256Y24761D01*
X251222Y23118D01*
X254258Y20082D01*
X255901Y16116D01*
X255901Y11824D01*
X254258Y7858D01*
X251222Y4822D01*
X247256Y3179D01*
X242964Y3179D01*
G37*
%LPD*%
%LPC*%
G36*
X217564Y3179D02*
X217564Y3179D01*
X213598Y4822D01*
X210562Y7858D01*
X208919Y11824D01*
X208919Y16116D01*
X210562Y20082D01*
X213598Y23118D01*
X217564Y24761D01*
X221856Y24761D01*
X225822Y23118D01*
X228858Y20082D01*
X230501Y16116D01*
X230501Y11824D01*
X228858Y7858D01*
X225822Y4822D01*
X221856Y3179D01*
X217564Y3179D01*
G37*
%LPD*%
%LPC*%
G36*
X141364Y3179D02*
X141364Y3179D01*
X137398Y4822D01*
X134362Y7858D01*
X132719Y11824D01*
X132719Y16116D01*
X134362Y20082D01*
X137398Y23118D01*
X141364Y24761D01*
X145656Y24761D01*
X149622Y23118D01*
X152658Y20082D01*
X154301Y16116D01*
X154301Y11824D01*
X152658Y7858D01*
X149622Y4822D01*
X145656Y3179D01*
X141364Y3179D01*
G37*
%LPD*%
%LPC*%
G36*
X115964Y3179D02*
X115964Y3179D01*
X111998Y4822D01*
X108962Y7858D01*
X107319Y11824D01*
X107319Y16116D01*
X108962Y20082D01*
X111998Y23118D01*
X115964Y24761D01*
X120256Y24761D01*
X124222Y23118D01*
X127258Y20082D01*
X128901Y16116D01*
X128901Y11824D01*
X127258Y7858D01*
X124222Y4822D01*
X120256Y3179D01*
X115964Y3179D01*
G37*
%LPD*%
%LPC*%
G36*
X90564Y3179D02*
X90564Y3179D01*
X86598Y4822D01*
X83562Y7858D01*
X81919Y11824D01*
X81919Y16116D01*
X83562Y20082D01*
X86598Y23118D01*
X90564Y24761D01*
X94856Y24761D01*
X98822Y23118D01*
X101858Y20082D01*
X103501Y16116D01*
X103501Y11824D01*
X101858Y7858D01*
X98822Y4822D01*
X94856Y3179D01*
X90564Y3179D01*
G37*
%LPD*%
%LPC*%
G36*
X65164Y3179D02*
X65164Y3179D01*
X61198Y4822D01*
X58162Y7858D01*
X56519Y11824D01*
X56519Y16116D01*
X58162Y20082D01*
X61198Y23118D01*
X65164Y24761D01*
X69456Y24761D01*
X73422Y23118D01*
X76458Y20082D01*
X78101Y16116D01*
X78101Y11824D01*
X76458Y7858D01*
X73422Y4822D01*
X69456Y3179D01*
X65164Y3179D01*
G37*
%LPD*%
%LPC*%
G36*
X14364Y3179D02*
X14364Y3179D01*
X10398Y4822D01*
X7362Y7858D01*
X5719Y11824D01*
X5719Y16116D01*
X7362Y20082D01*
X10398Y23118D01*
X14364Y24761D01*
X18656Y24761D01*
X22622Y23118D01*
X25658Y20082D01*
X27301Y16116D01*
X27301Y11824D01*
X25658Y7858D01*
X22622Y4822D01*
X18656Y3179D01*
X14364Y3179D01*
G37*
%LPD*%
%LPC*%
G36*
X44449Y16509D02*
X44449Y16509D01*
X44449Y24491D01*
X46052Y23970D01*
X47566Y23199D01*
X48940Y22201D01*
X50141Y21000D01*
X51139Y19626D01*
X51910Y18112D01*
X52431Y16509D01*
X44449Y16509D01*
G37*
%LPD*%
%LPC*%
G36*
X31389Y16509D02*
X31389Y16509D01*
X31910Y18112D01*
X32681Y19626D01*
X33679Y21000D01*
X34880Y22201D01*
X36254Y23199D01*
X37768Y23970D01*
X39371Y24491D01*
X39371Y16509D01*
X31389Y16509D01*
G37*
%LPD*%
%LPC*%
G36*
X44449Y11431D02*
X44449Y11431D01*
X52431Y11431D01*
X51910Y9828D01*
X51139Y8314D01*
X50141Y6940D01*
X48940Y5739D01*
X47566Y4741D01*
X46052Y3970D01*
X44449Y3449D01*
X44449Y11431D01*
G37*
%LPD*%
%LPC*%
G36*
X37768Y3970D02*
X37768Y3970D01*
X36254Y4741D01*
X34880Y5739D01*
X33679Y6940D01*
X32681Y8314D01*
X31910Y9828D01*
X31389Y11431D01*
X39371Y11431D01*
X39371Y3449D01*
X37768Y3970D01*
G37*
%LPD*%
%LPC*%
G36*
X41909Y13969D02*
X41909Y13969D01*
X41909Y13971D01*
X41911Y13971D01*
X41911Y13969D01*
X41909Y13969D01*
G37*
%LPD*%
D10*
X16510Y13970D03*
X41910Y13970D03*
X67310Y13970D03*
X92710Y13970D03*
X118110Y13970D03*
X143510Y13970D03*
X168910Y13970D03*
X194310Y13970D03*
X219710Y13970D03*
X245110Y13970D03*
D11*
X128270Y270510D03*
X81280Y257810D03*
X97790Y270510D03*
X105410Y308610D03*
X113030Y270510D03*
X88900Y250190D03*
D12*
X113030Y269240D02*
X113030Y270510D01*
X93980Y250190D02*
X88900Y250190D01*
X93980Y250190D02*
X113030Y269240D01*
D11*
X111760Y256540D03*
X105410Y330200D03*
D12*
X113030Y330200D02*
X120650Y322580D01*
X113030Y330200D02*
X105410Y330200D01*
X120650Y265430D02*
X111760Y256540D01*
X120650Y265430D02*
X120650Y322580D01*
D11*
X194310Y34290D03*
D12*
X194310Y13970D01*
D11*
X168910Y34290D03*
D12*
X168910Y13970D01*
D13*
X0Y0D02*
X261620Y0D01*
X261620Y38100D01*
X261572Y39207D01*
X261427Y40305D01*
X261187Y41387D01*
X260854Y42444D01*
X260430Y43467D01*
X259919Y44450D01*
X259323Y45384D01*
X258649Y46263D01*
X257900Y47080D01*
X257083Y47829D01*
X256204Y48503D01*
X255270Y49099D01*
X254287Y49610D01*
X253264Y50034D01*
X252207Y50367D01*
X251125Y50607D01*
X250027Y50752D01*
X248920Y50800D01*
X149860Y50800D01*
X148753Y50848D01*
X147655Y50993D01*
X146573Y51233D01*
X145516Y51566D01*
X144493Y51990D01*
X143510Y52501D01*
X142576Y53097D01*
X141697Y53771D01*
X140880Y54520D01*
X140131Y55337D01*
X139457Y56216D01*
X138861Y57150D01*
X138350Y58133D01*
X137926Y59156D01*
X137593Y60213D01*
X137353Y61295D01*
X137208Y62393D01*
X137160Y63500D01*
X137160Y88900D01*
X137112Y90007D01*
X136967Y91105D01*
X136727Y92187D01*
X136394Y93244D01*
X135970Y94267D01*
X135459Y95250D01*
X134863Y96184D01*
X134189Y97063D01*
X133440Y97880D01*
X132623Y98629D01*
X131744Y99303D01*
X130810Y99899D01*
X129827Y100410D01*
X128804Y100834D01*
X127747Y101167D01*
X126665Y101407D01*
X125567Y101552D01*
X124460Y101600D01*
X124017Y101619D01*
X123578Y101677D01*
X123145Y101773D01*
X122723Y101906D01*
X122313Y102076D01*
X121920Y102281D01*
X121546Y102519D01*
X121195Y102789D01*
X120868Y103088D01*
X120569Y103415D01*
X120299Y103766D01*
X120061Y104140D01*
X119856Y104533D01*
X119686Y104943D01*
X119553Y105365D01*
X119457Y105798D01*
X119399Y106237D01*
X119380Y106680D01*
X119380Y236220D01*
X119399Y236663D01*
X119457Y237102D01*
X119553Y237535D01*
X119686Y237957D01*
X119856Y238367D01*
X120061Y238760D01*
X120299Y239134D01*
X120569Y239485D01*
X120868Y239812D01*
X121195Y240112D01*
X121546Y240381D01*
X121920Y240619D01*
X122313Y240824D01*
X122723Y240994D01*
X123145Y241127D01*
X123578Y241223D01*
X124017Y241281D01*
X124460Y241300D01*
X125567Y241348D01*
X126665Y241493D01*
X127747Y241733D01*
X128804Y242066D01*
X129827Y242490D01*
X130810Y243001D01*
X131744Y243597D01*
X132623Y244271D01*
X133440Y245020D01*
X134189Y245837D01*
X134863Y246716D01*
X135459Y247650D01*
X135970Y248633D01*
X136394Y249656D01*
X136727Y250713D01*
X136967Y251795D01*
X137112Y252893D01*
X137160Y254000D01*
X137160Y327660D01*
X137112Y328767D01*
X136967Y329865D01*
X136727Y330947D01*
X136394Y332004D01*
X135970Y333027D01*
X135459Y334010D01*
X134863Y334944D01*
X134189Y335823D01*
X133440Y336640D01*
X132623Y337389D01*
X131744Y338063D01*
X130810Y338659D01*
X129827Y339170D01*
X128804Y339594D01*
X127747Y339927D01*
X126665Y340167D01*
X125567Y340312D01*
X124460Y340360D01*
X86360Y340360D01*
X85253Y340312D01*
X84155Y340167D01*
X83073Y339927D01*
X82016Y339594D01*
X80993Y339170D01*
X80010Y338659D01*
X79076Y338063D01*
X78197Y337389D01*
X77380Y336640D01*
X76631Y335823D01*
X75957Y334944D01*
X75361Y334010D01*
X74850Y333027D01*
X74426Y332004D01*
X74093Y330947D01*
X73853Y329865D01*
X73708Y328767D01*
X73660Y327660D01*
X73660Y254000D01*
X73708Y252893D01*
X73853Y251795D01*
X74093Y250713D01*
X74426Y249656D01*
X74850Y248633D01*
X75361Y247650D01*
X75957Y246716D01*
X76631Y245837D01*
X77380Y245020D01*
X78197Y244271D01*
X79076Y243597D01*
X80010Y243001D01*
X80993Y242490D01*
X82016Y242066D01*
X83073Y241733D01*
X84155Y241493D01*
X85253Y241348D01*
X86360Y241300D01*
X86803Y241281D01*
X87242Y241223D01*
X87675Y241127D01*
X88097Y240994D01*
X88507Y240824D01*
X88900Y240619D01*
X89274Y240381D01*
X89625Y240112D01*
X89952Y239812D01*
X90252Y239485D01*
X90521Y239134D01*
X90759Y238760D01*
X90964Y238367D01*
X91134Y237957D01*
X91267Y237535D01*
X91363Y237102D01*
X91421Y236663D01*
X91440Y236220D01*
X91440Y106680D01*
X91421Y106237D01*
X91363Y105798D01*
X91267Y105365D01*
X91134Y104943D01*
X90964Y104533D01*
X90759Y104140D01*
X90521Y103766D01*
X90252Y103415D01*
X89952Y103088D01*
X89625Y102789D01*
X89274Y102519D01*
X88900Y102281D01*
X88507Y102076D01*
X88097Y101906D01*
X87675Y101773D01*
X87242Y101677D01*
X86803Y101619D01*
X86360Y101600D01*
X85253Y101552D01*
X84155Y101407D01*
X83073Y101167D01*
X82016Y100834D01*
X80993Y100410D01*
X80010Y99899D01*
X79076Y99303D01*
X78197Y98629D01*
X77380Y97880D01*
X76631Y97063D01*
X75957Y96184D01*
X75361Y95250D01*
X74850Y94267D01*
X74426Y93244D01*
X74093Y92187D01*
X73853Y91105D01*
X73708Y90007D01*
X73660Y88900D01*
X73660Y63500D01*
X73612Y62393D01*
X73467Y61295D01*
X73227Y60213D01*
X72894Y59156D01*
X72470Y58133D01*
X71959Y57150D01*
X71363Y56216D01*
X70689Y55337D01*
X69940Y54520D01*
X69123Y53771D01*
X68244Y53097D01*
X67310Y52501D01*
X66327Y51990D01*
X65304Y51566D01*
X64247Y51233D01*
X63165Y50993D01*
X62067Y50848D01*
X60960Y50800D01*
X12700Y50800D01*
X11593Y50752D01*
X10495Y50607D01*
X9413Y50367D01*
X8356Y50034D01*
X7333Y49610D01*
X6350Y49099D01*
X5416Y48503D01*
X4537Y47829D01*
X3720Y47080D01*
X2971Y46263D01*
X2297Y45384D01*
X1701Y44450D01*
X1190Y43467D01*
X766Y42444D01*
X433Y41387D01*
X193Y40305D01*
X48Y39207D01*
X0Y38100D01*
X0Y0D01*
M02*
