M48
;GenerationSoftware,Autodesk,EAGLE,9.3.0*%
;CreationDate,2019-04-07T17:54:34Z*%
FMAT,2
ICI,OFF
METRIC,TZ,000.000
T4C0.381
T3C0.559
T2C1.100
T1C2.794
%
G90
M71
T1
X2032Y20066
X2032Y2032
X51054Y2032
X51054Y20066
T2
X8890Y2489
X49975Y11049
X3175Y11049
X21590Y2489
X19050Y2489
X16510Y2489
X13970Y2489
X11430Y2489
T3
X6858Y9652
X26035Y5207
X15748Y16637
X5334Y9652
T4
X7874Y10668
X40132Y11049
X38100Y16891
X19939Y16002
X36068Y16891
X19939Y17145
X35941Y5207
X19939Y10668
X33909Y5207
X32004Y5207
X29972Y5207
X19939Y6477
X10414Y4953
X12446Y4953
X27940Y5207
X19939Y5334
X5588Y16129
X9144Y11938
X15748Y11938
X15748Y9525
X9144Y17145
X19939Y8001
X40132Y16891
X19939Y14859
X19939Y11811
X22098Y11049
X15748Y14478
X19939Y9525
X2286Y9525
X1524Y4953
X9271Y4953
X13208Y17145
X15748Y13208
X7239Y17145
M30