M48
;GenerationSoftware,Autodesk,EAGLE,9.3.0*%
;CreationDate,2019-04-23T09:55:00Z*%
FMAT,2
ICI,OFF
METRIC,TZ,000.000
T5C0.400
T4C0.550
T3C1.100
T2C1.850
T1C3.048
%
G90
M71
T1
X41783Y10033
X3302Y35052
T2
X33528Y2029
X11430Y36179
X11430Y8779
X11430Y42929
X11430Y2029
X22479Y36179
X22479Y8779
X22479Y42929
X22479Y2029
X33528Y36179
X33528Y8779
X33528Y42929
T3
X43434Y33782
X43434Y13462
X3937Y43815
X3937Y41275
X3937Y38735
X1397Y43815
X1397Y41275
X1397Y38735
T4
X30480Y29972
X33274Y25781
X25400Y30480
X36195Y27305
X7874Y32766
X22987Y12446
X38862Y36576
T5
X42037Y25019
X42037Y15621
X42037Y26924
X33655Y21717
X29845Y15113
X29845Y12065
X42037Y20193
X32893Y18161
X9017Y12065
X6731Y32766
X29845Y13589
X37719Y14986
X32385Y24765
X27813Y17907
X42037Y21717
X29591Y32639
X29845Y16637
X32893Y16637
X42037Y14351
M30