G04 EAGLE Gerber RS-274X export*
G75*
%MOMM*%
%FSLAX34Y34*%
%LPD*%
%IN*%
%IPPOS*%
%AMOC8*
5,1,8,0,0,1.08239X$1,22.5*%
G01*
%ADD10C,0.254000*%


D10*
X0Y78740D02*
X77Y76969D01*
X309Y75211D01*
X692Y73481D01*
X1225Y71790D01*
X1904Y70152D01*
X2722Y68580D01*
X3675Y67085D01*
X4754Y65679D01*
X5952Y64372D01*
X7259Y63174D01*
X8665Y62095D01*
X10160Y61142D01*
X11732Y60324D01*
X13370Y59645D01*
X15061Y59112D01*
X16791Y58729D01*
X18549Y58497D01*
X20320Y58420D01*
X27940Y58420D01*
X30597Y58304D01*
X33233Y57957D01*
X35829Y57381D01*
X38365Y56582D01*
X40821Y55564D01*
X43180Y54336D01*
X45423Y52908D01*
X47532Y51289D01*
X49493Y49493D01*
X51289Y47532D01*
X52908Y45423D01*
X54336Y43180D01*
X55564Y40821D01*
X56582Y38365D01*
X57381Y35829D01*
X57957Y33233D01*
X58304Y30597D01*
X58420Y27940D01*
X58420Y20320D01*
X58497Y18549D01*
X58729Y16791D01*
X59112Y15061D01*
X59645Y13370D01*
X60324Y11732D01*
X61142Y10160D01*
X62095Y8665D01*
X63174Y7259D01*
X64372Y5952D01*
X65679Y4754D01*
X67085Y3675D01*
X68580Y2722D01*
X70152Y1904D01*
X71790Y1225D01*
X73481Y692D01*
X75211Y309D01*
X76969Y77D01*
X78740Y0D01*
X599440Y0D01*
X601211Y77D01*
X602969Y309D01*
X604699Y692D01*
X606390Y1225D01*
X608028Y1904D01*
X609600Y2722D01*
X611095Y3675D01*
X612501Y4754D01*
X613808Y5952D01*
X615006Y7259D01*
X616085Y8665D01*
X617038Y10160D01*
X617856Y11732D01*
X618535Y13370D01*
X619068Y15061D01*
X619451Y16791D01*
X619683Y18549D01*
X619760Y20320D01*
X619760Y27940D01*
X619876Y30597D01*
X620223Y33233D01*
X620799Y35829D01*
X621598Y38365D01*
X622616Y40821D01*
X623844Y43180D01*
X625272Y45423D01*
X626891Y47532D01*
X628687Y49493D01*
X630648Y51289D01*
X632757Y52908D01*
X635000Y54336D01*
X637359Y55564D01*
X639815Y56582D01*
X642351Y57381D01*
X644947Y57957D01*
X647584Y58304D01*
X650240Y58420D01*
X657860Y58420D01*
X659631Y58497D01*
X661389Y58729D01*
X663119Y59112D01*
X664810Y59645D01*
X666448Y60324D01*
X668020Y61142D01*
X669515Y62095D01*
X670921Y63174D01*
X672228Y64372D01*
X673426Y65679D01*
X674505Y67085D01*
X675458Y68580D01*
X676276Y70152D01*
X676955Y71790D01*
X677488Y73481D01*
X677871Y75211D01*
X678103Y76969D01*
X678180Y78740D01*
X678180Y538480D01*
X678103Y540251D01*
X677871Y542009D01*
X677488Y543739D01*
X676955Y545430D01*
X676276Y547068D01*
X675458Y548640D01*
X674505Y550135D01*
X673426Y551541D01*
X672228Y552848D01*
X670921Y554046D01*
X669515Y555125D01*
X668020Y556078D01*
X666448Y556896D01*
X664810Y557575D01*
X663119Y558108D01*
X661389Y558491D01*
X659631Y558723D01*
X657860Y558800D01*
X650240Y558800D01*
X647584Y558916D01*
X644947Y559263D01*
X642351Y559839D01*
X639815Y560638D01*
X637359Y561656D01*
X635000Y562884D01*
X632757Y564312D01*
X630648Y565931D01*
X628687Y567727D01*
X626891Y569688D01*
X625272Y571797D01*
X623844Y574040D01*
X622616Y576399D01*
X621598Y578855D01*
X620799Y581391D01*
X620223Y583987D01*
X619876Y586624D01*
X619760Y589280D01*
X619760Y596900D01*
X619683Y598671D01*
X619451Y600429D01*
X619068Y602159D01*
X618535Y603850D01*
X617856Y605488D01*
X617038Y607060D01*
X616085Y608555D01*
X615006Y609961D01*
X613808Y611268D01*
X612501Y612466D01*
X611095Y613545D01*
X609600Y614498D01*
X608028Y615316D01*
X606390Y615995D01*
X604699Y616528D01*
X602969Y616911D01*
X601211Y617143D01*
X599440Y617220D01*
X78740Y617220D01*
X76969Y617143D01*
X75211Y616911D01*
X73481Y616528D01*
X71790Y615995D01*
X70152Y615316D01*
X68580Y614498D01*
X67085Y613545D01*
X65679Y612466D01*
X64372Y611268D01*
X63174Y609961D01*
X62095Y608555D01*
X61142Y607060D01*
X60324Y605488D01*
X59645Y603850D01*
X59112Y602159D01*
X58729Y600429D01*
X58497Y598671D01*
X58420Y596900D01*
X58420Y589280D01*
X58304Y586624D01*
X57957Y583987D01*
X57381Y581391D01*
X56582Y578855D01*
X55564Y576399D01*
X54336Y574040D01*
X52908Y571797D01*
X51289Y569688D01*
X49493Y567727D01*
X47532Y565931D01*
X45423Y564312D01*
X43180Y562884D01*
X40821Y561656D01*
X38365Y560638D01*
X35829Y559839D01*
X33233Y559263D01*
X30597Y558916D01*
X27940Y558800D01*
X20320Y558800D01*
X18549Y558723D01*
X16791Y558491D01*
X15061Y558108D01*
X13370Y557575D01*
X11732Y556896D01*
X10160Y556078D01*
X8665Y555125D01*
X7259Y554046D01*
X5952Y552848D01*
X4754Y551541D01*
X3675Y550135D01*
X2722Y548640D01*
X1904Y547068D01*
X1225Y545430D01*
X692Y543739D01*
X309Y542009D01*
X77Y540251D01*
X0Y538480D01*
X0Y78740D01*
X49530Y89588D02*
X49454Y88426D01*
X49302Y87272D01*
X49075Y86130D01*
X48774Y85006D01*
X48399Y83904D01*
X47954Y82828D01*
X47439Y81784D01*
X46857Y80776D01*
X46210Y79808D01*
X45502Y78884D01*
X44734Y78009D01*
X43911Y77186D01*
X43036Y76419D01*
X42112Y75710D01*
X41144Y75063D01*
X40136Y74481D01*
X39092Y73966D01*
X38016Y73521D01*
X36914Y73147D01*
X35790Y72845D01*
X34648Y72618D01*
X33494Y72466D01*
X32332Y72390D01*
X31168Y72390D01*
X30006Y72466D01*
X28852Y72618D01*
X27710Y72845D01*
X26586Y73147D01*
X25484Y73521D01*
X24408Y73966D01*
X23364Y74481D01*
X22356Y75063D01*
X21388Y75710D01*
X20464Y76419D01*
X19589Y77186D01*
X18766Y78009D01*
X17999Y78884D01*
X17290Y79808D01*
X16643Y80776D01*
X16061Y81784D01*
X15546Y82828D01*
X15101Y83904D01*
X14727Y85006D01*
X14425Y86130D01*
X14198Y87272D01*
X14046Y88426D01*
X13970Y89588D01*
X13970Y90752D01*
X14046Y91914D01*
X14198Y93068D01*
X14425Y94210D01*
X14727Y95334D01*
X15101Y96436D01*
X15546Y97512D01*
X16061Y98556D01*
X16643Y99564D01*
X17290Y100532D01*
X17999Y101456D01*
X18766Y102331D01*
X19589Y103154D01*
X20464Y103922D01*
X21388Y104630D01*
X22356Y105277D01*
X23364Y105859D01*
X24408Y106374D01*
X25484Y106819D01*
X26586Y107194D01*
X27710Y107495D01*
X28852Y107722D01*
X30006Y107874D01*
X31168Y107950D01*
X32332Y107950D01*
X33494Y107874D01*
X34648Y107722D01*
X35790Y107495D01*
X36914Y107194D01*
X38016Y106819D01*
X39092Y106374D01*
X40136Y105859D01*
X41144Y105277D01*
X42112Y104630D01*
X43036Y103922D01*
X43911Y103154D01*
X44734Y102331D01*
X45502Y101456D01*
X46210Y100532D01*
X46857Y99564D01*
X47439Y98556D01*
X47954Y97512D01*
X48399Y96436D01*
X48774Y95334D01*
X49075Y94210D01*
X49302Y93068D01*
X49454Y91914D01*
X49530Y90752D01*
X49530Y89588D01*
X664210Y526468D02*
X664134Y525306D01*
X663982Y524152D01*
X663755Y523010D01*
X663454Y521886D01*
X663079Y520784D01*
X662634Y519708D01*
X662119Y518664D01*
X661537Y517656D01*
X660890Y516688D01*
X660182Y515764D01*
X659414Y514889D01*
X658591Y514066D01*
X657716Y513299D01*
X656792Y512590D01*
X655824Y511943D01*
X654816Y511361D01*
X653772Y510846D01*
X652696Y510401D01*
X651594Y510027D01*
X650470Y509725D01*
X649328Y509498D01*
X648174Y509346D01*
X647012Y509270D01*
X645848Y509270D01*
X644686Y509346D01*
X643532Y509498D01*
X642390Y509725D01*
X641266Y510027D01*
X640164Y510401D01*
X639088Y510846D01*
X638044Y511361D01*
X637036Y511943D01*
X636068Y512590D01*
X635144Y513299D01*
X634269Y514066D01*
X633446Y514889D01*
X632679Y515764D01*
X631970Y516688D01*
X631323Y517656D01*
X630741Y518664D01*
X630226Y519708D01*
X629781Y520784D01*
X629407Y521886D01*
X629105Y523010D01*
X628878Y524152D01*
X628726Y525306D01*
X628650Y526468D01*
X628650Y527632D01*
X628726Y528794D01*
X628878Y529948D01*
X629105Y531090D01*
X629407Y532214D01*
X629781Y533316D01*
X630226Y534392D01*
X630741Y535436D01*
X631323Y536444D01*
X631970Y537412D01*
X632679Y538336D01*
X633446Y539211D01*
X634269Y540034D01*
X635144Y540802D01*
X636068Y541510D01*
X637036Y542157D01*
X638044Y542739D01*
X639088Y543254D01*
X640164Y543699D01*
X641266Y544074D01*
X642390Y544375D01*
X643532Y544602D01*
X644686Y544754D01*
X645848Y544830D01*
X647012Y544830D01*
X648174Y544754D01*
X649328Y544602D01*
X650470Y544375D01*
X651594Y544074D01*
X652696Y543699D01*
X653772Y543254D01*
X654816Y542739D01*
X655824Y542157D01*
X656792Y541510D01*
X657716Y540802D01*
X658591Y540034D01*
X659414Y539211D01*
X660182Y538336D01*
X660890Y537412D01*
X661537Y536444D01*
X662119Y535436D01*
X662634Y534392D01*
X663079Y533316D01*
X663454Y532214D01*
X663755Y531090D01*
X663982Y529948D01*
X664134Y528794D01*
X664210Y527632D01*
X664210Y526468D01*
X49530Y526468D02*
X49454Y525306D01*
X49302Y524152D01*
X49075Y523010D01*
X48774Y521886D01*
X48399Y520784D01*
X47954Y519708D01*
X47439Y518664D01*
X46857Y517656D01*
X46210Y516688D01*
X45502Y515764D01*
X44734Y514889D01*
X43911Y514066D01*
X43036Y513299D01*
X42112Y512590D01*
X41144Y511943D01*
X40136Y511361D01*
X39092Y510846D01*
X38016Y510401D01*
X36914Y510027D01*
X35790Y509725D01*
X34648Y509498D01*
X33494Y509346D01*
X32332Y509270D01*
X31168Y509270D01*
X30006Y509346D01*
X28852Y509498D01*
X27710Y509725D01*
X26586Y510027D01*
X25484Y510401D01*
X24408Y510846D01*
X23364Y511361D01*
X22356Y511943D01*
X21388Y512590D01*
X20464Y513299D01*
X19589Y514066D01*
X18766Y514889D01*
X17999Y515764D01*
X17290Y516688D01*
X16643Y517656D01*
X16061Y518664D01*
X15546Y519708D01*
X15101Y520784D01*
X14727Y521886D01*
X14425Y523010D01*
X14198Y524152D01*
X14046Y525306D01*
X13970Y526468D01*
X13970Y527632D01*
X14046Y528794D01*
X14198Y529948D01*
X14425Y531090D01*
X14727Y532214D01*
X15101Y533316D01*
X15546Y534392D01*
X16061Y535436D01*
X16643Y536444D01*
X17290Y537412D01*
X17999Y538336D01*
X18766Y539211D01*
X19589Y540034D01*
X20464Y540802D01*
X21388Y541510D01*
X22356Y542157D01*
X23364Y542739D01*
X24408Y543254D01*
X25484Y543699D01*
X26586Y544074D01*
X27710Y544375D01*
X28852Y544602D01*
X30006Y544754D01*
X31168Y544830D01*
X32332Y544830D01*
X33494Y544754D01*
X34648Y544602D01*
X35790Y544375D01*
X36914Y544074D01*
X38016Y543699D01*
X39092Y543254D01*
X40136Y542739D01*
X41144Y542157D01*
X42112Y541510D01*
X43036Y540802D01*
X43911Y540034D01*
X44734Y539211D01*
X45502Y538336D01*
X46210Y537412D01*
X46857Y536444D01*
X47439Y535436D01*
X47954Y534392D01*
X48399Y533316D01*
X48774Y532214D01*
X49075Y531090D01*
X49302Y529948D01*
X49454Y528794D01*
X49530Y527632D01*
X49530Y526468D01*
X664210Y89588D02*
X664134Y88426D01*
X663982Y87272D01*
X663755Y86130D01*
X663454Y85006D01*
X663079Y83904D01*
X662634Y82828D01*
X662119Y81784D01*
X661537Y80776D01*
X660890Y79808D01*
X660182Y78884D01*
X659414Y78009D01*
X658591Y77186D01*
X657716Y76419D01*
X656792Y75710D01*
X655824Y75063D01*
X654816Y74481D01*
X653772Y73966D01*
X652696Y73521D01*
X651594Y73147D01*
X650470Y72845D01*
X649328Y72618D01*
X648174Y72466D01*
X647012Y72390D01*
X645848Y72390D01*
X644686Y72466D01*
X643532Y72618D01*
X642390Y72845D01*
X641266Y73147D01*
X640164Y73521D01*
X639088Y73966D01*
X638044Y74481D01*
X637036Y75063D01*
X636068Y75710D01*
X635144Y76419D01*
X634269Y77186D01*
X633446Y78009D01*
X632679Y78884D01*
X631970Y79808D01*
X631323Y80776D01*
X630741Y81784D01*
X630226Y82828D01*
X629781Y83904D01*
X629407Y85006D01*
X629105Y86130D01*
X628878Y87272D01*
X628726Y88426D01*
X628650Y89588D01*
X628650Y90752D01*
X628726Y91914D01*
X628878Y93068D01*
X629105Y94210D01*
X629407Y95334D01*
X629781Y96436D01*
X630226Y97512D01*
X630741Y98556D01*
X631323Y99564D01*
X631970Y100532D01*
X632679Y101456D01*
X633446Y102331D01*
X634269Y103154D01*
X635144Y103922D01*
X636068Y104630D01*
X637036Y105277D01*
X638044Y105859D01*
X639088Y106374D01*
X640164Y106819D01*
X641266Y107194D01*
X642390Y107495D01*
X643532Y107722D01*
X644686Y107874D01*
X645848Y107950D01*
X647012Y107950D01*
X648174Y107874D01*
X649328Y107722D01*
X650470Y107495D01*
X651594Y107194D01*
X652696Y106819D01*
X653772Y106374D01*
X654816Y105859D01*
X655824Y105277D01*
X656792Y104630D01*
X657716Y103922D01*
X658591Y103154D01*
X659414Y102331D01*
X660182Y101456D01*
X660890Y100532D01*
X661537Y99564D01*
X662119Y98556D01*
X662634Y97512D01*
X663079Y96436D01*
X663454Y95334D01*
X663755Y94210D01*
X663982Y93068D01*
X664134Y91914D01*
X664210Y90752D01*
X664210Y89588D01*
M02*
