G04 EAGLE Gerber RS-274X export*
G75*
%MOMM*%
%FSLAX34Y34*%
%LPD*%
%INSoldermask Top*%
%IPPOS*%
%AMOC8*
5,1,8,0,0,1.08239X$1,22.5*%
G01*
%ADD10R,1.173200X1.673200*%
%ADD11R,1.403200X0.803200*%
%ADD12R,1.503200X0.803200*%
%ADD13R,1.203200X1.153200*%
%ADD14R,2.203200X1.203200*%
%ADD15C,0.254000*%

G36*
X73662Y40515D02*
X73662Y40515D01*
X73664Y40514D01*
X73707Y40534D01*
X73751Y40552D01*
X73751Y40554D01*
X73753Y40555D01*
X73786Y40640D01*
X73786Y78740D01*
X73785Y78742D01*
X73786Y78744D01*
X73766Y78787D01*
X73748Y78831D01*
X73746Y78831D01*
X73745Y78833D01*
X73660Y78866D01*
X45720Y78866D01*
X45718Y78865D01*
X45716Y78866D01*
X45673Y78846D01*
X45629Y78828D01*
X45629Y78826D01*
X45627Y78825D01*
X45594Y78740D01*
X45594Y40640D01*
X45595Y40638D01*
X45594Y40636D01*
X45614Y40593D01*
X45632Y40549D01*
X45634Y40549D01*
X45635Y40547D01*
X45720Y40514D01*
X73660Y40514D01*
X73662Y40515D01*
G37*
G36*
X76202Y110365D02*
X76202Y110365D01*
X76204Y110364D01*
X76247Y110384D01*
X76291Y110402D01*
X76291Y110404D01*
X76293Y110405D01*
X76326Y110490D01*
X76326Y116586D01*
X76311Y116623D01*
X76302Y116661D01*
X76292Y116667D01*
X76288Y116677D01*
X76260Y116688D01*
X76225Y116710D01*
X68605Y118234D01*
X68593Y118231D01*
X68580Y118236D01*
X50800Y118236D01*
X50789Y118231D01*
X50775Y118234D01*
X43155Y116710D01*
X43123Y116688D01*
X43087Y116671D01*
X43082Y116660D01*
X43074Y116654D01*
X43069Y116625D01*
X43054Y116586D01*
X43054Y110490D01*
X43055Y110488D01*
X43054Y110486D01*
X43074Y110443D01*
X43092Y110399D01*
X43094Y110399D01*
X43095Y110397D01*
X43180Y110364D01*
X76200Y110364D01*
X76202Y110365D01*
G37*
G36*
X116623Y43069D02*
X116623Y43069D01*
X116661Y43078D01*
X116667Y43088D01*
X116677Y43092D01*
X116688Y43120D01*
X116710Y43155D01*
X118234Y50775D01*
X118231Y50787D01*
X118236Y50800D01*
X118236Y68580D01*
X118231Y68591D01*
X118234Y68605D01*
X116710Y76225D01*
X116688Y76258D01*
X116671Y76293D01*
X116660Y76298D01*
X116654Y76306D01*
X116625Y76311D01*
X116586Y76326D01*
X110490Y76326D01*
X110488Y76325D01*
X110486Y76326D01*
X110443Y76306D01*
X110399Y76288D01*
X110399Y76286D01*
X110397Y76285D01*
X110364Y76200D01*
X110364Y43180D01*
X110365Y43178D01*
X110364Y43176D01*
X110384Y43133D01*
X110402Y43089D01*
X110404Y43089D01*
X110405Y43087D01*
X110490Y43054D01*
X116586Y43054D01*
X116623Y43069D01*
G37*
G36*
X8892Y43055D02*
X8892Y43055D01*
X8894Y43054D01*
X8937Y43074D01*
X8981Y43092D01*
X8981Y43094D01*
X8983Y43095D01*
X9016Y43180D01*
X9016Y76200D01*
X9015Y76202D01*
X9016Y76204D01*
X8996Y76247D01*
X8978Y76291D01*
X8976Y76291D01*
X8975Y76293D01*
X8890Y76326D01*
X2794Y76326D01*
X2758Y76311D01*
X2719Y76302D01*
X2713Y76292D01*
X2703Y76288D01*
X2693Y76260D01*
X2670Y76225D01*
X1146Y68605D01*
X1149Y68593D01*
X1144Y68580D01*
X1144Y50800D01*
X1149Y50789D01*
X1146Y50775D01*
X2670Y43155D01*
X2693Y43123D01*
X2709Y43087D01*
X2720Y43082D01*
X2726Y43074D01*
X2755Y43069D01*
X2794Y43054D01*
X8890Y43054D01*
X8892Y43055D01*
G37*
G36*
X68591Y1149D02*
X68591Y1149D01*
X68605Y1146D01*
X76225Y2670D01*
X76258Y2693D01*
X76293Y2709D01*
X76298Y2720D01*
X76306Y2726D01*
X76311Y2755D01*
X76326Y2794D01*
X76326Y8890D01*
X76325Y8892D01*
X76326Y8894D01*
X76306Y8937D01*
X76288Y8981D01*
X76286Y8981D01*
X76285Y8983D01*
X76200Y9016D01*
X43180Y9016D01*
X43178Y9015D01*
X43176Y9016D01*
X43133Y8996D01*
X43089Y8978D01*
X43089Y8976D01*
X43087Y8975D01*
X43054Y8890D01*
X43054Y2794D01*
X43069Y2758D01*
X43078Y2719D01*
X43088Y2713D01*
X43092Y2703D01*
X43120Y2693D01*
X43155Y2670D01*
X50775Y1146D01*
X50787Y1149D01*
X50800Y1144D01*
X68580Y1144D01*
X68591Y1149D01*
G37*
D10*
X32430Y66040D03*
X15830Y66040D03*
X32430Y46990D03*
X15830Y46990D03*
D11*
X72190Y14630D03*
X72190Y24130D03*
X72190Y33630D03*
X47190Y33630D03*
X47190Y24130D03*
X47190Y14630D03*
D12*
X101940Y50190D03*
X101940Y69190D03*
X80940Y59690D03*
D13*
X87630Y37210D03*
X87630Y21210D03*
D14*
X24690Y88900D03*
X94690Y89400D03*
D15*
X0Y59690D02*
X227Y54488D01*
X907Y49325D01*
X2034Y44241D01*
X3600Y39275D01*
X5592Y34464D01*
X7997Y29845D01*
X10795Y25453D01*
X13965Y21322D01*
X17483Y17483D01*
X21322Y13965D01*
X25453Y10795D01*
X29845Y7997D01*
X34464Y5593D01*
X39275Y3600D01*
X44241Y2034D01*
X49325Y907D01*
X54488Y227D01*
X59690Y0D01*
X64892Y227D01*
X70055Y907D01*
X75139Y2034D01*
X80105Y3600D01*
X84916Y5593D01*
X89535Y7997D01*
X93927Y10795D01*
X98058Y13965D01*
X101897Y17483D01*
X105415Y21322D01*
X108585Y25453D01*
X111383Y29845D01*
X113787Y34464D01*
X115780Y39275D01*
X117346Y44241D01*
X118473Y49325D01*
X119153Y54488D01*
X119380Y59690D01*
X119153Y64892D01*
X118473Y70055D01*
X117346Y75139D01*
X115780Y80105D01*
X113788Y84916D01*
X111383Y89535D01*
X108585Y93927D01*
X105415Y98058D01*
X101897Y101897D01*
X98058Y105415D01*
X93927Y108585D01*
X89535Y111383D01*
X84916Y113788D01*
X80105Y115780D01*
X75139Y117346D01*
X70055Y118473D01*
X64892Y119153D01*
X59690Y119380D01*
X54488Y119153D01*
X49325Y118473D01*
X44241Y117346D01*
X39275Y115780D01*
X34464Y113788D01*
X29845Y111383D01*
X25453Y108585D01*
X21322Y105415D01*
X17483Y101897D01*
X13965Y98058D01*
X10795Y93927D01*
X7997Y89535D01*
X5592Y84916D01*
X3600Y80105D01*
X2034Y75139D01*
X907Y70055D01*
X227Y64892D01*
X0Y59690D01*
M02*
