G04 EAGLE Gerber RS-274X export*
G75*
%MOMM*%
%FSLAX34Y34*%
%LPD*%
%INSoldermask Bottom*%
%IPPOS*%
%AMOC8*
5,1,8,0,0,1.08239X$1,22.5*%
G01*
%ADD10C,0.254000*%

G36*
X63495Y33166D02*
X63495Y33166D01*
X63503Y33170D01*
X63512Y33168D01*
X67231Y33977D01*
X67238Y33982D01*
X67248Y33982D01*
X70813Y35312D01*
X70820Y35318D01*
X70830Y35319D01*
X74169Y37143D01*
X74175Y37150D01*
X74185Y37153D01*
X77231Y39433D01*
X77235Y39441D01*
X77244Y39445D01*
X79935Y42136D01*
X79939Y42144D01*
X79947Y42149D01*
X82227Y45195D01*
X82229Y45204D01*
X82237Y45211D01*
X84061Y48550D01*
X84062Y48559D01*
X84068Y48567D01*
X85398Y52132D01*
X85398Y52141D01*
X85403Y52149D01*
X86212Y55868D01*
X86210Y55876D01*
X86214Y55885D01*
X86486Y59681D01*
X86483Y59690D01*
X86486Y59699D01*
X86214Y63495D01*
X86210Y63503D01*
X86212Y63512D01*
X85403Y67231D01*
X85398Y67238D01*
X85398Y67248D01*
X84068Y70813D01*
X84062Y70820D01*
X84061Y70830D01*
X82237Y74169D01*
X82230Y74175D01*
X82227Y74185D01*
X79947Y77231D01*
X79939Y77235D01*
X79935Y77244D01*
X77244Y79935D01*
X77236Y79939D01*
X77231Y79947D01*
X74185Y82227D01*
X74176Y82229D01*
X74169Y82237D01*
X70830Y84061D01*
X70821Y84062D01*
X70813Y84068D01*
X67248Y85398D01*
X67239Y85398D01*
X67231Y85403D01*
X63512Y86212D01*
X63504Y86210D01*
X63495Y86214D01*
X59699Y86486D01*
X59691Y86483D01*
X59681Y86486D01*
X55885Y86214D01*
X55877Y86210D01*
X55868Y86212D01*
X52149Y85403D01*
X52142Y85398D01*
X52132Y85398D01*
X48567Y84068D01*
X48560Y84062D01*
X48550Y84061D01*
X45211Y82237D01*
X45205Y82230D01*
X45195Y82227D01*
X42149Y79947D01*
X42145Y79939D01*
X42136Y79935D01*
X39445Y77244D01*
X39442Y77236D01*
X39433Y77231D01*
X37153Y74185D01*
X37151Y74176D01*
X37143Y74169D01*
X35319Y70830D01*
X35318Y70821D01*
X35312Y70813D01*
X33982Y67248D01*
X33982Y67239D01*
X33977Y67231D01*
X33168Y63512D01*
X33170Y63504D01*
X33166Y63495D01*
X32894Y59699D01*
X32897Y59691D01*
X32894Y59681D01*
X33166Y55885D01*
X33170Y55877D01*
X33168Y55868D01*
X33977Y52149D01*
X33982Y52142D01*
X33982Y52132D01*
X35312Y48567D01*
X35318Y48560D01*
X35319Y48550D01*
X37143Y45211D01*
X37150Y45205D01*
X37153Y45195D01*
X39433Y42149D01*
X39440Y42145D01*
X39441Y42143D01*
X39442Y42142D01*
X39445Y42136D01*
X42136Y39445D01*
X42144Y39442D01*
X42149Y39433D01*
X45195Y37153D01*
X45204Y37151D01*
X45211Y37143D01*
X48550Y35319D01*
X48559Y35318D01*
X48567Y35312D01*
X52132Y33982D01*
X52141Y33982D01*
X52149Y33977D01*
X55868Y33168D01*
X55876Y33170D01*
X55885Y33166D01*
X59681Y32894D01*
X59690Y32897D01*
X59699Y32894D01*
X63495Y33166D01*
G37*
D10*
X0Y59690D02*
X227Y54488D01*
X907Y49325D01*
X2034Y44241D01*
X3600Y39275D01*
X5592Y34464D01*
X7997Y29845D01*
X10795Y25453D01*
X13965Y21322D01*
X17483Y17483D01*
X21322Y13965D01*
X25453Y10795D01*
X29845Y7997D01*
X34464Y5593D01*
X39275Y3600D01*
X44241Y2034D01*
X49325Y907D01*
X54488Y227D01*
X59690Y0D01*
X64892Y227D01*
X70055Y907D01*
X75139Y2034D01*
X80105Y3600D01*
X84916Y5593D01*
X89535Y7997D01*
X93927Y10795D01*
X98058Y13965D01*
X101897Y17483D01*
X105415Y21322D01*
X108585Y25453D01*
X111383Y29845D01*
X113787Y34464D01*
X115780Y39275D01*
X117346Y44241D01*
X118473Y49325D01*
X119153Y54488D01*
X119380Y59690D01*
X119153Y64892D01*
X118473Y70055D01*
X117346Y75139D01*
X115780Y80105D01*
X113788Y84916D01*
X111383Y89535D01*
X108585Y93927D01*
X105415Y98058D01*
X101897Y101897D01*
X98058Y105415D01*
X93927Y108585D01*
X89535Y111383D01*
X84916Y113788D01*
X80105Y115780D01*
X75139Y117346D01*
X70055Y118473D01*
X64892Y119153D01*
X59690Y119380D01*
X54488Y119153D01*
X49325Y118473D01*
X44241Y117346D01*
X39275Y115780D01*
X34464Y113788D01*
X29845Y111383D01*
X25453Y108585D01*
X21322Y105415D01*
X17483Y101897D01*
X13965Y98058D01*
X10795Y93927D01*
X7997Y89535D01*
X5592Y84916D01*
X3600Y80105D01*
X2034Y75139D01*
X907Y70055D01*
X227Y64892D01*
X0Y59690D01*
M02*
