G04 EAGLE Gerber RS-274X export*
G75*
%MOMM*%
%FSLAX34Y34*%
%LPD*%
%INBottom Copper*%
%IPPOS*%
%AMOC8*
5,1,8,0,0,1.08239X$1,22.5*%
G01*
%ADD10C,1.650000*%
%ADD11C,2.775000*%
%ADD12C,0.806400*%
%ADD13C,0.956400*%
%ADD14C,0.762000*%
%ADD15C,0.381000*%
%ADD16C,1.270000*%
%ADD17C,0.254000*%

G36*
X447158Y1286D02*
X447158Y1286D01*
X447277Y1293D01*
X447315Y1306D01*
X447356Y1311D01*
X447466Y1354D01*
X447579Y1391D01*
X447614Y1413D01*
X447651Y1428D01*
X447747Y1498D01*
X447848Y1561D01*
X447876Y1591D01*
X447909Y1614D01*
X447985Y1706D01*
X448066Y1793D01*
X448086Y1828D01*
X448111Y1859D01*
X448162Y1967D01*
X448220Y2071D01*
X448230Y2111D01*
X448247Y2147D01*
X448269Y2264D01*
X448299Y2379D01*
X448303Y2440D01*
X448307Y2460D01*
X448305Y2480D01*
X448309Y2540D01*
X448309Y331470D01*
X448294Y331588D01*
X448287Y331707D01*
X448274Y331745D01*
X448269Y331786D01*
X448226Y331896D01*
X448189Y332009D01*
X448167Y332044D01*
X448152Y332081D01*
X448083Y332177D01*
X448019Y332278D01*
X447989Y332306D01*
X447966Y332339D01*
X447874Y332415D01*
X447787Y332496D01*
X447752Y332516D01*
X447721Y332541D01*
X447613Y332592D01*
X447509Y332650D01*
X447469Y332660D01*
X447433Y332677D01*
X447316Y332699D01*
X447201Y332729D01*
X447141Y332733D01*
X447121Y332737D01*
X447100Y332735D01*
X447040Y332739D01*
X444763Y332739D01*
X444734Y332736D01*
X444705Y332738D01*
X444577Y332716D01*
X444448Y332699D01*
X444420Y332689D01*
X444391Y332683D01*
X444273Y332630D01*
X444152Y332582D01*
X444128Y332565D01*
X444101Y332553D01*
X444000Y332472D01*
X443895Y332396D01*
X443876Y332373D01*
X443853Y332354D01*
X443775Y332250D01*
X443692Y332151D01*
X443679Y332124D01*
X443662Y332100D01*
X443591Y331956D01*
X443488Y331708D01*
X440452Y328672D01*
X436486Y327029D01*
X432194Y327029D01*
X428228Y328672D01*
X425192Y331708D01*
X425089Y331956D01*
X425075Y331981D01*
X425066Y332009D01*
X424996Y332119D01*
X424932Y332232D01*
X424911Y332253D01*
X424895Y332278D01*
X424801Y332367D01*
X424710Y332460D01*
X424685Y332476D01*
X424664Y332496D01*
X424550Y332559D01*
X424439Y332627D01*
X424411Y332635D01*
X424385Y332650D01*
X424260Y332682D01*
X424135Y332720D01*
X424106Y332722D01*
X424077Y332729D01*
X423917Y332739D01*
X85090Y332739D01*
X84972Y332724D01*
X84853Y332717D01*
X84815Y332704D01*
X84774Y332699D01*
X84664Y332656D01*
X84551Y332619D01*
X84516Y332597D01*
X84479Y332582D01*
X84383Y332513D01*
X84282Y332449D01*
X84254Y332419D01*
X84221Y332396D01*
X84146Y332304D01*
X84064Y332217D01*
X84044Y332182D01*
X84019Y332151D01*
X83968Y332043D01*
X83910Y331939D01*
X83900Y331899D01*
X83883Y331863D01*
X83861Y331746D01*
X83831Y331631D01*
X83827Y331571D01*
X83823Y331551D01*
X83825Y331530D01*
X83821Y331470D01*
X83821Y323628D01*
X83836Y323510D01*
X83843Y323391D01*
X83856Y323353D01*
X83861Y323312D01*
X83904Y323202D01*
X83941Y323089D01*
X83963Y323054D01*
X83978Y323017D01*
X84048Y322921D01*
X84111Y322820D01*
X84141Y322792D01*
X84164Y322759D01*
X84256Y322683D01*
X84343Y322602D01*
X84378Y322582D01*
X84409Y322557D01*
X84517Y322506D01*
X84621Y322448D01*
X84661Y322438D01*
X84697Y322421D01*
X84814Y322399D01*
X84929Y322369D01*
X84990Y322365D01*
X85010Y322361D01*
X85030Y322363D01*
X85090Y322359D01*
X86518Y322359D01*
X90806Y318071D01*
X90806Y128349D01*
X90809Y128320D01*
X90807Y128290D01*
X90829Y128162D01*
X90846Y128033D01*
X90856Y128006D01*
X90861Y127977D01*
X90915Y127858D01*
X90963Y127738D01*
X90980Y127714D01*
X90992Y127687D01*
X91073Y127586D01*
X91149Y127480D01*
X91172Y127462D01*
X91191Y127439D01*
X91294Y127360D01*
X91394Y127278D01*
X91421Y127265D01*
X91445Y127247D01*
X91589Y127176D01*
X93893Y126222D01*
X95742Y124373D01*
X96743Y121957D01*
X96743Y119343D01*
X95742Y116927D01*
X93893Y115078D01*
X91477Y114077D01*
X88863Y114077D01*
X86447Y115078D01*
X85988Y115537D01*
X85878Y115622D01*
X85771Y115711D01*
X85752Y115720D01*
X85736Y115732D01*
X85608Y115788D01*
X85483Y115847D01*
X85463Y115850D01*
X85444Y115859D01*
X85306Y115880D01*
X85171Y115906D01*
X85150Y115905D01*
X85130Y115908D01*
X84991Y115895D01*
X84853Y115887D01*
X84834Y115880D01*
X84814Y115879D01*
X84683Y115832D01*
X84551Y115789D01*
X84533Y115778D01*
X84514Y115771D01*
X84400Y115693D01*
X84282Y115619D01*
X84268Y115604D01*
X84251Y115592D01*
X84159Y115488D01*
X84064Y115387D01*
X84054Y115369D01*
X84041Y115354D01*
X83978Y115230D01*
X83910Y115108D01*
X83905Y115089D01*
X83896Y115071D01*
X83866Y114935D01*
X83831Y114800D01*
X83829Y114772D01*
X83827Y114760D01*
X83827Y114740D01*
X83821Y114640D01*
X83821Y2540D01*
X83836Y2422D01*
X83843Y2303D01*
X83856Y2265D01*
X83861Y2224D01*
X83904Y2114D01*
X83941Y2001D01*
X83963Y1966D01*
X83978Y1929D01*
X84048Y1833D01*
X84111Y1732D01*
X84141Y1704D01*
X84164Y1671D01*
X84256Y1596D01*
X84343Y1514D01*
X84378Y1494D01*
X84409Y1469D01*
X84517Y1418D01*
X84621Y1360D01*
X84661Y1350D01*
X84697Y1333D01*
X84814Y1311D01*
X84929Y1281D01*
X84990Y1277D01*
X85010Y1273D01*
X85030Y1275D01*
X85090Y1271D01*
X447040Y1271D01*
X447158Y1286D01*
G37*
G36*
X433188Y336566D02*
X433188Y336566D01*
X433307Y336573D01*
X433345Y336586D01*
X433385Y336591D01*
X433496Y336634D01*
X433609Y336671D01*
X433643Y336693D01*
X433681Y336708D01*
X433777Y336778D01*
X433878Y336841D01*
X433906Y336871D01*
X433938Y336894D01*
X434014Y336986D01*
X434096Y337073D01*
X434115Y337108D01*
X434141Y337139D01*
X434192Y337247D01*
X434249Y337351D01*
X434260Y337391D01*
X434277Y337427D01*
X434299Y337544D01*
X434329Y337659D01*
X434333Y337720D01*
X434337Y337740D01*
X434335Y337760D01*
X434339Y337820D01*
X434339Y337821D01*
X434341Y337821D01*
X434341Y337820D01*
X434356Y337702D01*
X434363Y337583D01*
X434376Y337545D01*
X434381Y337504D01*
X434425Y337394D01*
X434461Y337281D01*
X434483Y337246D01*
X434498Y337209D01*
X434568Y337113D01*
X434631Y337012D01*
X434661Y336984D01*
X434685Y336951D01*
X434776Y336876D01*
X434863Y336794D01*
X434898Y336774D01*
X434930Y336749D01*
X435037Y336698D01*
X435142Y336640D01*
X435181Y336630D01*
X435217Y336613D01*
X435334Y336591D01*
X435449Y336561D01*
X435510Y336557D01*
X435530Y336553D01*
X435550Y336555D01*
X435610Y336551D01*
X447040Y336551D01*
X447158Y336566D01*
X447277Y336573D01*
X447315Y336586D01*
X447356Y336591D01*
X447466Y336634D01*
X447579Y336671D01*
X447614Y336693D01*
X447651Y336708D01*
X447747Y336778D01*
X447848Y336841D01*
X447876Y336871D01*
X447909Y336894D01*
X447985Y336986D01*
X448066Y337073D01*
X448086Y337108D01*
X448111Y337139D01*
X448162Y337247D01*
X448220Y337351D01*
X448230Y337391D01*
X448247Y337427D01*
X448269Y337544D01*
X448299Y337659D01*
X448303Y337720D01*
X448307Y337740D01*
X448305Y337760D01*
X448309Y337820D01*
X448309Y387350D01*
X448294Y387468D01*
X448287Y387587D01*
X448274Y387625D01*
X448269Y387666D01*
X448226Y387776D01*
X448189Y387889D01*
X448167Y387924D01*
X448152Y387961D01*
X448083Y388057D01*
X448019Y388158D01*
X447989Y388186D01*
X447966Y388219D01*
X447874Y388295D01*
X447787Y388376D01*
X447752Y388396D01*
X447721Y388421D01*
X447613Y388472D01*
X447509Y388530D01*
X447469Y388540D01*
X447433Y388557D01*
X447316Y388579D01*
X447201Y388609D01*
X447141Y388613D01*
X447121Y388617D01*
X447100Y388615D01*
X447040Y388619D01*
X388619Y388619D01*
X388619Y447040D01*
X388604Y447158D01*
X388597Y447277D01*
X388584Y447315D01*
X388579Y447356D01*
X388536Y447466D01*
X388499Y447579D01*
X388477Y447614D01*
X388462Y447651D01*
X388393Y447747D01*
X388329Y447848D01*
X388299Y447876D01*
X388276Y447909D01*
X388184Y447985D01*
X388097Y448066D01*
X388062Y448086D01*
X388031Y448111D01*
X387923Y448162D01*
X387819Y448220D01*
X387779Y448230D01*
X387743Y448247D01*
X387626Y448269D01*
X387511Y448299D01*
X387451Y448303D01*
X387431Y448307D01*
X387410Y448305D01*
X387350Y448309D01*
X85090Y448309D01*
X84972Y448294D01*
X84853Y448287D01*
X84815Y448274D01*
X84774Y448269D01*
X84664Y448226D01*
X84551Y448189D01*
X84516Y448167D01*
X84479Y448152D01*
X84383Y448083D01*
X84282Y448019D01*
X84254Y447989D01*
X84221Y447966D01*
X84146Y447874D01*
X84064Y447787D01*
X84044Y447752D01*
X84019Y447721D01*
X83968Y447613D01*
X83910Y447509D01*
X83900Y447469D01*
X83883Y447433D01*
X83861Y447316D01*
X83831Y447201D01*
X83827Y447141D01*
X83823Y447121D01*
X83825Y447100D01*
X83821Y447040D01*
X83821Y337820D01*
X83836Y337702D01*
X83843Y337583D01*
X83856Y337545D01*
X83861Y337504D01*
X83904Y337394D01*
X83941Y337281D01*
X83963Y337246D01*
X83978Y337209D01*
X84048Y337113D01*
X84111Y337012D01*
X84141Y336984D01*
X84164Y336951D01*
X84256Y336876D01*
X84343Y336794D01*
X84378Y336774D01*
X84409Y336749D01*
X84517Y336698D01*
X84621Y336640D01*
X84661Y336630D01*
X84697Y336613D01*
X84814Y336591D01*
X84929Y336561D01*
X84990Y336557D01*
X85010Y336553D01*
X85030Y336555D01*
X85090Y336551D01*
X433070Y336551D01*
X433188Y336566D01*
G37*
%LPC*%
G36*
X297143Y114077D02*
X297143Y114077D01*
X294727Y115078D01*
X293972Y115833D01*
X293894Y115893D01*
X293822Y115961D01*
X293769Y115990D01*
X293721Y116027D01*
X293630Y116067D01*
X293543Y116115D01*
X293485Y116130D01*
X293429Y116154D01*
X293331Y116169D01*
X293235Y116194D01*
X293135Y116200D01*
X293115Y116204D01*
X293103Y116202D01*
X293075Y116204D01*
X291529Y116204D01*
X285114Y122619D01*
X285114Y130175D01*
X285099Y130293D01*
X285092Y130412D01*
X285079Y130450D01*
X285074Y130491D01*
X285031Y130601D01*
X284994Y130714D01*
X284972Y130749D01*
X284957Y130786D01*
X284888Y130882D01*
X284824Y130983D01*
X284794Y131011D01*
X284771Y131044D01*
X284679Y131120D01*
X284592Y131201D01*
X284557Y131221D01*
X284526Y131246D01*
X284418Y131297D01*
X284314Y131355D01*
X284274Y131365D01*
X284238Y131382D01*
X284121Y131404D01*
X284006Y131434D01*
X283946Y131438D01*
X283926Y131442D01*
X283905Y131440D01*
X283845Y131444D01*
X240030Y131444D01*
X239912Y131429D01*
X239793Y131422D01*
X239755Y131409D01*
X239714Y131404D01*
X239604Y131361D01*
X239491Y131324D01*
X239456Y131302D01*
X239419Y131287D01*
X239323Y131218D01*
X239222Y131154D01*
X239194Y131124D01*
X239161Y131101D01*
X239085Y131009D01*
X239004Y130922D01*
X238984Y130887D01*
X238959Y130856D01*
X238908Y130748D01*
X238850Y130644D01*
X238840Y130604D01*
X238823Y130568D01*
X238801Y130451D01*
X238771Y130336D01*
X238767Y130276D01*
X238763Y130256D01*
X238765Y130235D01*
X238761Y130175D01*
X238761Y122691D01*
X237407Y119424D01*
X234906Y116923D01*
X231639Y115569D01*
X228101Y115569D01*
X224834Y116923D01*
X222333Y119424D01*
X220979Y122691D01*
X220979Y244339D01*
X222333Y247606D01*
X255016Y280289D01*
X258283Y281643D01*
X297180Y281643D01*
X297298Y281658D01*
X297417Y281665D01*
X297455Y281678D01*
X297496Y281683D01*
X297606Y281726D01*
X297719Y281763D01*
X297754Y281785D01*
X297791Y281800D01*
X297887Y281869D01*
X297988Y281933D01*
X298016Y281963D01*
X298049Y281986D01*
X298125Y282078D01*
X298206Y282165D01*
X298226Y282200D01*
X298251Y282231D01*
X298302Y282339D01*
X298360Y282443D01*
X298370Y282483D01*
X298387Y282519D01*
X298409Y282636D01*
X298439Y282751D01*
X298443Y282811D01*
X298447Y282831D01*
X298445Y282852D01*
X298449Y282912D01*
X298449Y295664D01*
X298448Y295674D01*
X298449Y295683D01*
X298428Y295832D01*
X298409Y295980D01*
X298406Y295989D01*
X298405Y295998D01*
X298353Y296150D01*
X297477Y298263D01*
X297477Y301177D01*
X298592Y303868D01*
X300652Y305928D01*
X303343Y307043D01*
X306257Y307043D01*
X308948Y305928D01*
X311008Y303868D01*
X312123Y301177D01*
X312123Y298263D01*
X311247Y296150D01*
X311245Y296141D01*
X311240Y296133D01*
X311203Y295988D01*
X311163Y295843D01*
X311163Y295834D01*
X311161Y295825D01*
X311151Y295664D01*
X311151Y282912D01*
X311166Y282794D01*
X311173Y282675D01*
X311186Y282637D01*
X311191Y282596D01*
X311234Y282486D01*
X311271Y282373D01*
X311293Y282338D01*
X311308Y282301D01*
X311377Y282205D01*
X311441Y282104D01*
X311471Y282076D01*
X311494Y282043D01*
X311586Y281967D01*
X311673Y281886D01*
X311708Y281866D01*
X311739Y281841D01*
X311847Y281790D01*
X311951Y281732D01*
X311991Y281722D01*
X312027Y281705D01*
X312144Y281683D01*
X312259Y281653D01*
X312319Y281649D01*
X312339Y281645D01*
X312360Y281647D01*
X312420Y281643D01*
X359210Y281643D01*
X359219Y281644D01*
X359228Y281643D01*
X359377Y281664D01*
X359525Y281683D01*
X359534Y281686D01*
X359543Y281687D01*
X359695Y281739D01*
X360181Y281941D01*
X363719Y281941D01*
X366986Y280587D01*
X369487Y278086D01*
X370841Y274819D01*
X370841Y271281D01*
X369487Y268014D01*
X366767Y265294D01*
X366707Y265216D01*
X366639Y265144D01*
X366610Y265091D01*
X366573Y265043D01*
X366533Y264952D01*
X366485Y264865D01*
X366470Y264807D01*
X366446Y264751D01*
X366431Y264653D01*
X366406Y264557D01*
X366400Y264457D01*
X366396Y264437D01*
X366398Y264425D01*
X366396Y264397D01*
X366396Y211917D01*
X366408Y211819D01*
X366411Y211720D01*
X366428Y211662D01*
X366436Y211602D01*
X366472Y211510D01*
X366500Y211415D01*
X366530Y211362D01*
X366553Y211306D01*
X366611Y211226D01*
X366661Y211141D01*
X366727Y211065D01*
X366739Y211049D01*
X366749Y211041D01*
X366767Y211020D01*
X371040Y206747D01*
X371118Y206687D01*
X371190Y206619D01*
X371243Y206590D01*
X371291Y206553D01*
X371382Y206513D01*
X371469Y206465D01*
X371527Y206450D01*
X371583Y206426D01*
X371681Y206411D01*
X371777Y206386D01*
X371877Y206380D01*
X371897Y206376D01*
X371909Y206378D01*
X371937Y206376D01*
X414995Y206376D01*
X415093Y206388D01*
X415192Y206391D01*
X415250Y206408D01*
X415310Y206416D01*
X415402Y206452D01*
X415497Y206480D01*
X415550Y206510D01*
X415606Y206533D01*
X415686Y206591D01*
X415771Y206641D01*
X415847Y206707D01*
X415863Y206719D01*
X415871Y206729D01*
X415892Y206747D01*
X416647Y207502D01*
X419063Y208503D01*
X421677Y208503D01*
X424093Y207502D01*
X425942Y205653D01*
X426943Y203237D01*
X426943Y200623D01*
X425942Y198207D01*
X424093Y196358D01*
X421677Y195357D01*
X419063Y195357D01*
X416647Y196358D01*
X415892Y197113D01*
X415814Y197173D01*
X415742Y197241D01*
X415689Y197270D01*
X415641Y197307D01*
X415550Y197347D01*
X415463Y197395D01*
X415405Y197410D01*
X415349Y197434D01*
X415251Y197449D01*
X415155Y197474D01*
X415055Y197480D01*
X415035Y197484D01*
X415023Y197482D01*
X414995Y197484D01*
X367729Y197484D01*
X357504Y207709D01*
X357504Y262592D01*
X357489Y262710D01*
X357482Y262829D01*
X357469Y262867D01*
X357464Y262908D01*
X357421Y263018D01*
X357384Y263131D01*
X357362Y263166D01*
X357347Y263203D01*
X357278Y263299D01*
X357214Y263400D01*
X357184Y263428D01*
X357161Y263461D01*
X357069Y263537D01*
X356982Y263618D01*
X356947Y263638D01*
X356916Y263663D01*
X356808Y263714D01*
X356704Y263772D01*
X356664Y263782D01*
X356628Y263799D01*
X356511Y263821D01*
X356396Y263851D01*
X356336Y263855D01*
X356316Y263859D01*
X356295Y263857D01*
X356235Y263861D01*
X264260Y263861D01*
X264162Y263849D01*
X264063Y263846D01*
X264005Y263829D01*
X263945Y263821D01*
X263853Y263785D01*
X263758Y263757D01*
X263706Y263727D01*
X263649Y263704D01*
X263569Y263646D01*
X263484Y263596D01*
X263408Y263530D01*
X263392Y263518D01*
X263384Y263508D01*
X263363Y263490D01*
X239132Y239259D01*
X239072Y239181D01*
X239004Y239109D01*
X238975Y239056D01*
X238938Y239008D01*
X238898Y238917D01*
X238850Y238830D01*
X238835Y238772D01*
X238811Y238716D01*
X238796Y238618D01*
X238771Y238522D01*
X238765Y238422D01*
X238761Y238402D01*
X238763Y238390D01*
X238761Y238362D01*
X238761Y141605D01*
X238776Y141487D01*
X238783Y141368D01*
X238796Y141330D01*
X238801Y141289D01*
X238844Y141179D01*
X238881Y141066D01*
X238903Y141031D01*
X238918Y140994D01*
X238987Y140898D01*
X239051Y140797D01*
X239081Y140769D01*
X239104Y140736D01*
X239196Y140660D01*
X239283Y140579D01*
X239318Y140559D01*
X239349Y140534D01*
X239457Y140483D01*
X239561Y140425D01*
X239601Y140415D01*
X239637Y140398D01*
X239754Y140376D01*
X239869Y140346D01*
X239929Y140342D01*
X239949Y140338D01*
X239970Y140340D01*
X240030Y140336D01*
X283845Y140336D01*
X283963Y140351D01*
X284082Y140358D01*
X284120Y140371D01*
X284161Y140376D01*
X284271Y140419D01*
X284384Y140456D01*
X284419Y140478D01*
X284456Y140493D01*
X284552Y140562D01*
X284653Y140626D01*
X284681Y140656D01*
X284714Y140679D01*
X284790Y140771D01*
X284871Y140858D01*
X284891Y140893D01*
X284916Y140924D01*
X284967Y141032D01*
X285025Y141136D01*
X285035Y141176D01*
X285052Y141212D01*
X285074Y141329D01*
X285104Y141444D01*
X285108Y141504D01*
X285112Y141524D01*
X285110Y141545D01*
X285114Y141605D01*
X285114Y150431D01*
X290259Y155576D01*
X293075Y155576D01*
X293173Y155588D01*
X293272Y155591D01*
X293330Y155608D01*
X293390Y155616D01*
X293482Y155652D01*
X293577Y155680D01*
X293630Y155710D01*
X293686Y155733D01*
X293766Y155791D01*
X293851Y155841D01*
X293927Y155907D01*
X293943Y155919D01*
X293951Y155929D01*
X293972Y155947D01*
X294727Y156702D01*
X297143Y157703D01*
X299757Y157703D01*
X301139Y157130D01*
X301187Y157117D01*
X301232Y157096D01*
X301340Y157075D01*
X301446Y157046D01*
X301496Y157046D01*
X301545Y157036D01*
X301654Y157043D01*
X301764Y157041D01*
X301812Y157053D01*
X301862Y157056D01*
X301966Y157090D01*
X302073Y157115D01*
X302117Y157139D01*
X302164Y157154D01*
X302257Y157213D01*
X302354Y157264D01*
X302391Y157298D01*
X302433Y157324D01*
X302508Y157404D01*
X302590Y157478D01*
X302617Y157520D01*
X302651Y157556D01*
X302704Y157652D01*
X302764Y157744D01*
X302781Y157791D01*
X302805Y157834D01*
X302832Y157941D01*
X302868Y158045D01*
X302872Y158094D01*
X302884Y158142D01*
X302894Y158303D01*
X302894Y171623D01*
X302882Y171721D01*
X302879Y171820D01*
X302862Y171878D01*
X302854Y171938D01*
X302818Y172030D01*
X302790Y172125D01*
X302760Y172178D01*
X302737Y172234D01*
X302679Y172314D01*
X302629Y172399D01*
X302563Y172475D01*
X302551Y172491D01*
X302541Y172499D01*
X302523Y172520D01*
X300790Y174253D01*
X300712Y174313D01*
X300640Y174381D01*
X300587Y174410D01*
X300539Y174447D01*
X300448Y174487D01*
X300361Y174535D01*
X300303Y174550D01*
X300247Y174574D01*
X300149Y174589D01*
X300053Y174614D01*
X299953Y174620D01*
X299933Y174624D01*
X299921Y174622D01*
X299893Y174624D01*
X283505Y174624D01*
X283407Y174612D01*
X283308Y174609D01*
X283250Y174592D01*
X283190Y174584D01*
X283098Y174548D01*
X283003Y174520D01*
X282950Y174490D01*
X282894Y174467D01*
X282814Y174409D01*
X282729Y174359D01*
X282653Y174293D01*
X282637Y174281D01*
X282629Y174271D01*
X282608Y174253D01*
X281853Y173498D01*
X279437Y172497D01*
X276823Y172497D01*
X274407Y173498D01*
X272558Y175347D01*
X271557Y177763D01*
X271557Y180377D01*
X272558Y182793D01*
X274407Y184642D01*
X276823Y185643D01*
X279437Y185643D01*
X281853Y184642D01*
X282608Y183887D01*
X282686Y183827D01*
X282758Y183759D01*
X282811Y183730D01*
X282859Y183693D01*
X282950Y183653D01*
X283037Y183605D01*
X283095Y183590D01*
X283151Y183566D01*
X283249Y183551D01*
X283345Y183526D01*
X283445Y183520D01*
X283465Y183516D01*
X283477Y183518D01*
X283505Y183516D01*
X304101Y183516D01*
X311786Y175831D01*
X311786Y155575D01*
X311801Y155457D01*
X311808Y155338D01*
X311821Y155300D01*
X311826Y155259D01*
X311869Y155149D01*
X311906Y155036D01*
X311928Y155001D01*
X311943Y154964D01*
X312012Y154868D01*
X312076Y154767D01*
X312106Y154739D01*
X312129Y154706D01*
X312221Y154630D01*
X312308Y154549D01*
X312343Y154529D01*
X312374Y154504D01*
X312482Y154453D01*
X312586Y154395D01*
X312626Y154385D01*
X312662Y154368D01*
X312779Y154346D01*
X312894Y154316D01*
X312954Y154312D01*
X312974Y154308D01*
X312995Y154310D01*
X313055Y154306D01*
X371815Y154306D01*
X371913Y154318D01*
X372012Y154321D01*
X372070Y154338D01*
X372130Y154346D01*
X372222Y154382D01*
X372318Y154410D01*
X372370Y154440D01*
X372426Y154463D01*
X372506Y154521D01*
X372591Y154571D01*
X372667Y154637D01*
X372683Y154649D01*
X372691Y154659D01*
X372712Y154678D01*
X373467Y155432D01*
X375883Y156433D01*
X378497Y156433D01*
X380913Y155432D01*
X381668Y154678D01*
X381746Y154617D01*
X381818Y154549D01*
X381871Y154520D01*
X381919Y154483D01*
X382010Y154443D01*
X382097Y154395D01*
X382155Y154380D01*
X382211Y154356D01*
X382309Y154341D01*
X382405Y154316D01*
X382505Y154310D01*
X382525Y154306D01*
X382537Y154308D01*
X382565Y154306D01*
X405303Y154306D01*
X405401Y154318D01*
X405500Y154321D01*
X405558Y154338D01*
X405618Y154346D01*
X405710Y154382D01*
X405805Y154410D01*
X405858Y154440D01*
X405914Y154463D01*
X405994Y154521D01*
X406079Y154571D01*
X406155Y154637D01*
X406171Y154649D01*
X406179Y154659D01*
X406200Y154677D01*
X412179Y160656D01*
X414995Y160656D01*
X415093Y160668D01*
X415192Y160671D01*
X415250Y160688D01*
X415310Y160696D01*
X415402Y160732D01*
X415497Y160760D01*
X415550Y160790D01*
X415606Y160813D01*
X415686Y160871D01*
X415771Y160921D01*
X415847Y160987D01*
X415863Y160999D01*
X415871Y161009D01*
X415892Y161027D01*
X416647Y161782D01*
X419063Y162783D01*
X421677Y162783D01*
X424093Y161782D01*
X425942Y159933D01*
X426943Y157517D01*
X426943Y154903D01*
X425942Y152487D01*
X424093Y150638D01*
X421677Y149637D01*
X419063Y149637D01*
X416647Y150638D01*
X416589Y150696D01*
X416501Y150764D01*
X416464Y150799D01*
X416455Y150804D01*
X416405Y150848D01*
X416369Y150866D01*
X416337Y150891D01*
X416228Y150938D01*
X416122Y150993D01*
X416083Y151001D01*
X416045Y151018D01*
X415928Y151036D01*
X415812Y151062D01*
X415771Y151061D01*
X415731Y151067D01*
X415613Y151056D01*
X415494Y151053D01*
X415455Y151041D01*
X415415Y151038D01*
X415303Y150997D01*
X415188Y150964D01*
X415154Y150944D01*
X415115Y150930D01*
X415017Y150863D01*
X414914Y150803D01*
X414869Y150763D01*
X414852Y150751D01*
X414839Y150736D01*
X414793Y150696D01*
X409511Y145414D01*
X382565Y145414D01*
X382467Y145402D01*
X382368Y145399D01*
X382310Y145382D01*
X382250Y145374D01*
X382158Y145338D01*
X382062Y145310D01*
X382010Y145280D01*
X381954Y145257D01*
X381874Y145199D01*
X381789Y145149D01*
X381713Y145083D01*
X381697Y145071D01*
X381689Y145061D01*
X381668Y145042D01*
X380913Y144288D01*
X378497Y143287D01*
X375883Y143287D01*
X373467Y144288D01*
X372712Y145042D01*
X372634Y145103D01*
X372562Y145171D01*
X372509Y145200D01*
X372461Y145237D01*
X372370Y145277D01*
X372283Y145325D01*
X372225Y145340D01*
X372169Y145364D01*
X372071Y145379D01*
X371975Y145404D01*
X371875Y145410D01*
X371855Y145414D01*
X371843Y145412D01*
X371815Y145414D01*
X313055Y145414D01*
X312937Y145399D01*
X312818Y145392D01*
X312780Y145379D01*
X312739Y145374D01*
X312629Y145331D01*
X312516Y145294D01*
X312481Y145272D01*
X312444Y145257D01*
X312348Y145188D01*
X312247Y145124D01*
X312219Y145094D01*
X312186Y145071D01*
X312110Y144979D01*
X312029Y144892D01*
X312009Y144857D01*
X311984Y144826D01*
X311933Y144718D01*
X311875Y144614D01*
X311865Y144574D01*
X311848Y144538D01*
X311826Y144421D01*
X311796Y144306D01*
X311792Y144246D01*
X311788Y144226D01*
X311790Y144205D01*
X311786Y144145D01*
X311786Y136589D01*
X306641Y131444D01*
X303825Y131444D01*
X303727Y131432D01*
X303628Y131429D01*
X303570Y131412D01*
X303510Y131404D01*
X303418Y131368D01*
X303323Y131340D01*
X303270Y131310D01*
X303214Y131287D01*
X303134Y131229D01*
X303049Y131179D01*
X302973Y131113D01*
X302957Y131101D01*
X302949Y131091D01*
X302928Y131073D01*
X302173Y130318D01*
X300060Y129443D01*
X299940Y129374D01*
X299816Y129309D01*
X299801Y129295D01*
X299784Y129285D01*
X299684Y129188D01*
X299581Y129095D01*
X299570Y129078D01*
X299555Y129064D01*
X299483Y128946D01*
X299406Y128829D01*
X299400Y128810D01*
X299389Y128793D01*
X299348Y128660D01*
X299303Y128528D01*
X299301Y128508D01*
X299296Y128489D01*
X299289Y128350D01*
X299278Y128211D01*
X299281Y128191D01*
X299280Y128171D01*
X299308Y128035D01*
X299332Y127898D01*
X299341Y127879D01*
X299345Y127860D01*
X299406Y127735D01*
X299463Y127608D01*
X299475Y127592D01*
X299484Y127574D01*
X299575Y127468D01*
X299661Y127360D01*
X299678Y127347D01*
X299691Y127332D01*
X299805Y127252D01*
X299916Y127168D01*
X299941Y127156D01*
X299951Y127149D01*
X299970Y127142D01*
X300060Y127097D01*
X302173Y126222D01*
X304022Y124373D01*
X305023Y121957D01*
X305023Y119343D01*
X304022Y116927D01*
X302173Y115078D01*
X299757Y114077D01*
X297143Y114077D01*
G37*
%LPD*%
%LPC*%
G36*
X327623Y175037D02*
X327623Y175037D01*
X325207Y176038D01*
X323358Y177887D01*
X322357Y180303D01*
X322357Y181370D01*
X322345Y181468D01*
X322342Y181567D01*
X322325Y181625D01*
X322317Y181685D01*
X322281Y181777D01*
X322253Y181872D01*
X322223Y181925D01*
X322200Y181981D01*
X322142Y182061D01*
X322092Y182146D01*
X322026Y182222D01*
X322014Y182238D01*
X322004Y182246D01*
X321986Y182267D01*
X319404Y184849D01*
X319404Y242275D01*
X319392Y242373D01*
X319389Y242472D01*
X319372Y242530D01*
X319364Y242590D01*
X319328Y242682D01*
X319300Y242778D01*
X319270Y242830D01*
X319247Y242886D01*
X319189Y242966D01*
X319139Y243051D01*
X319073Y243127D01*
X319061Y243143D01*
X319051Y243151D01*
X319032Y243172D01*
X318278Y243927D01*
X317277Y246343D01*
X317277Y248957D01*
X318278Y251373D01*
X320127Y253222D01*
X322543Y254223D01*
X325157Y254223D01*
X327573Y253222D01*
X329422Y251373D01*
X330423Y248957D01*
X330423Y246343D01*
X329422Y243927D01*
X328668Y243172D01*
X328607Y243094D01*
X328539Y243022D01*
X328510Y242969D01*
X328473Y242921D01*
X328433Y242830D01*
X328385Y242743D01*
X328370Y242685D01*
X328346Y242629D01*
X328331Y242531D01*
X328306Y242435D01*
X328300Y242335D01*
X328296Y242315D01*
X328298Y242303D01*
X328296Y242275D01*
X328296Y189452D01*
X328311Y189334D01*
X328318Y189215D01*
X328331Y189177D01*
X328336Y189136D01*
X328379Y189026D01*
X328416Y188913D01*
X328438Y188878D01*
X328453Y188841D01*
X328522Y188745D01*
X328586Y188644D01*
X328616Y188616D01*
X328639Y188583D01*
X328731Y188507D01*
X328818Y188426D01*
X328853Y188406D01*
X328884Y188381D01*
X328992Y188330D01*
X329096Y188272D01*
X329136Y188262D01*
X329172Y188245D01*
X329289Y188223D01*
X329404Y188193D01*
X329464Y188189D01*
X329484Y188185D01*
X329505Y188187D01*
X329565Y188183D01*
X330237Y188183D01*
X332653Y187182D01*
X334502Y185333D01*
X335503Y182917D01*
X335503Y180303D01*
X334502Y177887D01*
X332653Y176038D01*
X330237Y175037D01*
X327623Y175037D01*
G37*
%LPD*%
%LPC*%
G36*
X414798Y85089D02*
X414798Y85089D01*
X409197Y87410D01*
X404910Y91697D01*
X402589Y97298D01*
X402589Y103362D01*
X404910Y108963D01*
X409197Y113250D01*
X414798Y115571D01*
X420862Y115571D01*
X426463Y113250D01*
X430750Y108963D01*
X433071Y103362D01*
X433071Y97298D01*
X430750Y91697D01*
X426463Y87410D01*
X420862Y85089D01*
X414798Y85089D01*
G37*
%LPD*%
%LPC*%
G36*
X432194Y123829D02*
X432194Y123829D01*
X428228Y125472D01*
X425192Y128508D01*
X423549Y132474D01*
X423549Y136766D01*
X425192Y140732D01*
X428228Y143768D01*
X432194Y145411D01*
X436486Y145411D01*
X440452Y143768D01*
X443488Y140732D01*
X445131Y136766D01*
X445131Y132474D01*
X443488Y128508D01*
X440452Y125472D01*
X436486Y123829D01*
X432194Y123829D01*
G37*
%LPD*%
%LPC*%
G36*
X337819Y364329D02*
X337819Y364329D01*
X337819Y378013D01*
X338490Y377925D01*
X340568Y377368D01*
X342556Y376544D01*
X344420Y375469D01*
X346127Y374159D01*
X347649Y372637D01*
X348959Y370930D01*
X350034Y369066D01*
X350858Y367078D01*
X351415Y365000D01*
X351503Y364329D01*
X337819Y364329D01*
G37*
%LPD*%
%LPC*%
G36*
X227329Y431829D02*
X227329Y431829D01*
X227329Y445513D01*
X228000Y445425D01*
X230078Y444868D01*
X232066Y444044D01*
X233930Y442969D01*
X235637Y441659D01*
X237159Y440137D01*
X238469Y438430D01*
X239544Y436566D01*
X240368Y434578D01*
X240925Y432500D01*
X241013Y431829D01*
X227329Y431829D01*
G37*
%LPD*%
%LPC*%
G36*
X116839Y431829D02*
X116839Y431829D01*
X116839Y445513D01*
X117510Y445425D01*
X119588Y444868D01*
X121576Y444044D01*
X123440Y442969D01*
X125147Y441659D01*
X126669Y440137D01*
X127979Y438430D01*
X129054Y436566D01*
X129878Y434578D01*
X130435Y432500D01*
X130523Y431829D01*
X116839Y431829D01*
G37*
%LPD*%
%LPC*%
G36*
X337819Y431829D02*
X337819Y431829D01*
X337819Y445513D01*
X338490Y445425D01*
X340568Y444868D01*
X342556Y444044D01*
X344420Y442969D01*
X346127Y441659D01*
X347649Y440137D01*
X348959Y438430D01*
X350034Y436566D01*
X350858Y434578D01*
X351415Y432500D01*
X351503Y431829D01*
X337819Y431829D01*
G37*
%LPD*%
%LPC*%
G36*
X116839Y364329D02*
X116839Y364329D01*
X116839Y378013D01*
X117510Y377925D01*
X119588Y377368D01*
X121576Y376544D01*
X123440Y375469D01*
X125147Y374159D01*
X126669Y372637D01*
X127979Y370930D01*
X129054Y369066D01*
X129878Y367078D01*
X130435Y365000D01*
X130523Y364329D01*
X116839Y364329D01*
G37*
%LPD*%
%LPC*%
G36*
X227329Y364329D02*
X227329Y364329D01*
X227329Y378013D01*
X228000Y377925D01*
X230078Y377368D01*
X232066Y376544D01*
X233930Y375469D01*
X235637Y374159D01*
X237159Y372637D01*
X238469Y370930D01*
X239544Y369066D01*
X240368Y367078D01*
X240925Y365000D01*
X241013Y364329D01*
X227329Y364329D01*
G37*
%LPD*%
%LPC*%
G36*
X227329Y22829D02*
X227329Y22829D01*
X227329Y36513D01*
X228000Y36425D01*
X230078Y35868D01*
X232066Y35044D01*
X233930Y33969D01*
X235637Y32659D01*
X237159Y31137D01*
X238469Y29430D01*
X239544Y27566D01*
X240368Y25578D01*
X240925Y23500D01*
X241013Y22829D01*
X227329Y22829D01*
G37*
%LPD*%
%LPC*%
G36*
X227329Y90329D02*
X227329Y90329D01*
X227329Y104013D01*
X228000Y103925D01*
X230078Y103368D01*
X232066Y102544D01*
X233930Y101469D01*
X235637Y100159D01*
X237159Y98637D01*
X238469Y96930D01*
X239544Y95066D01*
X240368Y93078D01*
X240925Y91000D01*
X241013Y90329D01*
X227329Y90329D01*
G37*
%LPD*%
%LPC*%
G36*
X116839Y90329D02*
X116839Y90329D01*
X116839Y104013D01*
X117510Y103925D01*
X119588Y103368D01*
X121576Y102544D01*
X123440Y101469D01*
X125147Y100159D01*
X126669Y98637D01*
X127979Y96930D01*
X129054Y95066D01*
X129878Y93078D01*
X130435Y91000D01*
X130523Y90329D01*
X116839Y90329D01*
G37*
%LPD*%
%LPC*%
G36*
X337819Y22829D02*
X337819Y22829D01*
X337819Y36513D01*
X338490Y36425D01*
X340568Y35868D01*
X342556Y35044D01*
X344420Y33969D01*
X346127Y32659D01*
X347649Y31137D01*
X348959Y29430D01*
X350034Y27566D01*
X350858Y25578D01*
X351415Y23500D01*
X351503Y22829D01*
X337819Y22829D01*
G37*
%LPD*%
%LPC*%
G36*
X116839Y22829D02*
X116839Y22829D01*
X116839Y36513D01*
X117510Y36425D01*
X119588Y35868D01*
X121576Y35044D01*
X123440Y33969D01*
X125147Y32659D01*
X126669Y31137D01*
X127979Y29430D01*
X129054Y27566D01*
X129878Y25578D01*
X130435Y23500D01*
X130523Y22829D01*
X116839Y22829D01*
G37*
%LPD*%
%LPC*%
G36*
X337819Y90329D02*
X337819Y90329D01*
X337819Y104013D01*
X338490Y103925D01*
X340568Y103368D01*
X342556Y102544D01*
X344420Y101469D01*
X346127Y100159D01*
X347649Y98637D01*
X348959Y96930D01*
X350034Y95066D01*
X350858Y93078D01*
X351415Y91000D01*
X351503Y90329D01*
X337819Y90329D01*
G37*
%LPD*%
%LPC*%
G36*
X208567Y431829D02*
X208567Y431829D01*
X208655Y432499D01*
X209212Y434578D01*
X210036Y436566D01*
X211111Y438430D01*
X212421Y440137D01*
X213943Y441659D01*
X215650Y442969D01*
X217514Y444044D01*
X219502Y444868D01*
X221580Y445425D01*
X222251Y445513D01*
X222251Y431829D01*
X208567Y431829D01*
G37*
%LPD*%
%LPC*%
G36*
X319057Y431829D02*
X319057Y431829D01*
X319145Y432499D01*
X319702Y434578D01*
X320526Y436566D01*
X321601Y438430D01*
X322911Y440137D01*
X324433Y441659D01*
X326140Y442969D01*
X328004Y444044D01*
X329992Y444868D01*
X332070Y445425D01*
X332741Y445513D01*
X332741Y431829D01*
X319057Y431829D01*
G37*
%LPD*%
%LPC*%
G36*
X98077Y431829D02*
X98077Y431829D01*
X98165Y432499D01*
X98722Y434578D01*
X99546Y436566D01*
X100621Y438430D01*
X101931Y440137D01*
X103453Y441659D01*
X105160Y442969D01*
X107024Y444044D01*
X109012Y444868D01*
X111090Y445425D01*
X111761Y445513D01*
X111761Y431829D01*
X98077Y431829D01*
G37*
%LPD*%
%LPC*%
G36*
X319057Y22829D02*
X319057Y22829D01*
X319145Y23499D01*
X319702Y25578D01*
X320526Y27566D01*
X321601Y29430D01*
X322911Y31137D01*
X324433Y32659D01*
X326140Y33969D01*
X328004Y35044D01*
X329992Y35868D01*
X332070Y36425D01*
X332741Y36513D01*
X332741Y22829D01*
X319057Y22829D01*
G37*
%LPD*%
%LPC*%
G36*
X337819Y17751D02*
X337819Y17751D01*
X351503Y17751D01*
X351415Y17080D01*
X350858Y15002D01*
X350034Y13014D01*
X348959Y11150D01*
X347649Y9443D01*
X346127Y7921D01*
X344420Y6611D01*
X342556Y5536D01*
X340568Y4712D01*
X338489Y4155D01*
X337819Y4067D01*
X337819Y17751D01*
G37*
%LPD*%
%LPC*%
G36*
X227329Y17751D02*
X227329Y17751D01*
X241013Y17751D01*
X240925Y17080D01*
X240368Y15002D01*
X239544Y13014D01*
X238469Y11150D01*
X237159Y9443D01*
X235637Y7921D01*
X233930Y6611D01*
X232066Y5536D01*
X230078Y4712D01*
X227999Y4155D01*
X227329Y4067D01*
X227329Y17751D01*
G37*
%LPD*%
%LPC*%
G36*
X116839Y426751D02*
X116839Y426751D01*
X130523Y426751D01*
X130435Y426080D01*
X129878Y424002D01*
X129054Y422014D01*
X127979Y420150D01*
X126669Y418443D01*
X125147Y416921D01*
X123440Y415611D01*
X121576Y414536D01*
X119588Y413712D01*
X117509Y413155D01*
X116839Y413067D01*
X116839Y426751D01*
G37*
%LPD*%
%LPC*%
G36*
X227329Y426751D02*
X227329Y426751D01*
X241013Y426751D01*
X240925Y426080D01*
X240368Y424002D01*
X239544Y422014D01*
X238469Y420150D01*
X237159Y418443D01*
X235637Y416921D01*
X233930Y415611D01*
X232066Y414536D01*
X230078Y413712D01*
X227999Y413155D01*
X227329Y413067D01*
X227329Y426751D01*
G37*
%LPD*%
%LPC*%
G36*
X337819Y426751D02*
X337819Y426751D01*
X351503Y426751D01*
X351415Y426080D01*
X350858Y424002D01*
X350034Y422014D01*
X348959Y420150D01*
X347649Y418443D01*
X346127Y416921D01*
X344420Y415611D01*
X342556Y414536D01*
X340568Y413712D01*
X338489Y413155D01*
X337819Y413067D01*
X337819Y426751D01*
G37*
%LPD*%
%LPC*%
G36*
X116839Y17751D02*
X116839Y17751D01*
X130523Y17751D01*
X130435Y17080D01*
X129878Y15002D01*
X129054Y13014D01*
X127979Y11150D01*
X126669Y9443D01*
X125147Y7921D01*
X123440Y6611D01*
X121576Y5536D01*
X119588Y4712D01*
X117509Y4155D01*
X116839Y4067D01*
X116839Y17751D01*
G37*
%LPD*%
%LPC*%
G36*
X319057Y364329D02*
X319057Y364329D01*
X319145Y364999D01*
X319702Y367078D01*
X320526Y369066D01*
X321601Y370930D01*
X322911Y372637D01*
X324433Y374159D01*
X326140Y375469D01*
X328004Y376544D01*
X329992Y377368D01*
X332070Y377925D01*
X332741Y378013D01*
X332741Y364329D01*
X319057Y364329D01*
G37*
%LPD*%
%LPC*%
G36*
X98077Y364329D02*
X98077Y364329D01*
X98165Y364999D01*
X98722Y367078D01*
X99546Y369066D01*
X100621Y370930D01*
X101931Y372637D01*
X103453Y374159D01*
X105160Y375469D01*
X107024Y376544D01*
X109012Y377368D01*
X111090Y377925D01*
X111761Y378013D01*
X111761Y364329D01*
X98077Y364329D01*
G37*
%LPD*%
%LPC*%
G36*
X208567Y364329D02*
X208567Y364329D01*
X208655Y364999D01*
X209212Y367078D01*
X210036Y369066D01*
X211111Y370930D01*
X212421Y372637D01*
X213943Y374159D01*
X215650Y375469D01*
X217514Y376544D01*
X219502Y377368D01*
X221580Y377925D01*
X222251Y378013D01*
X222251Y364329D01*
X208567Y364329D01*
G37*
%LPD*%
%LPC*%
G36*
X337819Y359251D02*
X337819Y359251D01*
X351503Y359251D01*
X351415Y358580D01*
X350858Y356502D01*
X350034Y354514D01*
X348959Y352650D01*
X347649Y350943D01*
X346127Y349421D01*
X344420Y348111D01*
X342556Y347036D01*
X340568Y346212D01*
X338489Y345655D01*
X337819Y345567D01*
X337819Y359251D01*
G37*
%LPD*%
%LPC*%
G36*
X227329Y359251D02*
X227329Y359251D01*
X241013Y359251D01*
X240925Y358580D01*
X240368Y356502D01*
X239544Y354514D01*
X238469Y352650D01*
X237159Y350943D01*
X235637Y349421D01*
X233930Y348111D01*
X232066Y347036D01*
X230078Y346212D01*
X227999Y345655D01*
X227329Y345567D01*
X227329Y359251D01*
G37*
%LPD*%
%LPC*%
G36*
X116839Y359251D02*
X116839Y359251D01*
X130523Y359251D01*
X130435Y358580D01*
X129878Y356502D01*
X129054Y354514D01*
X127979Y352650D01*
X126669Y350943D01*
X125147Y349421D01*
X123440Y348111D01*
X121576Y347036D01*
X119588Y346212D01*
X117509Y345655D01*
X116839Y345567D01*
X116839Y359251D01*
G37*
%LPD*%
%LPC*%
G36*
X208567Y90329D02*
X208567Y90329D01*
X208655Y90999D01*
X209212Y93078D01*
X210036Y95066D01*
X211111Y96930D01*
X212421Y98637D01*
X213943Y100159D01*
X215650Y101469D01*
X217514Y102544D01*
X219502Y103368D01*
X221580Y103925D01*
X222251Y104013D01*
X222251Y90329D01*
X208567Y90329D01*
G37*
%LPD*%
%LPC*%
G36*
X98077Y90329D02*
X98077Y90329D01*
X98165Y90999D01*
X98722Y93078D01*
X99546Y95066D01*
X100621Y96930D01*
X101931Y98637D01*
X103453Y100159D01*
X105160Y101469D01*
X107024Y102544D01*
X109012Y103368D01*
X111090Y103925D01*
X111761Y104013D01*
X111761Y90329D01*
X98077Y90329D01*
G37*
%LPD*%
%LPC*%
G36*
X319057Y90329D02*
X319057Y90329D01*
X319145Y90999D01*
X319702Y93078D01*
X320526Y95066D01*
X321601Y96930D01*
X322911Y98637D01*
X324433Y100159D01*
X326140Y101469D01*
X328004Y102544D01*
X329992Y103368D01*
X332070Y103925D01*
X332741Y104013D01*
X332741Y90329D01*
X319057Y90329D01*
G37*
%LPD*%
%LPC*%
G36*
X337819Y85251D02*
X337819Y85251D01*
X351503Y85251D01*
X351415Y84580D01*
X350858Y82502D01*
X350034Y80514D01*
X348959Y78650D01*
X347649Y76943D01*
X346127Y75421D01*
X344420Y74111D01*
X342556Y73036D01*
X340568Y72212D01*
X338489Y71655D01*
X337819Y71567D01*
X337819Y85251D01*
G37*
%LPD*%
%LPC*%
G36*
X227329Y85251D02*
X227329Y85251D01*
X241013Y85251D01*
X240925Y84580D01*
X240368Y82502D01*
X239544Y80514D01*
X238469Y78650D01*
X237159Y76943D01*
X235637Y75421D01*
X233930Y74111D01*
X232066Y73036D01*
X230078Y72212D01*
X227999Y71655D01*
X227329Y71567D01*
X227329Y85251D01*
G37*
%LPD*%
%LPC*%
G36*
X116839Y85251D02*
X116839Y85251D01*
X130523Y85251D01*
X130435Y84580D01*
X129878Y82502D01*
X129054Y80514D01*
X127979Y78650D01*
X126669Y76943D01*
X125147Y75421D01*
X123440Y74111D01*
X121576Y73036D01*
X119588Y72212D01*
X117509Y71655D01*
X116839Y71567D01*
X116839Y85251D01*
G37*
%LPD*%
%LPC*%
G36*
X98077Y22829D02*
X98077Y22829D01*
X98165Y23499D01*
X98722Y25578D01*
X99546Y27566D01*
X100621Y29430D01*
X101931Y31137D01*
X103453Y32659D01*
X105160Y33969D01*
X107024Y35044D01*
X109012Y35868D01*
X111090Y36425D01*
X111761Y36513D01*
X111761Y22829D01*
X98077Y22829D01*
G37*
%LPD*%
%LPC*%
G36*
X208567Y22829D02*
X208567Y22829D01*
X208655Y23499D01*
X209212Y25578D01*
X210036Y27566D01*
X211111Y29430D01*
X212421Y31137D01*
X213943Y32659D01*
X215650Y33969D01*
X217514Y35044D01*
X219502Y35868D01*
X221580Y36425D01*
X222251Y36513D01*
X222251Y22829D01*
X208567Y22829D01*
G37*
%LPD*%
%LPC*%
G36*
X332071Y413155D02*
X332071Y413155D01*
X329992Y413712D01*
X328004Y414536D01*
X326140Y415611D01*
X324433Y416921D01*
X322911Y418443D01*
X321601Y420150D01*
X320526Y422014D01*
X319702Y424002D01*
X319145Y426081D01*
X319057Y426751D01*
X332741Y426751D01*
X332741Y413067D01*
X332071Y413155D01*
G37*
%LPD*%
%LPC*%
G36*
X221581Y413155D02*
X221581Y413155D01*
X219502Y413712D01*
X217514Y414536D01*
X215650Y415611D01*
X213943Y416921D01*
X212421Y418443D01*
X211111Y420150D01*
X210036Y422014D01*
X209212Y424002D01*
X208655Y426081D01*
X208567Y426751D01*
X222251Y426751D01*
X222251Y413067D01*
X221581Y413155D01*
G37*
%LPD*%
%LPC*%
G36*
X111091Y71655D02*
X111091Y71655D01*
X109012Y72212D01*
X107024Y73036D01*
X105160Y74111D01*
X103453Y75421D01*
X101931Y76943D01*
X100621Y78650D01*
X99546Y80514D01*
X98722Y82502D01*
X98165Y84581D01*
X98077Y85251D01*
X111761Y85251D01*
X111761Y71567D01*
X111091Y71655D01*
G37*
%LPD*%
%LPC*%
G36*
X111091Y345655D02*
X111091Y345655D01*
X109012Y346212D01*
X107024Y347036D01*
X105160Y348111D01*
X103453Y349421D01*
X101931Y350943D01*
X100621Y352650D01*
X99546Y354514D01*
X98722Y356502D01*
X98165Y358581D01*
X98077Y359251D01*
X111761Y359251D01*
X111761Y345567D01*
X111091Y345655D01*
G37*
%LPD*%
%LPC*%
G36*
X332071Y71655D02*
X332071Y71655D01*
X329992Y72212D01*
X328004Y73036D01*
X326140Y74111D01*
X324433Y75421D01*
X322911Y76943D01*
X321601Y78650D01*
X320526Y80514D01*
X319702Y82502D01*
X319145Y84581D01*
X319057Y85251D01*
X332741Y85251D01*
X332741Y71567D01*
X332071Y71655D01*
G37*
%LPD*%
%LPC*%
G36*
X221581Y345655D02*
X221581Y345655D01*
X219502Y346212D01*
X217514Y347036D01*
X215650Y348111D01*
X213943Y349421D01*
X212421Y350943D01*
X211111Y352650D01*
X210036Y354514D01*
X209212Y356502D01*
X208655Y358581D01*
X208567Y359251D01*
X222251Y359251D01*
X222251Y345567D01*
X221581Y345655D01*
G37*
%LPD*%
%LPC*%
G36*
X221581Y71655D02*
X221581Y71655D01*
X219502Y72212D01*
X217514Y73036D01*
X215650Y74111D01*
X213943Y75421D01*
X212421Y76943D01*
X211111Y78650D01*
X210036Y80514D01*
X209212Y82502D01*
X208655Y84581D01*
X208567Y85251D01*
X222251Y85251D01*
X222251Y71567D01*
X221581Y71655D01*
G37*
%LPD*%
%LPC*%
G36*
X111091Y413155D02*
X111091Y413155D01*
X109012Y413712D01*
X107024Y414536D01*
X105160Y415611D01*
X103453Y416921D01*
X101931Y418443D01*
X100621Y420150D01*
X99546Y422014D01*
X98722Y424002D01*
X98165Y426081D01*
X98077Y426751D01*
X111761Y426751D01*
X111761Y413067D01*
X111091Y413155D01*
G37*
%LPD*%
%LPC*%
G36*
X332071Y345655D02*
X332071Y345655D01*
X329992Y346212D01*
X328004Y347036D01*
X326140Y348111D01*
X324433Y349421D01*
X322911Y350943D01*
X321601Y352650D01*
X320526Y354514D01*
X319702Y356502D01*
X319145Y358581D01*
X319057Y359251D01*
X332741Y359251D01*
X332741Y345567D01*
X332071Y345655D01*
G37*
%LPD*%
%LPC*%
G36*
X111091Y4155D02*
X111091Y4155D01*
X109012Y4712D01*
X107024Y5536D01*
X105160Y6611D01*
X103453Y7921D01*
X101931Y9443D01*
X100621Y11150D01*
X99546Y13014D01*
X98722Y15002D01*
X98165Y17081D01*
X98077Y17751D01*
X111761Y17751D01*
X111761Y4067D01*
X111091Y4155D01*
G37*
%LPD*%
%LPC*%
G36*
X332071Y4155D02*
X332071Y4155D01*
X329992Y4712D01*
X328004Y5536D01*
X326140Y6611D01*
X324433Y7921D01*
X322911Y9443D01*
X321601Y11150D01*
X320526Y13014D01*
X319702Y15002D01*
X319145Y17081D01*
X319057Y17751D01*
X332741Y17751D01*
X332741Y4067D01*
X332071Y4155D01*
G37*
%LPD*%
%LPC*%
G36*
X221581Y4155D02*
X221581Y4155D01*
X219502Y4712D01*
X217514Y5536D01*
X215650Y6611D01*
X213943Y7921D01*
X212421Y9443D01*
X211111Y11150D01*
X210036Y13014D01*
X209212Y15002D01*
X208655Y17081D01*
X208567Y17751D01*
X222251Y17751D01*
X222251Y4067D01*
X221581Y4155D01*
G37*
%LPD*%
%LPC*%
G36*
X436879Y340359D02*
X436879Y340359D01*
X436879Y348341D01*
X438482Y347820D01*
X439996Y347049D01*
X441370Y346051D01*
X442571Y344850D01*
X443569Y343476D01*
X444340Y341962D01*
X444861Y340359D01*
X436879Y340359D01*
G37*
%LPD*%
%LPC*%
G36*
X423819Y340359D02*
X423819Y340359D01*
X424340Y341962D01*
X425111Y343476D01*
X426109Y344850D01*
X427310Y346051D01*
X428684Y347049D01*
X430198Y347820D01*
X431801Y348341D01*
X431801Y340359D01*
X423819Y340359D01*
G37*
%LPD*%
%LPC*%
G36*
X224789Y429289D02*
X224789Y429289D01*
X224789Y429291D01*
X224791Y429291D01*
X224791Y429289D01*
X224789Y429289D01*
G37*
%LPD*%
%LPC*%
G36*
X114299Y429289D02*
X114299Y429289D01*
X114299Y429291D01*
X114301Y429291D01*
X114301Y429289D01*
X114299Y429289D01*
G37*
%LPD*%
%LPC*%
G36*
X335279Y87789D02*
X335279Y87789D01*
X335279Y87791D01*
X335281Y87791D01*
X335281Y87789D01*
X335279Y87789D01*
G37*
%LPD*%
%LPC*%
G36*
X114299Y361789D02*
X114299Y361789D01*
X114299Y361791D01*
X114301Y361791D01*
X114301Y361789D01*
X114299Y361789D01*
G37*
%LPD*%
%LPC*%
G36*
X335279Y361789D02*
X335279Y361789D01*
X335279Y361791D01*
X335281Y361791D01*
X335281Y361789D01*
X335279Y361789D01*
G37*
%LPD*%
%LPC*%
G36*
X335279Y429289D02*
X335279Y429289D01*
X335279Y429291D01*
X335281Y429291D01*
X335281Y429289D01*
X335279Y429289D01*
G37*
%LPD*%
%LPC*%
G36*
X224789Y361789D02*
X224789Y361789D01*
X224789Y361791D01*
X224791Y361791D01*
X224791Y361789D01*
X224789Y361789D01*
G37*
%LPD*%
%LPC*%
G36*
X224789Y20289D02*
X224789Y20289D01*
X224789Y20291D01*
X224791Y20291D01*
X224791Y20289D01*
X224789Y20289D01*
G37*
%LPD*%
%LPC*%
G36*
X114299Y20289D02*
X114299Y20289D01*
X114299Y20291D01*
X114301Y20291D01*
X114301Y20289D01*
X114299Y20289D01*
G37*
%LPD*%
%LPC*%
G36*
X224789Y87789D02*
X224789Y87789D01*
X224789Y87791D01*
X224791Y87791D01*
X224791Y87789D01*
X224789Y87789D01*
G37*
%LPD*%
%LPC*%
G36*
X114299Y87789D02*
X114299Y87789D01*
X114299Y87791D01*
X114301Y87791D01*
X114301Y87789D01*
X114299Y87789D01*
G37*
%LPD*%
%LPC*%
G36*
X335279Y20289D02*
X335279Y20289D01*
X335279Y20291D01*
X335281Y20291D01*
X335281Y20289D01*
X335279Y20289D01*
G37*
%LPD*%
D10*
X434340Y337820D03*
X434340Y134620D03*
D11*
X114300Y361790D03*
X114300Y87790D03*
X114300Y429290D03*
X114300Y20290D03*
X224790Y361790D03*
X224790Y87790D03*
X224790Y429290D03*
X224790Y20290D03*
X335280Y361790D03*
X335280Y87790D03*
X335280Y429290D03*
X335280Y20290D03*
D10*
X39370Y438150D03*
X39370Y412750D03*
X39370Y387350D03*
X13970Y438150D03*
X13970Y412750D03*
X13970Y387350D03*
D12*
X295910Y326390D03*
D13*
X332740Y257810D03*
X254000Y304800D03*
D12*
X298450Y166370D03*
X328930Y166370D03*
X420370Y143510D03*
X420370Y217170D03*
X420370Y250190D03*
X420370Y269240D03*
X336550Y217170D03*
D13*
X78740Y327660D03*
D14*
X87630Y327660D01*
D13*
X229870Y124460D03*
D12*
X298450Y151130D03*
X298450Y120650D03*
D15*
X298450Y151130D02*
X292100Y151130D01*
X289560Y148590D01*
X289560Y135890D01*
X289560Y124460D01*
X293370Y120650D02*
X298450Y120650D01*
X293370Y120650D02*
X289560Y124460D01*
D13*
X361950Y273050D03*
D16*
X361652Y272752D01*
X304800Y272752D01*
X260052Y272752D01*
X229870Y242570D01*
X229870Y135890D01*
X229870Y124460D01*
D15*
X229870Y135890D02*
X289560Y135890D01*
D12*
X420370Y201930D03*
D15*
X369570Y201930D01*
X361950Y209550D02*
X361950Y273050D01*
X361950Y209550D02*
X369570Y201930D01*
D13*
X304800Y299720D03*
D14*
X304800Y272752D01*
D12*
X328930Y181610D03*
X323850Y247650D03*
D15*
X323850Y186690D01*
X328930Y181610D01*
D12*
X90170Y120650D03*
D15*
X86360Y124460D01*
D12*
X67310Y327660D03*
D15*
X86360Y316230D02*
X86360Y124460D01*
X86360Y316230D02*
X84677Y317913D01*
X73247Y317913D02*
X67310Y323850D01*
X67310Y327660D01*
X73247Y317913D02*
X84677Y317913D01*
D12*
X298450Y135890D03*
X377190Y149860D03*
X278130Y179070D03*
D15*
X302260Y179070D02*
X307340Y173990D01*
X307340Y138430D02*
X304800Y135890D01*
X298450Y135890D01*
X302260Y179070D02*
X278130Y179070D01*
X307340Y173990D02*
X307340Y149860D01*
X307340Y138430D01*
X307340Y149860D02*
X377190Y149860D01*
D12*
X420370Y156210D03*
D15*
X407670Y149860D02*
X377190Y149860D01*
X407670Y149860D02*
X414020Y156210D01*
X420370Y156210D01*
D13*
X388620Y365760D03*
D17*
X0Y59690D02*
X59690Y59690D01*
X59690Y0D01*
X449580Y0D01*
X449580Y389890D01*
X389890Y389890D01*
X389890Y449580D01*
X0Y449580D01*
X0Y59690D01*
X433070Y99786D02*
X432992Y98700D01*
X432837Y97622D01*
X432606Y96559D01*
X432299Y95514D01*
X431919Y94494D01*
X431467Y93504D01*
X430945Y92549D01*
X430356Y91633D01*
X429704Y90761D01*
X428991Y89939D01*
X428221Y89169D01*
X427399Y88456D01*
X426527Y87804D01*
X425611Y87215D01*
X424656Y86693D01*
X423666Y86241D01*
X422646Y85861D01*
X421601Y85554D01*
X420538Y85323D01*
X419460Y85168D01*
X418374Y85090D01*
X417286Y85090D01*
X416200Y85168D01*
X415122Y85323D01*
X414059Y85554D01*
X413014Y85861D01*
X411994Y86241D01*
X411004Y86693D01*
X410049Y87215D01*
X409133Y87804D01*
X408261Y88456D01*
X407439Y89169D01*
X406669Y89939D01*
X405956Y90761D01*
X405304Y91633D01*
X404715Y92549D01*
X404193Y93504D01*
X403741Y94494D01*
X403361Y95514D01*
X403054Y96559D01*
X402823Y97622D01*
X402668Y98700D01*
X402590Y99786D01*
X402590Y100874D01*
X402668Y101960D01*
X402823Y103038D01*
X403054Y104101D01*
X403361Y105146D01*
X403741Y106166D01*
X404193Y107156D01*
X404715Y108111D01*
X405304Y109027D01*
X405956Y109899D01*
X406669Y110721D01*
X407439Y111491D01*
X408261Y112204D01*
X409133Y112856D01*
X410049Y113445D01*
X411004Y113967D01*
X411994Y114419D01*
X413014Y114799D01*
X414059Y115106D01*
X415122Y115337D01*
X416200Y115492D01*
X417286Y115570D01*
X418374Y115570D01*
X419460Y115492D01*
X420538Y115337D01*
X421601Y115106D01*
X422646Y114799D01*
X423666Y114419D01*
X424656Y113967D01*
X425611Y113445D01*
X426527Y112856D01*
X427399Y112204D01*
X428221Y111491D01*
X428991Y110721D01*
X429704Y109899D01*
X430356Y109027D01*
X430945Y108111D01*
X431467Y107156D01*
X431919Y106166D01*
X432299Y105146D01*
X432606Y104101D01*
X432837Y103038D01*
X432992Y101960D01*
X433070Y100874D01*
X433070Y99786D01*
X48260Y349976D02*
X48182Y348890D01*
X48027Y347812D01*
X47796Y346749D01*
X47489Y345704D01*
X47109Y344684D01*
X46657Y343694D01*
X46135Y342739D01*
X45546Y341823D01*
X44894Y340951D01*
X44181Y340129D01*
X43411Y339359D01*
X42589Y338646D01*
X41717Y337994D01*
X40801Y337405D01*
X39846Y336883D01*
X38856Y336431D01*
X37836Y336051D01*
X36791Y335744D01*
X35728Y335513D01*
X34650Y335358D01*
X33564Y335280D01*
X32476Y335280D01*
X31390Y335358D01*
X30312Y335513D01*
X29249Y335744D01*
X28204Y336051D01*
X27184Y336431D01*
X26194Y336883D01*
X25239Y337405D01*
X24323Y337994D01*
X23451Y338646D01*
X22629Y339359D01*
X21859Y340129D01*
X21146Y340951D01*
X20494Y341823D01*
X19905Y342739D01*
X19383Y343694D01*
X18931Y344684D01*
X18551Y345704D01*
X18244Y346749D01*
X18013Y347812D01*
X17858Y348890D01*
X17780Y349976D01*
X17780Y351064D01*
X17858Y352150D01*
X18013Y353228D01*
X18244Y354291D01*
X18551Y355336D01*
X18931Y356356D01*
X19383Y357346D01*
X19905Y358301D01*
X20494Y359217D01*
X21146Y360089D01*
X21859Y360911D01*
X22629Y361681D01*
X23451Y362394D01*
X24323Y363046D01*
X25239Y363635D01*
X26194Y364157D01*
X27184Y364609D01*
X28204Y364989D01*
X29249Y365296D01*
X30312Y365527D01*
X31390Y365682D01*
X32476Y365760D01*
X33564Y365760D01*
X34650Y365682D01*
X35728Y365527D01*
X36791Y365296D01*
X37836Y364989D01*
X38856Y364609D01*
X39846Y364157D01*
X40801Y363635D01*
X41717Y363046D01*
X42589Y362394D01*
X43411Y361681D01*
X44181Y360911D01*
X44894Y360089D01*
X45546Y359217D01*
X46135Y358301D01*
X46657Y357346D01*
X47109Y356356D01*
X47489Y355336D01*
X47796Y354291D01*
X48027Y353228D01*
X48182Y352150D01*
X48260Y351064D01*
X48260Y349976D01*
M02*
