G04 EAGLE Gerber RS-274X export*
G75*
%MOMM*%
%FSLAX34Y34*%
%LPD*%
%INSilkscreen Bottom*%
%IPPOS*%
%AMOC8*
5,1,8,0,0,1.08239X$1,22.5*%
G01*
%ADD10C,0.101600*%
%ADD11C,0.127000*%
%ADD12C,0.200000*%
%ADD13C,0.254000*%


D10*
X62992Y286258D02*
X59746Y286258D01*
X59633Y286260D01*
X59520Y286266D01*
X59407Y286276D01*
X59294Y286290D01*
X59182Y286307D01*
X59071Y286329D01*
X58961Y286354D01*
X58851Y286384D01*
X58743Y286417D01*
X58636Y286454D01*
X58530Y286494D01*
X58426Y286539D01*
X58323Y286587D01*
X58222Y286638D01*
X58123Y286693D01*
X58026Y286751D01*
X57931Y286813D01*
X57838Y286878D01*
X57748Y286946D01*
X57660Y287017D01*
X57574Y287092D01*
X57491Y287169D01*
X57411Y287249D01*
X57334Y287332D01*
X57259Y287418D01*
X57188Y287506D01*
X57120Y287596D01*
X57055Y287689D01*
X56993Y287784D01*
X56935Y287881D01*
X56880Y287980D01*
X56829Y288081D01*
X56781Y288184D01*
X56736Y288288D01*
X56696Y288394D01*
X56659Y288501D01*
X56626Y288609D01*
X56596Y288719D01*
X56571Y288829D01*
X56549Y288940D01*
X56532Y289052D01*
X56518Y289165D01*
X56508Y289278D01*
X56502Y289391D01*
X56500Y289504D01*
X56502Y289617D01*
X56508Y289730D01*
X56518Y289843D01*
X56532Y289956D01*
X56549Y290068D01*
X56571Y290179D01*
X56596Y290289D01*
X56626Y290399D01*
X56659Y290507D01*
X56696Y290614D01*
X56736Y290720D01*
X56781Y290824D01*
X56829Y290927D01*
X56880Y291028D01*
X56935Y291127D01*
X56993Y291224D01*
X57055Y291319D01*
X57120Y291412D01*
X57188Y291502D01*
X57259Y291590D01*
X57334Y291676D01*
X57411Y291759D01*
X57491Y291839D01*
X57574Y291916D01*
X57660Y291991D01*
X57748Y292062D01*
X57838Y292130D01*
X57931Y292195D01*
X58026Y292257D01*
X58123Y292315D01*
X58222Y292370D01*
X58323Y292421D01*
X58426Y292469D01*
X58530Y292514D01*
X58636Y292554D01*
X58743Y292591D01*
X58851Y292624D01*
X58961Y292654D01*
X59071Y292679D01*
X59182Y292701D01*
X59294Y292718D01*
X59407Y292732D01*
X59520Y292742D01*
X59633Y292748D01*
X59746Y292750D01*
X59097Y297942D02*
X62992Y297942D01*
X59097Y297942D02*
X58996Y297940D01*
X58896Y297934D01*
X58796Y297924D01*
X58696Y297911D01*
X58597Y297893D01*
X58498Y297872D01*
X58401Y297847D01*
X58304Y297818D01*
X58209Y297785D01*
X58115Y297749D01*
X58023Y297709D01*
X57932Y297666D01*
X57843Y297619D01*
X57756Y297569D01*
X57670Y297515D01*
X57587Y297458D01*
X57507Y297398D01*
X57428Y297335D01*
X57352Y297268D01*
X57279Y297199D01*
X57209Y297127D01*
X57141Y297053D01*
X57076Y296976D01*
X57015Y296896D01*
X56956Y296814D01*
X56901Y296730D01*
X56849Y296644D01*
X56800Y296556D01*
X56755Y296466D01*
X56713Y296374D01*
X56675Y296281D01*
X56641Y296186D01*
X56610Y296091D01*
X56583Y295994D01*
X56560Y295896D01*
X56540Y295797D01*
X56525Y295697D01*
X56513Y295597D01*
X56505Y295497D01*
X56501Y295396D01*
X56501Y295296D01*
X56505Y295195D01*
X56513Y295095D01*
X56525Y294995D01*
X56540Y294895D01*
X56560Y294796D01*
X56583Y294698D01*
X56610Y294601D01*
X56641Y294506D01*
X56675Y294411D01*
X56713Y294318D01*
X56755Y294226D01*
X56800Y294136D01*
X56849Y294048D01*
X56901Y293962D01*
X56956Y293878D01*
X57015Y293796D01*
X57076Y293716D01*
X57141Y293639D01*
X57209Y293565D01*
X57279Y293493D01*
X57352Y293424D01*
X57428Y293357D01*
X57507Y293294D01*
X57587Y293234D01*
X57670Y293177D01*
X57756Y293123D01*
X57843Y293073D01*
X57932Y293026D01*
X58023Y292983D01*
X58115Y292943D01*
X58209Y292907D01*
X58304Y292874D01*
X58401Y292845D01*
X58498Y292820D01*
X58597Y292799D01*
X58696Y292781D01*
X58796Y292768D01*
X58896Y292758D01*
X58996Y292752D01*
X59097Y292750D01*
X59097Y292749D02*
X61694Y292749D01*
X52211Y297942D02*
X48316Y286258D01*
X44422Y297942D01*
X40132Y286258D02*
X36887Y286258D01*
X36774Y286260D01*
X36661Y286266D01*
X36548Y286276D01*
X36435Y286290D01*
X36323Y286307D01*
X36212Y286329D01*
X36102Y286354D01*
X35992Y286384D01*
X35884Y286417D01*
X35777Y286454D01*
X35671Y286494D01*
X35567Y286539D01*
X35464Y286587D01*
X35363Y286638D01*
X35264Y286693D01*
X35167Y286751D01*
X35072Y286813D01*
X34979Y286878D01*
X34889Y286946D01*
X34801Y287017D01*
X34715Y287092D01*
X34632Y287169D01*
X34552Y287249D01*
X34475Y287332D01*
X34400Y287418D01*
X34329Y287506D01*
X34261Y287596D01*
X34196Y287689D01*
X34134Y287784D01*
X34076Y287881D01*
X34021Y287980D01*
X33970Y288081D01*
X33922Y288184D01*
X33877Y288288D01*
X33837Y288394D01*
X33800Y288501D01*
X33767Y288609D01*
X33737Y288719D01*
X33712Y288829D01*
X33690Y288940D01*
X33673Y289052D01*
X33659Y289165D01*
X33649Y289278D01*
X33643Y289391D01*
X33641Y289504D01*
X33643Y289617D01*
X33649Y289730D01*
X33659Y289843D01*
X33673Y289956D01*
X33690Y290068D01*
X33712Y290179D01*
X33737Y290289D01*
X33767Y290399D01*
X33800Y290507D01*
X33837Y290614D01*
X33877Y290720D01*
X33922Y290824D01*
X33970Y290927D01*
X34021Y291028D01*
X34076Y291127D01*
X34134Y291224D01*
X34196Y291319D01*
X34261Y291412D01*
X34329Y291502D01*
X34400Y291590D01*
X34475Y291676D01*
X34552Y291759D01*
X34632Y291839D01*
X34715Y291916D01*
X34801Y291991D01*
X34889Y292062D01*
X34979Y292130D01*
X35072Y292195D01*
X35167Y292257D01*
X35264Y292315D01*
X35363Y292370D01*
X35464Y292421D01*
X35567Y292469D01*
X35671Y292514D01*
X35777Y292554D01*
X35884Y292591D01*
X35992Y292624D01*
X36102Y292654D01*
X36212Y292679D01*
X36323Y292701D01*
X36435Y292718D01*
X36548Y292732D01*
X36661Y292742D01*
X36774Y292748D01*
X36887Y292750D01*
X36237Y297942D02*
X40132Y297942D01*
X36237Y297942D02*
X36136Y297940D01*
X36036Y297934D01*
X35936Y297924D01*
X35836Y297911D01*
X35737Y297893D01*
X35638Y297872D01*
X35541Y297847D01*
X35444Y297818D01*
X35349Y297785D01*
X35255Y297749D01*
X35163Y297709D01*
X35072Y297666D01*
X34983Y297619D01*
X34896Y297569D01*
X34810Y297515D01*
X34727Y297458D01*
X34647Y297398D01*
X34568Y297335D01*
X34492Y297268D01*
X34419Y297199D01*
X34349Y297127D01*
X34281Y297053D01*
X34216Y296976D01*
X34155Y296896D01*
X34096Y296814D01*
X34041Y296730D01*
X33989Y296644D01*
X33940Y296556D01*
X33895Y296466D01*
X33853Y296374D01*
X33815Y296281D01*
X33781Y296186D01*
X33750Y296091D01*
X33723Y295994D01*
X33700Y295896D01*
X33680Y295797D01*
X33665Y295697D01*
X33653Y295597D01*
X33645Y295497D01*
X33641Y295396D01*
X33641Y295296D01*
X33645Y295195D01*
X33653Y295095D01*
X33665Y294995D01*
X33680Y294895D01*
X33700Y294796D01*
X33723Y294698D01*
X33750Y294601D01*
X33781Y294506D01*
X33815Y294411D01*
X33853Y294318D01*
X33895Y294226D01*
X33940Y294136D01*
X33989Y294048D01*
X34041Y293962D01*
X34096Y293878D01*
X34155Y293796D01*
X34216Y293716D01*
X34281Y293639D01*
X34349Y293565D01*
X34419Y293493D01*
X34492Y293424D01*
X34568Y293357D01*
X34647Y293294D01*
X34727Y293234D01*
X34810Y293177D01*
X34896Y293123D01*
X34983Y293073D01*
X35072Y293026D01*
X35163Y292983D01*
X35255Y292943D01*
X35349Y292907D01*
X35444Y292874D01*
X35541Y292845D01*
X35638Y292820D01*
X35737Y292799D01*
X35836Y292781D01*
X35936Y292768D01*
X36036Y292758D01*
X36136Y292752D01*
X36237Y292750D01*
X36237Y292749D02*
X38834Y292749D01*
X56642Y272542D02*
X56642Y260858D01*
X56642Y272542D02*
X53396Y272542D01*
X53283Y272540D01*
X53170Y272534D01*
X53057Y272524D01*
X52944Y272510D01*
X52832Y272493D01*
X52721Y272471D01*
X52611Y272446D01*
X52501Y272416D01*
X52393Y272383D01*
X52286Y272346D01*
X52180Y272306D01*
X52076Y272261D01*
X51973Y272213D01*
X51872Y272162D01*
X51773Y272107D01*
X51676Y272049D01*
X51581Y271987D01*
X51488Y271922D01*
X51398Y271854D01*
X51310Y271783D01*
X51224Y271708D01*
X51141Y271631D01*
X51061Y271551D01*
X50984Y271468D01*
X50909Y271382D01*
X50838Y271294D01*
X50770Y271204D01*
X50705Y271111D01*
X50643Y271016D01*
X50585Y270919D01*
X50530Y270820D01*
X50479Y270719D01*
X50431Y270616D01*
X50386Y270512D01*
X50346Y270406D01*
X50309Y270299D01*
X50276Y270191D01*
X50246Y270081D01*
X50221Y269971D01*
X50199Y269860D01*
X50182Y269748D01*
X50168Y269635D01*
X50158Y269522D01*
X50152Y269409D01*
X50150Y269296D01*
X50152Y269183D01*
X50158Y269070D01*
X50168Y268957D01*
X50182Y268844D01*
X50199Y268732D01*
X50221Y268621D01*
X50246Y268511D01*
X50276Y268401D01*
X50309Y268293D01*
X50346Y268186D01*
X50386Y268080D01*
X50431Y267976D01*
X50479Y267873D01*
X50530Y267772D01*
X50585Y267673D01*
X50643Y267576D01*
X50705Y267481D01*
X50770Y267388D01*
X50838Y267298D01*
X50909Y267210D01*
X50984Y267124D01*
X51061Y267041D01*
X51141Y266961D01*
X51224Y266884D01*
X51310Y266809D01*
X51398Y266738D01*
X51488Y266670D01*
X51581Y266605D01*
X51676Y266543D01*
X51773Y266485D01*
X51872Y266430D01*
X51973Y266379D01*
X52076Y266331D01*
X52180Y266286D01*
X52286Y266246D01*
X52393Y266209D01*
X52501Y266176D01*
X52611Y266146D01*
X52721Y266121D01*
X52832Y266099D01*
X52944Y266082D01*
X53057Y266068D01*
X53170Y266058D01*
X53283Y266052D01*
X53396Y266050D01*
X53396Y266051D02*
X56642Y266051D01*
X52747Y266051D02*
X50151Y260858D01*
X45935Y260858D02*
X38145Y272542D01*
X45935Y272542D02*
X38145Y260858D01*
X64121Y240679D02*
X66068Y240679D01*
X64121Y240679D02*
X64121Y234188D01*
X68016Y234188D01*
X68115Y234190D01*
X68215Y234196D01*
X68314Y234205D01*
X68412Y234218D01*
X68510Y234235D01*
X68608Y234256D01*
X68704Y234281D01*
X68799Y234309D01*
X68893Y234341D01*
X68986Y234376D01*
X69078Y234415D01*
X69168Y234458D01*
X69256Y234503D01*
X69343Y234553D01*
X69427Y234605D01*
X69510Y234661D01*
X69590Y234719D01*
X69668Y234781D01*
X69743Y234846D01*
X69816Y234914D01*
X69886Y234984D01*
X69954Y235057D01*
X70019Y235132D01*
X70081Y235210D01*
X70139Y235290D01*
X70195Y235373D01*
X70247Y235457D01*
X70297Y235544D01*
X70342Y235632D01*
X70385Y235722D01*
X70424Y235814D01*
X70459Y235907D01*
X70491Y236001D01*
X70519Y236096D01*
X70544Y236192D01*
X70565Y236290D01*
X70582Y236388D01*
X70595Y236486D01*
X70604Y236585D01*
X70610Y236685D01*
X70612Y236784D01*
X70612Y243276D01*
X70610Y243375D01*
X70604Y243475D01*
X70595Y243574D01*
X70582Y243672D01*
X70565Y243770D01*
X70544Y243868D01*
X70519Y243964D01*
X70491Y244059D01*
X70459Y244153D01*
X70424Y244246D01*
X70385Y244338D01*
X70342Y244428D01*
X70297Y244516D01*
X70247Y244603D01*
X70195Y244687D01*
X70139Y244770D01*
X70081Y244850D01*
X70019Y244928D01*
X69954Y245003D01*
X69886Y245076D01*
X69816Y245146D01*
X69743Y245214D01*
X69668Y245279D01*
X69590Y245341D01*
X69510Y245399D01*
X69427Y245455D01*
X69343Y245507D01*
X69256Y245557D01*
X69168Y245602D01*
X69078Y245645D01*
X68986Y245684D01*
X68893Y245719D01*
X68799Y245751D01*
X68704Y245779D01*
X68608Y245804D01*
X68510Y245825D01*
X68412Y245842D01*
X68314Y245855D01*
X68215Y245864D01*
X68115Y245870D01*
X68016Y245872D01*
X64121Y245872D01*
X58420Y245872D02*
X58420Y234188D01*
X51929Y234188D02*
X58420Y245872D01*
X51929Y245872D02*
X51929Y234188D01*
X46228Y234188D02*
X46228Y245872D01*
X42983Y245872D01*
X42870Y245870D01*
X42757Y245864D01*
X42644Y245854D01*
X42531Y245840D01*
X42419Y245823D01*
X42308Y245801D01*
X42198Y245776D01*
X42088Y245746D01*
X41980Y245713D01*
X41873Y245676D01*
X41767Y245636D01*
X41663Y245591D01*
X41560Y245543D01*
X41459Y245492D01*
X41360Y245437D01*
X41263Y245379D01*
X41168Y245317D01*
X41075Y245252D01*
X40985Y245184D01*
X40897Y245113D01*
X40811Y245038D01*
X40728Y244961D01*
X40648Y244881D01*
X40571Y244798D01*
X40496Y244712D01*
X40425Y244624D01*
X40357Y244534D01*
X40292Y244441D01*
X40230Y244346D01*
X40172Y244249D01*
X40117Y244150D01*
X40066Y244049D01*
X40018Y243946D01*
X39973Y243842D01*
X39933Y243736D01*
X39896Y243629D01*
X39863Y243521D01*
X39833Y243411D01*
X39808Y243301D01*
X39786Y243190D01*
X39769Y243078D01*
X39755Y242965D01*
X39745Y242852D01*
X39739Y242739D01*
X39737Y242626D01*
X39737Y237434D01*
X39739Y237321D01*
X39745Y237208D01*
X39755Y237095D01*
X39769Y236982D01*
X39786Y236870D01*
X39808Y236759D01*
X39833Y236649D01*
X39863Y236539D01*
X39896Y236431D01*
X39933Y236324D01*
X39973Y236218D01*
X40018Y236114D01*
X40066Y236011D01*
X40117Y235910D01*
X40172Y235811D01*
X40230Y235714D01*
X40292Y235619D01*
X40357Y235526D01*
X40425Y235436D01*
X40496Y235348D01*
X40571Y235262D01*
X40648Y235179D01*
X40728Y235099D01*
X40811Y235022D01*
X40897Y234947D01*
X40985Y234876D01*
X41075Y234808D01*
X41168Y234743D01*
X41263Y234681D01*
X41360Y234623D01*
X41459Y234568D01*
X41560Y234517D01*
X41663Y234469D01*
X41767Y234424D01*
X41873Y234384D01*
X41980Y234347D01*
X42088Y234314D01*
X42198Y234284D01*
X42308Y234259D01*
X42419Y234237D01*
X42531Y234220D01*
X42644Y234206D01*
X42757Y234196D01*
X42870Y234190D01*
X42983Y234188D01*
X46228Y234188D01*
X29972Y234188D02*
X29972Y245872D01*
X26726Y245872D01*
X26613Y245870D01*
X26500Y245864D01*
X26387Y245854D01*
X26274Y245840D01*
X26162Y245823D01*
X26051Y245801D01*
X25941Y245776D01*
X25831Y245746D01*
X25723Y245713D01*
X25616Y245676D01*
X25510Y245636D01*
X25406Y245591D01*
X25303Y245543D01*
X25202Y245492D01*
X25103Y245437D01*
X25006Y245379D01*
X24911Y245317D01*
X24818Y245252D01*
X24728Y245184D01*
X24640Y245113D01*
X24554Y245038D01*
X24471Y244961D01*
X24391Y244881D01*
X24314Y244798D01*
X24239Y244712D01*
X24168Y244624D01*
X24100Y244534D01*
X24035Y244441D01*
X23973Y244346D01*
X23915Y244249D01*
X23860Y244150D01*
X23809Y244049D01*
X23761Y243946D01*
X23716Y243842D01*
X23676Y243736D01*
X23639Y243629D01*
X23606Y243521D01*
X23576Y243411D01*
X23551Y243301D01*
X23529Y243190D01*
X23512Y243078D01*
X23498Y242965D01*
X23488Y242852D01*
X23482Y242739D01*
X23480Y242626D01*
X23482Y242513D01*
X23488Y242400D01*
X23498Y242287D01*
X23512Y242174D01*
X23529Y242062D01*
X23551Y241951D01*
X23576Y241841D01*
X23606Y241731D01*
X23639Y241623D01*
X23676Y241516D01*
X23716Y241410D01*
X23761Y241306D01*
X23809Y241203D01*
X23860Y241102D01*
X23915Y241003D01*
X23973Y240906D01*
X24035Y240811D01*
X24100Y240718D01*
X24168Y240628D01*
X24239Y240540D01*
X24314Y240454D01*
X24391Y240371D01*
X24471Y240291D01*
X24554Y240214D01*
X24640Y240139D01*
X24728Y240068D01*
X24818Y240000D01*
X24911Y239935D01*
X25006Y239873D01*
X25103Y239815D01*
X25202Y239760D01*
X25303Y239709D01*
X25406Y239661D01*
X25510Y239616D01*
X25616Y239576D01*
X25723Y239539D01*
X25831Y239506D01*
X25941Y239476D01*
X26051Y239451D01*
X26162Y239429D01*
X26274Y239412D01*
X26387Y239398D01*
X26500Y239388D01*
X26613Y239382D01*
X26726Y239380D01*
X26726Y239381D02*
X29972Y239381D01*
X26077Y239381D02*
X23481Y234188D01*
X15102Y234188D02*
X15003Y234190D01*
X14903Y234196D01*
X14804Y234205D01*
X14706Y234218D01*
X14608Y234235D01*
X14510Y234256D01*
X14414Y234281D01*
X14319Y234309D01*
X14225Y234341D01*
X14132Y234376D01*
X14040Y234415D01*
X13950Y234458D01*
X13862Y234503D01*
X13775Y234553D01*
X13691Y234605D01*
X13608Y234661D01*
X13528Y234719D01*
X13450Y234781D01*
X13375Y234846D01*
X13302Y234914D01*
X13232Y234984D01*
X13164Y235057D01*
X13099Y235132D01*
X13037Y235210D01*
X12979Y235290D01*
X12923Y235373D01*
X12871Y235457D01*
X12821Y235544D01*
X12776Y235632D01*
X12733Y235722D01*
X12694Y235814D01*
X12659Y235907D01*
X12627Y236001D01*
X12599Y236096D01*
X12574Y236192D01*
X12553Y236290D01*
X12536Y236388D01*
X12523Y236486D01*
X12514Y236585D01*
X12508Y236685D01*
X12506Y236784D01*
X15102Y234188D02*
X15246Y234190D01*
X15391Y234196D01*
X15535Y234205D01*
X15678Y234218D01*
X15822Y234235D01*
X15965Y234256D01*
X16107Y234281D01*
X16248Y234309D01*
X16389Y234341D01*
X16529Y234377D01*
X16668Y234416D01*
X16806Y234459D01*
X16942Y234506D01*
X17078Y234556D01*
X17212Y234610D01*
X17344Y234667D01*
X17475Y234728D01*
X17604Y234792D01*
X17732Y234860D01*
X17858Y234931D01*
X17982Y235005D01*
X18103Y235082D01*
X18223Y235163D01*
X18341Y235246D01*
X18456Y235333D01*
X18569Y235423D01*
X18680Y235516D01*
X18788Y235611D01*
X18894Y235710D01*
X18997Y235811D01*
X18672Y243276D02*
X18670Y243375D01*
X18664Y243475D01*
X18655Y243574D01*
X18642Y243672D01*
X18625Y243770D01*
X18604Y243868D01*
X18579Y243964D01*
X18551Y244059D01*
X18519Y244153D01*
X18484Y244246D01*
X18445Y244338D01*
X18402Y244428D01*
X18357Y244516D01*
X18307Y244603D01*
X18255Y244687D01*
X18199Y244770D01*
X18141Y244850D01*
X18079Y244928D01*
X18014Y245003D01*
X17946Y245076D01*
X17876Y245146D01*
X17803Y245214D01*
X17728Y245279D01*
X17650Y245341D01*
X17570Y245399D01*
X17487Y245455D01*
X17403Y245507D01*
X17316Y245557D01*
X17228Y245602D01*
X17138Y245645D01*
X17046Y245684D01*
X16953Y245719D01*
X16859Y245751D01*
X16764Y245779D01*
X16668Y245804D01*
X16570Y245825D01*
X16472Y245842D01*
X16374Y245855D01*
X16275Y245864D01*
X16175Y245870D01*
X16076Y245872D01*
X15940Y245870D01*
X15804Y245864D01*
X15668Y245855D01*
X15532Y245842D01*
X15397Y245824D01*
X15263Y245804D01*
X15129Y245779D01*
X14995Y245751D01*
X14863Y245718D01*
X14732Y245683D01*
X14601Y245643D01*
X14472Y245600D01*
X14344Y245554D01*
X14218Y245503D01*
X14092Y245450D01*
X13969Y245392D01*
X13847Y245332D01*
X13727Y245268D01*
X13608Y245200D01*
X13492Y245130D01*
X13378Y245056D01*
X13265Y244979D01*
X13155Y244898D01*
X17374Y241004D02*
X17460Y241057D01*
X17544Y241114D01*
X17626Y241173D01*
X17706Y241236D01*
X17783Y241302D01*
X17858Y241370D01*
X17930Y241442D01*
X17999Y241516D01*
X18065Y241593D01*
X18128Y241672D01*
X18188Y241754D01*
X18245Y241838D01*
X18299Y241924D01*
X18349Y242012D01*
X18396Y242102D01*
X18440Y242193D01*
X18479Y242287D01*
X18516Y242381D01*
X18548Y242477D01*
X18577Y242575D01*
X18602Y242673D01*
X18623Y242772D01*
X18641Y242872D01*
X18654Y242972D01*
X18664Y243073D01*
X18670Y243175D01*
X18672Y243276D01*
X13804Y239056D02*
X13718Y239003D01*
X13634Y238946D01*
X13552Y238887D01*
X13472Y238824D01*
X13395Y238758D01*
X13320Y238690D01*
X13248Y238618D01*
X13179Y238544D01*
X13113Y238467D01*
X13050Y238388D01*
X12990Y238306D01*
X12933Y238222D01*
X12879Y238136D01*
X12829Y238048D01*
X12782Y237958D01*
X12738Y237867D01*
X12699Y237773D01*
X12662Y237679D01*
X12630Y237583D01*
X12601Y237485D01*
X12576Y237387D01*
X12555Y237288D01*
X12537Y237188D01*
X12524Y237088D01*
X12514Y236987D01*
X12508Y236885D01*
X12506Y236784D01*
X13804Y239056D02*
X17374Y241004D01*
X25456Y260858D02*
X25456Y272542D01*
X22211Y272542D02*
X28702Y272542D01*
X18683Y260858D02*
X10894Y272542D01*
X18683Y272542D02*
X10894Y260858D01*
X23481Y292749D02*
X25428Y292749D01*
X23481Y292749D02*
X23481Y286258D01*
X27376Y286258D01*
X27475Y286260D01*
X27575Y286266D01*
X27674Y286275D01*
X27772Y286288D01*
X27870Y286305D01*
X27968Y286326D01*
X28064Y286351D01*
X28159Y286379D01*
X28253Y286411D01*
X28346Y286446D01*
X28438Y286485D01*
X28528Y286528D01*
X28616Y286573D01*
X28703Y286623D01*
X28787Y286675D01*
X28870Y286731D01*
X28950Y286789D01*
X29028Y286851D01*
X29103Y286916D01*
X29176Y286984D01*
X29246Y287054D01*
X29314Y287127D01*
X29379Y287202D01*
X29441Y287280D01*
X29499Y287360D01*
X29555Y287443D01*
X29607Y287527D01*
X29657Y287614D01*
X29702Y287702D01*
X29745Y287792D01*
X29784Y287884D01*
X29819Y287977D01*
X29851Y288071D01*
X29879Y288166D01*
X29904Y288262D01*
X29925Y288360D01*
X29942Y288458D01*
X29955Y288556D01*
X29964Y288655D01*
X29970Y288755D01*
X29972Y288854D01*
X29972Y295346D01*
X29970Y295445D01*
X29964Y295545D01*
X29955Y295644D01*
X29942Y295742D01*
X29925Y295840D01*
X29904Y295938D01*
X29879Y296034D01*
X29851Y296129D01*
X29819Y296223D01*
X29784Y296316D01*
X29745Y296408D01*
X29702Y296498D01*
X29657Y296586D01*
X29607Y296673D01*
X29555Y296757D01*
X29499Y296840D01*
X29441Y296920D01*
X29379Y296998D01*
X29314Y297073D01*
X29246Y297146D01*
X29176Y297216D01*
X29103Y297284D01*
X29028Y297349D01*
X28950Y297411D01*
X28870Y297469D01*
X28787Y297525D01*
X28703Y297577D01*
X28616Y297627D01*
X28528Y297672D01*
X28438Y297715D01*
X28346Y297754D01*
X28253Y297789D01*
X28159Y297821D01*
X28064Y297849D01*
X27968Y297874D01*
X27870Y297895D01*
X27772Y297912D01*
X27674Y297925D01*
X27575Y297934D01*
X27475Y297940D01*
X27376Y297942D01*
X23481Y297942D01*
X17188Y296319D02*
X17287Y296112D01*
X17380Y295902D01*
X17468Y295689D01*
X17551Y295475D01*
X17629Y295259D01*
X17702Y295041D01*
X17770Y294821D01*
X17832Y294600D01*
X17889Y294377D01*
X17941Y294153D01*
X17987Y293928D01*
X18028Y293702D01*
X18063Y293475D01*
X18093Y293247D01*
X18118Y293018D01*
X18137Y292789D01*
X18151Y292560D01*
X18159Y292330D01*
X18162Y292100D01*
X17188Y296319D02*
X17155Y296409D01*
X17119Y296498D01*
X17079Y296586D01*
X17035Y296671D01*
X16988Y296755D01*
X16938Y296837D01*
X16884Y296917D01*
X16828Y296994D01*
X16768Y297070D01*
X16705Y297143D01*
X16640Y297213D01*
X16571Y297281D01*
X16500Y297345D01*
X16427Y297407D01*
X16351Y297466D01*
X16273Y297522D01*
X16192Y297575D01*
X16110Y297624D01*
X16026Y297670D01*
X15939Y297713D01*
X15852Y297752D01*
X15762Y297788D01*
X15672Y297820D01*
X15580Y297848D01*
X15487Y297873D01*
X15393Y297894D01*
X15299Y297911D01*
X15204Y297925D01*
X15108Y297934D01*
X15012Y297940D01*
X14916Y297942D01*
X14820Y297940D01*
X14724Y297934D01*
X14628Y297925D01*
X14533Y297911D01*
X14439Y297894D01*
X14345Y297873D01*
X14252Y297848D01*
X14160Y297820D01*
X14070Y297788D01*
X13980Y297752D01*
X13893Y297713D01*
X13806Y297670D01*
X13722Y297624D01*
X13640Y297575D01*
X13559Y297522D01*
X13481Y297466D01*
X13405Y297407D01*
X13332Y297345D01*
X13261Y297281D01*
X13192Y297213D01*
X13127Y297143D01*
X13064Y297070D01*
X13004Y296995D01*
X12948Y296917D01*
X12894Y296837D01*
X12844Y296755D01*
X12797Y296671D01*
X12754Y296586D01*
X12713Y296498D01*
X12677Y296409D01*
X12644Y296319D01*
X12545Y296111D01*
X12452Y295901D01*
X12364Y295689D01*
X12281Y295475D01*
X12203Y295258D01*
X12130Y295040D01*
X12062Y294821D01*
X12000Y294599D01*
X11943Y294377D01*
X11891Y294153D01*
X11845Y293928D01*
X11804Y293702D01*
X11769Y293474D01*
X11739Y293247D01*
X11714Y293018D01*
X11695Y292789D01*
X11681Y292560D01*
X11673Y292330D01*
X11670Y292100D01*
X18161Y292100D02*
X18158Y291870D01*
X18150Y291640D01*
X18136Y291411D01*
X18117Y291182D01*
X18092Y290953D01*
X18062Y290725D01*
X18027Y290498D01*
X17986Y290272D01*
X17940Y290047D01*
X17888Y289823D01*
X17831Y289600D01*
X17769Y289379D01*
X17701Y289159D01*
X17628Y288941D01*
X17550Y288725D01*
X17467Y288511D01*
X17379Y288299D01*
X17286Y288088D01*
X17187Y287881D01*
X17188Y287881D02*
X17155Y287791D01*
X17119Y287702D01*
X17078Y287614D01*
X17035Y287529D01*
X16988Y287445D01*
X16938Y287363D01*
X16884Y287283D01*
X16828Y287206D01*
X16768Y287130D01*
X16705Y287057D01*
X16640Y286987D01*
X16571Y286919D01*
X16500Y286855D01*
X16427Y286793D01*
X16351Y286734D01*
X16273Y286678D01*
X16192Y286625D01*
X16110Y286576D01*
X16026Y286530D01*
X15939Y286487D01*
X15852Y286448D01*
X15762Y286412D01*
X15672Y286380D01*
X15580Y286352D01*
X15487Y286327D01*
X15393Y286306D01*
X15299Y286289D01*
X15204Y286275D01*
X15108Y286266D01*
X15012Y286260D01*
X14916Y286258D01*
X12644Y287881D02*
X12545Y288088D01*
X12452Y288299D01*
X12364Y288511D01*
X12281Y288725D01*
X12203Y288941D01*
X12130Y289159D01*
X12062Y289379D01*
X12000Y289600D01*
X11943Y289823D01*
X11891Y290047D01*
X11845Y290272D01*
X11804Y290498D01*
X11769Y290725D01*
X11739Y290953D01*
X11714Y291182D01*
X11695Y291411D01*
X11681Y291640D01*
X11673Y291870D01*
X11670Y292100D01*
X12644Y287881D02*
X12677Y287791D01*
X12713Y287702D01*
X12754Y287614D01*
X12797Y287529D01*
X12844Y287445D01*
X12894Y287363D01*
X12948Y287283D01*
X13004Y287205D01*
X13064Y287130D01*
X13127Y287057D01*
X13192Y286987D01*
X13261Y286919D01*
X13332Y286855D01*
X13405Y286793D01*
X13481Y286734D01*
X13559Y286678D01*
X13640Y286625D01*
X13722Y286576D01*
X13806Y286530D01*
X13893Y286487D01*
X13980Y286448D01*
X14070Y286412D01*
X14160Y286380D01*
X14252Y286352D01*
X14345Y286327D01*
X14439Y286306D01*
X14533Y286289D01*
X14628Y286275D01*
X14724Y286266D01*
X14820Y286260D01*
X14916Y286258D01*
X17512Y288854D02*
X12319Y295346D01*
D11*
X7620Y303530D02*
X30480Y303530D01*
X58420Y303530D01*
X30480Y303530D02*
X30480Y231140D01*
D12*
X424340Y166220D02*
X424340Y306220D01*
X424340Y166220D02*
X444340Y166220D01*
X444340Y306220D01*
X424340Y306220D01*
D10*
X429198Y352913D02*
X440882Y352913D01*
X440882Y356158D01*
X440880Y356271D01*
X440874Y356384D01*
X440864Y356497D01*
X440850Y356610D01*
X440833Y356722D01*
X440811Y356833D01*
X440786Y356943D01*
X440756Y357053D01*
X440723Y357161D01*
X440686Y357268D01*
X440646Y357374D01*
X440601Y357478D01*
X440553Y357581D01*
X440502Y357682D01*
X440447Y357781D01*
X440389Y357878D01*
X440327Y357973D01*
X440262Y358066D01*
X440194Y358156D01*
X440123Y358244D01*
X440048Y358330D01*
X439971Y358413D01*
X439891Y358493D01*
X439808Y358570D01*
X439722Y358645D01*
X439634Y358716D01*
X439544Y358784D01*
X439451Y358849D01*
X439356Y358911D01*
X439259Y358969D01*
X439160Y359024D01*
X439059Y359075D01*
X438956Y359123D01*
X438852Y359168D01*
X438746Y359208D01*
X438639Y359245D01*
X438531Y359278D01*
X438421Y359308D01*
X438311Y359333D01*
X438200Y359355D01*
X438088Y359372D01*
X437975Y359386D01*
X437862Y359396D01*
X437749Y359402D01*
X437636Y359404D01*
X437523Y359402D01*
X437410Y359396D01*
X437297Y359386D01*
X437184Y359372D01*
X437072Y359355D01*
X436961Y359333D01*
X436851Y359308D01*
X436741Y359278D01*
X436633Y359245D01*
X436526Y359208D01*
X436420Y359168D01*
X436316Y359123D01*
X436213Y359075D01*
X436112Y359024D01*
X436013Y358969D01*
X435916Y358911D01*
X435821Y358849D01*
X435728Y358784D01*
X435638Y358716D01*
X435550Y358645D01*
X435464Y358570D01*
X435381Y358493D01*
X435301Y358413D01*
X435224Y358330D01*
X435149Y358244D01*
X435078Y358156D01*
X435010Y358066D01*
X434945Y357973D01*
X434883Y357878D01*
X434825Y357781D01*
X434770Y357682D01*
X434719Y357581D01*
X434671Y357478D01*
X434626Y357374D01*
X434586Y357268D01*
X434549Y357161D01*
X434516Y357053D01*
X434486Y356943D01*
X434461Y356833D01*
X434439Y356722D01*
X434422Y356610D01*
X434408Y356497D01*
X434398Y356384D01*
X434392Y356271D01*
X434390Y356158D01*
X434391Y356158D02*
X434391Y352913D01*
X434391Y356807D02*
X429198Y359404D01*
X429198Y364650D02*
X440882Y364650D01*
X440882Y367895D01*
X440880Y368008D01*
X440874Y368121D01*
X440864Y368234D01*
X440850Y368347D01*
X440833Y368459D01*
X440811Y368570D01*
X440786Y368680D01*
X440756Y368790D01*
X440723Y368898D01*
X440686Y369005D01*
X440646Y369111D01*
X440601Y369215D01*
X440553Y369318D01*
X440502Y369419D01*
X440447Y369518D01*
X440389Y369615D01*
X440327Y369710D01*
X440262Y369803D01*
X440194Y369893D01*
X440123Y369981D01*
X440048Y370067D01*
X439971Y370150D01*
X439891Y370230D01*
X439808Y370307D01*
X439722Y370382D01*
X439634Y370453D01*
X439544Y370521D01*
X439451Y370586D01*
X439356Y370648D01*
X439259Y370706D01*
X439160Y370761D01*
X439059Y370812D01*
X438956Y370860D01*
X438852Y370905D01*
X438746Y370945D01*
X438639Y370982D01*
X438531Y371015D01*
X438421Y371045D01*
X438311Y371070D01*
X438200Y371092D01*
X438088Y371109D01*
X437975Y371123D01*
X437862Y371133D01*
X437749Y371139D01*
X437636Y371141D01*
X432444Y371141D01*
X432331Y371139D01*
X432218Y371133D01*
X432105Y371123D01*
X431992Y371109D01*
X431880Y371092D01*
X431769Y371070D01*
X431659Y371045D01*
X431549Y371015D01*
X431441Y370982D01*
X431334Y370945D01*
X431228Y370905D01*
X431124Y370860D01*
X431021Y370812D01*
X430920Y370761D01*
X430821Y370706D01*
X430724Y370648D01*
X430629Y370586D01*
X430536Y370521D01*
X430446Y370453D01*
X430358Y370382D01*
X430272Y370307D01*
X430189Y370230D01*
X430109Y370150D01*
X430032Y370067D01*
X429957Y369981D01*
X429886Y369893D01*
X429818Y369803D01*
X429753Y369710D01*
X429691Y369615D01*
X429633Y369518D01*
X429578Y369419D01*
X429527Y369318D01*
X429479Y369215D01*
X429434Y369111D01*
X429394Y369005D01*
X429357Y368898D01*
X429324Y368790D01*
X429294Y368680D01*
X429269Y368570D01*
X429247Y368459D01*
X429230Y368347D01*
X429216Y368234D01*
X429206Y368121D01*
X429200Y368008D01*
X429198Y367895D01*
X429198Y364650D01*
X438286Y376461D02*
X440882Y379706D01*
X429198Y379706D01*
X429198Y376461D02*
X429198Y382952D01*
D12*
X134300Y319290D02*
X94300Y319290D01*
X114300Y339290D02*
X114300Y299290D01*
X114300Y150790D02*
X114300Y110790D01*
X61300Y2290D02*
X61300Y447290D01*
X61300Y2290D02*
X167300Y2290D01*
X167300Y447290D01*
X61300Y447290D01*
D10*
X114539Y208442D02*
X114539Y205197D01*
X114540Y208442D02*
X114538Y208555D01*
X114532Y208668D01*
X114522Y208781D01*
X114508Y208894D01*
X114491Y209006D01*
X114469Y209117D01*
X114444Y209227D01*
X114414Y209337D01*
X114381Y209445D01*
X114344Y209552D01*
X114304Y209658D01*
X114259Y209762D01*
X114211Y209865D01*
X114160Y209966D01*
X114105Y210065D01*
X114047Y210162D01*
X113985Y210257D01*
X113920Y210350D01*
X113852Y210440D01*
X113781Y210528D01*
X113706Y210614D01*
X113629Y210697D01*
X113549Y210777D01*
X113466Y210854D01*
X113380Y210929D01*
X113292Y211000D01*
X113202Y211068D01*
X113109Y211133D01*
X113014Y211195D01*
X112917Y211253D01*
X112818Y211308D01*
X112717Y211359D01*
X112614Y211407D01*
X112510Y211452D01*
X112404Y211492D01*
X112297Y211529D01*
X112189Y211562D01*
X112079Y211592D01*
X111969Y211617D01*
X111858Y211639D01*
X111746Y211656D01*
X111633Y211670D01*
X111520Y211680D01*
X111407Y211686D01*
X111294Y211688D01*
X111181Y211686D01*
X111068Y211680D01*
X110955Y211670D01*
X110842Y211656D01*
X110730Y211639D01*
X110619Y211617D01*
X110509Y211592D01*
X110399Y211562D01*
X110291Y211529D01*
X110184Y211492D01*
X110078Y211452D01*
X109974Y211407D01*
X109871Y211359D01*
X109770Y211308D01*
X109671Y211253D01*
X109574Y211195D01*
X109479Y211133D01*
X109386Y211068D01*
X109296Y211000D01*
X109208Y210929D01*
X109122Y210854D01*
X109039Y210777D01*
X108959Y210697D01*
X108882Y210614D01*
X108807Y210528D01*
X108736Y210440D01*
X108668Y210350D01*
X108603Y210257D01*
X108541Y210162D01*
X108483Y210065D01*
X108428Y209966D01*
X108377Y209865D01*
X108329Y209762D01*
X108284Y209658D01*
X108244Y209552D01*
X108207Y209445D01*
X108174Y209337D01*
X108144Y209227D01*
X108119Y209117D01*
X108097Y209006D01*
X108080Y208894D01*
X108066Y208781D01*
X108056Y208668D01*
X108050Y208555D01*
X108048Y208442D01*
X108048Y205197D01*
X119732Y205197D01*
X119732Y208442D01*
X119730Y208543D01*
X119724Y208643D01*
X119714Y208743D01*
X119701Y208843D01*
X119683Y208942D01*
X119662Y209041D01*
X119637Y209138D01*
X119608Y209235D01*
X119575Y209330D01*
X119539Y209424D01*
X119499Y209516D01*
X119456Y209607D01*
X119409Y209696D01*
X119359Y209783D01*
X119305Y209869D01*
X119248Y209952D01*
X119188Y210032D01*
X119125Y210111D01*
X119058Y210187D01*
X118989Y210260D01*
X118917Y210330D01*
X118843Y210398D01*
X118766Y210463D01*
X118686Y210524D01*
X118604Y210583D01*
X118520Y210638D01*
X118434Y210690D01*
X118346Y210739D01*
X118256Y210784D01*
X118164Y210826D01*
X118071Y210864D01*
X117976Y210898D01*
X117881Y210929D01*
X117784Y210956D01*
X117686Y210979D01*
X117587Y210999D01*
X117487Y211014D01*
X117387Y211026D01*
X117287Y211034D01*
X117186Y211038D01*
X117086Y211038D01*
X116985Y211034D01*
X116885Y211026D01*
X116785Y211014D01*
X116685Y210999D01*
X116586Y210979D01*
X116488Y210956D01*
X116391Y210929D01*
X116296Y210898D01*
X116201Y210864D01*
X116108Y210826D01*
X116016Y210784D01*
X115926Y210739D01*
X115838Y210690D01*
X115752Y210638D01*
X115668Y210583D01*
X115586Y210524D01*
X115506Y210463D01*
X115429Y210398D01*
X115355Y210330D01*
X115283Y210260D01*
X115214Y210187D01*
X115147Y210111D01*
X115084Y210032D01*
X115024Y209952D01*
X114967Y209869D01*
X114913Y209783D01*
X114863Y209696D01*
X114816Y209607D01*
X114773Y209516D01*
X114733Y209424D01*
X114697Y209330D01*
X114664Y209235D01*
X114635Y209138D01*
X114610Y209041D01*
X114589Y208942D01*
X114571Y208843D01*
X114558Y208743D01*
X114548Y208643D01*
X114542Y208543D01*
X114540Y208442D01*
X108048Y215427D02*
X119732Y219322D01*
X108048Y223217D01*
X110969Y222243D02*
X110969Y216401D01*
X108048Y229990D02*
X119732Y229990D01*
X119732Y233235D02*
X119732Y226744D01*
X117136Y237412D02*
X119732Y240658D01*
X108048Y240658D01*
X108048Y243903D02*
X108048Y237412D01*
D12*
X204790Y319290D02*
X244790Y319290D01*
X224790Y339290D02*
X224790Y299290D01*
X224790Y150790D02*
X224790Y110790D01*
X171790Y2290D02*
X171790Y447290D01*
X171790Y2290D02*
X277790Y2290D01*
X277790Y447290D01*
X171790Y447290D01*
D10*
X226299Y208442D02*
X226299Y205197D01*
X226300Y208442D02*
X226298Y208555D01*
X226292Y208668D01*
X226282Y208781D01*
X226268Y208894D01*
X226251Y209006D01*
X226229Y209117D01*
X226204Y209227D01*
X226174Y209337D01*
X226141Y209445D01*
X226104Y209552D01*
X226064Y209658D01*
X226019Y209762D01*
X225971Y209865D01*
X225920Y209966D01*
X225865Y210065D01*
X225807Y210162D01*
X225745Y210257D01*
X225680Y210350D01*
X225612Y210440D01*
X225541Y210528D01*
X225466Y210614D01*
X225389Y210697D01*
X225309Y210777D01*
X225226Y210854D01*
X225140Y210929D01*
X225052Y211000D01*
X224962Y211068D01*
X224869Y211133D01*
X224774Y211195D01*
X224677Y211253D01*
X224578Y211308D01*
X224477Y211359D01*
X224374Y211407D01*
X224270Y211452D01*
X224164Y211492D01*
X224057Y211529D01*
X223949Y211562D01*
X223839Y211592D01*
X223729Y211617D01*
X223618Y211639D01*
X223506Y211656D01*
X223393Y211670D01*
X223280Y211680D01*
X223167Y211686D01*
X223054Y211688D01*
X222941Y211686D01*
X222828Y211680D01*
X222715Y211670D01*
X222602Y211656D01*
X222490Y211639D01*
X222379Y211617D01*
X222269Y211592D01*
X222159Y211562D01*
X222051Y211529D01*
X221944Y211492D01*
X221838Y211452D01*
X221734Y211407D01*
X221631Y211359D01*
X221530Y211308D01*
X221431Y211253D01*
X221334Y211195D01*
X221239Y211133D01*
X221146Y211068D01*
X221056Y211000D01*
X220968Y210929D01*
X220882Y210854D01*
X220799Y210777D01*
X220719Y210697D01*
X220642Y210614D01*
X220567Y210528D01*
X220496Y210440D01*
X220428Y210350D01*
X220363Y210257D01*
X220301Y210162D01*
X220243Y210065D01*
X220188Y209966D01*
X220137Y209865D01*
X220089Y209762D01*
X220044Y209658D01*
X220004Y209552D01*
X219967Y209445D01*
X219934Y209337D01*
X219904Y209227D01*
X219879Y209117D01*
X219857Y209006D01*
X219840Y208894D01*
X219826Y208781D01*
X219816Y208668D01*
X219810Y208555D01*
X219808Y208442D01*
X219808Y205197D01*
X231492Y205197D01*
X231492Y208442D01*
X231490Y208543D01*
X231484Y208643D01*
X231474Y208743D01*
X231461Y208843D01*
X231443Y208942D01*
X231422Y209041D01*
X231397Y209138D01*
X231368Y209235D01*
X231335Y209330D01*
X231299Y209424D01*
X231259Y209516D01*
X231216Y209607D01*
X231169Y209696D01*
X231119Y209783D01*
X231065Y209869D01*
X231008Y209952D01*
X230948Y210032D01*
X230885Y210111D01*
X230818Y210187D01*
X230749Y210260D01*
X230677Y210330D01*
X230603Y210398D01*
X230526Y210463D01*
X230446Y210524D01*
X230364Y210583D01*
X230280Y210638D01*
X230194Y210690D01*
X230106Y210739D01*
X230016Y210784D01*
X229924Y210826D01*
X229831Y210864D01*
X229736Y210898D01*
X229641Y210929D01*
X229544Y210956D01*
X229446Y210979D01*
X229347Y210999D01*
X229247Y211014D01*
X229147Y211026D01*
X229047Y211034D01*
X228946Y211038D01*
X228846Y211038D01*
X228745Y211034D01*
X228645Y211026D01*
X228545Y211014D01*
X228445Y210999D01*
X228346Y210979D01*
X228248Y210956D01*
X228151Y210929D01*
X228056Y210898D01*
X227961Y210864D01*
X227868Y210826D01*
X227776Y210784D01*
X227686Y210739D01*
X227598Y210690D01*
X227512Y210638D01*
X227428Y210583D01*
X227346Y210524D01*
X227266Y210463D01*
X227189Y210398D01*
X227115Y210330D01*
X227043Y210260D01*
X226974Y210187D01*
X226907Y210111D01*
X226844Y210032D01*
X226784Y209952D01*
X226727Y209869D01*
X226673Y209783D01*
X226623Y209696D01*
X226576Y209607D01*
X226533Y209516D01*
X226493Y209424D01*
X226457Y209330D01*
X226424Y209235D01*
X226395Y209138D01*
X226370Y209041D01*
X226349Y208942D01*
X226331Y208843D01*
X226318Y208743D01*
X226308Y208643D01*
X226302Y208543D01*
X226300Y208442D01*
X219808Y215427D02*
X231492Y219322D01*
X219808Y223217D01*
X222729Y222243D02*
X222729Y216401D01*
X219808Y229990D02*
X231492Y229990D01*
X231492Y233235D02*
X231492Y226744D01*
X231492Y240982D02*
X231490Y241089D01*
X231484Y241195D01*
X231474Y241301D01*
X231461Y241407D01*
X231443Y241513D01*
X231422Y241617D01*
X231397Y241721D01*
X231368Y241824D01*
X231336Y241925D01*
X231299Y242025D01*
X231259Y242124D01*
X231216Y242222D01*
X231169Y242318D01*
X231118Y242412D01*
X231064Y242504D01*
X231007Y242594D01*
X230947Y242682D01*
X230883Y242767D01*
X230816Y242850D01*
X230746Y242931D01*
X230674Y243009D01*
X230598Y243085D01*
X230520Y243157D01*
X230439Y243227D01*
X230356Y243294D01*
X230271Y243358D01*
X230183Y243418D01*
X230093Y243475D01*
X230001Y243529D01*
X229907Y243580D01*
X229811Y243627D01*
X229713Y243670D01*
X229614Y243710D01*
X229514Y243747D01*
X229413Y243779D01*
X229310Y243808D01*
X229206Y243833D01*
X229102Y243854D01*
X228996Y243872D01*
X228890Y243885D01*
X228784Y243895D01*
X228678Y243901D01*
X228571Y243903D01*
X231492Y240982D02*
X231490Y240861D01*
X231484Y240740D01*
X231474Y240620D01*
X231461Y240499D01*
X231443Y240380D01*
X231422Y240260D01*
X231397Y240142D01*
X231368Y240025D01*
X231335Y239908D01*
X231299Y239793D01*
X231258Y239679D01*
X231215Y239566D01*
X231167Y239454D01*
X231116Y239345D01*
X231061Y239237D01*
X231003Y239130D01*
X230942Y239026D01*
X230877Y238924D01*
X230809Y238824D01*
X230738Y238726D01*
X230664Y238630D01*
X230587Y238537D01*
X230506Y238447D01*
X230423Y238359D01*
X230337Y238274D01*
X230248Y238191D01*
X230157Y238112D01*
X230063Y238035D01*
X229967Y237962D01*
X229869Y237892D01*
X229768Y237825D01*
X229665Y237761D01*
X229560Y237701D01*
X229453Y237644D01*
X229345Y237590D01*
X229235Y237540D01*
X229123Y237494D01*
X229010Y237451D01*
X228895Y237412D01*
X226299Y242930D02*
X226376Y243009D01*
X226457Y243085D01*
X226540Y243158D01*
X226625Y243228D01*
X226713Y243295D01*
X226803Y243359D01*
X226895Y243419D01*
X226990Y243476D01*
X227086Y243530D01*
X227184Y243581D01*
X227284Y243628D01*
X227386Y243672D01*
X227489Y243712D01*
X227593Y243748D01*
X227699Y243780D01*
X227805Y243809D01*
X227913Y243834D01*
X228021Y243856D01*
X228131Y243873D01*
X228240Y243887D01*
X228350Y243896D01*
X228461Y243902D01*
X228571Y243904D01*
X226299Y242930D02*
X219808Y237412D01*
X219808Y243903D01*
D12*
X315280Y319290D02*
X355280Y319290D01*
X335280Y339290D02*
X335280Y299290D01*
X335280Y150790D02*
X335280Y110790D01*
X282280Y2290D02*
X282280Y447290D01*
X282280Y2290D02*
X388280Y2290D01*
X388280Y447290D01*
X282280Y447290D01*
D10*
X335519Y208442D02*
X335519Y205197D01*
X335520Y208442D02*
X335518Y208555D01*
X335512Y208668D01*
X335502Y208781D01*
X335488Y208894D01*
X335471Y209006D01*
X335449Y209117D01*
X335424Y209227D01*
X335394Y209337D01*
X335361Y209445D01*
X335324Y209552D01*
X335284Y209658D01*
X335239Y209762D01*
X335191Y209865D01*
X335140Y209966D01*
X335085Y210065D01*
X335027Y210162D01*
X334965Y210257D01*
X334900Y210350D01*
X334832Y210440D01*
X334761Y210528D01*
X334686Y210614D01*
X334609Y210697D01*
X334529Y210777D01*
X334446Y210854D01*
X334360Y210929D01*
X334272Y211000D01*
X334182Y211068D01*
X334089Y211133D01*
X333994Y211195D01*
X333897Y211253D01*
X333798Y211308D01*
X333697Y211359D01*
X333594Y211407D01*
X333490Y211452D01*
X333384Y211492D01*
X333277Y211529D01*
X333169Y211562D01*
X333059Y211592D01*
X332949Y211617D01*
X332838Y211639D01*
X332726Y211656D01*
X332613Y211670D01*
X332500Y211680D01*
X332387Y211686D01*
X332274Y211688D01*
X332161Y211686D01*
X332048Y211680D01*
X331935Y211670D01*
X331822Y211656D01*
X331710Y211639D01*
X331599Y211617D01*
X331489Y211592D01*
X331379Y211562D01*
X331271Y211529D01*
X331164Y211492D01*
X331058Y211452D01*
X330954Y211407D01*
X330851Y211359D01*
X330750Y211308D01*
X330651Y211253D01*
X330554Y211195D01*
X330459Y211133D01*
X330366Y211068D01*
X330276Y211000D01*
X330188Y210929D01*
X330102Y210854D01*
X330019Y210777D01*
X329939Y210697D01*
X329862Y210614D01*
X329787Y210528D01*
X329716Y210440D01*
X329648Y210350D01*
X329583Y210257D01*
X329521Y210162D01*
X329463Y210065D01*
X329408Y209966D01*
X329357Y209865D01*
X329309Y209762D01*
X329264Y209658D01*
X329224Y209552D01*
X329187Y209445D01*
X329154Y209337D01*
X329124Y209227D01*
X329099Y209117D01*
X329077Y209006D01*
X329060Y208894D01*
X329046Y208781D01*
X329036Y208668D01*
X329030Y208555D01*
X329028Y208442D01*
X329028Y205197D01*
X340712Y205197D01*
X340712Y208442D01*
X340710Y208543D01*
X340704Y208643D01*
X340694Y208743D01*
X340681Y208843D01*
X340663Y208942D01*
X340642Y209041D01*
X340617Y209138D01*
X340588Y209235D01*
X340555Y209330D01*
X340519Y209424D01*
X340479Y209516D01*
X340436Y209607D01*
X340389Y209696D01*
X340339Y209783D01*
X340285Y209869D01*
X340228Y209952D01*
X340168Y210032D01*
X340105Y210111D01*
X340038Y210187D01*
X339969Y210260D01*
X339897Y210330D01*
X339823Y210398D01*
X339746Y210463D01*
X339666Y210524D01*
X339584Y210583D01*
X339500Y210638D01*
X339414Y210690D01*
X339326Y210739D01*
X339236Y210784D01*
X339144Y210826D01*
X339051Y210864D01*
X338956Y210898D01*
X338861Y210929D01*
X338764Y210956D01*
X338666Y210979D01*
X338567Y210999D01*
X338467Y211014D01*
X338367Y211026D01*
X338267Y211034D01*
X338166Y211038D01*
X338066Y211038D01*
X337965Y211034D01*
X337865Y211026D01*
X337765Y211014D01*
X337665Y210999D01*
X337566Y210979D01*
X337468Y210956D01*
X337371Y210929D01*
X337276Y210898D01*
X337181Y210864D01*
X337088Y210826D01*
X336996Y210784D01*
X336906Y210739D01*
X336818Y210690D01*
X336732Y210638D01*
X336648Y210583D01*
X336566Y210524D01*
X336486Y210463D01*
X336409Y210398D01*
X336335Y210330D01*
X336263Y210260D01*
X336194Y210187D01*
X336127Y210111D01*
X336064Y210032D01*
X336004Y209952D01*
X335947Y209869D01*
X335893Y209783D01*
X335843Y209696D01*
X335796Y209607D01*
X335753Y209516D01*
X335713Y209424D01*
X335677Y209330D01*
X335644Y209235D01*
X335615Y209138D01*
X335590Y209041D01*
X335569Y208942D01*
X335551Y208843D01*
X335538Y208743D01*
X335528Y208643D01*
X335522Y208543D01*
X335520Y208442D01*
X329028Y215427D02*
X340712Y219322D01*
X329028Y223217D01*
X331949Y222243D02*
X331949Y216401D01*
X329028Y229990D02*
X340712Y229990D01*
X340712Y233235D02*
X340712Y226744D01*
X329028Y237412D02*
X329028Y240658D01*
X329030Y240771D01*
X329036Y240884D01*
X329046Y240997D01*
X329060Y241110D01*
X329077Y241222D01*
X329099Y241333D01*
X329124Y241443D01*
X329154Y241553D01*
X329187Y241661D01*
X329224Y241768D01*
X329264Y241874D01*
X329309Y241978D01*
X329357Y242081D01*
X329408Y242182D01*
X329463Y242281D01*
X329521Y242378D01*
X329583Y242473D01*
X329648Y242566D01*
X329716Y242656D01*
X329787Y242744D01*
X329862Y242830D01*
X329939Y242913D01*
X330019Y242993D01*
X330102Y243070D01*
X330188Y243145D01*
X330276Y243216D01*
X330366Y243284D01*
X330459Y243349D01*
X330554Y243411D01*
X330651Y243469D01*
X330750Y243524D01*
X330851Y243575D01*
X330954Y243623D01*
X331058Y243668D01*
X331164Y243708D01*
X331271Y243745D01*
X331379Y243778D01*
X331489Y243808D01*
X331599Y243833D01*
X331710Y243855D01*
X331822Y243872D01*
X331935Y243886D01*
X332048Y243896D01*
X332161Y243902D01*
X332274Y243904D01*
X332387Y243902D01*
X332500Y243896D01*
X332613Y243886D01*
X332726Y243872D01*
X332838Y243855D01*
X332949Y243833D01*
X333059Y243808D01*
X333169Y243778D01*
X333277Y243745D01*
X333384Y243708D01*
X333490Y243668D01*
X333594Y243623D01*
X333697Y243575D01*
X333798Y243524D01*
X333897Y243469D01*
X333994Y243411D01*
X334089Y243349D01*
X334182Y243284D01*
X334272Y243216D01*
X334360Y243145D01*
X334446Y243070D01*
X334529Y242993D01*
X334609Y242913D01*
X334686Y242830D01*
X334761Y242744D01*
X334832Y242656D01*
X334900Y242566D01*
X334965Y242473D01*
X335027Y242378D01*
X335085Y242281D01*
X335140Y242182D01*
X335191Y242081D01*
X335239Y241978D01*
X335284Y241874D01*
X335324Y241768D01*
X335361Y241661D01*
X335394Y241553D01*
X335424Y241443D01*
X335449Y241333D01*
X335471Y241222D01*
X335488Y241110D01*
X335502Y240997D01*
X335512Y240884D01*
X335518Y240771D01*
X335520Y240658D01*
X340712Y241307D02*
X340712Y237412D01*
X340712Y241307D02*
X340710Y241408D01*
X340704Y241508D01*
X340694Y241608D01*
X340681Y241708D01*
X340663Y241807D01*
X340642Y241906D01*
X340617Y242003D01*
X340588Y242100D01*
X340555Y242195D01*
X340519Y242289D01*
X340479Y242381D01*
X340436Y242472D01*
X340389Y242561D01*
X340339Y242648D01*
X340285Y242734D01*
X340228Y242817D01*
X340168Y242897D01*
X340105Y242976D01*
X340038Y243052D01*
X339969Y243125D01*
X339897Y243195D01*
X339823Y243263D01*
X339746Y243328D01*
X339666Y243389D01*
X339584Y243448D01*
X339500Y243503D01*
X339414Y243555D01*
X339326Y243604D01*
X339236Y243649D01*
X339144Y243691D01*
X339051Y243729D01*
X338956Y243763D01*
X338861Y243794D01*
X338764Y243821D01*
X338666Y243844D01*
X338567Y243864D01*
X338467Y243879D01*
X338367Y243891D01*
X338267Y243899D01*
X338166Y243903D01*
X338066Y243903D01*
X337965Y243899D01*
X337865Y243891D01*
X337765Y243879D01*
X337665Y243864D01*
X337566Y243844D01*
X337468Y243821D01*
X337371Y243794D01*
X337276Y243763D01*
X337181Y243729D01*
X337088Y243691D01*
X336996Y243649D01*
X336906Y243604D01*
X336818Y243555D01*
X336732Y243503D01*
X336648Y243448D01*
X336566Y243389D01*
X336486Y243328D01*
X336409Y243263D01*
X336335Y243195D01*
X336263Y243125D01*
X336194Y243052D01*
X336127Y242976D01*
X336064Y242897D01*
X336004Y242817D01*
X335947Y242734D01*
X335893Y242648D01*
X335843Y242561D01*
X335796Y242472D01*
X335753Y242381D01*
X335713Y242289D01*
X335677Y242195D01*
X335644Y242100D01*
X335615Y242003D01*
X335590Y241906D01*
X335569Y241807D01*
X335551Y241708D01*
X335538Y241608D01*
X335528Y241508D01*
X335522Y241408D01*
X335520Y241307D01*
X335519Y241307D02*
X335519Y238710D01*
X51529Y307848D02*
X48933Y307848D01*
X51529Y307848D02*
X51628Y307850D01*
X51728Y307856D01*
X51827Y307865D01*
X51925Y307878D01*
X52023Y307895D01*
X52121Y307916D01*
X52217Y307941D01*
X52312Y307969D01*
X52406Y308001D01*
X52499Y308036D01*
X52591Y308075D01*
X52681Y308118D01*
X52769Y308163D01*
X52856Y308213D01*
X52940Y308265D01*
X53023Y308321D01*
X53103Y308379D01*
X53181Y308441D01*
X53256Y308506D01*
X53329Y308574D01*
X53399Y308644D01*
X53467Y308717D01*
X53532Y308792D01*
X53594Y308870D01*
X53652Y308950D01*
X53708Y309033D01*
X53760Y309117D01*
X53810Y309204D01*
X53855Y309292D01*
X53898Y309382D01*
X53937Y309474D01*
X53972Y309567D01*
X54004Y309661D01*
X54032Y309756D01*
X54057Y309852D01*
X54078Y309950D01*
X54095Y310048D01*
X54108Y310146D01*
X54117Y310245D01*
X54123Y310345D01*
X54125Y310444D01*
X54126Y310444D02*
X54126Y316936D01*
X54125Y316936D02*
X54123Y317035D01*
X54117Y317135D01*
X54108Y317234D01*
X54095Y317332D01*
X54078Y317430D01*
X54057Y317528D01*
X54032Y317624D01*
X54004Y317719D01*
X53972Y317813D01*
X53937Y317906D01*
X53898Y317998D01*
X53855Y318088D01*
X53810Y318176D01*
X53760Y318263D01*
X53708Y318347D01*
X53652Y318430D01*
X53594Y318510D01*
X53532Y318588D01*
X53467Y318663D01*
X53399Y318736D01*
X53329Y318806D01*
X53256Y318874D01*
X53181Y318939D01*
X53103Y319001D01*
X53023Y319059D01*
X52940Y319115D01*
X52856Y319167D01*
X52769Y319217D01*
X52681Y319262D01*
X52591Y319305D01*
X52499Y319344D01*
X52406Y319379D01*
X52312Y319411D01*
X52217Y319439D01*
X52121Y319464D01*
X52023Y319485D01*
X51925Y319502D01*
X51827Y319515D01*
X51728Y319524D01*
X51628Y319530D01*
X51529Y319532D01*
X48933Y319532D01*
X44567Y316286D02*
X44567Y311094D01*
X44568Y316286D02*
X44566Y316399D01*
X44560Y316512D01*
X44550Y316625D01*
X44536Y316738D01*
X44519Y316850D01*
X44497Y316961D01*
X44472Y317071D01*
X44442Y317181D01*
X44409Y317289D01*
X44372Y317396D01*
X44332Y317502D01*
X44287Y317606D01*
X44239Y317709D01*
X44188Y317810D01*
X44133Y317909D01*
X44075Y318006D01*
X44013Y318101D01*
X43948Y318194D01*
X43880Y318284D01*
X43809Y318372D01*
X43734Y318458D01*
X43657Y318541D01*
X43577Y318621D01*
X43494Y318698D01*
X43408Y318773D01*
X43320Y318844D01*
X43230Y318912D01*
X43137Y318977D01*
X43042Y319039D01*
X42945Y319097D01*
X42846Y319152D01*
X42745Y319203D01*
X42642Y319251D01*
X42538Y319296D01*
X42432Y319336D01*
X42325Y319373D01*
X42217Y319406D01*
X42107Y319436D01*
X41997Y319461D01*
X41886Y319483D01*
X41774Y319500D01*
X41661Y319514D01*
X41548Y319524D01*
X41435Y319530D01*
X41322Y319532D01*
X41209Y319530D01*
X41096Y319524D01*
X40983Y319514D01*
X40870Y319500D01*
X40758Y319483D01*
X40647Y319461D01*
X40537Y319436D01*
X40427Y319406D01*
X40319Y319373D01*
X40212Y319336D01*
X40106Y319296D01*
X40002Y319251D01*
X39899Y319203D01*
X39798Y319152D01*
X39699Y319097D01*
X39602Y319039D01*
X39507Y318977D01*
X39414Y318912D01*
X39324Y318844D01*
X39236Y318773D01*
X39150Y318698D01*
X39067Y318621D01*
X38987Y318541D01*
X38910Y318458D01*
X38835Y318372D01*
X38764Y318284D01*
X38696Y318194D01*
X38631Y318101D01*
X38569Y318006D01*
X38511Y317909D01*
X38456Y317810D01*
X38405Y317709D01*
X38357Y317606D01*
X38312Y317502D01*
X38272Y317396D01*
X38235Y317289D01*
X38202Y317181D01*
X38172Y317071D01*
X38147Y316961D01*
X38125Y316850D01*
X38108Y316738D01*
X38094Y316625D01*
X38084Y316512D01*
X38078Y316399D01*
X38076Y316286D01*
X38076Y311094D01*
X38078Y310981D01*
X38084Y310868D01*
X38094Y310755D01*
X38108Y310642D01*
X38125Y310530D01*
X38147Y310419D01*
X38172Y310309D01*
X38202Y310199D01*
X38235Y310091D01*
X38272Y309984D01*
X38312Y309878D01*
X38357Y309774D01*
X38405Y309671D01*
X38456Y309570D01*
X38511Y309471D01*
X38569Y309374D01*
X38631Y309279D01*
X38696Y309186D01*
X38764Y309096D01*
X38835Y309008D01*
X38910Y308922D01*
X38987Y308839D01*
X39067Y308759D01*
X39150Y308682D01*
X39236Y308607D01*
X39324Y308536D01*
X39414Y308468D01*
X39507Y308403D01*
X39602Y308341D01*
X39699Y308283D01*
X39798Y308228D01*
X39899Y308177D01*
X40002Y308129D01*
X40106Y308084D01*
X40212Y308044D01*
X40319Y308007D01*
X40427Y307974D01*
X40537Y307944D01*
X40647Y307919D01*
X40758Y307897D01*
X40870Y307880D01*
X40983Y307866D01*
X41096Y307856D01*
X41209Y307850D01*
X41322Y307848D01*
X41435Y307850D01*
X41548Y307856D01*
X41661Y307866D01*
X41774Y307880D01*
X41886Y307897D01*
X41997Y307919D01*
X42107Y307944D01*
X42217Y307974D01*
X42325Y308007D01*
X42432Y308044D01*
X42538Y308084D01*
X42642Y308129D01*
X42745Y308177D01*
X42846Y308228D01*
X42945Y308283D01*
X43042Y308341D01*
X43137Y308403D01*
X43230Y308468D01*
X43320Y308536D01*
X43408Y308607D01*
X43494Y308682D01*
X43577Y308759D01*
X43657Y308839D01*
X43734Y308922D01*
X43809Y309008D01*
X43880Y309096D01*
X43948Y309186D01*
X44013Y309279D01*
X44075Y309374D01*
X44133Y309471D01*
X44188Y309570D01*
X44239Y309671D01*
X44287Y309774D01*
X44332Y309878D01*
X44372Y309984D01*
X44409Y310091D01*
X44442Y310199D01*
X44472Y310309D01*
X44497Y310419D01*
X44519Y310530D01*
X44536Y310642D01*
X44550Y310755D01*
X44560Y310868D01*
X44566Y310981D01*
X44568Y311094D01*
X32756Y307848D02*
X32756Y319532D01*
X26265Y307848D01*
X26265Y319532D01*
X20946Y316936D02*
X17700Y319532D01*
X17700Y307848D01*
X20946Y307848D02*
X14454Y307848D01*
D13*
X0Y59690D02*
X59690Y59690D01*
X59690Y0D01*
X449580Y0D01*
X449580Y389890D01*
X389890Y389890D01*
X389890Y449580D01*
X0Y449580D01*
X0Y59690D01*
X433070Y99786D02*
X432992Y98700D01*
X432837Y97622D01*
X432606Y96559D01*
X432299Y95514D01*
X431919Y94494D01*
X431467Y93504D01*
X430945Y92549D01*
X430356Y91633D01*
X429704Y90761D01*
X428991Y89939D01*
X428221Y89169D01*
X427399Y88456D01*
X426527Y87804D01*
X425611Y87215D01*
X424656Y86693D01*
X423666Y86241D01*
X422646Y85861D01*
X421601Y85554D01*
X420538Y85323D01*
X419460Y85168D01*
X418374Y85090D01*
X417286Y85090D01*
X416200Y85168D01*
X415122Y85323D01*
X414059Y85554D01*
X413014Y85861D01*
X411994Y86241D01*
X411004Y86693D01*
X410049Y87215D01*
X409133Y87804D01*
X408261Y88456D01*
X407439Y89169D01*
X406669Y89939D01*
X405956Y90761D01*
X405304Y91633D01*
X404715Y92549D01*
X404193Y93504D01*
X403741Y94494D01*
X403361Y95514D01*
X403054Y96559D01*
X402823Y97622D01*
X402668Y98700D01*
X402590Y99786D01*
X402590Y100874D01*
X402668Y101960D01*
X402823Y103038D01*
X403054Y104101D01*
X403361Y105146D01*
X403741Y106166D01*
X404193Y107156D01*
X404715Y108111D01*
X405304Y109027D01*
X405956Y109899D01*
X406669Y110721D01*
X407439Y111491D01*
X408261Y112204D01*
X409133Y112856D01*
X410049Y113445D01*
X411004Y113967D01*
X411994Y114419D01*
X413014Y114799D01*
X414059Y115106D01*
X415122Y115337D01*
X416200Y115492D01*
X417286Y115570D01*
X418374Y115570D01*
X419460Y115492D01*
X420538Y115337D01*
X421601Y115106D01*
X422646Y114799D01*
X423666Y114419D01*
X424656Y113967D01*
X425611Y113445D01*
X426527Y112856D01*
X427399Y112204D01*
X428221Y111491D01*
X428991Y110721D01*
X429704Y109899D01*
X430356Y109027D01*
X430945Y108111D01*
X431467Y107156D01*
X431919Y106166D01*
X432299Y105146D01*
X432606Y104101D01*
X432837Y103038D01*
X432992Y101960D01*
X433070Y100874D01*
X433070Y99786D01*
X48260Y349976D02*
X48182Y348890D01*
X48027Y347812D01*
X47796Y346749D01*
X47489Y345704D01*
X47109Y344684D01*
X46657Y343694D01*
X46135Y342739D01*
X45546Y341823D01*
X44894Y340951D01*
X44181Y340129D01*
X43411Y339359D01*
X42589Y338646D01*
X41717Y337994D01*
X40801Y337405D01*
X39846Y336883D01*
X38856Y336431D01*
X37836Y336051D01*
X36791Y335744D01*
X35728Y335513D01*
X34650Y335358D01*
X33564Y335280D01*
X32476Y335280D01*
X31390Y335358D01*
X30312Y335513D01*
X29249Y335744D01*
X28204Y336051D01*
X27184Y336431D01*
X26194Y336883D01*
X25239Y337405D01*
X24323Y337994D01*
X23451Y338646D01*
X22629Y339359D01*
X21859Y340129D01*
X21146Y340951D01*
X20494Y341823D01*
X19905Y342739D01*
X19383Y343694D01*
X18931Y344684D01*
X18551Y345704D01*
X18244Y346749D01*
X18013Y347812D01*
X17858Y348890D01*
X17780Y349976D01*
X17780Y351064D01*
X17858Y352150D01*
X18013Y353228D01*
X18244Y354291D01*
X18551Y355336D01*
X18931Y356356D01*
X19383Y357346D01*
X19905Y358301D01*
X20494Y359217D01*
X21146Y360089D01*
X21859Y360911D01*
X22629Y361681D01*
X23451Y362394D01*
X24323Y363046D01*
X25239Y363635D01*
X26194Y364157D01*
X27184Y364609D01*
X28204Y364989D01*
X29249Y365296D01*
X30312Y365527D01*
X31390Y365682D01*
X32476Y365760D01*
X33564Y365760D01*
X34650Y365682D01*
X35728Y365527D01*
X36791Y365296D01*
X37836Y364989D01*
X38856Y364609D01*
X39846Y364157D01*
X40801Y363635D01*
X41717Y363046D01*
X42589Y362394D01*
X43411Y361681D01*
X44181Y360911D01*
X44894Y360089D01*
X45546Y359217D01*
X46135Y358301D01*
X46657Y357346D01*
X47109Y356356D01*
X47489Y355336D01*
X47796Y354291D01*
X48027Y353228D01*
X48182Y352150D01*
X48260Y351064D01*
X48260Y349976D01*
M02*
