G04 EAGLE Gerber RS-274X export*
G75*
%MOMM*%
%FSLAX34Y34*%
%LPD*%
%INSoldermask Top*%
%IPPOS*%
%AMOC8*
5,1,8,0,0,1.08239X$1,22.5*%
G01*
%ADD10C,3.251200*%
%ADD11R,1.153200X1.203200*%
%ADD12R,1.173200X1.673200*%
%ADD13R,1.403200X0.803200*%
%ADD14R,3.203200X3.603200*%
%ADD15R,1.403200X1.103200*%
%ADD16R,1.303200X2.803200*%
%ADD17R,0.803200X1.503200*%
%ADD18C,1.853200*%
%ADD19R,1.303200X2.003200*%
%ADD20C,2.978200*%
%ADD21C,0.254000*%


D10*
X417830Y100330D03*
X33020Y350520D03*
D11*
X286130Y166370D03*
X270130Y166370D03*
D12*
X408940Y269240D03*
X392340Y269240D03*
X408350Y249510D03*
X391750Y249510D03*
D11*
X408050Y232410D03*
X392050Y232410D03*
X348870Y201930D03*
X364870Y201930D03*
X392050Y156210D03*
X408050Y156210D03*
X348870Y186690D03*
X364870Y186690D03*
X408050Y186690D03*
X392050Y186690D03*
D13*
X349450Y257150D03*
X349450Y247650D03*
X349450Y238150D03*
X374450Y238150D03*
X374450Y247650D03*
X374450Y257150D03*
D14*
X330950Y314960D03*
X392950Y314960D03*
D15*
X387380Y68950D03*
X359380Y68950D03*
X359380Y83450D03*
X387380Y83450D03*
D16*
X90020Y144790D03*
X110020Y144790D03*
X130020Y144790D03*
X150020Y144790D03*
X170020Y144790D03*
X190020Y144790D03*
X210020Y144790D03*
X230020Y144790D03*
X230020Y304790D03*
X210020Y304790D03*
X190020Y304790D03*
X170020Y304790D03*
X150020Y304790D03*
X130020Y304790D03*
X110020Y304790D03*
X90020Y304790D03*
D17*
X309270Y149520D03*
X328270Y149520D03*
X318770Y170520D03*
X347370Y149520D03*
X366370Y149520D03*
X356870Y170520D03*
D11*
X286130Y151130D03*
X270130Y151130D03*
X270130Y295910D03*
X286130Y295910D03*
X270130Y311150D03*
X286130Y311150D03*
X270130Y280670D03*
X286130Y280670D03*
X326770Y132080D03*
X310770Y132080D03*
X408050Y140970D03*
X392050Y140970D03*
X364870Y132080D03*
X348870Y132080D03*
X392050Y171450D03*
X408050Y171450D03*
X348870Y217170D03*
X364870Y217170D03*
X408050Y217170D03*
X392050Y217170D03*
X392050Y201930D03*
X408050Y201930D03*
X286130Y135890D03*
X270130Y135890D03*
X286130Y120650D03*
X270130Y120650D03*
X286130Y74930D03*
X270130Y74930D03*
X286130Y90170D03*
X270130Y90170D03*
X286130Y105410D03*
X270130Y105410D03*
X270130Y326390D03*
X286130Y326390D03*
X270130Y341630D03*
X286130Y341630D03*
X286130Y356870D03*
X270130Y356870D03*
D18*
X434340Y337820D03*
X434340Y134620D03*
D19*
X260900Y193790D03*
X260900Y255790D03*
X297900Y193790D03*
X297900Y255790D03*
D20*
X114300Y361790D03*
X114300Y87790D03*
X114300Y429290D03*
X114300Y20290D03*
X224790Y361790D03*
X224790Y87790D03*
X224790Y429290D03*
X224790Y20290D03*
X335280Y361790D03*
X335280Y87790D03*
X335280Y429290D03*
X335280Y20290D03*
D18*
X39370Y438150D03*
X39370Y412750D03*
X39370Y387350D03*
X13970Y438150D03*
X13970Y412750D03*
X13970Y387350D03*
D11*
X317120Y201930D03*
X333120Y201930D03*
D21*
X0Y59690D02*
X59690Y59690D01*
X59690Y0D01*
X449580Y0D01*
X449580Y389890D01*
X389890Y389890D01*
X389890Y449580D01*
X0Y449580D01*
X0Y59690D01*
X433070Y99786D02*
X432992Y98700D01*
X432837Y97622D01*
X432606Y96559D01*
X432299Y95514D01*
X431919Y94494D01*
X431467Y93504D01*
X430945Y92549D01*
X430356Y91633D01*
X429704Y90761D01*
X428991Y89939D01*
X428221Y89169D01*
X427399Y88456D01*
X426527Y87804D01*
X425611Y87215D01*
X424656Y86693D01*
X423666Y86241D01*
X422646Y85861D01*
X421601Y85554D01*
X420538Y85323D01*
X419460Y85168D01*
X418374Y85090D01*
X417286Y85090D01*
X416200Y85168D01*
X415122Y85323D01*
X414059Y85554D01*
X413014Y85861D01*
X411994Y86241D01*
X411004Y86693D01*
X410049Y87215D01*
X409133Y87804D01*
X408261Y88456D01*
X407439Y89169D01*
X406669Y89939D01*
X405956Y90761D01*
X405304Y91633D01*
X404715Y92549D01*
X404193Y93504D01*
X403741Y94494D01*
X403361Y95514D01*
X403054Y96559D01*
X402823Y97622D01*
X402668Y98700D01*
X402590Y99786D01*
X402590Y100874D01*
X402668Y101960D01*
X402823Y103038D01*
X403054Y104101D01*
X403361Y105146D01*
X403741Y106166D01*
X404193Y107156D01*
X404715Y108111D01*
X405304Y109027D01*
X405956Y109899D01*
X406669Y110721D01*
X407439Y111491D01*
X408261Y112204D01*
X409133Y112856D01*
X410049Y113445D01*
X411004Y113967D01*
X411994Y114419D01*
X413014Y114799D01*
X414059Y115106D01*
X415122Y115337D01*
X416200Y115492D01*
X417286Y115570D01*
X418374Y115570D01*
X419460Y115492D01*
X420538Y115337D01*
X421601Y115106D01*
X422646Y114799D01*
X423666Y114419D01*
X424656Y113967D01*
X425611Y113445D01*
X426527Y112856D01*
X427399Y112204D01*
X428221Y111491D01*
X428991Y110721D01*
X429704Y109899D01*
X430356Y109027D01*
X430945Y108111D01*
X431467Y107156D01*
X431919Y106166D01*
X432299Y105146D01*
X432606Y104101D01*
X432837Y103038D01*
X432992Y101960D01*
X433070Y100874D01*
X433070Y99786D01*
X48260Y349976D02*
X48182Y348890D01*
X48027Y347812D01*
X47796Y346749D01*
X47489Y345704D01*
X47109Y344684D01*
X46657Y343694D01*
X46135Y342739D01*
X45546Y341823D01*
X44894Y340951D01*
X44181Y340129D01*
X43411Y339359D01*
X42589Y338646D01*
X41717Y337994D01*
X40801Y337405D01*
X39846Y336883D01*
X38856Y336431D01*
X37836Y336051D01*
X36791Y335744D01*
X35728Y335513D01*
X34650Y335358D01*
X33564Y335280D01*
X32476Y335280D01*
X31390Y335358D01*
X30312Y335513D01*
X29249Y335744D01*
X28204Y336051D01*
X27184Y336431D01*
X26194Y336883D01*
X25239Y337405D01*
X24323Y337994D01*
X23451Y338646D01*
X22629Y339359D01*
X21859Y340129D01*
X21146Y340951D01*
X20494Y341823D01*
X19905Y342739D01*
X19383Y343694D01*
X18931Y344684D01*
X18551Y345704D01*
X18244Y346749D01*
X18013Y347812D01*
X17858Y348890D01*
X17780Y349976D01*
X17780Y351064D01*
X17858Y352150D01*
X18013Y353228D01*
X18244Y354291D01*
X18551Y355336D01*
X18931Y356356D01*
X19383Y357346D01*
X19905Y358301D01*
X20494Y359217D01*
X21146Y360089D01*
X21859Y360911D01*
X22629Y361681D01*
X23451Y362394D01*
X24323Y363046D01*
X25239Y363635D01*
X26194Y364157D01*
X27184Y364609D01*
X28204Y364989D01*
X29249Y365296D01*
X30312Y365527D01*
X31390Y365682D01*
X32476Y365760D01*
X33564Y365760D01*
X34650Y365682D01*
X35728Y365527D01*
X36791Y365296D01*
X37836Y364989D01*
X38856Y364609D01*
X39846Y364157D01*
X40801Y363635D01*
X41717Y363046D01*
X42589Y362394D01*
X43411Y361681D01*
X44181Y360911D01*
X44894Y360089D01*
X45546Y359217D01*
X46135Y358301D01*
X46657Y357346D01*
X47109Y356356D01*
X47489Y355336D01*
X47796Y354291D01*
X48027Y353228D01*
X48182Y352150D01*
X48260Y351064D01*
X48260Y349976D01*
M02*
