M48
;GenerationSoftware,Autodesk,EAGLE,9.3.0*%
;CreationDate,2019-10-03T15:52:22Z*%
FMAT,2
ICI,OFF
METRIC,TZ,000.000
T6C0.400
T5C0.450
T4C1.100
T3C1.500
T2C1.600
T1C3.556
%
G90
M71
T1
X3175Y9017
X64643Y52705
X3175Y52705
X64643Y9017
T2
X31369Y60198
X33909Y57658
X36449Y60198
X36449Y55118
X31369Y55118
T3
X9887Y52925
X17037Y52925
T4
X57404Y10033
X11303Y60071
X8763Y57531
X8763Y60071
X13843Y57531
X13843Y60071
X11303Y57531
X18923Y57531
X16383Y57531
X26543Y60071
X26543Y57531
X24003Y57531
X21463Y57531
X24003Y60071
X21463Y60071
X18923Y60071
X16383Y60071
X12954Y7493
X10414Y4953
X7239Y34925
X10414Y10033
X10414Y7493
X57404Y60071
X57404Y54991
X57404Y57531
X60579Y34925
X42799Y10795
X59944Y10033
X59944Y7493
X57404Y7493
X54864Y4953
X54864Y10033
X54864Y7493
X47879Y10795
X45339Y10795
X40259Y10795
X37719Y10795
X35179Y10795
X47879Y15875
X45339Y15875
X42799Y15875
X40259Y15875
X37719Y15875
X35179Y15875
X32639Y10795
X30099Y10795
X27559Y10795
X25019Y10795
X22479Y10795
X19939Y10795
X32639Y15875
X30099Y15875
X27559Y15875
X25019Y15875
X22479Y15875
X19939Y15875
X12954Y4953
X12954Y10033
T5
X13462Y52705
X12162Y52705
X14112Y53705
X14762Y52705
X12812Y53705
T6
X19558Y54610
X57785Y43180
X57785Y37592
X5334Y18415
X7112Y18415
X12573Y18415
X14351Y18415
X14732Y13589
X14224Y21209
X17907Y18415
X20193Y18415
X10541Y33147
X26035Y19939
X52451Y32385
X52451Y35433
X3810Y31877
X9525Y33147
X26035Y20955
X51435Y32385
X51435Y34798
X3810Y32893
X54610Y18542
X54864Y15113
X57023Y19177
X58928Y15113
X56007Y19177
X54864Y13081
X9017Y47625
X7366Y47625
X8509Y33147
X26035Y21971
X50419Y32385
X50419Y34290
X3810Y33909
X11811Y43561
X12827Y48006
X8255Y36576
X8636Y40767
X4699Y35814
X16764Y10033
X13208Y21209
X18161Y43561
X19685Y46736
X16129Y43561
X22098Y30861
X17145Y43561
X23114Y30861
X39878Y18161
X38100Y18161
X50927Y7493
X47371Y8001
X43688Y8001
X21844Y41529
X24130Y30861
X22225Y51181
X45974Y44196
X40005Y54864
X23876Y41529
X25019Y39497
X27178Y33274
X27178Y39624
X22860Y41529
X25146Y30861
X42164Y24130
X46228Y25019
X50927Y27051
X22225Y50165
X15748Y48006
X45974Y43180
X41529Y54864
X43688Y54610
X16002Y50800
X19050Y50800
X22225Y52197
X10033Y49784
X7747Y48768
X3175Y48768
X47371Y45212
X25019Y55118
X36195Y6985
X52705Y10668
X44069Y11938
X60960Y19177
X62484Y19177
X66040Y18288
X59055Y19177
X61214Y15113
X14097Y43561
X20955Y29591
X26035Y22987
X22479Y22098
X15748Y31242
X19431Y22733
X16764Y31242
X19431Y23876
X57785Y42164
X57785Y41148
X50927Y45212
X50419Y26035
X57785Y38735
X35433Y13843
X44069Y17399
X57785Y40132
X15113Y43561
X21082Y30861
X33655Y17018
X45720Y20320
X51435Y30226
X49403Y33909
X54483Y47498
X56261Y47498
X64135Y34925
X66040Y20193
X51689Y18542
X9652Y40767
X11049Y49784
X65278Y13208
X58928Y13081
X60579Y13081
X50927Y4318
X18415Y32512
X20574Y25146
X17653Y31750
X19431Y25146
X20320Y13462
X9017Y16510
X16256Y16510
X21336Y13462
X6985Y13589
X1778Y15240
X12192Y31242
X8763Y30353
X12192Y24384
X17145Y24384
X10287Y24384
X7239Y30353
X7493Y27813
X12954Y42418
X19177Y43561
X9271Y37846
X20193Y34036
X28067Y46355
X32004Y49784
X35687Y49784
X37465Y49784
X39243Y49784
X41021Y49784
X45085Y46355
X45085Y33782
X32131Y24892
X25908Y29337
X4699Y37719
X38608Y24130
X20320Y7239
X7112Y45212
X24257Y4064
X48006Y4318
X49022Y4318
X24511Y9017
X47244Y41529
X55626Y23241
X59309Y23241
X63500Y23241
X66167Y30988
X65786Y27051
X57912Y27051
X55499Y30226
X28956Y8636
X14351Y48006
X20193Y37846
X33528Y3048
X34036Y9017
X51435Y42164
X51435Y41148
X50927Y38100
X52578Y37338
X53848Y46482
X14986Y37338
X26289Y4064
X54610Y41656
X64135Y19177
X58039Y19177
X22225Y49149
X1778Y13335
X8890Y12827
X15875Y13589
X9398Y18415
X2286Y18415
X14732Y51181
X40132Y8001
X32258Y8001
X46228Y9271
X10287Y30353
X12192Y23368
X20193Y35052
X10795Y42545
X53213Y23241
X57531Y23241
X61087Y23241
X65405Y23241
X61849Y30734
X54229Y30226
X50165Y22225
X28829Y14351
M30